<?xml version="1.0" encoding="UTF-8" standalone="no"?><!DOCTYPE svg PUBLIC "-//W3C//DTD SVG 1.1//EN" "http://www.w3.org/Graphics/SVG/1.1/DTD/svg11.dtd"><svg width="100%" height="100%" viewBox="0 0 46 46" version="1.1" xmlns="http://www.w3.org/2000/svg" xmlns:xlink="http://www.w3.org/1999/xlink" xml:space="preserve" xmlns:serif="http://www.serif.com/" style="fill-rule:evenodd;clip-rule:evenodd;stroke-linejoin:round;stroke-miterlimit:2;"><ellipse cx="22.737" cy="22.781" rx="22.737" ry="22.781" style="fill:#202c39;"/><path d="M23.067,3.539c0.061,-0.466 0.84,-1.132 0.842,-1.133l2.397,0c0.717,0 1.308,0.58 1.308,1.311c0,0.348 -0.138,0.685 -0.382,0.929c0,0 -1.007,2.392 -2.367,3.036c-0.302,0.142 -0.965,-0.185 -1.574,-0.486c-0.492,-0.242 -0.948,-0.467 -1.151,-0.414c-0.257,0.067 -0.169,0.425 -0.075,0.809c0.072,0.292 0.148,0.599 0.075,0.802c-0.166,0.468 -0.593,0.873 -0.999,1.199c-0.585,0.472 -2.513,1.628 -2.513,1.628c-0.383,0.128 -1.436,0.314 -1.436,0.72c0,0.234 0.112,0.441 0.24,0.676c0.291,0.534 0.659,1.211 -0.038,2.675l-3.422,1.101c-0.348,0.349 -0.545,0.824 -0.545,1.312l0,2.946c0,1.022 0.834,1.857 1.853,1.857l2.56,0c0.706,0 1.343,-0.394 1.656,-1.021l1.088,-2.17c0.163,-0.313 1.41,-0.777 1.769,-0.777l0.359,0c0.51,0 0.767,0.409 1.063,0.825c0.29,0.408 0.566,0.489 1.076,0.489c0,0 1.841,2.546 2.393,2.998c0.248,0.203 0.917,-0.292 0.917,-0.292c0.314,0 -0.068,-0.977 -0.408,-1.848c-0.213,-0.545 -0.409,-1.048 -0.409,-1.245l0,-0.255c0,-0.394 0.255,-0.754 0.637,-0.882l3.941,-2.487c0.753,-0.255 1.263,-0.963 1.263,-1.763l0,-0.523c0,-1.02 0.834,-1.856 1.853,-1.856l4.249,0c0.719,0 1.309,0.592 1.309,1.311l0,1.091c0,0.72 -0.59,1.311 -1.309,1.311l-3.705,0c-0.348,0 -0.684,0.139 -0.927,0.383l-1.088,1.091c-0.244,0.243 -0.382,0.58 -0.382,0.928c0,0.719 0.59,1.311 1.308,1.311l1.853,0c0.348,0 0.683,0.139 0.927,0.383l1.088,1.091c0.243,0.243 0.383,0.58 0.383,0.928l0,1.01l-1.448,1.45c-0.533,0.534 -0.533,1.392 -0.012,1.938l3.695,3.782c0.347,0.36 0.822,0.558 1.32,0.558l1.919,0c0.815,-2.345 1.258,-4.863 1.258,-7.485c0,-12.573 -10.188,-22.781 -22.737,-22.781c-0.404,0 -0.805,0.011 -1.203,0.032l-1.804,1.372c-0.232,0.174 -0.371,0.452 -0.371,0.743l0,2.32c0,0.511 0.491,0.706 0.865,0.869c0.493,0.214 2.094,0.42 2.094,0.42c0.094,0 0.194,0.004 0.295,0.009c0.444,0.024 0.901,0.047 0.901,-0.369c0,0 -0.514,-1.359 -0.449,-1.857Zm-9.91,7.643l1.853,0c0.347,0 0.683,-0.14 0.926,-0.383l1.089,-1.091c0.243,-0.244 0.382,-0.581 0.382,-0.929l0,-1.856c0,-0.719 -0.591,-1.311 -1.308,-1.311c-0.348,0 -0.683,0.139 -0.927,0.383l-2.942,2.947c-0.243,0.244 -0.381,0.581 -0.381,0.929c0,0.719 0.59,1.311 1.308,1.311Zm9.492,8.518c0.141,-0.16 0.388,-0.176 0.549,-0.035c0.077,0.068 0.124,0.166 0.131,0.268l0.079,1.235c0.007,0.103 -0.028,0.205 -0.096,0.283c-0.141,0.16 -0.388,0.176 -0.549,0.035l-0.413,-0.365c-0.078,-0.068 -0.125,-0.165 -0.132,-0.267l-0.029,-0.457c-0.007,-0.102 0.028,-0.205 0.096,-0.282l0.364,-0.415Zm1.271,25.832c7.996,-0.411 14.905,-4.968 18.627,-11.565l-1.082,0c-0.556,0 -1.101,-0.221 -1.494,-0.615l-2.004,-2.007c-0.694,-0.697 -1.632,-1.092 -2.617,-1.092l-2.119,0l-5.003,-4.304c-0.95,-0.824 -2.165,-1.265 -3.428,-1.265l-3.613,0c-0.95,0 -1.888,0.256 -2.71,0.754l-4.968,2.982c-1.587,0.951 -2.56,2.669 -2.56,4.526l0,2.773c0,1.659 0.777,3.225 2.109,4.224l2.57,1.937c0.996,0.754 2.849,1.369 4.099,1.369l2.34,0c1.019,0 1.853,0.836 1.853,1.857l0,0.426Z" style="fill:#b8b08d;"/></svg>