<svg width="100%" height="100%" viewBox="0 0 384 257" version="1.1" xmlns="http://www.w3.org/2000/svg"
                xmlns:xlink="http://www.w3.org/1999/xlink" xml:space="preserve"
                style="fill-rule:evenodd;clip-rule:evenodd;stroke-linejoin:round;stroke-miterlimit:2;">
                <rect x="0" y="0.002" width="384" height="256.003" style="fill:#f0f0f0;" />
                <path d="M216,0l-48,0l0,104l-168,0l0,47.999l168,0l0,104l48,0l0,-104l168,0l0,-47.999l-168,0l0,-104Z"
                    style="fill:#d80027;fill-rule:nonzero;" />
                <path d="M295.339,172.521l88.661,49.257l0,-49.257l-88.661,0Z" style="fill:#0052b4;fill-rule:nonzero;" />
                <path d="M233.739,172.521l150.261,83.478l0,-23.606l-107.77,-59.872l-42.491,0Z"
                    style="fill:#0052b4;fill-rule:nonzero;" />
                <path d="M343.976,255.999l-110.237,-61.248l0,61.248l110.237,0Z"
                    style="fill:#0052b4;fill-rule:nonzero;" />
                <path d="M233.739,172.521l150.261,83.478l0,-23.606l-107.77,-59.872l-42.491,0Z"
                    style="fill:#f0f0f0;fill-rule:nonzero;" />
                <path d="M233.739,172.521l150.261,83.478l0,-23.606l-107.77,-59.872l-42.491,0Z"
                    style="fill:#d80027;fill-rule:nonzero;" />
                <path d="M67.756,172.52l-67.756,37.642l0,-37.643l67.756,0Z" style="fill:#0052b4;fill-rule:nonzero;" />
                <path d="M150.261,183.135l0,72.863l-131.143,0l131.143,-72.863Z"
                    style="fill:#0052b4;fill-rule:nonzero;" />
                <path d="M107.77,172.521l-107.77,59.872l0,23.606l150.261,-83.478l-42.491,0Z"
                    style="fill:#d80027;fill-rule:nonzero;" />
                <path d="M88.661,83.478l-88.661,-49.257l0,49.257l88.661,0Z" style="fill:#0052b4;fill-rule:nonzero;" />
                <path d="M150.261,83.478l-150.261,-83.478l0,23.606l107.77,59.872l42.491,0Z"
                    style="fill:#0052b4;fill-rule:nonzero;" />
                <path d="M40.025,0l110.236,61.248l0,-61.248l-110.236,0Z" style="fill:#0052b4;fill-rule:nonzero;" />
                <path d="M150.261,83.478l-150.261,-83.478l0,23.606l107.77,59.872l42.491,0Z"
                    style="fill:#f0f0f0;fill-rule:nonzero;" />
                <path d="M150.261,83.478l-150.261,-83.478l0,23.606l107.77,59.872l42.491,0Z"
                    style="fill:#d80027;fill-rule:nonzero;" />
                <path d="M316.244,83.48l67.756,-37.643l0,37.643l-67.756,-0.001Z"
                    style="fill:#0052b4;fill-rule:nonzero;" />
                <path d="M233.739,72.864l0,-72.863l131.143,0l-131.143,72.863Z"
                    style="fill:#0052b4;fill-rule:nonzero;" />
                <path d="M276.23,83.478l107.77,-59.873l0,-23.605l-150.261,83.478l42.491,0Z"
                    style="fill:#d80027;fill-rule:nonzero;" /></svg>