<?xml version="1.0" encoding="UTF-8" standalone="no"?><!DOCTYPE svg PUBLIC "-//W3C//DTD SVG 1.1//EN" "http://www.w3.org/Graphics/SVG/1.1/DTD/svg11.dtd"><svg width="100%" height="100%" viewBox="0 0 24 24" version="1.1" xmlns="http://www.w3.org/2000/svg" xmlns:xlink="http://www.w3.org/1999/xlink" xml:space="preserve" xmlns:serif="http://www.serif.com/" style="fill-rule:evenodd;clip-rule:evenodd;stroke-linejoin:round;stroke-miterlimit:2;"><path d="M23,3.878l-18.333,0c-0.869,0 -1.61,0.566 -1.886,1.354l-1.781,0c-0.552,0 -1,0.454 -1,1.015l0,11.506c0,1.308 1.045,2.369 2.333,2.369l20.667,0c0.552,0 1,-0.455 1,-1.015l0,-14.214c0,-0.56 -0.448,-1.015 -1,-1.015Zm-18.357,14.213l17.357,0l0,-12.182l-17.333,0l0,11.844c0,0.115 -0.009,0.228 -0.024,0.338Zm-2.643,-0.338l0,-10.491l0.667,0l0,10.491c0,0.187 -0.15,0.338 -0.334,0.338c-0.183,0 -0.333,-0.151 -0.333,-0.338Zm5.167,-4.738l5.666,0c0.276,0 0.5,-0.227 0.5,-0.507l0,-4.061c0,-0.281 -0.224,-0.508 -0.5,-0.508l-5.666,0c-0.276,0 -0.5,0.227 -0.5,0.508l0,4.061c0,0.28 0.224,0.507 0.5,0.507Zm8,-3.045l4.333,0c0.276,0 0.5,-0.228 0.5,-0.508l0,-1.015c0,-0.281 -0.224,-0.508 -0.5,-0.508l-4.333,0c-0.276,0 -0.5,0.227 -0.5,0.508l0,1.015c0,0.28 0.224,0.508 0.5,0.508Zm-3.5,-0.339l-3.334,0l0,1.692l3.334,0l0,-1.692Zm7.833,3.384l-4.333,0c-0.276,0 -0.5,-0.227 -0.5,-0.507l0,-1.016c0,-0.28 0.224,-0.507 0.5,-0.507l4.333,0c0.276,0 0.5,0.227 0.5,0.507l0,1.016c0,0.28 -0.224,0.507 -0.5,0.507Zm-12.333,3.046l5.666,0c0.276,0 0.5,-0.227 0.5,-0.508l0,-1.015c0,-0.28 -0.224,-0.508 -0.5,-0.508l-5.666,0c-0.276,0 -0.5,0.228 -0.5,0.508l0,1.015c0,0.281 0.224,0.508 0.5,0.508Zm12.333,0l-4.333,0c-0.276,0 -0.5,-0.227 -0.5,-0.508l0,-1.015c0,-0.28 0.224,-0.508 0.5,-0.508l4.333,0c0.276,0 0.5,0.228 0.5,0.508l0,1.015c0,0.281 -0.224,0.508 -0.5,0.508Z" style="fill:#a2a2a2;"/></svg>