<?xml version="1.0" encoding="UTF-8" standalone="no"?><!DOCTYPE svg PUBLIC "-//W3C//DTD SVG 1.1//EN" "http://www.w3.org/Graphics/SVG/1.1/DTD/svg11.dtd"><svg width="100%" height="100%" viewBox="0 0 24 24" version="1.1" xmlns="http://www.w3.org/2000/svg" xmlns:xlink="http://www.w3.org/1999/xlink" xml:space="preserve" xmlns:serif="http://www.serif.com/" style="fill-rule:evenodd;clip-rule:evenodd;stroke-linejoin:round;stroke-miterlimit:2;"><path d="M2.667,12.891l-0.662,0.59c-0.388,0.352 -0.825,0.08 -0.941,-0.05l-0.892,-1.001c-0.349,-0.392 -0.08,-0.834 0.05,-0.951l10.666,-9.507c0.262,-0.24 0.761,-0.434 1.112,-0.434c0.351,0 0.852,0.194 1.113,0.434l10.666,9.506c0.129,0.117 0.397,0.558 0.05,0.95c0,0 -0.892,1.002 -0.892,1.002c-0.075,0.084 -0.519,0.43 -0.941,0.051l-0.663,-0.59l0,8.224c0,0.744 -0.597,1.347 -1.333,1.347l-16,0c-0.736,0 -1.333,-0.603 -1.333,-1.347l0,-8.224Zm11.109,-2.545l-3.553,0c-0.491,0.002 -0.888,0.402 -0.89,0.897l0,3.59c0.002,0.495 0.399,0.896 0.89,0.898l3.553,0c0.491,-0.001 0.889,-0.402 0.891,-0.898l0,-3.59c-0.002,-0.495 -0.4,-0.896 -0.891,-0.897Z" style="fill:#f29559;"/></svg>