<?xml version="1.0" encoding="UTF-8" standalone="no"?><!DOCTYPE svg PUBLIC "-//W3C//DTD SVG 1.1//EN" "http://www.w3.org/Graphics/SVG/1.1/DTD/svg11.dtd"><svg width="100%" height="100%" viewBox="0 0 479 377" version="1.1" xmlns="http://www.w3.org/2000/svg" xmlns:xlink="http://www.w3.org/1999/xlink" xml:space="preserve" xmlns:serif="http://www.serif.com/" style="fill-rule:evenodd;clip-rule:evenodd;stroke-linejoin:round;stroke-miterlimit:2;"><path d="M463.119,67.496c-0.3,-0.218 -1.012,-0.296 -1.343,-0.361c-1.376,-0.272 -2.795,-0.389 -4.198,-0.389c-4.327,0.006 -8.725,0.431 -12.981,1.166c-2.701,0.467 -5.968,2.038 -8.656,1.184c-4.682,-1.486 -9.414,-1.413 -13.857,0.709c-4.062,1.94 -7.145,5.625 -8.944,9.606c-0.272,0.601 -1.373,2.814 -1.685,4.305c-0.133,0.305 -0.261,0.612 -0.377,0.923c-0.328,0.885 -0.622,1.785 -0.895,2.687c-0.116,0.385 -0.409,1.235 -0.061,1.399c-0.557,1.027 -1.05,2.086 -1.461,3.179c-1.196,3.179 -2.502,6.666 -2.922,10.036c-0.156,1.247 -0.162,2.502 -0.017,3.752c0.071,0.618 0.042,1.861 0.46,2.331c0.89,0.996 1.346,-0.399 1.246,-1.064c-0.766,-5.066 0.712,-9.823 2.464,-14.585c1.132,-3.08 2.993,-5.897 5.077,-8.448c1.688,-2.066 3.497,-3.692 5.81,-5.061c2.828,-1.674 5.851,-3.028 8.847,-4.385c1.97,-0.894 3.942,-1.764 5.967,-2.533c0.451,-0.172 1.16,-0.611 1.659,-0.612c1.056,-0.004 2.553,0.775 3.572,1.065c3.355,0.954 6.753,2.175 10.22,2.662c2.224,0.312 4.307,-0.039 6.387,-0.78c0.213,-0.075 0.569,-0.27 1.006,-0.548c1.543,-0.594 3.004,-1.342 4.276,-2.42c0.733,-0.622 1.398,-1.424 2.004,-2.159c0.182,-0.22 0.262,-0.472 0.265,-0.711c0.137,-0.072 0.228,-0.156 0.249,-0.255c0.151,-0.723 -1.228,-0.736 -2.112,-0.693" style="fill:#89c5cc;"/><path d="M32.721,135.99c-0.849,0.688 -1.681,1.39 -2.494,2.12c-0.618,0.557 -1.714,1.224 -1.937,2.067c-0.231,0.877 0.499,1.697 1.075,2.228c3.047,2.803 6.478,4.698 10.7,5.013c6.502,0.486 12.16,-1.174 17.801,-4.441c3.962,-2.294 6.586,-5.689 7.159,-10.272c4.719,1.961 9.283,4.664 13.161,7.981c1.914,1.638 3.562,3.451 5.087,5.462c0.976,1.288 1.92,2.596 2.797,3.955c0.381,0.591 0.768,1.638 1.397,1.977c0.738,0.4 1.631,-0.226 1.595,-1.047c-0.031,-0.684 -0.769,-1.476 -1.114,-2.034c-0.573,-0.928 -1.154,-1.85 -1.767,-2.752c-0.991,-1.46 -2.015,-2.9 -3.133,-4.267c-2.51,-3.071 -5.705,-5.608 -9.016,-7.771c-6.353,-4.15 -13.325,-6.765 -21.055,-6.986c-4.753,-0.136 -8.752,1.487 -12.817,3.913c-2.53,1.51 -5.142,2.994 -7.439,4.854" style="fill:#dde3e9;"/><path d="M91.166,106.841c-4.953,-5.101 -9.924,-10.138 -15.457,-14.63c-3.262,-2.647 -6.699,-5.054 -10.065,-7.563c0.388,0.34 0.769,0.69 1.141,1.049c-1.05,-0.714 -2.426,-1.117 -3.54,-1.777c-1.242,-0.736 -2.43,-1.578 -3.595,-2.427c-2.275,-1.658 -4.514,-3.346 -6.852,-4.917c-2.605,-1.75 -5.303,-3.366 -7.952,-5.05c-2.248,-1.43 -4.524,-2.993 -6.929,-4.162c-1.311,-0.637 -2.624,-1.391 -3.94,-2.056c-0.441,-0.222 -4.911,-3.044 -4.899,-3.052c0.247,-0.187 2.496,0.871 2.844,1.012c1.016,0.415 1.988,0.912 2.964,1.407c-0.536,-1.058 -0.96,-2.169 -1.191,-3.339c-0.072,-0.36 -0.643,-2.989 -0.351,-3.209c0.147,-0.11 1.572,4.592 1.645,5.044c0.059,0.367 0.051,0.896 0.171,1.243c0.194,0.562 0.185,0.393 0.612,0.709c0.783,0.58 1.823,0.942 2.672,1.427c0.457,0.255 1.873,1.267 2.726,1.556c2.58,1.253 5.196,3.181 7.648,4.783c-0.644,-1.21 -1.134,-2.475 -1.491,-3.8c-0.084,-0.314 -1.001,-3.136 -0.779,-3.304c0.251,-0.189 1.997,4.122 2.1,4.53c0.192,0.758 0.232,1.602 0.473,2.339c0.264,0.81 1.088,1.096 1.83,1.568c2.733,1.736 5.371,3.581 7.965,5.511c2.831,-5.035 -0.433,-11.115 -3.184,-15.339c-1.982,-3.045 -4.652,-5.656 -7.471,-7.934c-3.762,-3.041 -8.065,-5.471 -12.364,-7.694c-5.009,-2.588 -10.422,-4.193 -16.05,-4.935c-2.944,-0.387 -5.955,-0.376 -8.928,-0.251c-1.453,0.06 -2.847,0.252 -4.239,0.726c-0.627,0.214 -1.233,0.483 -1.824,0.785c-0.45,0.229 -1.536,0.471 -1.794,0.812c-2.124,2.766 -3.211,5.522 -3.045,8.996c0.156,3.291 1.196,6.582 2.606,9.516c1.57,3.267 3.589,6.233 6.23,8.722c2.015,1.899 4.268,3.551 6.506,5.183c7.96,5.801 18.052,10.846 28.362,9.55c3.337,-0.42 6.511,-1.587 9.477,-3.172c0.699,-0.375 1.394,-0.753 2.054,-1.194c0.445,-0.297 1.634,-1.638 2.081,-1.686c0.614,-0.067 1.935,1.181 2.51,1.56c4.373,2.887 8.631,5.93 12.8,9.096c4.435,3.368 8.653,6.966 12.747,10.732c1.741,1.602 3.472,3.208 5.162,4.864c0.393,0.385 1.356,1.804 2.069,1.868c0.452,0.041 0.756,-0.344 0.692,-0.762c-0.112,-0.726 -1.64,-1.813 -2.147,-2.335" style="fill:#c1dee2;"/><path d="M457.621,93.534c-1.919,-0.419 -4.037,-0.387 -5.992,-0.353c-10.481,0.143 -20.773,5.106 -27.472,13.035c-5.703,6.75 -7.271,15.142 -8.397,23.626c-0.112,0.842 -0.16,1.679 -0.223,2.523c-0.014,0.182 -0.034,0.343 -0.056,0.495c-0.442,0.396 -0.675,0.858 -0.413,1.365c-0.976,2.136 -1.801,4.326 -2.509,6.585c-2.086,6.649 -4.207,13.424 -2.9,20.415c0.305,-3.847 0.947,-7.781 1.715,-11.566c0.044,-0.217 0.092,-0.432 0.141,-0.647c0.006,-0.022 0.01,-0.046 0.015,-0.068c0.273,-1.159 0.626,-2.283 1.056,-3.389c0.004,-0.012 0.009,-0.024 0.013,-0.036c0.056,-0.146 0.117,-0.291 0.176,-0.435c0.123,-0.3 0.25,-0.6 0.384,-0.897c0.045,-0.102 0.089,-0.204 0.131,-0.307c0.625,-1.534 0.889,-3.261 1.45,-4.848c0.134,-0.361 0.274,-0.72 0.421,-1.078c0.009,-0.021 0.017,-0.041 0.026,-0.062c0.397,-0.962 0.836,-1.913 1.299,-2.853c0.252,-0.189 0.387,-0.659 0.605,-1.086c0.045,-0.084 0.396,-0.646 0.501,-0.969c0.273,-0.528 0.544,-1.057 0.82,-1.584l-0.025,0.01c0.275,-0.507 0.551,-1.011 0.825,-1.513c0.061,-0.11 0.121,-0.221 0.182,-0.331c0.098,-0.177 0.197,-0.353 0.295,-0.529c0.918,-1.642 1.891,-3.252 2.902,-4.842c0.361,-0.568 1.223,-1.382 1.388,-2.019c0.007,-0.023 0.007,-0.046 0.011,-0.069c2.194,-3.081 4.72,-5.922 7.748,-8.174c-0.366,0.395 -1.144,1.739 -1.35,2.004c-0.63,0.815 -1.313,1.572 -1.999,2.34c-1.229,1.373 -2.429,2.791 -3.494,4.29c-1.95,2.742 -3.631,5.627 -5.221,8.57c-0.015,0.018 -0.032,0.034 -0.046,0.052c-0.799,0.984 -1.302,2.473 -1.877,3.6c2.276,-1.054 4.793,-1.741 7.129,-2.677c2.33,-0.933 4.596,-1.973 6.783,-3.193c2.908,-1.622 5.925,-3.453 8.672,-5.525c3.148,-1.954 5.794,-4.642 8.13,-7.463c2.763,-3.337 5.296,-6.704 6.862,-10.757c0.768,-1.991 1.374,-4.068 1.733,-6.169c0.016,-0.091 0.035,-0.19 0.057,-0.294c0.367,-0.725 0.696,-1.467 0.971,-2.226c0.437,-1.203 1.47,-2.528 -0.467,-2.951" style="fill:#69a1ac;"/><path d="M63.317,114.93c-0.498,0.16 -1.098,-0.472 -0.451,-0.628c0.523,-0.125 0.498,-0.154 0.733,-0.576c0.19,-0.342 0.308,-0.76 0.475,-1.119c0.356,-0.761 0.758,-1.488 1.253,-2.168c1.059,-1.459 2.35,-2.716 3.798,-3.776c2.526,-1.849 5.36,-3.539 8.365,-4.388c4.778,-1.35 10.217,-1.433 15.003,-0.497c2.964,0.58 5.673,1.587 7.641,3.974c0.984,1.193 1.757,2.59 2.094,4.128c0.088,0.402 0.071,0.85 0.182,1.244c0.169,0.605 0.094,0.444 0.803,0.561c0.772,0.129 1.545,0.26 2.317,0.393c2.022,0.351 4.056,0.722 6.027,1.29c0.648,0.186 1.282,0.414 1.902,0.68c0.468,0.2 2.334,0.829 2.561,1.438c0.378,1.013 -0.887,0.554 -1.28,0.333c-0.344,-0.193 -0.697,-0.373 -1.056,-0.54c-0.903,-0.417 -1.843,-0.74 -2.805,-0.997c-1.039,-0.278 -2.1,-0.486 -3.156,-0.694c-0.986,-0.193 -1.974,-0.37 -2.965,-0.538c-0.55,-0.093 -1.1,-0.185 -1.651,-0.276c-0.188,-0.03 -0.52,-0.193 -0.495,0.051c-1.157,-0.223 -2.409,-0.191 -3.588,-0.252c-1.444,-0.075 -2.894,-0.138 -4.343,-0.093c-1.045,0.033 -2.091,0.102 -3.131,0.243c-0.607,0.081 -1.205,0.201 -1.801,0.354c-0.327,0.083 -1.619,0.26 -1.797,0.546c0.076,-0.123 1.501,-0.004 1.683,-0.011c0.725,-0.028 1.445,-0.099 2.168,-0.18c1.341,-0.15 2.683,-0.228 4.028,-0.217c-0.004,0.237 -0.924,0.657 -1.148,0.813c-0.503,0.352 -0.985,0.735 -1.434,1.155c-0.792,0.74 -1.74,1.656 -2.288,2.532c0.162,-0.258 0.958,-0.594 1.24,-0.792c0.453,-0.315 0.897,-0.653 1.317,-1.014c0.387,-0.333 0.748,-0.693 1.104,-1.059c0.355,-0.369 0.837,-1.133 1.305,-1.377c0.027,-0.015 0.231,0.146 0.347,0.091c0.116,-0.055 0.262,-0.331 0.292,-0.342c0.434,-0.168 1.26,0.041 1.717,0.062c1.185,0.054 2.369,0.126 3.554,0.192c0.367,0.02 0.679,-0.064 0.817,0.207c0.148,0.288 -0.122,1.047 -0.199,1.362c-0.286,1.167 -0.793,2.215 -1.592,3.12c-1.495,1.694 -3.339,2.824 -5.422,3.579c-7.979,2.895 -16.467,4.055 -24.444,1.044c-3.302,-1.248 -8.275,-3.475 -7.68,-7.858" style="fill:#69a1ac;"/><path d="M477.914,266.513c6.865,42.797 -159.639,70.712 -302.954,51.23c-143.314,-19.481 -209.06,-95.556 -140.673,-136.093c68.387,-40.536 436.761,42.066 443.627,84.863Z" style="fill:#dde3e9;fill-opacity:0.6;"/><path d="M93.896,0l80.438,0c2.484,0 4.5,2.016 4.5,4.5l0,160.875c0,2.483 -2.016,4.5 -4.5,4.5l-80.438,0c-2.483,0 -4.5,-2.017 -4.5,-4.5l0,-160.875c0,-2.484 2.017,-4.5 4.5,-4.5Z" style="fill:#f2f2f2;"/><circle cx="133.834" cy="150.75" r="8.438" style="fill:#fff;"/><circle cx="126.521" cy="10.125" r="1.125" style="fill:#fff;"/><path d="M131.584,9l9.562,0c0.621,0 1.125,0.504 1.125,1.125c0,0.621 -0.504,1.125 -1.125,1.125l-9.562,0c-0.621,0 -1.125,-0.504 -1.125,-1.125c0,-0.621 0.504,-1.125 1.125,-1.125Z" style="fill:#fff;"/><path d="M99.521,15.75l69.188,0c1.242,0 2.25,1.008 2.25,2.25l0,25.875c0,1.242 -1.008,2.25 -2.25,2.25l-69.188,0c-1.241,0 -2.25,-1.008 -2.25,-2.25l0,-25.875c0,-1.242 1.009,-2.25 2.25,-2.25Z" style="fill:#fff;"/><g><path d="M120.896,24.862l37.688,0c0.931,0 1.687,0.756 1.687,1.688l0,1.181c0,0.932 -0.756,1.688 -1.687,1.688l-37.688,0c-0.93,0 -1.687,-0.756 -1.687,-1.688l0,-1.181c0,-0.932 0.757,-1.688 1.687,-1.688Z" style="fill:#dde3e9;"/><path d="M120.896,32.456l24.188,0c0.931,0 1.687,0.756 1.687,1.688l0,1.181c0,0.931 -0.756,1.688 -1.687,1.688l-24.188,-0.001c-0.93,0 -1.687,-0.756 -1.687,-1.687l0,-1.181c0,-0.932 0.757,-1.688 1.687,-1.688Z" style="fill:#dde3e9;"/></g><circle cx="109.084" cy="30.938" r="6.75" style="fill:#c5cfd6;"/><path d="M99.521,50.625l69.188,0c1.242,0 2.25,1.008 2.25,2.25l0,19.125c0,1.242 -1.008,2.25 -2.25,2.25l-69.188,0c-1.241,0 -2.25,-1.008 -2.25,-2.25l0,-19.125c0,-1.242 1.009,-2.25 2.25,-2.25Z" style="fill:#fff;"/><g><path d="M120.896,57.713l37.688,0c0.931,0 1.687,0.755 1.687,1.687l0,0.169c0,0.931 -0.756,1.687 -1.687,1.687l-37.688,0c-0.93,0 -1.687,-0.756 -1.687,-1.687l0,-0.169c0,-0.932 0.757,-1.687 1.687,-1.687Z" style="fill:#dde3e9;"/><path d="M120.896,63.619l24.188,0c0.931,0 1.687,0.756 1.687,1.687l0,0.169c0,0.931 -0.756,1.688 -1.687,1.688l-24.188,-0.001c-0.93,0.001 -1.687,-0.755 -1.687,-1.687l0,-0.169c0,-0.931 0.757,-1.687 1.687,-1.687Z" style="fill:#dde3e9;"/></g><circle cx="109.084" cy="62.438" r="6.75" style="fill:#c5cfd6;"/><path d="M99.521,78.75l69.188,0c1.242,0 2.25,1.008 2.25,2.25l0,19.125c0,1.242 -1.008,2.25 -2.25,2.25l-69.188,0c-1.241,0 -2.25,-1.008 -2.25,-2.25l0,-19.125c0,-1.242 1.009,-2.25 2.25,-2.25Z" style="fill:#fff;"/><g><path d="M120.896,85.838l37.688,-0.001c0.931,0.001 1.687,0.757 1.687,1.688l0,0.169c0,0.931 -0.756,1.687 -1.687,1.687l-37.688,0c-0.93,0 -1.687,-0.756 -1.687,-1.687l0,-0.169c0,-0.931 0.757,-1.688 1.687,-1.688Z" style="fill:#dde3e9;"/><path d="M120.896,91.744l24.188,0c0.931,0 1.687,0.756 1.687,1.687l0,0.169c0,0.931 -0.756,1.688 -1.687,1.688l-24.188,-0.001c-0.93,0.001 -1.687,-0.755 -1.687,-1.687l0,-0.169c0,-0.931 0.757,-1.687 1.687,-1.687Z" style="fill:#dde3e9;"/></g><circle cx="109.084" cy="90.563" r="6.75" style="fill:#afb9c5;"/><path d="M99.521,106.875l69.188,0c1.242,0 2.25,1.008 2.25,2.25l0,19.125c0,1.242 -1.008,2.25 -2.25,2.25l-69.188,0c-1.241,0 -2.25,-1.008 -2.25,-2.25l0,-19.125c0,-1.242 1.009,-2.25 2.25,-2.25Z" style="fill:#fff;"/><g><path d="M120.896,113.963l37.688,-0.001c0.931,0.001 1.687,0.757 1.687,1.688l0,0.169c0,0.931 -0.756,1.687 -1.687,1.687l-37.688,0c-0.93,0 -1.687,-0.756 -1.687,-1.687l0,-0.169c0,-0.931 0.757,-1.688 1.687,-1.688Z" style="fill:#dde3e9;"/><path d="M120.896,119.869l24.188,0c0.931,0 1.687,0.756 1.687,1.687l0,0.169c0,0.931 -0.756,1.688 -1.687,1.688l-24.188,-0.001c-0.93,0.001 -1.687,-0.755 -1.687,-1.687l0,-0.169c0,-0.931 0.757,-1.687 1.687,-1.687Z" style="fill:#dde3e9;"/></g><circle cx="109.084" cy="118.688" r="6.75" style="fill:#c5cfd6;"/><path d="M112.607,139.659c-0.744,0 -1.488,0.015 -2.232,0.053c-0.567,0.03 -1.434,-0.087 -1.914,0.266c-0.499,0.367 -0.465,1.12 -0.387,1.651c0.412,2.807 1.418,5.297 3.521,7.286c3.238,3.063 6.95,4.62 11.343,5.313c3.085,0.487 5.934,-0.19 8.206,-2.384c1.659,3.081 2.918,6.489 3.55,9.93c0.311,1.697 0.407,3.375 0.352,5.103c-0.035,1.107 -0.097,2.211 -0.215,3.314c-0.051,0.478 -0.296,1.203 -0.108,1.656c0.219,0.531 0.962,0.583 1.295,0.13c0.277,-0.378 0.226,-1.119 0.283,-1.565c0.094,-0.741 0.182,-1.483 0.244,-2.227c0.101,-1.206 0.177,-2.415 0.171,-3.625c-0.013,-2.719 -0.617,-5.448 -1.444,-8.03c-1.586,-4.95 -4.16,-9.351 -8.163,-12.804c-2.461,-2.123 -5.278,-2.982 -8.474,-3.444c-1.99,-0.287 -4.012,-0.623 -6.028,-0.623" style="fill:#89c5cc;"/><path d="M124.1,159.347c-8.043,-0.001 -13.46,6.482 -16.021,13.219c-0.965,2.54 -1.192,5.328 -1.564,7.994c-0.119,0.856 -0.075,2.16 -0.423,2.922c-0.126,0.277 -0.415,0.377 -0.277,0.753c0.084,0.228 0.249,0.368 0.495,0.414c0.506,0.093 1.221,-0.459 1.655,-0.676c3.598,-1.805 5.962,-4.595 7.89,-8.008c1.195,-2.116 2.408,-4.312 3.118,-6.635c0.434,-1.418 0.687,-2.912 0.834,-4.385c0.059,-0.579 0.116,-1.173 0.112,-1.756c-0.004,-0.579 -0.273,-0.885 -0.466,-1.389c2.684,-1.015 5.713,-1.292 8.432,-0.239c2.514,0.974 4.603,2.855 5.772,5.219c0.304,0.615 0.538,1.263 0.709,1.923c0.111,0.434 0.117,0.996 0.324,1.387c0.502,0.949 1.559,0.314 1.457,-0.569c-0.283,-2.465 -1.692,-4.939 -3.494,-6.653c-2.274,-2.16 -5.354,-3.522 -8.553,-3.522" style="fill:#89c5cc;"/><path d="M137.279,17.034l80.438,0c2.483,0 4.5,2.016 4.5,4.5l0,160.875c0,2.483 -2.017,4.5 -4.5,4.5l-80.438,0c-2.484,0 -4.5,-2.017 -4.5,-4.5l0,-160.875c0,-2.484 2.016,-4.5 4.5,-4.5Z" style="fill:#dde3e9;"/><circle cx="177.217" cy="167.784" r="8.438" style="fill:#fff;"/><circle cx="169.904" cy="27.159" r="1.125" style="fill:#fff;"/><path d="M174.967,26.034l9.562,0c0.621,0 1.125,0.504 1.125,1.125c0,0.62 -0.504,1.125 -1.125,1.125l-9.562,0c-0.621,0 -1.125,-0.505 -1.125,-1.125c0,-0.621 0.504,-1.125 1.125,-1.125Z" style="fill:#fff;"/><path d="M142.904,32.784l69.188,0c1.241,0 2.25,1.008 2.25,2.25l0,25.875c0,1.241 -1.009,2.25 -2.25,2.25l-69.188,0c-1.242,0 -2.25,-1.009 -2.25,-2.25l0,-25.875c0,-1.242 1.008,-2.25 2.25,-2.25Z" style="fill:#fff;"/><g><path d="M147.404,41.897l37.688,0c0.931,0 1.687,0.756 1.687,1.687l0,1.181c0,0.931 -0.756,1.688 -1.687,1.688l-37.688,0c-0.931,0 -1.687,-0.757 -1.687,-1.688l0,-1.181c0,-0.931 0.756,-1.687 1.687,-1.687Z" style="fill:#dde3e9;"/><path d="M147.404,49.49l24.188,0c0.931,0 1.687,0.756 1.687,1.688l0,1.181c0,0.931 -0.756,1.688 -1.687,1.688l-24.188,0c-0.931,0 -1.687,-0.757 -1.687,-1.688l0,-1.181c0,-0.932 0.756,-1.688 1.687,-1.688Z" style="fill:#dde3e9;"/></g><g><circle cx="206.467" cy="47.971" r="3.938" style="fill:#dde3e9;"/><circle cx="206.467" cy="47.971" r="1.688" style="fill:#f2f2f2;"/></g><path d="M142.904,67.659l69.188,0c1.241,0 2.25,1.008 2.25,2.25l0,19.125c0,1.241 -1.009,2.25 -2.25,2.25l-69.188,0c-1.242,0 -2.25,-1.009 -2.25,-2.25l0,-19.125c0,-1.242 1.008,-2.25 2.25,-2.25Z" style="fill:#fff;"/><g><path d="M164.279,74.747l37.688,-0.001c0.931,0.001 1.687,0.757 1.687,1.688l0,0.169c0,0.931 -0.756,1.687 -1.687,1.687l-37.688,0c-0.931,0 -1.687,-0.756 -1.687,-1.687l0,-0.169c0,-0.931 0.756,-1.688 1.687,-1.688Z" style="fill:#dde3e9;"/><path d="M164.279,80.653l24.188,0c0.931,0 1.687,0.756 1.687,1.687l0,0.169c0,0.931 -0.756,1.687 -1.687,1.687l-24.188,0c-0.931,0 -1.687,-0.756 -1.687,-1.687l0,-0.169c0,-0.931 0.756,-1.687 1.687,-1.687Z" style="fill:#dde3e9;"/></g><circle cx="152.467" cy="79.471" r="6.75" style="fill:#c5cfd6;"/><path d="M142.904,95.784l69.188,0c1.241,0 2.25,1.008 2.25,2.25l0,19.125c0,1.241 -1.009,2.25 -2.25,2.25l-69.188,0c-1.242,0 -2.25,-1.009 -2.25,-2.25l0,-19.125c0,-1.242 1.008,-2.25 2.25,-2.25Z" style="fill:#fff;"/><g><path d="M147.404,102.872l37.688,-0.001c0.931,0.001 1.687,0.757 1.687,1.688l0,0.169c0,0.931 -0.756,1.687 -1.687,1.687l-37.688,0c-0.931,0 -1.687,-0.756 -1.687,-1.687l0,-0.169c0,-0.931 0.756,-1.688 1.687,-1.688Z" style="fill:#dde3e9;"/><path d="M147.404,108.778l24.188,0c0.931,0 1.687,0.756 1.687,1.687l0,0.169c0,0.931 -0.756,1.687 -1.687,1.687l-24.188,0c-0.931,0 -1.687,-0.756 -1.687,-1.687l0,-0.169c0,-0.931 0.756,-1.687 1.687,-1.687Z" style="fill:#afb9c5;"/></g><g><circle cx="206.467" cy="107.596" r="3.938" style="fill:#dde3e9;"/><circle cx="206.467" cy="107.596" r="1.688" style="fill:#f2f2f2;"/></g><path d="M142.904,123.909l69.188,0c1.241,0 2.25,1.008 2.25,2.25l0,19.125c0,1.241 -1.009,2.25 -2.25,2.25l-69.188,0c-1.242,0 -2.25,-1.009 -2.25,-2.25l0,-19.125c0,-1.242 1.008,-2.25 2.25,-2.25Z" style="fill:#fff;"/><g><path d="M164.279,130.997l37.688,-0.001c0.931,0 1.687,0.756 1.687,1.688l0,0.169c0,0.93 -0.756,1.687 -1.687,1.687l-37.688,0c-0.931,0 -1.687,-0.757 -1.687,-1.687l0,-0.169c0,-0.931 0.756,-1.688 1.687,-1.688Z" style="fill:#dde3e9;"/><path d="M164.279,136.903l24.188,0c0.931,0 1.687,0.756 1.687,1.687l0,0.169c0,0.931 -0.756,1.687 -1.687,1.687l-24.188,0c-0.931,0 -1.687,-0.756 -1.687,-1.687l0,-0.169c0,-0.931 0.756,-1.687 1.687,-1.687Z" style="fill:#dde3e9;"/></g><circle cx="152.467" cy="135.722" r="6.75" style="fill:#c5cfd6;"/><path d="M200.924,35.45l179.437,0c2.484,0 4.5,2.017 4.5,4.5l0,185.625c0,2.484 -2.016,4.5 -4.5,4.5l-179.437,0c-2.484,0 -4.5,-2.016 -4.5,-4.5l0,-185.625c0,-2.483 2.016,-4.5 4.5,-4.5Z" style="fill:#f2f2f2;"/><path d="M340.986,59.638l30.375,0c2.484,0 4.5,2.017 4.5,4.5l0,36.562c0,2.484 -2.016,4.5 -4.5,4.5l-30.375,0c-2.483,0 -4.5,-2.016 -4.5,-4.5l0,-36.562c0,-2.484 2.017,-4.5 4.5,-4.5Z" style="fill:#fff;"/><circle cx="356.174" cy="77.075" r="9" style="fill:#dde3e9;"/><path d="M343.799,88.325l24.75,0c0.931,0 1.687,0.757 1.687,1.688c0,0.931 -0.756,1.687 -1.687,1.687l-24.75,0c-0.932,0 -1.688,-0.756 -1.688,-1.687c0,-0.931 0.756,-1.688 1.688,-1.688Z" style="fill:#dde3e9;"/><path d="M348.299,93.95l15.75,0c0.931,0 1.687,0.757 1.687,1.688c0,0.931 -0.756,1.687 -1.687,1.687l-15.75,0c-0.932,0 -1.688,-0.756 -1.688,-1.687c0,-0.931 0.756,-1.688 1.688,-1.688Z" style="fill:#dde3e9;"/><path d="M200.924,35.45l179.437,0c2.484,0 4.5,2.017 4.5,4.5l0,10.688l-188.437,0l0,-10.688c0,-2.483 2.016,-4.5 4.5,-4.5Z" style="fill:#c5cfd6;"/><circle cx="203.736" cy="43.325" r="2.25" style="fill:#f2f2f2;"/><circle cx="210.486" cy="43.325" r="2.25" style="fill:#f2f2f2;"/><circle cx="217.236" cy="43.325" r="2.25" style="fill:#f2f2f2;"/><path d="M340.986,109.7l30.375,0c2.484,0 4.5,2.017 4.5,4.5l0,100.125c0,2.484 -2.016,4.5 -4.5,4.5l-30.375,0c-2.483,0 -4.5,-2.016 -4.5,-4.5l0,-100.125c0,-2.483 2.017,-4.5 4.5,-4.5Z" style="fill:#fff;"/><path d="M348.861,119.825l14.625,0c1.242,0 2.25,1.009 2.25,2.25l0,10.125c0,1.242 -1.008,2.25 -2.25,2.25l-14.625,0c-1.242,0 -2.25,-1.008 -2.25,-2.25l0,-10.125c0,-1.241 1.008,-2.25 2.25,-2.25Z" style="fill:#dde3e9;"/><path d="M348.861,138.95l14.625,0c1.242,0 2.25,1.009 2.25,2.25l0,9.563c0,1.242 -1.008,2.25 -2.25,2.25l-14.625,0c-1.242,0 -2.25,-1.008 -2.25,-2.25l0,-9.563c0,-1.241 1.008,-2.25 2.25,-2.25Z" style="fill:#afb9c5;"/><path d="M348.861,157.513l14.625,0c1.242,0 2.25,1.008 2.25,2.25l0,9.562c0,1.242 -1.008,2.25 -2.25,2.25l-14.625,0c-1.242,0 -2.25,-1.008 -2.25,-2.25l0,-9.562c0,-1.242 1.008,-2.25 2.25,-2.25Z" style="fill:#dde3e9;"/><path d="M348.861,194.638l14.625,0c1.242,0 2.25,1.008 2.25,2.25l0,9.562c0,1.242 -1.008,2.25 -2.25,2.25l-14.625,0c-1.242,0 -2.25,-1.008 -2.25,-2.25l0,-9.562c0,-1.242 1.008,-2.25 2.25,-2.25Z" style="fill:#dde3e9;"/><path d="M348.861,176.075l14.625,0c1.242,0 2.25,1.009 2.25,2.25l0,9.563c0,1.242 -1.008,2.25 -2.25,2.25l-14.625,0c-1.242,0 -2.25,-1.008 -2.25,-2.25l0,-9.563c0,-1.241 1.008,-2.25 2.25,-2.25Z" style="fill:#c5cfd6;"/><path d="M207.674,60.2l122.062,0c1.242,0 2.25,1.009 2.25,2.25l0,21.938c0,1.242 -1.008,2.25 -2.25,2.25l-122.062,0c-1.242,0 -2.25,-1.008 -2.25,-2.25l0,-21.938c0,-1.241 1.008,-2.25 2.25,-2.25Z" style="fill:#fff;"/><g><path d="M212.174,68.131l90.562,0c0.932,0 1.688,0.757 1.688,1.688l0,0.591c0,0.931 -0.756,1.688 -1.688,1.688l-90.562,-0.001c-0.932,0.001 -1.688,-0.755 -1.688,-1.687l0,-0.591c0,-0.931 0.756,-1.688 1.688,-1.688Z" style="fill:#dde3e9;"/><path d="M212.174,74.741l59.679,0c0.931,0 1.687,0.756 1.687,1.688l0,0.59c0,0.931 -0.756,1.688 -1.687,1.688l-59.679,-0.001c-0.932,0.001 -1.688,-0.755 -1.688,-1.687l0,-0.59c0,-0.932 0.756,-1.688 1.688,-1.688Z" style="fill:#dde3e9;"/></g><g><circle cx="318.461" cy="73.419" r="3.938" style="fill:#dde3e9;"/><circle cx="318.461" cy="73.419" r="1.688" style="fill:#f2f2f2;"/></g><path d="M207.674,91.138l122.062,0c1.242,0 2.25,1.008 2.25,2.25l0,17.437c0,1.242 -1.008,2.25 -2.25,2.25l-122.062,0c-1.242,0 -2.25,-1.008 -2.25,-2.25l0,-17.437c0,-1.242 1.008,-2.25 2.25,-2.25Z" style="fill:#fff;"/><g><path d="M212.132,97.719l90.646,0c0.908,0 1.646,0.737 1.646,1.645c0,0.909 -0.738,1.646 -1.646,1.646l-90.646,0c-0.909,0 -1.646,-0.737 -1.646,-1.646c0,-0.908 0.737,-1.645 1.646,-1.645Z" style="fill:#dde3e9;"/><path d="M212.132,103.204l59.763,0c0.908,0 1.645,0.737 1.645,1.645c0,0.908 -0.737,1.645 -1.645,1.645l-59.763,0c-0.909,0 -1.646,-0.737 -1.646,-1.645c0,-0.908 0.737,-1.645 1.646,-1.645Z" style="fill:#dde3e9;"/></g><g><circle cx="318.461" cy="102.107" r="3.938" style="fill:#dde3e9;"/><circle cx="318.461" cy="102.107" r="1.688" style="fill:#f2f2f2;"/></g><path d="M207.674,117.575l122.062,0c1.242,0 2.25,1.009 2.25,2.25l0,17.438c0,1.242 -1.008,2.25 -2.25,2.25l-122.062,0c-1.242,0 -2.25,-1.008 -2.25,-2.25l0,-17.438c0,-1.241 1.008,-2.25 2.25,-2.25Z" style="fill:#fff;"/><g><path d="M212.132,124.156l90.646,0c0.908,0 1.646,0.738 1.646,1.646c0,0.908 -0.738,1.645 -1.646,1.645l-90.646,0c-0.909,0 -1.646,-0.737 -1.646,-1.645c0,-0.908 0.737,-1.646 1.646,-1.646Z" style="fill:#dde3e9;"/><path d="M212.132,129.641l59.763,0c0.908,0 1.645,0.738 1.645,1.646c0,0.907 -0.737,1.645 -1.645,1.645l-59.763,0c-0.909,0 -1.646,-0.738 -1.646,-1.645c0,-0.909 0.737,-1.646 1.646,-1.646Z" style="fill:#dde3e9;"/></g><g><circle cx="318.461" cy="128.544" r="3.938" style="fill:#dde3e9;"/><circle cx="318.461" cy="128.544" r="1.688" style="fill:#afb9c5;"/></g><path d="M207.674,196.888l122.062,0c1.242,0 2.25,1.008 2.25,2.25l0,17.437c0,1.242 -1.008,2.25 -2.25,2.25l-122.062,0c-1.242,0 -2.25,-1.008 -2.25,-2.25l0,-17.437c0,-1.242 1.008,-2.25 2.25,-2.25Z" style="fill:#fff;"/><g><path d="M212.132,203.469l90.646,0c0.908,0 1.646,0.737 1.646,1.646c0,0.908 -0.738,1.645 -1.646,1.645l-90.646,0c-0.909,0 -1.646,-0.737 -1.646,-1.645c0,-0.909 0.737,-1.646 1.646,-1.646Z" style="fill:#dde3e9;"/><path d="M212.132,208.954l59.763,0c0.908,0 1.645,0.737 1.645,1.645c0,0.908 -0.737,1.645 -1.645,1.645l-59.763,0c-0.909,0 -1.646,-0.737 -1.646,-1.645c0,-0.908 0.737,-1.645 1.646,-1.645Z" style="fill:#dde3e9;"/></g><g><circle cx="318.461" cy="207.856" r="3.938" style="fill:#dde3e9;"/><circle cx="318.461" cy="207.856" r="1.688" style="fill:#f2f2f2;"/></g><path d="M207.674,170.45l122.062,0c1.242,0 2.25,1.009 2.25,2.25l0,17.438c0,1.242 -1.008,2.25 -2.25,2.25l-122.062,0c-1.242,0 -2.25,-1.008 -2.25,-2.25l0,-17.438c0,-1.241 1.008,-2.25 2.25,-2.25Z" style="fill:#fff;"/><g><path d="M212.132,177.032l90.646,-0.001c0.908,0 1.646,0.738 1.646,1.646c0,0.908 -0.738,1.646 -1.646,1.646l-90.646,0c-0.909,0 -1.646,-0.738 -1.646,-1.646c0,-0.908 0.737,-1.645 1.646,-1.645Z" style="fill:#dde3e9;"/><path d="M212.132,182.516l59.763,0c0.908,0 1.645,0.738 1.645,1.646c0,0.907 -0.737,1.645 -1.645,1.645l-59.763,0c-0.909,0 -1.646,-0.738 -1.646,-1.645c0,-0.908 0.737,-1.646 1.646,-1.646Z" style="fill:#dde3e9;"/></g><g><circle cx="318.461" cy="181.419" r="3.938" style="fill:#dde3e9;"/><circle cx="318.461" cy="181.419" r="1.688" style="fill:#f2f2f2;"/></g><path d="M207.674,144.013l122.062,0c1.242,0 2.25,1.008 2.25,2.25l0,17.437c0,1.242 -1.008,2.25 -2.25,2.25l-122.062,0c-1.242,0 -2.25,-1.008 -2.25,-2.25l0,-17.437c0,-1.242 1.008,-2.25 2.25,-2.25Z" style="fill:#fff;"/><g><path d="M212.132,150.594l90.646,0c0.908,0 1.646,0.737 1.646,1.645c0,0.909 -0.738,1.646 -1.646,1.646l-90.646,0c-0.909,0 -1.646,-0.737 -1.646,-1.645c0,-0.909 0.737,-1.646 1.646,-1.646Z" style="fill:#dde3e9;"/><path d="M212.132,156.079l59.763,0c0.908,0 1.645,0.737 1.645,1.645c0,0.908 -0.737,1.645 -1.645,1.645l-59.763,0c-0.909,0 -1.646,-0.737 -1.646,-1.645c0,-0.908 0.737,-1.645 1.646,-1.645Z" style="fill:#dde3e9;"/></g><g><circle cx="318.461" cy="154.982" r="3.938" style="fill:#dde3e9;"/><circle cx="318.461" cy="154.982" r="1.688" style="fill:#f2f2f2;"/></g><path d="M459.476,140.922c-2.219,-1.505 -5.169,-1.898 -7.824,-1.898c-10.371,0 -20.118,3.847 -28.539,9.579c-4.614,3.142 -8.742,7.143 -12.386,11.307c-2.104,2.404 -3.979,5.005 -5.307,7.898c-0.895,1.953 -1.511,3.987 -1.927,6.085c-0.509,2.557 -0.912,5.166 -1.095,7.766c-0.072,1.024 -0.666,6.456 1.035,6.548c-0.009,0.134 -0.012,0.262 -0.001,0.376c-3.696,5.779 -5.979,12.552 -8.097,18.973c-1.842,5.587 -3.484,11.222 -4.55,17.003c-1.403,7.61 -2.325,15.335 -2.763,23.055c-0.093,1.659 -0.158,3.319 -0.214,4.98c-0.047,1.417 -0.095,2.834 -0.141,4.251c-0.052,1.588 -0.332,3.416 -0.079,4.995c0.22,1.375 1.409,1.166 1.462,-0.202c0.064,-1.652 0.053,-3.307 0.125,-4.96c0.097,-2.195 0.196,-4.389 0.303,-6.583c0.748,-15.239 3.552,-30.254 8.728,-44.649c2.094,-5.825 4.494,-11.34 7.579,-16.729c2.712,-4.737 5.973,-9.324 9.308,-13.596c3.241,-4.152 6.61,-8.207 10.582,-11.724c3.222,-2.855 6.767,-5.341 10.41,-7.655c4.629,-2.938 9.248,-5.806 14.261,-8.061c2.606,-1.173 5.261,-2.222 7.887,-3.347c0.472,-0.203 0.979,-0.399 1.434,-0.633c1.516,-0.782 1.016,-1.96 -0.191,-2.779" style="fill:#c1dee2;"/><path d="M417.16,195.816c4.206,0 7.949,0.547 11.824,2.218c3.345,1.443 6.394,3.352 9.354,5.431c4.163,2.924 7.443,6.328 9.738,10.838c1.371,2.694 2.377,6.505 1.456,9.444c-1.084,3.461 -4.063,6.347 -7.987,5.737c-2.426,-0.376 -4.65,-1.983 -6.493,-3.494c-2.206,-1.808 -3.972,-3.982 -5.43,-6.397c-2.378,-3.939 -3.776,-8.392 -5.796,-12.508c-0.959,-1.954 -1.885,-3.921 -3.033,-5.777c-0.569,-0.92 -1.174,-1.83 -2.036,-2.514c-0.462,-0.366 -2.407,-0.998 -1.663,-1.818c-10.907,0.143 -20.57,8.52 -22.664,18.888c-0.195,0.966 -0.347,1.941 -0.508,2.913c-0.101,0.614 -0.061,2.878 -0.609,3.27c-1.211,0.866 -0.702,-1.763 -0.65,-2.141c0.134,-0.978 0.277,-1.956 0.428,-2.931c0.817,-5.307 3.18,-10.24 7.12,-14.024c4.505,-4.329 10.584,-7.135 16.949,-7.135" style="fill:#89c5cc;"/><path d="M21.52,206.633c10.5,17.616 22.729,34.671 30.073,53.93c-0.297,-2.27 -0.61,-4.537 -0.961,-6.802c-1.864,-12.004 -4.18,-23.921 -6.614,-35.822c-1.239,-6.06 -2.55,-12.099 -3.894,-18.136c-0.723,-3.242 -1.437,-6.487 -2.175,-9.727c-0.179,-0.785 -0.333,-2.155 -0.556,-3.544c7.137,23.42 14.02,46.858 19.054,70.842c0.66,3.148 1.223,6.29 1.683,9.427c0.158,-0.716 0.313,-1.432 0.483,-2.145c2.037,-8.554 5.092,-17.04 8.73,-25.039c1.74,-3.824 3.738,-7.566 6.09,-11.052c1.467,-2.173 4.926,-4.756 6.264,-6.981c-7.318,13.422 -9.96,30.215 -14.186,44.808c-1.031,3.561 -2.069,7.116 -3.085,10.677c6.372,-12.779 16.258,-23.279 30.003,-27.828c-16.638,10.993 -26.618,30.246 -33.343,49.936c-0.023,0.234 -0.049,0.467 -0.071,0.702c1.978,-3.756 4.471,-7.153 7.85,-9.533c7.231,-5.093 15.253,-3.61 22.267,0.76c-5.505,-3.5 -15.455,-0.313 -20.087,3.244c-3.316,2.546 -6.15,5.961 -8.611,9.293c-0.589,0.799 -1.394,1.731 -2.244,2.726c-1.191,7.735 -3.133,15.417 -5.882,23.038c0.454,-2.188 0.125,-5.686 0.251,-7.317c0.014,-0.177 0.025,-0.353 0.039,-0.529c-0.418,1.669 -0.822,3.318 -1.211,4.941c0.773,-3.097 1.193,-6.33 1.521,-9.596c0.084,-1.404 0.167,-2.808 0.254,-4.212c-0.028,-2.664 -0.138,-5.338 -0.323,-8.017c-0.658,-2.604 -1.395,-5.06 -2.002,-7.102c-2.193,-7.369 -5.408,-14.429 -9.364,-21.015c-3.609,-6.01 -7.93,-11.455 -12.918,-16.378c-2.689,-2.653 -5.504,-5.181 -8.278,-7.743c-1.003,-0.926 -2.797,-3.204 -4.348,-4.391c11.296,6.227 22.922,12.965 31.161,22.997c-0.966,-3.709 -2.015,-7.366 -3.124,-10.95c-5.631,-18.183 -12.741,-37.028 -22.446,-53.462Z" style="fill:#dde3e9;"/><path d="M32.804,306.344c0,20.193 1.599,36.563 23.063,36.563c21.463,0 23.062,-16.37 23.062,-36.563" style="fill:#c5cfd6;"/><path d="M143.909,156.445c3.26,6.076 2.873,21.487 -1.34,22.572c-1.68,0.433 -5.259,-0.627 -8.902,-2.823l2.287,16.175l-13.5,0l4.647,-21.662c-2.591,-3.042 -4.346,-6.771 -4.053,-10.949c0.845,-12.037 17.602,-9.389 20.861,-3.313Z" style="fill:#f3bf8f;"/><path d="M115.053,153.755c-0.49,-0.486 -0.757,-1.179 -0.988,-1.837c-0.24,-0.684 -0.473,-1.376 -0.633,-2.088c-0.318,-1.422 -0.321,-3.057 0.693,-4.161c0.813,-0.886 2.033,-1.284 3.159,-1.37c0.75,-0.057 1.521,0.048 2.24,0.285c0.713,0.234 1.329,0.702 2.02,0.993c0.027,-1.534 0.289,-3.137 1.066,-4.446c0.748,-1.259 1.94,-1.965 3.297,-2.152c1.394,-0.192 2.77,0.134 4.017,0.809c0.313,0.169 0.622,0.346 0.918,0.547c0.248,0.168 0.506,0.37 0.797,0.439c0.324,0.075 0.485,-0.112 0.696,-0.348c0.246,-0.279 0.525,-0.523 0.819,-0.74c1.303,-0.958 3.012,-1.352 4.522,-0.778c0.695,0.265 1.372,0.714 1.844,1.334c0.42,0.552 0.72,1.428 1.3,1.813c0.247,0.162 0.421,-0.054 0.645,-0.213c0.337,-0.241 0.658,-0.506 0.999,-0.74c0.479,-0.328 0.998,-0.574 1.553,-0.702c0.813,-0.188 1.935,-0.144 2.168,0.921c0.088,0.401 0.02,0.828 -0.008,1.232c-0.039,0.553 -0.079,1.107 -0.127,1.659c-0.036,0.42 -0.083,0.825 -0.161,1.238c-0.043,0.22 -0.175,0.629 -0.081,0.849c0.118,0.275 0.661,0.119 0.893,0.128c0.458,0.02 0.918,0.1 1.342,0.296c0.328,0.152 0.674,0.375 0.812,0.752c0.085,0.231 0.063,0.469 0.022,0.706c-0.048,0.286 0.008,0.438 0.044,0.726c0.615,-0.303 2.748,-0.977 3.016,0.126c0.09,0.368 -0.114,0.783 -0.269,1.093c-0.272,0.544 -0.629,1.041 -0.994,1.514c-0.762,0.989 -1.67,1.842 -2.648,2.571c1.145,0.51 1.445,2.013 0.453,2.908c-0.438,0.395 -1.027,0.484 -1.579,0.458c-0.202,-0.009 -0.494,-0.087 -0.653,-0.051c-0.085,0.018 -0.177,0.091 -0.295,0.099c-0.78,0.054 -1.66,-0.135 -2.422,-0.307c-1.358,-0.309 -2.643,-0.953 -3.693,-1.933c-0.269,-0.252 -0.491,-0.397 -0.854,-0.393c-0.318,0.004 -0.63,0.091 -0.947,0.099c-0.839,0.021 -1.596,-0.389 -2.376,-0.663c-0.048,1.054 -0.348,2.215 -0.778,3.163c-0.351,0.773 -1.086,0.886 -1.806,0.954c-2.306,0.217 -4.62,-0.026 -6.927,-0.023c2.234,0.506 4.543,0.714 6.758,1.309c1,0.269 0.236,0.944 -0.192,1.412c-0.704,0.771 -1.229,1.726 -1.592,2.732c-1.093,-1.426 -3.025,-2.366 -4.737,-1.928c-1.891,0.485 -3.223,3.044 -2.014,4.884c0.703,1.068 1.97,1.481 3.025,1.94c-0.822,0.856 -1.022,2.121 -1.517,3.186c-0.244,0.526 -0.587,1.12 -1.134,1.303c-0.202,0.067 -0.439,0.073 -0.598,0.238c-0.198,0.204 -0.245,0.432 -0.498,0.608c-1.006,0.7 -2.579,0.646 -3.471,-0.267c-0.807,-0.828 -0.597,-2.136 0.077,-2.973c-1.073,-0.448 -3.027,-1.023 -2.601,-2.696c-2.324,-0.154 -7.969,-3.928 -4.849,-6.684c-1.712,-0.969 -3.285,-3.335 -2.185,-5.422c0.846,-1.606 2.816,-2.324 4.432,-2.409" style="fill:#191847;"/><path d="M121.117,242.408l20.393,71.565l14.879,52.747l10.853,0l-15.812,-124.312l-30.313,0Z" style="fill:#191847;"/><path d="M115.664,242.408c-0.472,36.885 -2.081,57.003 -2.576,60.354c-0.496,3.352 -7.984,24.671 -22.466,63.958l11.242,0c18.437,-37.69 28.728,-59.008 30.876,-63.958c2.147,-4.948 8.772,-25.067 18.752,-60.354l-35.828,0Z" style="fill:#2f3676;"/><path d="M89.617,376.845l0.562,-11.813l11.813,0c8.402,5.907 21.937,9.563 21.937,9.563l0,2.25l-21.375,0l-7.312,-1.125l0,1.125l-5.625,0Z" style="fill:#191847;"/><path d="M154.867,376.845l0.562,-11.813l11.813,0c8.402,5.907 21.937,9.563 21.937,9.563l0,2.25l-21.375,0l-7.312,-1.125l0,1.125l-5.625,0Z" style="fill:#191847;"/><path d="M73.57,275.332c4.138,-2.837 10.102,-7.805 10.909,-9.44c1.648,-3.344 9.884,-46.383 9.884,-46.383l12.317,0.047c0,0 -14.072,45.591 -14.94,47.741c-1.127,2.794 0.788,6.853 2.086,9.605c0.201,0.425 0.387,0.82 0.545,1.173c-1.801,0.806 -2.667,-0.168 -3.58,-1.195c-1.03,-1.161 -2.12,-2.387 -4.687,-1.194c-0.992,0.462 -1.93,1.007 -2.847,1.54c-3.167,1.841 -6.076,3.532 -10.034,1.09c-0.627,-0.387 -1.314,-1.845 0.347,-2.984Zm98.712,-41.754l15.934,15.545c4.637,1.978 8.436,4.161 11.397,6.551c0.666,0.804 1.391,2.343 -1.743,1.653c-3.132,-0.688 -6.459,-1.272 -7.048,-0.252c-0.258,0.446 -0.071,0.996 0.13,1.585c0.259,0.757 0.54,1.579 -0.072,2.328c-0.726,0.89 -3.166,-1.939 -7.321,-8.483l-16.569,-9.77l5.292,-9.157Z" style="fill:#f3bf8f;"/><path d="M131.895,184.568l4.865,-0.834c7.662,27.086 47.031,45.548 49.447,55.673c0.887,3.714 -1.786,5.59 -0.406,6.721l-6.321,4.628c-1.071,-1.248 -3.356,1.036 -8.127,-0.562c-4.771,-1.598 -39.458,-33.554 -39.458,-65.626Z" style="fill:#db2721;"/><path d="M138.395,179.973l-15.15,-1.06c-1.239,-0.086 -2.315,0.849 -2.402,2.088l-0.23,3.295c-9.154,7.045 -31.842,28.094 -37.754,67.28c-0.621,4.116 0.502,6.321 1.4,8.083c0.613,1.204 1.122,2.203 0.894,3.463l8.274,2.284c0,-2.284 6.28,-3.226 7.9,-9.155c0.91,-3.33 2.242,-7.489 3.834,-12.116c0.15,6.128 1.312,11.763 3.843,16.43c6.316,11.644 42.812,-1.125 46.625,-13.004c2.035,-6.339 -0.853,-11.661 -4.671,-18.699c-4.847,-8.935 -11.194,-20.635 -10.88,-40.692l0.405,-5.796c0.087,-1.239 -0.849,-2.315 -2.088,-2.401Z" style="fill:#ff4133;"/><path d="M300.474,132.044c-3.259,6.076 -2.872,21.487 1.34,22.573c1.68,0.433 5.259,-0.628 8.902,-2.823l-2.287,16.175l13.5,0l-4.647,-21.662c2.592,-3.042 4.347,-6.771 4.053,-10.949c-0.844,-12.038 -17.601,-9.39 -20.861,-3.314Z" style="fill:#b28b67;"/><path id="path-140" d="M302.261,129.968c-0.3,0.102 0,-1.192 0.72,-1.665c2.205,-1.452 8.77,-3.599 13.26,-2.668c3.007,0.625 6.758,2.192 9.16,4.189c2.165,1.802 4.136,4.977 4.902,7.766c0.806,2.928 1.109,7.003 0,9.559c-1.321,3.042 -6,6.322 -6.124,6.758c-0.141,0.496 0.412,2.438 0.817,4.484c0.405,2.046 0.221,7.256 0,8.105c-0.352,1.359 -2.242,2.026 -3.067,2.124c-4.556,0.543 -7.859,6.2 -9.234,7.647c0,0 -9.177,9.214 -12.81,8.015c-0.638,-0.211 0.318,-7.844 0.955,-11.116c0.638,-3.272 6.89,-9.109 7.289,-11.033c0.237,-1.134 0.276,-3.107 0.3,-3.197c0.59,-4.065 0.489,-4.395 1.349,-6.052c0.86,-1.656 1.527,-1.753 1.32,-2.235c-1.01,-2.358 -4.259,-9.571 -4.995,-11.93c-0.878,-2.811 -0.464,-1.887 -1.369,-4.69c-0.401,-1.24 -0.911,-4.586 -2.473,-4.061Z" style="fill:#f29559;"/><path d="M314.864,139.361c0.212,-4.278 0,-5.949 -0.987,-9.079l0.608,0c0.962,1.242 1.767,5.043 0.862,9.079l-0.483,0Zm4.695,-5.54c-0.834,6.333 -1.079,9.95 -5.43,16.878l0.464,0.142c4.477,-6.033 5.187,-10.956 5.398,-16.986l-0.432,-0.034Zm-0.256,15.248c5.134,-3.611 5.973,-6.246 7.812,-10.708l0.386,0.186c-1.22,4.464 -2.704,7.91 -7.802,10.799l-0.396,-0.278Zm4.666,3.084l0.396,0.481c-4.082,0.854 -5.475,6.13 -11.436,8.59l-0.568,-0.345c6.806,-3.539 6.205,-7.034 11.608,-8.726Z" style="fill-opacity:0.2;"/><path d="M336.674,218.032l-23.145,79.914l-10.887,60.002l-10.927,0l10.907,-139.916l34.052,0Z" style="fill:#997659;"/><path d="M347.077,218.032c-1.616,41.515 -0.978,64.158 -0.617,67.93c0.361,3.772 2.414,29.034 16.397,73.252l-11.365,0c-18.519,-42.42 -24.984,-67.682 -27.108,-73.252c-2.124,-5.57 -8.397,-28.213 -17.555,-67.93l40.248,0Z" style="fill:#b28b67;"/><path d="M337.172,218.032c-6.021,27.499 -16.434,71.394 -31.24,131.686l-15.982,0c-1.18,-61.884 3.841,-102.614 12.537,-131.686l34.685,0Z" style="fill:#eb7428;"/><path d="M347.157,218.032c-1.582,41.515 2.518,82.416 15.215,132.332l-17.052,0c-18.552,-41.787 -31.85,-82.486 -40.938,-132.332l42.775,0Z" style="fill:#f29559;"/><path d="M364.477,367.445l-0.627,-10.13c-5.507,1.614 -13.796,-1.266 -13.796,-1.266c-9.366,6.647 -22.57,8.67 -22.57,8.67c-0.669,0.103 -1.097,0.768 -0.912,1.419l0.907,3.206l35.744,0l1.254,-1.899Z" style="fill:#191847;"/><path d="M305.081,367.445l-0.627,-10.13c-5.508,1.614 -13.796,-1.266 -13.796,-1.266c-9.367,6.647 -22.57,8.67 -22.57,8.67c-0.669,0.103 -1.097,0.768 -0.912,1.419l0.906,3.206l35.745,0l1.254,-1.899Z" style="fill:#191847;"/><path d="M281.823,198.621l-22.414,0.091c-4.744,-1.829 -9.024,-2.917 -12.841,-3.264c-1.044,0.116 -2.645,0.727 0.108,2.435c2.753,1.708 5.572,3.629 5.288,4.787c-0.285,1.158 -2.635,1.072 -2.777,2.812c-0.095,1.159 3.65,0.82 11.236,-1.02l18.839,4.567l2.561,-10.408Zm104.291,46.905c-4.494,-2.234 -11.091,-6.323 -12.117,-7.829c-2.097,-3.083 -22.371,-43.695 -22.371,-43.695l-12.19,1.76c0,0 26.407,42.328 27.565,44.336c1.506,2.609 0.174,6.896 -0.729,9.801c-0.139,0.45 -0.268,0.866 -0.375,1.239c1.896,0.548 2.617,-0.538 3.378,-1.682c0.858,-1.292 1.767,-2.66 4.476,-1.835c1.046,0.319 2.051,0.729 3.033,1.128c3.392,1.383 6.508,2.652 10.088,-0.316c0.567,-0.471 1.045,-2.01 -0.758,-2.907Z" style="fill:#997659;"/><path d="M312.779,160.012l-9.46,1.978c0.638,21.61 -10.284,36.851 -39.608,36.332l0.041,27.939c27.296,-0.303 49.3,-14.341 50.034,-44.079c0.19,-7.698 0.075,-15.666 -1.007,-22.17Z" style="fill:#afb9c5;"/><path d="M371.549,232.412c-11.589,-34.347 -29.421,-59.675 -53.494,-75.981l-0.947,0.132l-0.007,0.011l-14.004,5.347c3.498,24.887 -2.198,41.88 -3.693,60.75l39.079,-5.492c1.439,6.245 2.69,12.696 3.804,19.346l29.262,-4.113Z" style="fill:#c5cfd6;"/><path d="M338.483,217.179c-2.93,-12.716 -6.638,-24.578 -11.55,-35.528c2.44,12.105 4.77,27.22 3.607,36.644l7.943,-1.116Z" style="fill-opacity:0.1;"/></svg>