<?xml version="1.0" encoding="UTF-8" standalone="no"?><!DOCTYPE svg PUBLIC "-//W3C//DTD SVG 1.1//EN" "http://www.w3.org/Graphics/SVG/1.1/DTD/svg11.dtd"><svg width="100%" height="100%" viewBox="0 0 173 143" version="1.1" xmlns="http://www.w3.org/2000/svg" xmlns:xlink="http://www.w3.org/1999/xlink" xml:space="preserve" xmlns:serif="http://www.serif.com/" style="fill-rule:evenodd;clip-rule:evenodd;stroke-linejoin:round;stroke-miterlimit:2;"><g><g><path d="M166.688,34.079c-0.108,-0.079 -0.364,-0.107 -0.483,-0.13c-0.495,-0.098 -1.006,-0.141 -1.511,-0.141c-1.557,0.003 -3.14,0.156 -4.672,0.421c-0.972,0.168 -2.148,0.734 -3.116,0.427c-1.685,-0.536 -3.388,-0.51 -4.987,0.255c-1.462,0.699 -2.572,2.027 -3.219,3.462c-0.098,0.216 -0.495,1.014 -0.607,1.551c-0.048,0.11 -0.094,0.22 -0.135,0.333c-0.118,0.318 -0.224,0.643 -0.322,0.968c-0.042,0.139 -0.148,0.445 -0.023,0.504c-0.2,0.37 -0.378,0.752 -0.525,1.146c-0.431,1.145 -0.901,2.402 -1.052,3.616c-0.056,0.45 -0.058,0.902 -0.006,1.352c0.025,0.223 0.015,0.671 0.165,0.84c0.32,0.359 0.485,-0.144 0.449,-0.383c-0.276,-1.826 0.256,-3.54 0.886,-5.256c0.408,-1.11 1.078,-2.125 1.828,-3.045c0.607,-0.744 1.259,-1.33 2.091,-1.823c1.018,-0.604 2.106,-1.091 3.184,-1.581c0.709,-0.322 1.419,-0.635 2.148,-0.912c0.162,-0.062 0.417,-0.22 0.597,-0.221c0.38,-0.001 0.919,0.28 1.286,0.384c1.207,0.344 2.43,0.784 3.678,0.959c0.801,0.113 1.551,-0.014 2.299,-0.281c0.077,-0.027 0.205,-0.097 0.362,-0.197c0.556,-0.214 1.082,-0.484 1.539,-0.872c0.264,-0.224 0.503,-0.514 0.722,-0.779c0.065,-0.079 0.094,-0.17 0.095,-0.256c0.049,-0.026 0.082,-0.056 0.09,-0.091c0.054,-0.261 -0.443,-0.266 -0.761,-0.25" style="fill:#89c5cc;"/><path d="M11.777,58.761c-0.305,0.248 -0.605,0.501 -0.897,0.764c-0.223,0.201 -0.618,0.441 -0.698,0.745c-0.083,0.316 0.18,0.612 0.387,0.803c1.097,1.01 2.332,1.693 3.852,1.807c2.34,0.175 4.376,-0.423 6.406,-1.601c1.426,-0.827 2.371,-2.05 2.577,-3.701c1.699,0.706 3.341,1.68 4.737,2.876c0.689,0.59 1.282,1.243 1.831,1.968c0.351,0.464 0.691,0.936 1.007,1.425c0.137,0.213 0.276,0.59 0.503,0.713c0.265,0.144 0.587,-0.082 0.574,-0.378c-0.011,-0.246 -0.277,-0.532 -0.401,-0.733c-0.206,-0.334 -0.416,-0.666 -0.636,-0.991c-0.357,-0.527 -0.726,-1.045 -1.128,-1.538c-0.903,-1.107 -2.053,-2.021 -3.245,-2.8c-2.287,-1.496 -4.796,-2.438 -7.578,-2.518c-1.711,-0.049 -3.15,0.536 -4.613,1.41c-0.911,0.544 -1.851,1.079 -2.678,1.749" style="fill:#dde3e9;"/><path d="M32.813,48.257c-1.783,-1.838 -3.572,-3.653 -5.564,-5.272c-1.173,-0.954 -2.411,-1.821 -3.622,-2.725c0.14,0.122 0.277,0.249 0.411,0.378c-0.379,-0.257 -0.874,-0.403 -1.275,-0.64c-0.447,-0.266 -0.874,-0.569 -1.294,-0.875c-0.818,-0.597 -1.624,-1.206 -2.466,-1.772c-0.937,-0.631 -1.909,-1.213 -2.862,-1.82c-0.809,-0.515 -1.628,-1.079 -2.494,-1.5c-0.471,-0.229 -0.944,-0.501 -1.418,-0.74c-0.159,-0.08 -1.767,-1.097 -1.763,-1.1c0.089,-0.068 0.898,0.313 1.023,0.365c0.366,0.149 0.716,0.328 1.067,0.506c-0.193,-0.381 -0.345,-0.781 -0.428,-1.203c-0.026,-0.13 -0.232,-1.077 -0.127,-1.156c0.053,-0.04 0.566,1.654 0.592,1.817c0.022,0.133 0.019,0.323 0.062,0.448c0.07,0.203 0.066,0.142 0.22,0.256c0.282,0.209 0.657,0.339 0.962,0.514c0.164,0.092 0.674,0.457 0.981,0.561c0.929,0.451 1.87,1.146 2.753,1.723c-0.232,-0.436 -0.408,-0.891 -0.537,-1.369c-0.03,-0.113 -0.36,-1.13 -0.28,-1.191c0.09,-0.068 0.718,1.486 0.756,1.633c0.069,0.273 0.083,0.577 0.17,0.843c0.095,0.291 0.391,0.395 0.659,0.565c0.983,0.625 1.933,1.29 2.866,1.985c1.019,-1.814 -0.155,-4.005 -1.146,-5.527c-0.713,-1.097 -1.674,-2.038 -2.689,-2.859c-1.354,-1.096 -2.903,-1.972 -4.45,-2.772c-1.803,-0.933 -3.751,-1.512 -5.777,-1.779c-1.059,-0.139 -2.143,-0.136 -3.213,-0.091c-0.523,0.022 -1.025,0.091 -1.526,0.262c-0.226,0.077 -0.444,0.174 -0.656,0.283c-0.162,0.082 -0.553,0.17 -0.646,0.293c-0.765,0.996 -1.156,1.989 -1.096,3.242c0.056,1.185 0.43,2.371 0.938,3.429c0.565,1.177 1.292,2.246 2.243,3.143c0.725,0.684 1.536,1.279 2.341,1.867c2.865,2.091 6.498,3.909 10.208,3.442c1.201,-0.151 2.344,-0.572 3.411,-1.143c0.252,-0.135 0.502,-0.271 0.74,-0.43c0.16,-0.108 0.588,-0.591 0.749,-0.608c0.22,-0.024 0.696,0.425 0.903,0.562c1.574,1.04 3.107,2.137 4.607,3.278c1.596,1.214 3.115,2.51 4.588,3.867c0.627,0.578 1.249,1.156 1.858,1.753c0.142,0.139 0.488,0.65 0.745,0.673c0.162,0.015 0.272,-0.124 0.249,-0.274c-0.041,-0.262 -0.591,-0.653 -0.773,-0.842" style="fill:#c1dee2;"/><path d="M164.71,43.462c-0.691,-0.151 -1.454,-0.139 -2.157,-0.127c-3.772,0.051 -7.477,1.84 -9.888,4.697c-2.053,2.432 -2.617,5.457 -3.022,8.514c-0.041,0.303 -0.058,0.605 -0.081,0.909c-0.004,0.066 -0.012,0.124 -0.019,0.179c-0.16,0.142 -0.244,0.309 -0.149,0.492c-0.351,0.769 -0.649,1.558 -0.904,2.372c-0.75,2.396 -1.514,4.838 -1.043,7.357c0.11,-1.386 0.341,-2.804 0.617,-4.168c0.016,-0.078 0.033,-0.156 0.051,-0.233c0.002,-0.008 0.004,-0.016 0.005,-0.024c0.098,-0.418 0.225,-0.823 0.38,-1.222c0.002,-0.004 0.003,-0.008 0.005,-0.013c0.02,-0.052 0.042,-0.104 0.063,-0.157c0.045,-0.108 0.09,-0.216 0.139,-0.323c0.016,-0.036 0.032,-0.073 0.047,-0.11c0.225,-0.553 0.32,-1.176 0.522,-1.747c0.048,-0.13 0.098,-0.26 0.151,-0.389c0.003,-0.007 0.006,-0.015 0.01,-0.022c0.142,-0.347 0.3,-0.689 0.467,-1.028c0.091,-0.069 0.139,-0.238 0.218,-0.392c0.016,-0.03 0.142,-0.232 0.18,-0.349c0.098,-0.19 0.196,-0.381 0.295,-0.571l-0.009,0.004c0.099,-0.183 0.199,-0.364 0.297,-0.545c0.022,-0.04 0.044,-0.08 0.066,-0.12c0.035,-0.063 0.07,-0.127 0.106,-0.19c0.33,-0.592 0.681,-1.172 1.044,-1.745c0.13,-0.205 0.441,-0.498 0.5,-0.728c0.002,-0.008 0.003,-0.016 0.004,-0.024c0.79,-1.111 1.699,-2.135 2.789,-2.946c-0.132,0.143 -0.412,0.626 -0.486,0.722c-0.227,0.294 -0.473,0.567 -0.72,0.843c-0.442,0.495 -0.874,1.006 -1.257,1.546c-0.702,0.988 -1.307,2.028 -1.88,3.089c-0.005,0.006 -0.011,0.012 -0.016,0.018c-0.288,0.355 -0.469,0.891 -0.676,1.297c0.82,-0.379 1.725,-0.627 2.566,-0.964c0.839,-0.336 1.654,-0.711 2.442,-1.151c1.046,-0.584 2.132,-1.244 3.121,-1.991c1.133,-0.704 2.085,-1.672 2.926,-2.689c0.995,-1.203 1.906,-2.416 2.47,-3.876c0.277,-0.718 0.494,-1.466 0.624,-2.223c0.005,-0.033 0.012,-0.069 0.02,-0.106c0.132,-0.262 0.25,-0.529 0.35,-0.803c0.157,-0.433 0.529,-0.911 -0.168,-1.063" style="fill:#69a1ac;"/><path d="M22.79,51.172c-0.18,0.058 -0.396,-0.17 -0.163,-0.226c0.188,-0.045 0.179,-0.056 0.264,-0.208c0.068,-0.123 0.111,-0.273 0.171,-0.403c0.128,-0.274 0.273,-0.536 0.451,-0.781c0.381,-0.526 0.846,-0.979 1.367,-1.361c0.909,-0.666 1.929,-1.275 3.011,-1.581c1.72,-0.486 3.677,-0.517 5.4,-0.179c1.066,0.209 2.041,0.572 2.75,1.432c0.354,0.43 0.632,0.933 0.753,1.488c0.032,0.144 0.026,0.306 0.066,0.448c0.061,0.218 0.034,0.16 0.289,0.202c0.278,0.046 0.556,0.094 0.834,0.142c0.728,0.126 1.46,0.26 2.169,0.464c0.234,0.067 0.462,0.15 0.685,0.245c0.168,0.073 0.84,0.299 0.922,0.519c0.135,0.365 -0.32,0.199 -0.461,0.12c-0.124,-0.07 -0.251,-0.135 -0.38,-0.195c-0.325,-0.15 -0.664,-0.267 -1.01,-0.359c-0.374,-0.101 -0.756,-0.175 -1.136,-0.25c-0.355,-0.07 -0.711,-0.134 -1.067,-0.194c-0.198,-0.034 -0.396,-0.067 -0.594,-0.099c-0.068,-0.012 -0.187,-0.07 -0.178,0.018c-0.417,-0.081 -0.867,-0.069 -1.292,-0.091c-0.52,-0.027 -1.041,-0.05 -1.563,-0.033c-0.376,0.011 -0.752,0.036 -1.127,0.087c-0.218,0.029 -0.434,0.073 -0.648,0.127c-0.118,0.03 -0.583,0.094 -0.647,0.197c0.028,-0.044 0.541,-0.001 0.606,-0.004c0.261,-0.01 0.52,-0.035 0.78,-0.065c0.483,-0.054 0.966,-0.082 1.45,-0.078c-0.002,0.085 -0.332,0.237 -0.413,0.293c-0.181,0.127 -0.355,0.265 -0.516,0.416c-0.285,0.267 -0.627,0.597 -0.824,0.913c0.058,-0.093 0.345,-0.214 0.447,-0.285c0.163,-0.114 0.322,-0.236 0.473,-0.366c0.14,-0.12 0.27,-0.249 0.398,-0.382c0.128,-0.132 0.301,-0.408 0.469,-0.496c0.011,-0.005 0.084,0.053 0.125,0.033c0.042,-0.02 0.095,-0.119 0.105,-0.123c0.157,-0.061 0.454,0.015 0.619,0.022c0.426,0.02 0.852,0.046 1.279,0.069c0.132,0.007 0.244,-0.023 0.294,0.075c0.053,0.104 -0.044,0.377 -0.072,0.491c-0.103,0.42 -0.285,0.798 -0.573,1.124c-0.538,0.611 -1.202,1.018 -1.951,1.29c-2.872,1.043 -5.927,1.461 -8.798,0.376c-1.189,-0.449 -2.979,-1.252 -2.764,-2.832" style="fill:#89c5cc;"/><path d="M172.013,105.797c2.472,15.422 -57.458,25.481 -109.04,18.461c-51.583,-7.02 -75.247,-34.435 -50.632,-49.042c24.614,-14.608 157.201,15.158 159.672,30.581l0,0Z" style="fill:#dde3e9;fill-opacity:0.6;"/><g><path d="M33.796,9.756l28.951,0c0.894,0 1.62,0.727 1.62,1.622l0,57.973c0,0.895 -0.726,1.621 -1.62,1.621l-28.951,0c-0.894,0 -1.62,-0.726 -1.62,-1.621l0,-57.973c0,-0.895 0.726,-1.622 1.62,-1.622Z" style="fill:#f2f2f2;"/><ellipse cx="48.17" cy="64.08" rx="3.037" ry="3.04" style="fill:#fff;"/><g><ellipse cx="45.539" cy="13.404" rx="0.405" ry="0.406" style="fill:#fff;"/><path d="M47.36,12.999l3.442,0c0.224,0 0.405,0.182 0.405,0.406c0,0.223 -0.181,0.405 -0.405,0.405l-3.442,0c-0.223,0 -0.404,-0.182 -0.404,-0.405c0,-0.224 0.181,-0.406 0.404,-0.406Z" style="fill:#fff;"/></g><g><g><path d="M35.82,15.432l24.903,0c0.447,0 0.81,0.363 0.81,0.81l0,9.325c0,0.447 -0.363,0.811 -0.81,0.811l-24.903,0c-0.447,0 -0.809,-0.364 -0.809,-0.811l0,-9.325c0,-0.447 0.362,-0.81 0.809,-0.81Z" style="fill:#fff;"/><g><path d="M43.514,18.715l13.564,0c0.336,0 0.608,0.273 0.608,0.609l0,0.425c0,0.336 -0.272,0.608 -0.608,0.608l-13.564,0c-0.335,0 -0.608,-0.272 -0.608,-0.608l0,-0.425c0,-0.336 0.273,-0.609 0.608,-0.609Z" style="fill:#dde3e9;"/><path d="M43.514,21.452l8.705,0c0.336,0 0.608,0.272 0.608,0.608l0,0.426c0,0.335 -0.272,0.608 -0.608,0.608l-8.705,0c-0.335,0 -0.608,-0.273 -0.608,-0.608l0,-0.426c0,-0.336 0.273,-0.608 0.608,-0.608Z" style="fill:#dde3e9;"/></g><ellipse cx="39.262" cy="20.904" rx="2.429" ry="2.432" style="fill:#c5cfd6;"/></g><g><path d="M35.82,27.999l24.903,0c0.447,0 0.81,0.364 0.81,0.811l0,6.892c0,0.447 -0.363,0.811 -0.81,0.811l-24.903,0c-0.447,0 -0.809,-0.364 -0.809,-0.811l0,-6.892c0,-0.447 0.362,-0.811 0.809,-0.811Z" style="fill:#fff;"/><g><path d="M43.514,30.553l13.564,0c0.336,0 0.608,0.273 0.608,0.608l0,0.061c0,0.336 -0.272,0.608 -0.608,0.608l-13.564,0c-0.335,0 -0.608,-0.272 -0.608,-0.608l0,-0.061c0,-0.335 0.273,-0.608 0.608,-0.608l0,0Z" style="fill:#dde3e9;"/><path d="M43.514,32.682l8.705,0c0.336,0 0.608,0.272 0.608,0.608l0,0.061c0,0.335 -0.272,0.608 -0.608,0.608l-8.705,0c-0.335,0 -0.608,-0.273 -0.608,-0.608l0,-0.061c0,-0.336 0.273,-0.608 0.608,-0.608l0,0Z" style="fill:#dde3e9;"/></g><ellipse cx="39.262" cy="32.256" rx="2.429" ry="2.432" style="fill:#c5cfd6;"/></g><g><path d="M35.82,38.134l24.903,0c0.447,0 0.81,0.364 0.81,0.811l0,6.892c0,0.448 -0.363,0.811 -0.81,0.811l-24.903,0c-0.447,0 -0.809,-0.363 -0.809,-0.811l0,-6.892c0,-0.447 0.362,-0.811 0.809,-0.811l0,0Z" style="fill:#fff;"/><g><path d="M43.514,40.688l13.564,0c0.336,0 0.608,0.273 0.608,0.609l0,0.06c0,0.336 -0.272,0.608 -0.608,0.608l-13.564,0c-0.335,0 -0.608,-0.272 -0.608,-0.608l0,-0.06c0,-0.336 0.273,-0.609 0.608,-0.609Z" style="fill:#dde3e9;"/><path d="M43.514,42.817l8.705,0c0.336,0 0.608,0.272 0.608,0.608l0,0.061c0,0.335 -0.272,0.608 -0.608,0.608l-8.705,0c-0.335,0 -0.608,-0.273 -0.608,-0.608l0,-0.061c0,-0.336 0.273,-0.608 0.608,-0.608l0,0Z" style="fill:#dde3e9;"/></g><ellipse cx="39.262" cy="42.391" rx="2.429" ry="2.432" style="fill:#afb9c5;"/></g><g><path d="M35.82,48.269l24.903,0c0.447,0 0.81,0.364 0.81,0.811l0,6.892c0,0.448 -0.363,0.811 -0.81,0.811l-24.903,0c-0.447,0 -0.809,-0.363 -0.809,-0.811l0,-6.892c0,-0.447 0.362,-0.811 0.809,-0.811Z" style="fill:#fff;"/><g><path d="M43.514,50.824l13.564,0c0.336,0 0.608,0.272 0.608,0.608l0,0.06c0,0.336 -0.272,0.609 -0.608,0.609l-13.564,0c-0.335,0 -0.608,-0.273 -0.608,-0.609l0,-0.06c0,-0.336 0.273,-0.608 0.608,-0.608Z" style="fill:#dde3e9;"/><path d="M43.514,52.952l8.705,0c0.336,0 0.608,0.272 0.608,0.608l0,0.061c0,0.335 -0.272,0.608 -0.608,0.608l-8.705,0c-0.335,0 -0.608,-0.273 -0.608,-0.608l0,-0.061c0,-0.336 0.273,-0.608 0.608,-0.608Z" style="fill:#dde3e9;"/></g><ellipse cx="39.262" cy="52.526" rx="2.429" ry="2.432" style="fill:#c5cfd6;"/></g></g></g><g><g><path d="M40.53,60.083c-0.268,0 -0.535,0.006 -0.803,0.02c-0.204,0.011 -0.516,-0.032 -0.689,0.096c-0.18,0.132 -0.167,0.403 -0.139,0.594c0.148,1.012 0.51,1.909 1.267,2.626c1.165,1.104 2.501,1.665 4.082,1.914c1.111,0.176 2.136,-0.068 2.954,-0.858c0.597,1.11 1.05,2.338 1.278,3.578c0.112,0.611 0.146,1.216 0.126,1.839c-0.012,0.399 -0.034,0.797 -0.077,1.194c-0.018,0.172 -0.106,0.434 -0.039,0.597c0.079,0.191 0.346,0.21 0.466,0.046c0.1,-0.135 0.082,-0.402 0.102,-0.563c0.034,-0.267 0.066,-0.535 0.088,-0.803c0.037,-0.434 0.064,-0.87 0.062,-1.306c-0.005,-0.98 -0.222,-1.964 -0.52,-2.894c-0.571,-1.784 -1.497,-3.37 -2.938,-4.614c-0.886,-0.765 -1.9,-1.075 -3.05,-1.241c-0.716,-0.103 -1.444,-0.225 -2.17,-0.225" style="fill:#89c5cc;"/><path d="M44.667,67.178c-2.895,0 -4.845,2.336 -5.767,4.764c-0.347,0.915 -0.429,1.92 -0.563,2.881c-0.043,0.308 -0.027,0.778 -0.152,1.053c-0.045,0.099 -0.149,0.135 -0.099,0.271c0.03,0.082 0.089,0.133 0.178,0.149c0.182,0.033 0.439,-0.165 0.595,-0.243c1.295,-0.651 2.146,-1.656 2.84,-2.886c0.43,-0.763 0.867,-1.554 1.122,-2.391c0.157,-0.511 0.247,-1.05 0.301,-1.58c0.021,-0.209 0.041,-0.423 0.04,-0.633c-0.001,-0.209 -0.098,-0.319 -0.168,-0.5c0.966,-0.366 2.056,-0.466 3.035,-0.087c0.905,0.351 1.657,1.029 2.078,1.881c0.109,0.221 0.193,0.455 0.255,0.693c0.04,0.156 0.042,0.359 0.116,0.5c0.181,0.342 0.561,0.113 0.525,-0.205c-0.102,-0.888 -0.609,-1.78 -1.258,-2.398c-0.818,-0.778 -1.927,-1.269 -3.078,-1.269" style="fill:#89c5cc;"/></g><path d="M49.41,15.894l28.952,0c0.894,0 1.619,0.727 1.619,1.622l0,57.973c0,0.895 -0.725,1.621 -1.619,1.621l-28.952,0c-0.894,0 -1.619,-0.726 -1.619,-1.621l0,-57.973c0,-0.895 0.725,-1.622 1.619,-1.622l0,0Z" style="fill:#dde3e9;"/><ellipse cx="63.785" cy="70.218" rx="3.037" ry="3.04" style="fill:#fff;"/><g><ellipse cx="61.153" cy="19.543" rx="0.405" ry="0.406" style="fill:#fff;"/><path d="M62.975,19.138l3.442,0c0.223,0 0.405,0.181 0.405,0.405c0,0.224 -0.182,0.405 -0.405,0.405l-3.442,0c-0.224,0 -0.405,-0.181 -0.405,-0.405c0,-0.224 0.181,-0.405 0.405,-0.405Z" style="fill:#fff;"/></g><g><g><path d="M51.435,21.57l24.902,0c0.447,0 0.81,0.363 0.81,0.811l0,9.324c0,0.448 -0.363,0.811 -0.81,0.811l-24.902,0c-0.447,0 -0.81,-0.363 -0.81,-0.811l0,-9.324c0,-0.448 0.363,-0.811 0.81,-0.811Z" style="fill:#fff;"/><g><path d="M53.054,24.854l13.565,0c0.335,0 0.608,0.272 0.608,0.608l0,0.426c0,0.335 -0.273,0.608 -0.608,0.608l-13.565,0c-0.335,0 -0.607,-0.273 -0.607,-0.608l0,-0.426c0,-0.336 0.272,-0.608 0.607,-0.608l0,0Z" style="fill:#dde3e9;"/><path d="M53.054,27.59l8.706,0c0.335,0 0.608,0.273 0.608,0.608l0,0.426c0,0.336 -0.273,0.608 -0.608,0.608l-8.706,0c-0.335,0 -0.607,-0.272 -0.607,-0.608l0,-0.426c0,-0.335 0.272,-0.608 0.607,-0.608l0,0Z" style="fill:#dde3e9;"/></g><g><ellipse cx="74.312" cy="27.043" rx="1.417" ry="1.419" style="fill:#dde3e9;"/><ellipse cx="74.312" cy="27.043" rx="0.608" ry="0.608" style="fill:#f2f2f2;"/></g></g><g><path d="M51.435,34.138l24.902,0c0.447,0 0.81,0.363 0.81,0.81l0,6.892c0,0.448 -0.363,0.811 -0.81,0.811l-24.902,0c-0.447,0 -0.81,-0.363 -0.81,-0.811l0,-6.892c0,-0.447 0.363,-0.81 0.81,-0.81l0,0Z" style="fill:#fff;"/><g><path d="M59.128,36.692l13.565,0c0.335,0 0.607,0.272 0.607,0.608l0,0.06c0,0.336 -0.272,0.609 -0.607,0.609l-13.565,0c-0.335,0 -0.607,-0.273 -0.607,-0.609l0,-0.06c0,-0.336 0.272,-0.608 0.607,-0.608Z" style="fill:#dde3e9;"/><path d="M59.128,38.82l8.706,0c0.335,0 0.607,0.272 0.607,0.608l0,0.061c0,0.335 -0.272,0.608 -0.607,0.608l-8.706,0c-0.335,0 -0.607,-0.273 -0.607,-0.608l0,-0.061c0,-0.336 0.272,-0.608 0.607,-0.608l0,0Z" style="fill:#dde3e9;"/></g><ellipse cx="54.877" cy="38.394" rx="2.429" ry="2.432" style="fill:#c5cfd6;"/></g><g><path d="M51.435,44.273l24.902,0c0.447,0 0.81,0.363 0.81,0.81l0,6.892c0,0.448 -0.363,0.811 -0.81,0.811l-24.902,0c-0.447,0 -0.81,-0.363 -0.81,-0.811l0,-6.892c0,-0.447 0.363,-0.81 0.81,-0.81Z" style="fill:#fff;"/><g><path d="M53.054,46.827l13.565,0c0.335,0 0.608,0.272 0.608,0.608l0,0.061c0,0.335 -0.273,0.608 -0.608,0.608l-13.565,0c-0.335,0 -0.607,-0.273 -0.607,-0.608l0,-0.061c0,-0.336 0.272,-0.608 0.607,-0.608Z" style="fill:#dde3e9;"/><path d="M53.054,48.955l8.706,0c0.335,0 0.608,0.273 0.608,0.608l0,0.061c0,0.336 -0.273,0.608 -0.608,0.608l-8.706,0c-0.335,0 -0.607,-0.272 -0.607,-0.608l0,-0.061c0,-0.335 0.272,-0.608 0.607,-0.608Z" style="fill:#afb9c5;"/></g><g><ellipse cx="74.312" cy="48.529" rx="1.417" ry="1.419" style="fill:#dde3e9;"/><ellipse cx="74.312" cy="48.529" rx="0.608" ry="0.608" style="fill:#f2f2f2;"/></g></g><g><path d="M51.435,54.408l24.902,0c0.447,0 0.81,0.363 0.81,0.811l0,6.891c0,0.448 -0.363,0.811 -0.81,0.811l-24.902,0c-0.447,0 -0.81,-0.363 -0.81,-0.811l0,-6.891c0,-0.448 0.363,-0.811 0.81,-0.811Z" style="fill:#fff;"/><g><path d="M59.128,56.962l13.565,0c0.335,0 0.607,0.272 0.607,0.608l0,0.061c0,0.335 -0.272,0.608 -0.607,0.608l-13.565,0c-0.335,0 -0.607,-0.273 -0.607,-0.608l0,-0.061c0,-0.336 0.272,-0.608 0.607,-0.608l0,0Z" style="fill:#dde3e9;"/><path d="M59.128,59.09l8.706,0c0.335,0 0.607,0.273 0.607,0.608l0,0.061c0,0.336 -0.272,0.608 -0.607,0.608l-8.706,0c-0.335,0 -0.607,-0.272 -0.607,-0.608l0,-0.061c0,-0.335 0.272,-0.608 0.607,-0.608l0,0Z" style="fill:#dde3e9;"/></g><ellipse cx="54.877" cy="58.665" rx="2.429" ry="2.432" style="fill:#c5cfd6;"/></g></g></g><g><path d="M72.318,22.531l64.584,0c0.894,0 1.619,0.727 1.619,1.622l0,66.892c0,0.895 -0.725,1.621 -1.619,1.621l-64.584,0c-0.894,0 -1.62,-0.726 -1.62,-1.621l0,-66.892c0,-0.895 0.726,-1.622 1.62,-1.622Z" style="fill:#f2f2f2;"/><path d="M122.73,31.247l10.932,0c0.894,0 1.62,0.727 1.62,1.622l0,13.176c0,0.895 -0.726,1.621 -1.62,1.621l-10.932,0c-0.894,0 -1.62,-0.726 -1.62,-1.621l0,-13.176c0,-0.895 0.726,-1.622 1.62,-1.622Z" style="fill:#fff;"/><g><ellipse cx="128.196" cy="37.531" rx="3.239" ry="3.243" style="fill:#dde3e9;"/><path d="M123.742,41.585l8.908,0c0.335,0 0.607,0.273 0.607,0.608c0,0.336 -0.272,0.608 -0.607,0.608l-8.908,0c-0.335,0 -0.607,-0.272 -0.607,-0.608c0,-0.335 0.272,-0.608 0.607,-0.608Z" style="fill:#dde3e9;"/><path d="M125.362,43.612l5.668,0c0.336,0 0.608,0.273 0.608,0.608c0,0.336 -0.272,0.608 -0.608,0.608l-5.668,0c-0.336,0 -0.608,-0.272 -0.608,-0.608c0,-0.335 0.272,-0.608 0.608,-0.608l0,0Z" style="fill:#dde3e9;"/></g><path d="M72.318,22.531l64.584,0c0.894,0 1.619,0.727 1.619,1.622l0,3.851l-67.823,0l0,-3.851c0,-0.895 0.726,-1.622 1.62,-1.622Z" style="fill:#c5cfd6;"/><g><ellipse cx="73.33" cy="25.369" rx="0.81" ry="0.811" style="fill:#f2f2f2;"/><ellipse cx="75.759" cy="25.369" rx="0.81" ry="0.811" style="fill:#f2f2f2;"/><ellipse cx="78.189" cy="25.369" rx="0.81" ry="0.811" style="fill:#f2f2f2;"/></g><g><path d="M122.73,49.288l10.932,0c0.894,0 1.62,0.726 1.62,1.621l0,36.081c0,0.895 -0.726,1.622 -1.62,1.622l-10.932,0c-0.894,0 -1.62,-0.727 -1.62,-1.622l0,-36.081c0,-0.895 0.726,-1.621 1.62,-1.621Z" style="fill:#fff;"/><g><path d="M125.564,52.936l5.264,0c0.447,0 0.81,0.364 0.81,0.811l0,3.649c0,0.447 -0.363,0.811 -0.81,0.811l-5.264,0c-0.447,0 -0.81,-0.364 -0.81,-0.811l0,-3.649c0,-0.447 0.363,-0.811 0.81,-0.811Z" style="fill:#dde3e9;"/><path d="M125.564,59.828l5.264,0c0.447,0 0.81,0.364 0.81,0.811l0,3.446c0,0.448 -0.363,0.811 -0.81,0.811l-5.264,0c-0.447,0 -0.81,-0.363 -0.81,-0.811l0,-3.446c0,-0.447 0.363,-0.811 0.81,-0.811Z" style="fill:#afb9c5;"/><path d="M125.564,66.517l5.264,0c0.447,0 0.81,0.364 0.81,0.811l0,3.446c0,0.448 -0.363,0.811 -0.81,0.811l-5.264,0c-0.447,0 -0.81,-0.363 -0.81,-0.811l0,-3.446c0,-0.447 0.363,-0.811 0.81,-0.811Z" style="fill:#dde3e9;"/><path d="M125.564,79.896l5.264,0c0.447,0 0.81,0.363 0.81,0.811l0,3.446c0,0.447 -0.363,0.81 -0.81,0.81l-5.264,0c-0.447,0 -0.81,-0.363 -0.81,-0.81l0,-3.446c0,-0.448 0.363,-0.811 0.81,-0.811Z" style="fill:#dde3e9;"/><path d="M125.564,73.207l5.264,0c0.447,0 0.81,0.363 0.81,0.81l0,3.446c0,0.448 -0.363,0.811 -0.81,0.811l-5.264,0c-0.447,0 -0.81,-0.363 -0.81,-0.811l0,-3.446c0,-0.447 0.363,-0.81 0.81,-0.81Z" style="fill:#c5cfd6;"/></g></g><g><g><path d="M74.747,31.45l43.933,0c0.447,0 0.81,0.363 0.81,0.811l0,7.905c0,0.448 -0.363,0.811 -0.81,0.811l-43.933,0c-0.447,0 -0.81,-0.363 -0.81,-0.811l0,-7.905c0,-0.448 0.363,-0.811 0.81,-0.811Z" style="fill:#fff;"/><g><path d="M76.367,34.308l32.596,0c0.335,0 0.607,0.273 0.607,0.608l0,0.213c0,0.336 -0.272,0.608 -0.607,0.608l-32.596,0c-0.335,0 -0.608,-0.272 -0.608,-0.608l0,-0.213c0,-0.335 0.273,-0.608 0.608,-0.608Z" style="fill:#dde3e9;"/><path d="M76.367,36.69l21.48,0c0.335,0 0.607,0.272 0.607,0.608l0,0.213c0,0.335 -0.272,0.608 -0.607,0.608l-21.48,0c-0.335,0 -0.608,-0.273 -0.608,-0.608l0,-0.213c0,-0.336 0.273,-0.608 0.608,-0.608Z" style="fill:#dde3e9;"/></g><g><ellipse cx="114.622" cy="36.213" rx="1.417" ry="1.419" style="fill:#dde3e9;"/><ellipse cx="114.622" cy="36.213" rx="0.608" ry="0.608" style="fill:#f2f2f2;"/></g></g><g><path d="M74.747,42.599l43.933,0c0.447,0 0.81,0.363 0.81,0.81l0,6.284c0,0.448 -0.363,0.811 -0.81,0.811l-43.933,0c-0.447,0 -0.81,-0.363 -0.81,-0.811l0,-6.284c0,-0.447 0.363,-0.81 0.81,-0.81Z" style="fill:#fff;"/><g><path d="M76.352,44.97l32.626,0c0.327,0 0.592,0.266 0.592,0.593c0,0.327 -0.265,0.593 -0.592,0.593l-32.626,0c-0.327,0 -0.593,-0.266 -0.593,-0.593c0,-0.327 0.266,-0.593 0.593,-0.593Z" style="fill:#dde3e9;"/><path d="M76.352,46.947l21.51,0c0.327,0 0.592,0.265 0.592,0.592c0,0.328 -0.265,0.593 -0.592,0.593l-21.51,0c-0.327,0 -0.593,-0.265 -0.593,-0.593c0,-0.327 0.266,-0.592 0.593,-0.592Z" style="fill:#dde3e9;"/></g><g><ellipse cx="114.622" cy="46.551" rx="1.417" ry="1.419" style="fill:#dde3e9;"/><ellipse cx="114.622" cy="46.551" rx="0.608" ry="0.608" style="fill:#f2f2f2;"/></g></g><g><path d="M74.747,52.126l43.933,0c0.447,0 0.81,0.363 0.81,0.81l0,6.284c0,0.448 -0.363,0.811 -0.81,0.811l-43.933,0c-0.447,0 -0.81,-0.363 -0.81,-0.811l0,-6.284c0,-0.447 0.363,-0.81 0.81,-0.81Z" style="fill:#fff;"/><g><path d="M76.352,54.497l32.626,0c0.327,0 0.592,0.266 0.592,0.593c0,0.327 -0.265,0.593 -0.592,0.593l-32.626,0c-0.327,0 -0.593,-0.266 -0.593,-0.593c0,-0.327 0.266,-0.593 0.593,-0.593Z" style="fill:#dde3e9;"/><path d="M76.352,56.474l21.51,0c0.327,0 0.592,0.265 0.592,0.592c0,0.328 -0.265,0.593 -0.592,0.593l-21.51,0c-0.327,0 -0.593,-0.265 -0.593,-0.593c0,-0.327 0.266,-0.592 0.593,-0.592Z" style="fill:#dde3e9;"/></g><g><ellipse cx="114.622" cy="56.079" rx="1.417" ry="1.419" style="fill:#dde3e9;"/><ellipse cx="114.622" cy="56.079" rx="0.608" ry="0.608" style="fill:#afb9c5;"/></g></g><g><path d="M74.747,80.707l43.933,0c0.447,0 0.81,0.363 0.81,0.81l0,6.284c0,0.448 -0.363,0.811 -0.81,0.811l-43.933,0c-0.447,0 -0.81,-0.363 -0.81,-0.811l0,-6.284c0,-0.447 0.363,-0.81 0.81,-0.81Z" style="fill:#fff;"/><g><path d="M76.352,83.078l32.626,0c0.327,0 0.592,0.266 0.592,0.593c0,0.327 -0.265,0.593 -0.592,0.593l-32.626,0c-0.327,0 -0.593,-0.266 -0.593,-0.593c0,-0.327 0.266,-0.593 0.593,-0.593Z" style="fill:#dde3e9;"/><path d="M76.352,85.055l21.51,0c0.327,0 0.592,0.265 0.592,0.593c0,0.327 -0.265,0.592 -0.592,0.592l-21.51,0c-0.327,0 -0.593,-0.265 -0.593,-0.592c0,-0.328 0.266,-0.593 0.593,-0.593Z" style="fill:#dde3e9;"/></g><g><ellipse cx="114.622" cy="84.66" rx="1.417" ry="1.419" style="fill:#dde3e9;"/><ellipse cx="114.622" cy="84.66" rx="0.608" ry="0.608" style="fill:#f2f2f2;"/></g></g><g><path d="M74.747,71.18l43.933,0c0.447,0 0.81,0.363 0.81,0.81l0,6.284c0,0.448 -0.363,0.811 -0.81,0.811l-43.933,0c-0.447,0 -0.81,-0.363 -0.81,-0.811l0,-6.284c0,-0.447 0.363,-0.81 0.81,-0.81Z" style="fill:#fff;"/><g><path d="M76.352,73.551l32.626,0c0.327,0 0.592,0.266 0.592,0.593c0,0.327 -0.265,0.593 -0.592,0.593l-32.626,0c-0.327,0 -0.593,-0.266 -0.593,-0.593c0,-0.327 0.266,-0.593 0.593,-0.593Z" style="fill:#dde3e9;"/><path d="M76.352,75.528l21.51,0c0.327,0 0.592,0.265 0.592,0.593c0,0.327 -0.265,0.592 -0.592,0.592l-21.51,0c-0.327,0 -0.593,-0.265 -0.593,-0.592c0,-0.328 0.266,-0.593 0.593,-0.593Z" style="fill:#dde3e9;"/></g><g><ellipse cx="114.622" cy="75.132" rx="1.417" ry="1.419" style="fill:#dde3e9;"/><ellipse cx="114.622" cy="75.132" rx="0.608" ry="0.608" style="fill:#f2f2f2;"/></g></g><g><path d="M74.747,61.653l43.933,0c0.447,0 0.81,0.363 0.81,0.81l0,6.284c0,0.448 -0.363,0.811 -0.81,0.811l-43.933,0c-0.447,0 -0.81,-0.363 -0.81,-0.811l0,-6.284c0,-0.447 0.363,-0.81 0.81,-0.81Z" style="fill:#fff;"/><g><path d="M76.352,64.024l32.626,0c0.327,0 0.592,0.266 0.592,0.593c0,0.327 -0.265,0.593 -0.592,0.593l-32.626,0c-0.327,0 -0.593,-0.266 -0.593,-0.593c0,-0.327 0.266,-0.593 0.593,-0.593Z" style="fill:#dde3e9;"/><path d="M76.352,66.001l21.51,0c0.327,0 0.592,0.265 0.592,0.593c0,0.327 -0.265,0.592 -0.592,0.592l-21.51,0c-0.327,0 -0.593,-0.265 -0.593,-0.592c0,-0.328 0.266,-0.593 0.593,-0.593Z" style="fill:#dde3e9;"/></g><g><ellipse cx="114.622" cy="65.605" rx="1.417" ry="1.419" style="fill:#dde3e9;"/><ellipse cx="114.622" cy="65.605" rx="0.608" ry="0.608" style="fill:#f2f2f2;"/></g></g></g></g><path d="M165.377,60.539c-0.799,-0.542 -1.86,-0.684 -2.816,-0.684c-3.733,0 -7.241,1.386 -10.272,3.452c-1.661,1.132 -3.146,2.573 -4.458,4.074c-0.757,0.867 -1.432,1.804 -1.91,2.846c-0.322,0.704 -0.544,1.437 -0.694,2.193c-0.183,0.922 -0.328,1.862 -0.394,2.799c-0.025,0.369 -0.24,2.326 0.373,2.359c-0.003,0.049 -0.004,0.095 0,0.136c-1.331,2.082 -2.153,4.523 -2.915,6.837c-0.663,2.013 -1.254,4.044 -1.637,6.127c-0.505,2.743 -0.837,5.526 -0.995,8.308c-0.034,0.598 -0.057,1.196 -0.077,1.795c-0.017,0.511 -0.034,1.021 -0.051,1.532c-0.018,0.572 -0.119,1.231 -0.028,1.8c0.079,0.495 0.507,0.42 0.526,-0.073c0.023,-0.595 0.019,-1.192 0.045,-1.788c0.035,-0.79 0.071,-1.581 0.109,-2.372c0.269,-5.491 1.279,-10.902 3.141,-16.089c0.754,-2.1 1.618,-4.087 2.728,-6.029c0.976,-1.707 2.151,-3.36 3.351,-4.899c1.166,-1.496 2.379,-2.958 3.808,-4.225c1.16,-1.029 2.436,-1.925 3.747,-2.759c1.666,-1.059 3.329,-2.092 5.133,-2.905c0.938,-0.422 1.894,-0.8 2.839,-1.206c0.17,-0.073 0.352,-0.144 0.516,-0.228c0.545,-0.282 0.366,-0.706 -0.069,-1.001" style="fill:#c1dee2;"/><path d="M150.147,80.32c1.514,0 2.861,0.197 4.255,0.8c1.204,0.519 2.302,1.208 3.367,1.957c1.499,1.054 2.679,2.28 3.505,3.905c0.494,0.971 0.856,2.345 0.524,3.404c-0.39,1.247 -1.462,2.287 -2.874,2.067c-0.874,-0.136 -1.674,-0.714 -2.338,-1.259c-0.794,-0.652 -1.429,-1.435 -1.954,-2.305c-0.856,-1.42 -1.359,-3.025 -2.086,-4.508c-0.345,-0.704 -0.679,-1.413 -1.092,-2.082c-0.205,-0.331 -0.422,-0.659 -0.733,-0.906c-0.166,-0.131 -0.866,-0.359 -0.598,-0.655c-3.926,0.052 -7.404,3.07 -8.157,6.807c-0.071,0.348 -0.125,0.699 -0.183,1.05c-0.037,0.221 -0.022,1.037 -0.22,1.178c-0.435,0.312 -0.252,-0.635 -0.234,-0.772c0.049,-0.352 0.1,-0.704 0.154,-1.056c0.295,-1.912 1.145,-3.69 2.563,-5.054c1.622,-1.559 3.81,-2.571 6.101,-2.571" style="fill:#89c5cc;"/><g><path d="M7.745,84.218c3.78,6.348 8.181,12.495 10.824,19.435c-0.106,-0.818 -0.219,-1.635 -0.345,-2.451c-0.671,-4.326 -1.505,-8.621 -2.381,-12.91c-0.446,-2.183 -0.918,-4.359 -1.401,-6.535c-0.261,-1.168 -0.518,-2.338 -0.783,-3.505c-0.065,-0.283 -0.12,-0.777 -0.2,-1.277c2.568,8.439 5.046,16.886 6.858,25.528c0.237,1.135 0.44,2.267 0.606,3.397c0.056,-0.258 0.112,-0.515 0.173,-0.773c0.733,-3.082 1.833,-6.14 3.143,-9.022c0.626,-1.379 1.345,-2.727 2.191,-3.983c0.528,-0.783 1.773,-1.714 2.255,-2.516c-2.634,4.837 -3.585,10.888 -5.106,16.147c-0.371,1.283 -0.745,2.564 -1.111,3.848c2.294,-4.605 5.852,-8.389 10.8,-10.029c-5.989,3.962 -9.581,10.9 -12.002,17.996c-0.008,0.084 -0.017,0.168 -0.025,0.252c0.712,-1.353 1.609,-2.577 2.825,-3.435c2.603,-1.835 5.49,-1.3 8.015,0.274c-1.982,-1.261 -5.563,-0.113 -7.23,1.169c-1.193,0.917 -2.213,2.148 -3.099,3.349c-0.212,0.288 -0.502,0.624 -0.808,0.982c-0.429,2.788 -1.128,5.556 -2.117,8.302c0.163,-0.788 0.045,-2.049 0.09,-2.636c0.005,-0.064 0.009,-0.128 0.014,-0.191c-0.15,0.601 -0.296,1.196 -0.435,1.78c0.278,-1.116 0.429,-2.281 0.547,-3.458c0.03,-0.506 0.06,-1.012 0.091,-1.517c-0.01,-0.96 -0.049,-1.924 -0.116,-2.89c-0.237,-0.938 -0.502,-1.823 -0.721,-2.559c-0.789,-2.655 -1.946,-5.199 -3.37,-7.573c-1.299,-2.166 -2.854,-4.127 -4.649,-5.902c-0.968,-0.956 -1.981,-1.867 -2.98,-2.79c-0.361,-0.334 -1.006,-1.154 -1.565,-1.582c4.066,2.244 8.25,4.672 11.216,8.287c-0.348,-1.337 -0.725,-2.655 -1.125,-3.946c-2.026,-6.552 -4.585,-13.343 -8.079,-19.266Z" style="fill:#dde3e9;"/><path d="M11.807,120.15c0,7.277 0.576,13.176 8.301,13.176c7.725,0 8.301,-5.899 8.301,-13.176" style="fill:#c5cfd6;"/></g><g><path d="M128.006,6.486c0.335,0 0.608,0.273 0.608,0.609l0,3.851c0,0.336 -0.273,0.608 -0.608,0.608c-0.335,0 -0.607,-0.272 -0.607,-0.608l0,-3.851c0,-0.336 0.272,-0.609 0.607,-0.609l0,0Z" style="fill:#dde3e9;"/><path d="M130.841,3.243c0.335,0 0.607,0.273 0.607,0.608l0,7.095c0,0.336 -0.272,0.608 -0.607,0.608c-0.336,0 -0.608,-0.272 -0.608,-0.608l0,-7.095c0,-0.335 0.272,-0.608 0.608,-0.608Z" style="fill:#dde3e9;"/><path d="M133.675,1.622c0.335,0 0.607,0.272 0.607,0.608l0,8.716c0,0.336 -0.272,0.608 -0.607,0.608c-0.335,0 -0.607,-0.272 -0.607,-0.608l0,-8.716c0,-0.336 0.272,-0.608 0.607,-0.608Z" style="fill:#dde3e9;"/><path d="M136.509,3.243c0.336,0 0.608,0.273 0.608,0.608l0,7.095c0,0.336 -0.272,0.608 -0.608,0.608c-0.335,0 -0.607,-0.272 -0.607,-0.608l0,-7.095c0,-0.335 0.272,-0.608 0.607,-0.608l0,0Z" style="fill:#dde3e9;"/><path d="M139.344,0c0.335,0 0.607,0.272 0.607,0.608l0,10.338c0,0.336 -0.272,0.608 -0.607,0.608c-0.335,0 -0.608,-0.272 -0.608,-0.608l0,-10.338c0,-0.336 0.273,-0.608 0.608,-0.608Z" style="fill:#c5cfd6;"/></g><g><path d="M0.816,71.344c0,-2.258 1.823,-4.106 4.05,-4.106l0,4.106l-2.768,2.988c-0.787,-0.73 -1.282,-1.802 -1.282,-2.988Z" style="fill:#f2f2f2;"/><path d="M4.758,71.292l4.09,0c0,1.058 -0.432,2.05 -1.113,2.77c-0.75,0.788 -1.818,1.284 -2.977,1.284c-1.067,0 -2.044,-0.428 -2.794,-1.104l2.794,-2.95Z" style="fill:#afb9c5;"/><path d="M2.841,67.238l1.62,3.648l-3.645,-1.621c0.361,-0.946 1.17,-1.667 2.025,-2.027Zm6.074,4.054c0,-2.23 -1.823,-4.054 -4.049,-4.054l0,4.054l4.049,0Z" style="fill:#c5cfd6;"/></g><g><path d="M165.977,73.219c-0.389,0.414 -0.94,0.673 -1.553,0.673c-1.178,0 -2.132,-0.953 -2.132,-2.128c0,-1.176 0.954,-2.128 2.132,-2.128l0,-3.953c-3.35,0 -6.093,2.737 -6.093,6.081c0,3.344 2.743,6.081 6.093,6.081c1.76,0 3.351,-0.743 4.435,-1.925l-2.882,-2.701l0,0Z" style="fill:#f2f2f2;"/><path d="M164.405,65.683l0,3.953c1.174,0 2.126,0.952 2.126,2.128l3.948,0c0,-3.344 -2.734,-6.081 -6.074,-6.081l0,0Z" style="fill:#afb9c5;"/><path d="M166.449,71.764c0,0.691 -0.325,1.304 -0.829,1.701l2.482,3.164c1.445,-1.133 2.377,-2.889 2.377,-4.865l-4.03,0Z" style="fill:#c5cfd6;"/></g><g><path d="M117.23,8.191c-0.299,0.317 -0.723,0.516 -1.194,0.516c-0.906,0 -1.641,-0.73 -1.641,-1.631c0,-0.902 0.735,-1.632 1.641,-1.632l0,-3.031c-2.578,0 -4.687,2.099 -4.687,4.663c0,2.563 2.109,4.662 4.687,4.662c1.354,0 2.577,-0.57 3.411,-1.476l-2.217,-2.071Z" style="fill:#f2f2f2;"/><path d="M116.005,2.413l0,3.031c0.9,0 1.63,0.73 1.63,1.632l3.027,0c0,-2.564 -2.096,-4.663 -4.657,-4.663Z" style="fill:#afb9c5;"/><path d="M117.64,7.076c0,0.517 -0.244,0.978 -0.622,1.275l1.861,2.373c1.084,-0.849 1.783,-2.166 1.783,-3.648l-3.022,0Z" style="fill:#c5cfd6;"/></g><g><path d="M24.302,11.818c0,0.002 -0.001,0.004 -0.002,0.007c0.001,-0.002 0.002,-0.01 0.002,-0.007" style="fill:#c5cfd6;"/><path d="M24.301,11.821c0,0.001 -0.001,0.002 -0.001,0.002c0,-0.002 0.004,-0.008 0.001,-0.002" style="fill:#c5cfd6;"/><path d="M24.315,11.787c-0.003,0.008 -0.007,0.016 -0.01,0.024c0.002,-0.004 0.003,-0.007 0.005,-0.011c-0.042,0.105 -0.016,0.037 0.005,-0.013" style="fill:#c5cfd6;"/><path d="M24.306,11.812c-0.002,0.003 -0.004,0.007 -0.005,0.011c-0.012,0.023 0.005,-0.011 0.005,-0.011" style="fill:#c5cfd6;"/><path d="M24.301,11.821l0,0l0,0Z" style="fill:#c5cfd6;"/><path d="M24.301,11.822c0,-0.001 0,-0.001 0,-0.001c0,0 0,0 0,0.001" style="fill:#c5cfd6;"/><path d="M24.299,11.824c-0.003,0.005 0.011,-0.018 0,0" style="fill:#c5cfd6;"/><path d="M24.301,11.822l0,-0.001c0,0 0,0.001 0,0.001" style="fill:#c5cfd6;"/><path d="M15.393,1.281l17.614,0c0.447,0 0.81,0.363 0.81,0.81l0,11.149c0,0.448 -0.363,0.811 -0.81,0.811l-17.614,0c-0.447,0 -0.81,-0.363 -0.81,-0.811l0,-11.149c0,-0.447 0.363,-0.81 0.81,-0.81Z" style="fill:#dde3e9;"/><g><path d="M21.872,4.929l-5.669,9.122l11.337,0l-5.668,-9.122l0,0Z" style="fill:#afb9c5;"/><path d="M27.439,7.362l-4.96,6.689l9.92,0l-4.96,-6.689Z" style="fill:#c5cfd6;"/></g><ellipse cx="29.565" cy="5.538" rx="1.822" ry="1.824" style="fill:#fff;"/></g></g><g><g><g><path d="M51.797,73.632c1.173,2.19 1.034,7.743 -0.483,8.135c-0.604,0.156 -1.893,-0.226 -3.204,-1.018l0.823,5.829l-4.859,0l1.673,-7.806c-0.933,-1.096 -1.564,-2.44 -1.459,-3.945c0.304,-4.338 6.336,-3.384 7.509,-1.195Z" style="fill:#b28b67;"/><g><path d="M50.995,71.321c-0.125,-0.075 -0.387,-0.232 -0.519,-0.29c-0.032,-0.013 -0.251,-0.17 -0.257,-0.168c-0.166,0.056 -0.648,0.263 -0.689,0.443c-0.007,0.013 -0.013,0.026 -0.019,0.037c-0.068,0.124 -0.131,0.252 -0.19,0.38c-0.131,0.283 -0.245,0.579 -0.353,0.872c-0.21,0.572 -0.393,1.156 -0.561,1.742c-0.171,0.597 -0.316,1.2 -0.479,1.799c-0.234,0.862 -0.533,1.703 -0.765,2.564c-0.148,0.55 -0.231,1.107 -0.192,1.673c0,0.007 0.001,0.013 0.001,0.02c0,0.003 0.001,0.006 0.001,0.009c0.007,0.087 0.016,0.174 0.029,0.262c0.011,0.074 0.022,0.149 0.034,0.225c0.212,-0.424 0.374,-0.891 0.546,-1.335c0.016,-0.043 0.032,-0.087 0.048,-0.131c0.056,-0.09 0.112,-0.179 0.169,-0.268c0.361,-0.561 0.722,-1.119 1.068,-1.69c0.622,-1.027 1.238,-2.076 1.975,-3.019c0.217,-0.278 0.44,-0.552 0.655,-0.833c0.122,-0.16 0.241,-0.322 0.356,-0.487c0.083,-0.119 0.441,-0.531 0.311,-0.778c-0.066,-0.127 -0.845,-0.833 -1.169,-1.027Z" style="fill:#2c2c2c;"/><path d="M50.515,71.052c0.122,0.041 0.063,-0.213 -0.055,-0.302c-0.546,-0.413 -2.632,-0.563 -4.447,-0.185c-1.216,0.252 -2.63,0.882 -3.601,1.691c-0.876,0.73 -1.478,1.899 -1.788,3.029c-0.325,1.186 -0.374,2.423 -0.193,3.64c0.04,0.267 0.125,0.522 0.173,0.783c0.054,0.295 0.081,0.578 0.177,0.865c0.059,0.175 0.158,0.347 0.208,0.524c0.058,0.201 0.023,0.387 -0.019,0.592c-0.068,0.334 -0.152,0.667 -0.272,0.986c-0.179,0.478 -0.397,0.927 -0.534,1.424c-0.182,0.66 -0.942,2.811 -0.386,3.398l10.579,0c-0.266,-0.728 -1.066,-1.585 -1.228,-2.365c-0.095,-0.459 -0.14,-1.462 -0.15,-1.498c-0.239,-1.647 -0.704,-2.433 -0.996,-2.718c-0.291,-0.286 -0.68,-0.373 -0.7,-0.621c-0.082,-1.024 0.324,-2.005 0.622,-2.96c0.355,-1.139 0.615,-2.306 0.981,-3.441c0.162,-0.502 0.998,-3.055 1.629,-2.842Z" style="fill:#8991dc;"/><path d="M46.698,72.959c-0.355,1.129 -0.432,1.731 -0.355,3.272l-0.174,0c-0.326,-1.454 -0.036,-2.824 0.31,-3.272l0.219,0Zm-0.091,7.358c-1.566,-2.496 -1.654,-3.8 -1.954,-6.082l-0.156,0.012c0.076,2.173 0.332,3.947 1.943,6.121l0.167,-0.051l0,0Zm-1.862,-0.587c-1.848,-1.302 -2.15,-2.251 -2.812,-3.859l-0.139,0.067c0.439,1.609 0.974,2.851 2.808,3.892l0.143,-0.1Zm-1.822,1.284l0.142,-0.173c1.945,0.61 1.729,1.869 4.179,3.144l-0.205,0.124c-2.145,-0.886 -2.647,-2.787 -4.116,-3.095Z" style="fill-opacity:0.2;"/></g></g><g><path d="M31.648,113.124l23.283,0c1.788,0 3.239,1.453 3.239,3.243l0,18.648c0,1.79 -1.451,3.244 -3.239,3.244l-23.283,0c-1.788,0 -3.239,-1.454 -3.239,-3.244l0,-18.648c0,-1.79 1.451,-3.243 3.239,-3.243l0,0Zm3.239,5.675l16.804,0c0.447,0 0.81,0.364 0.81,0.811l0,12.162c0,0.448 -0.363,0.811 -0.81,0.811l-16.804,0c-0.447,0 -0.809,-0.363 -0.809,-0.811l0,-12.162c0,-0.447 0.362,-0.811 0.809,-0.811l0,0Z" style="fill:#c5cfd6;"/><path d="M78.246,137.245c-3.992,-4.88 -6.693,-8.498 -8.103,-10.854c-2.414,-4.033 -4.39,-7.623 -5.014,-8.994c-1.487,-3.269 3.424,-4.8 4.535,-3.275c1.682,2.308 5.274,9.571 10.777,21.789l-2.195,1.334Z" style="fill:#b28b67;"/><path d="M70.066,135.826l-7.429,-18.722c-1.588,-3.413 6.084,-5.656 7.252,-4.068c2.651,3.606 8.952,17.831 9.742,18.905l-9.565,3.885Z" style="fill:#2f3676;"/><path d="M50.281,132.072c1.447,-2.114 6.71,-9.224 9.577,-12.166c0.824,-0.845 1.628,-1.657 2.388,-2.413c2.26,-2.247 6.76,1.53 4.505,3.577c-5.618,5.098 -13.814,11.981 -14.499,12.594c-0.96,0.86 -2.881,-0.264 -1.971,-1.592l0,0Z" style="fill:#b28b67;"/><path d="M51.206,131.21c-0.129,-0.199 -0.4,-0.246 -0.588,-0.101c0,0 -0.698,0.54 -0.972,1.015c-0.273,0.474 -0.641,1.477 -0.641,1.477l9.89,5.716c0,0 1.121,-1.053 0.349,-1.635c-0.772,-0.582 -1.274,-0.981 -1.274,-0.981l-3.413,-4.709c-0.067,-0.092 -0.197,-0.111 -0.288,-0.041l-0.709,0.547c0,0 -0.976,-0.086 -1.457,-0.363c-0.48,-0.278 -0.897,-0.925 -0.897,-0.925Z" style="fill:#e4e4e4;"/><path d="M77.083,136.303c-0.211,-0.108 -0.469,-0.013 -0.559,0.207c0,0 -0.335,0.816 -0.335,1.365c0,0.548 0.182,1.6 0.182,1.6l11.419,0c0,0 0.445,-1.473 -0.514,-1.591c-0.959,-0.117 -1.593,-0.212 -1.593,-0.212l-5.307,-2.369c-0.104,-0.046 -0.226,0.002 -0.27,0.108l-0.341,0.828c0,0 -0.888,0.415 -1.443,0.415c-0.555,0 -1.239,-0.351 -1.239,-0.351Z" style="fill:#e4e4e4;"/><path d="M59.964,118.039c0,0 -9.261,-1.511 -12.407,-2.066c-5.977,-1.055 -7.72,-4.275 -6.689,-11.302l11.013,0c2.186,0.632 18.268,7.818 18.268,7.818c1.929,0.959 1.57,3.786 1.217,4.717c-0.021,0.057 -9.756,16.738 -9.756,16.738l-9.009,-5.746l7.38,-9.482c0,0 0.293,-0.589 -0.017,-0.677l0,0Z" style="fill:#5c63ab;"/></g><g><path d="M68.485,94.833l-7.993,1.092l1.434,3.586l6.486,-2.575c2.796,0.276 4.148,0.21 4.056,-0.199c-0.138,-0.614 -0.971,-0.466 -1.131,-0.865c-0.16,-0.399 0.749,-1.226 1.645,-1.973c0.896,-0.748 0.294,-0.885 -0.084,-0.874c-1.343,0.315 -2.814,0.918 -4.413,1.808Zm-38.889,19.659c-0.29,0.589 -2.437,2.379 -3.926,3.402c-0.598,0.41 -0.351,0.935 -0.125,1.075c1.425,0.88 2.472,0.271 3.612,-0.393c0.329,-0.192 0.667,-0.388 1.024,-0.555c0.924,-0.43 1.316,0.012 1.687,0.431c0.329,0.37 0.64,0.721 1.289,0.43c-0.057,-0.127 -0.124,-0.269 -0.196,-0.423c-0.468,-0.992 -1.157,-2.454 -0.751,-3.461c0.312,-0.775 7.604,-17.204 7.604,-17.204l-4.433,-0.017c0,0 -5.192,15.51 -5.785,16.715l0,0Z" style="fill:#997659;"/><path d="M47.524,83.7l3.471,0.231c0.855,7.744 5.512,12.635 15.937,10.979l1.385,9.972c-9.744,1.261 -18.29,-2.645 -20.041,-13.22c-0.454,-2.738 -0.812,-5.587 -0.752,-7.962l0,0Z" style="fill:#afb9c5;"/><path d="M30.204,112.484c0,0 3.615,-19.258 15.26,-29.798l0.345,0l0.003,0.004l5.259,1.205c0,9.057 2.881,14.835 4.359,21.494l-14.204,0c-0.2,2.301 -0.323,4.666 -0.387,7.095l-10.635,0Z" style="fill:#c5cfd6;"/><path d="M41.226,105.389c0.408,-4.684 1.135,-9.103 2.338,-13.257c-0.264,4.442 -0.337,9.953 0.549,13.257l-2.887,0l0,0Z" style="fill-opacity:0.1;"/></g></g><g><path d="M108.148,57.34c-1.173,2.189 -1.034,7.743 0.483,8.134c0.604,0.156 1.893,-0.226 3.204,-1.017l-0.823,5.828l4.859,0l-1.673,-7.806c0.933,-1.096 1.564,-2.44 1.459,-3.945c-0.304,-4.338 -6.336,-3.384 -7.509,-1.194Z" style="fill:#b28b67;"/><path d="M117.775,57.09c0.157,-0.156 0.243,-0.378 0.317,-0.589c0.077,-0.219 0.151,-0.441 0.202,-0.669c0.102,-0.456 0.103,-0.98 -0.221,-1.334c-0.261,-0.284 -0.652,-0.412 -1.013,-0.439c-0.24,-0.019 -0.487,0.015 -0.717,0.091c-0.229,0.075 -0.426,0.225 -0.648,0.318c-0.008,-0.491 -0.092,-1.005 -0.341,-1.425c-0.24,-0.404 -0.622,-0.63 -1.057,-0.69c-0.446,-0.061 -0.887,0.043 -1.287,0.26c-0.1,0.054 -0.199,0.11 -0.294,0.175c-0.079,0.054 -0.162,0.118 -0.255,0.14c-0.104,0.025 -0.155,-0.035 -0.223,-0.111c-0.079,-0.089 -0.168,-0.168 -0.263,-0.237c-0.417,-0.307 -0.965,-0.434 -1.448,-0.25c-0.223,0.085 -0.44,0.229 -0.591,0.428c-0.135,0.177 -0.231,0.458 -0.417,0.581c-0.079,0.052 -0.135,-0.017 -0.206,-0.068c-0.108,-0.077 -0.211,-0.162 -0.32,-0.237c-0.154,-0.105 -0.32,-0.184 -0.498,-0.225c-0.26,-0.061 -0.62,-0.047 -0.695,0.295c-0.028,0.128 -0.006,0.265 0.003,0.395c0.012,0.177 0.025,0.355 0.04,0.532c0.012,0.134 0.027,0.264 0.052,0.396c0.014,0.071 0.056,0.202 0.026,0.273c-0.038,0.088 -0.212,0.038 -0.286,0.041c-0.147,0.006 -0.294,0.032 -0.43,0.094c-0.105,0.049 -0.216,0.121 -0.26,0.241c-0.028,0.075 -0.02,0.151 -0.007,0.227c0.015,0.092 -0.003,0.14 -0.014,0.233c-0.197,-0.098 -0.881,-0.314 -0.967,0.04c-0.028,0.118 0.037,0.251 0.087,0.351c0.087,0.174 0.201,0.333 0.318,0.485c0.244,0.317 0.535,0.59 0.848,0.824c-0.367,0.163 -0.462,0.645 -0.145,0.932c0.141,0.127 0.329,0.155 0.506,0.147c0.065,-0.003 0.158,-0.028 0.209,-0.016c0.028,0.006 0.057,0.029 0.095,0.031c0.25,0.018 0.532,-0.043 0.776,-0.098c0.435,-0.099 0.847,-0.305 1.183,-0.62c0.086,-0.08 0.158,-0.127 0.274,-0.125c0.102,0.001 0.201,0.028 0.303,0.031c0.269,0.007 0.512,-0.125 0.762,-0.212c0.015,0.337 0.111,0.71 0.249,1.014c0.113,0.247 0.348,0.283 0.579,0.305c0.738,0.07 1.48,-0.008 2.219,-0.007c-0.716,0.162 -1.456,0.229 -2.165,0.42c-0.321,0.086 -0.076,0.302 0.061,0.452c0.226,0.247 0.394,0.554 0.51,0.876c0.351,-0.457 0.97,-0.758 1.518,-0.618c0.606,0.155 1.033,0.976 0.645,1.566c-0.225,0.342 -0.631,0.474 -0.969,0.621c0.264,0.275 0.327,0.68 0.486,1.022c0.079,0.168 0.188,0.359 0.363,0.417c0.065,0.022 0.141,0.024 0.192,0.077c0.064,0.065 0.079,0.139 0.16,0.195c0.322,0.224 0.826,0.207 1.112,-0.086c0.258,-0.265 0.191,-0.684 -0.025,-0.953c0.344,-0.143 0.97,-0.328 0.834,-0.864c0.744,-0.05 2.553,-1.259 1.553,-2.143c0.549,-0.31 1.053,-1.069 0.7,-1.738c-0.271,-0.515 -0.902,-0.745 -1.42,-0.772" style="fill:#191847;"/></g><g><path d="M121.178,88.326l-8.331,28.798l-3.918,21.622l-3.933,0l3.925,-50.42l12.257,0Z" style="fill:#997659;"/><path d="M124.922,88.326c-0.582,14.96 -0.352,23.12 -0.222,24.48c0.13,1.359 0.869,10.462 5.902,26.397l-4.091,0c-6.665,-15.287 -8.992,-24.39 -9.757,-26.397c-0.764,-2.008 -3.022,-10.168 -6.318,-24.48l14.486,0Z" style="fill:#b28b67;"/><path d="M121.357,88.326c-2.167,9.909 -5.915,25.728 -11.244,47.454l-5.753,0c-0.424,-22.3 1.383,-36.977 4.513,-47.454l12.484,0Z" style="fill:#69a1ac;"/><path d="M124.951,88.326c-0.569,14.96 0.906,29.699 5.476,47.687l-6.137,0c-6.678,-15.058 -11.464,-29.724 -14.735,-47.687l15.396,0l0,0Z" style="fill:#89c5cc;"/><path d="M131.185,142.168l-0.226,-3.65c-1.982,0.582 -4.966,-0.456 -4.966,-0.456c-3.371,2.395 -8.123,3.124 -8.123,3.124c-0.241,0.037 -0.395,0.277 -0.329,0.512l0.327,1.155l12.865,0l0.452,-0.685Z" style="fill:#191847;"/><path d="M109.806,142.168l-0.225,-3.65c-1.983,0.582 -4.966,-0.456 -4.966,-0.456c-3.371,2.395 -8.123,3.124 -8.123,3.124c-0.241,0.037 -0.395,0.277 -0.329,0.512l0.327,1.155l12.865,0l0.451,-0.685Z" style="fill:#191847;"/></g><g><path d="M131.404,95.864c0.369,0.543 2.744,2.017 4.362,2.822c0.649,0.323 0.477,0.878 0.273,1.048c-1.288,1.069 -2.41,0.612 -3.631,0.113c-0.354,-0.144 -0.716,-0.292 -1.092,-0.407c-0.975,-0.297 -1.302,0.196 -1.611,0.661c-0.274,0.413 -0.533,0.804 -1.216,0.606c0.039,-0.134 0.085,-0.284 0.135,-0.446c0.325,-1.048 0.804,-2.592 0.262,-3.532c-0.417,-0.724 -6.06,-12.72 -6.06,-12.72l4.187,-0.606c0,0 3.636,11.35 4.391,12.461Zm-34.608,-3.349l4.9,-6.346l2.345,3.003l-5.416,4.316c-1.081,2.387 -1.789,3.53 -2.123,3.43c-0.021,-0.007 -0.042,-0.018 -0.06,-0.036c-0.256,-0.237 -0.197,-0.544 -0.143,-0.827c0.042,-0.22 0.081,-0.426 -0.033,-0.572c-0.261,-0.335 -1.417,0.04 -2.5,0.443c-1.082,0.403 -0.901,-0.183 -0.704,-0.503c0.936,-1.001 2.18,-1.97 3.734,-2.908Z" style="fill:#b28b67;"/><path d="M112.636,67.479l-1.776,-0.054c-1.936,7.885 -6.193,15.4 -12.773,22.546l6.58,6.046c6.216,-9.732 9.54,-19.338 7.969,-28.538Z" style="fill:#191847;"/><path d="M123.259,88.228l-15.438,2.17c0,0 3.53,-13.814 2.247,-22.943l4.559,-1.349c4.488,5.379 6.541,12.489 8.632,22.122Z" style="fill:#dde3e9;"/><path d="M131.206,93.865c-4.368,-18.833 -16.477,-27.774 -16.477,-27.774l-0.004,0.004c0,-0.001 -0.001,-0.002 -0.002,-0.003l-0.304,0.042c-0.543,0.096 -1.652,0.302 -1.652,0.302l-0.673,3.377c0.649,5.914 1.25,24.026 1.25,24.026l10.105,-1.421c0.098,0.821 0.176,1.656 0.233,2.505l7.524,-1.058Z" style="fill:#2f3676;"/><path d="M123.457,92.498c-0.42,-3.574 -1.206,-6.875 -2.158,-9.829c0.229,3.631 0.261,8.035 -0.657,10.224l2.815,-0.395Z" style="fill-opacity:0.1;"/><path d="M120.347,86.59l-5.316,-1.621l0.326,2.322l4.99,-0.701l0,0Z" style="fill:#fff;fill-opacity:0.2;"/></g></g></g></svg>