<?xml version="1.0" encoding="UTF-8" standalone="no"?><!DOCTYPE svg PUBLIC "-//W3C//DTD SVG 1.1//EN" "http://www.w3.org/Graphics/SVG/1.1/DTD/svg11.dtd"><svg width="100%" height="100%" viewBox="0 0 54 41" version="1.1" xmlns="http://www.w3.org/2000/svg" xmlns:xlink="http://www.w3.org/1999/xlink" xml:space="preserve" xmlns:serif="http://www.serif.com/" style="fill-rule:evenodd;clip-rule:evenodd;stroke-linejoin:round;stroke-miterlimit:2;"><path d="M5.063,0l43.875,0c2.796,0 5.062,2.267 5.062,5.063l0,30.375c0,2.795 -2.266,5.062 -5.063,5.062l-43.875,0c-2.796,0 -5.062,-2.267 -5.062,-5.063l0,-30.374c0,-2.796 2.266,-5.063 5.063,-5.063Zm0.632,35.438l42.61,0c0.349,0 0.633,-0.284 0.633,-0.633l0,-29.11c0,-0.349 -0.284,-0.632 -0.633,-0.632l-42.61,0c-0.349,0 -0.632,0.283 -0.632,0.632l0,29.11c0,0.349 0.283,0.633 0.632,0.633Zm7.805,-26.157c-2.33,0 -4.219,1.889 -4.219,4.219c0,2.33 1.889,4.219 4.219,4.219c2.33,0 4.219,-1.889 4.219,-4.219c0,-2.33 -1.889,-4.219 -4.219,-4.219Zm30.375,21.094l-33.75,0l0,-5.062l4.167,-4.168c0.495,-0.494 1.296,-0.494 1.79,0l4.168,4.168l12.605,-12.606c0.494,-0.494 1.296,-0.494 1.79,0l9.23,9.231l0,8.437Z" style="fill:#a2a2a2;"/></svg>