<?xml version="1.0" encoding="UTF-8" standalone="no"?><!DOCTYPE svg PUBLIC "-//W3C//DTD SVG 1.1//EN" "http://www.w3.org/Graphics/SVG/1.1/DTD/svg11.dtd"><svg width="100%" height="100%" viewBox="0 0 5000 2617" version="1.1" xmlns="http://www.w3.org/2000/svg" xmlns:xlink="http://www.w3.org/1999/xlink" xml:space="preserve" xmlns:serif="http://www.serif.com/" style="fill-rule:evenodd;clip-rule:evenodd;stroke-linejoin:round;stroke-miterlimit:2;"><rect x="0" y="0" width="5000" height="2616.67" style="fill:#eee;"/><ellipse cx="4137.07" cy="1297.91" rx="642.986" ry="644.238" style="fill:#202c39;"/><path d="M4146.4,753.763c1.716,-13.194 23.757,-32.028 23.797,-32.049l67.787,0c20.295,0 37.012,16.396 37.012,37.073c0,9.839 -3.925,19.363 -10.817,26.255c0,0 -28.465,67.66 -66.937,85.858c-8.526,4.031 -27.279,-5.218 -44.519,-13.724c-13.892,-6.851 -26.79,-13.214 -32.537,-11.728c-7.274,1.909 -4.77,12.049 -2.123,22.886c2.036,8.272 4.179,16.946 2.123,22.692c-4.709,13.235 -16.778,24.688 -28.251,33.896c-16.544,13.337 -71.07,46.042 -71.07,46.042c-10.817,3.629 -40.621,8.867 -40.621,20.361c0,6.617 3.182,12.471 6.791,19.114c8.226,15.097 18.64,34.252 -1.064,75.651l-96.776,31.137c-9.84,9.86 -15.398,23.309 -15.398,37.093l0,83.333c0,28.887 23.583,52.516 52.389,52.516l72.383,0c19.979,0 37.989,-11.158 46.831,-28.887l30.775,-61.358c4.602,-8.868 39.877,-21.995 50.032,-21.995l10.14,0c14.421,0 21.7,11.58 30.073,23.328c8.211,11.54 24.108,11.255 30.415,13.851c0,0 29.64,24.84 40.829,54.14c6.088,15.953 -4.027,36.522 1.527,46.199c0.794,1.385 5.085,3.945 8.862,0c5.894,-6.149 20.305,-24.947 23.385,-26.734c2.621,-1.512 11.066,4.943 12.705,6.286c7.024,5.747 8.389,-3.629 8.389,-3.629c1.13,-4.622 -4.006,-27.375 -13.617,-52.002c-6.022,-15.418 -11.555,-29.646 -11.555,-35.204l0,-7.213c0,-11.153 7.188,-21.333 18.004,-24.942l111.457,-70.327c21.292,-7.213 35.693,-27.233 35.693,-49.865l0,-14.782c0,-28.867 23.588,-52.495 52.409,-52.495l120.176,0c20.315,0 37.006,16.736 37.006,37.072l0,30.862c0,20.341 -16.691,37.072 -37.006,37.072l-104.798,0c-9.82,0 -19.323,3.925 -26.195,10.817l-30.776,30.862c-6.892,6.872 -10.816,16.396 -10.816,26.236c0,20.34 16.696,37.072 37.011,37.072l52.389,0c9.839,0 19.322,3.945 26.215,10.837l30.775,30.842c6.872,6.892 10.817,16.416 10.817,26.256l0,28.546l-40.936,41.022c-15.082,15.098 -15.082,39.363 -0.341,54.802l104.478,106.961c9.819,10.181 23.247,15.76 37.332,15.76l54.272,0c23.054,-66.301 35.571,-137.524 35.571,-211.648c0,-355.58 -288.109,-644.238 -642.986,-644.238c-11.413,0 -22.759,0.295 -34.018,0.891l-51.01,38.813c-6.556,4.922 -10.481,12.792 -10.481,20.997l0,65.624c0,14.441 13.871,19.959 24.459,24.56c13.932,6.063 59.215,11.876 59.215,11.876c2.652,0 5.492,0.127 8.333,0.275c12.578,0.656 25.497,1.318 25.497,-10.456c0,0 -14.553,-38.411 -12.706,-52.49Zm-280.239,216.122l52.384,0c9.824,0 19.323,-3.945 26.195,-10.837l30.796,-30.842c6.872,-6.893 10.796,-16.416 10.796,-26.256l0,-52.491c0,-20.34 -16.691,-37.077 -36.991,-37.077c-9.839,0 -19.317,3.925 -26.215,10.817l-83.179,83.353c-6.872,6.892 -10.797,16.416 -10.797,26.26c0,20.336 16.691,37.073 37.011,37.073Zm268.405,240.896c3.985,-4.54 10.984,-4.983 15.525,-0.998c2.184,1.93 3.522,4.689 3.711,7.575l2.25,34.929c0.188,2.907 -0.81,5.793 -2.719,7.997c-3.985,4.535 -10.984,4.983 -15.525,0.998l-11.682,-10.308c-2.209,-1.929 -3.543,-4.668 -3.736,-7.554l-0.825,-12.935c-0.193,-2.886 0.804,-5.792 2.713,-7.976l10.288,-11.728Zm35.947,730.513c226.114,-11.621 421.519,-140.511 526.76,-327.069l-30.608,0c-15.713,0 -31.111,-6.236 -42.249,-17.394l-56.649,-56.756c-19.638,-19.699 -46.174,-30.857 -74.023,-30.857l-59.912,0l-141.489,-121.718c-26.851,-23.314 -61.23,-35.785 -96.928,-35.785l-102.187,0c-26.851,0 -53.382,7.233 -76.629,21.338l-140.491,84.331c-44.881,26.892 -72.389,75.463 -72.389,127.974l0,78.415c0,46.932 21.955,91.218 59.622,119.448l72.684,54.787c28.165,21.333 80.574,38.726 115.931,38.726l66.173,0c28.801,0 52.389,23.629 52.389,52.496l0,12.064l-0.005,0Z" style="fill:#b8b08d;"/><path d="M219.903,1346.84c22.397,-6.618 42.504,-18.453 60.32,-35.505c17.816,-17.052 30.796,-38.05 38.94,-62.992c6.618,-19.343 10.944,-41.867 12.98,-67.573c2.037,-25.706 3.055,-65.283 3.055,-118.73l0,-339.011l-73.3,-9.926l0,-38.177l224.48,0l0,38.177l-69.482,9.926l0,345.119c0,40.213 -0.509,72.536 -1.527,96.969c-1.018,24.434 -3.309,45.304 -6.872,62.611c-9.162,40.722 -29.269,74.317 -60.319,100.787c-31.051,26.469 -66.937,43.267 -107.659,50.393l-20.616,-32.068Z" style="fill-rule:nonzero;"/><path d="M737.582,1250.63c-61.592,0 -108.549,-20.107 -140.872,-60.32c-32.324,-40.213 -48.485,-93.915 -48.485,-161.106c0,-44.286 8.399,-83.226 25.197,-116.822c16.797,-33.596 40.34,-59.556 70.627,-77.881c30.287,-18.325 64.773,-27.487 103.459,-27.487c47.34,0 84.117,13.107 110.332,39.322c26.215,26.215 40.086,63.756 41.613,112.622c0,31.051 -1.782,54.72 -5.345,71.009l-262.657,0c1.018,50.394 12.725,90.988 35.122,121.784c22.397,30.797 54.212,46.195 95.443,46.195c20.361,0 41.613,-3.691 63.755,-11.072c22.143,-7.381 39.322,-16.161 51.539,-26.342l14.507,33.596c-14.762,15.271 -36.65,28.505 -65.664,39.704c-29.015,11.198 -58.538,16.798 -88.571,16.798Zm77.881,-261.13c1.527,-10.69 2.291,-21.634 2.291,-32.833c-0.509,-33.086 -7.508,-59.174 -20.997,-78.262c-13.49,-19.089 -34.741,-28.633 -63.756,-28.633c-29.523,0 -53.066,10.69 -70.627,32.069c-17.562,21.379 -27.615,57.265 -30.16,107.659l183.249,0Z" style="fill-rule:nonzero;"/><path d="M1110.95,818.47l177.141,0l0,35.886l-54.212,9.926l77.118,219.899l32.069,96.97l27.487,-93.916l77.117,-222.953l-51.92,-9.926l0,-35.886l154.998,0l0,35.886l-39.704,9.926l-147.363,384.06l-64.901,0l-153.471,-384.06l-34.359,-9.926l0,-35.886Z" style="fill-rule:nonzero;"/><path d="M1669.86,742.116c-16.289,0 -28.505,-4.581 -36.65,-13.744c-8.144,-9.162 -12.216,-20.87 -12.216,-35.122c0,-16.289 4.963,-29.778 14.889,-40.468c9.926,-10.69 23.542,-16.034 40.849,-16.034c17.307,0 30.032,4.581 38.177,13.743c8.144,9.163 12.216,20.87 12.216,35.123c0,17.307 -4.963,31.051 -14.889,41.231c-9.926,10.181 -23.797,15.271 -41.612,15.271l-0.764,0Zm-30.542,135.146l-58.028,-13.743l0,-40.468l118.348,-14.507l1.527,0l17.561,13.744l0,376.424l61.084,6.108l0,37.414l-202.338,0l0,-37.414l61.846,-6.871l0,-320.687Z" style="fill-rule:nonzero;"/><path d="M2021.85,1250.63c-61.592,0 -108.549,-20.107 -140.873,-60.32c-32.323,-40.213 -48.484,-93.915 -48.484,-161.106c0,-44.286 8.399,-83.226 25.197,-116.822c16.797,-33.596 40.34,-59.556 70.627,-77.881c30.287,-18.325 64.773,-27.487 103.459,-27.487c47.34,0 84.117,13.107 110.332,39.322c26.214,26.215 40.085,63.756 41.613,112.622c0,31.051 -1.782,54.72 -5.345,71.009l-262.658,0c1.019,50.394 12.726,90.988 35.123,121.784c22.397,30.797 54.211,46.195 95.443,46.195c20.361,0 41.612,-3.691 63.755,-11.072c22.143,-7.381 39.322,-16.161 51.539,-26.342l14.507,33.596c-14.762,15.271 -36.65,28.505 -65.664,39.704c-29.015,11.198 -58.538,16.798 -88.571,16.798Zm77.881,-261.13c1.527,-10.69 2.291,-21.634 2.291,-32.833c-0.509,-33.086 -7.508,-59.174 -20.997,-78.262c-13.49,-19.089 -34.741,-28.633 -63.756,-28.633c-29.523,0 -53.066,10.69 -70.627,32.069c-17.562,21.379 -27.615,57.265 -30.16,107.659l183.249,0Z" style="fill-rule:nonzero;"/><path d="M2295.2,877.262l-54.975,-13.743l0,-41.231l109.186,-13.744l2.291,0l16.034,13.744l0,32.068l-0.763,18.325c18.325,-16.289 42.503,-31.05 72.536,-44.285c30.032,-13.235 58.792,-19.852 86.28,-19.852c32.068,0 56.883,6.108 74.445,18.325c17.561,12.216 29.905,30.923 37.031,56.12c7.127,25.197 10.69,59.174 10.69,101.932l0,213.791l53.448,5.345l0,38.177l-180.959,0l0,-37.414l47.339,-6.108l0,-214.554c0,-30.033 -2.036,-53.575 -6.108,-70.628c-4.072,-17.052 -11.707,-29.778 -22.906,-38.176c-11.199,-8.399 -27.487,-12.599 -48.867,-12.599c-18.324,0 -37.922,4.581 -58.792,13.744c-20.87,9.162 -39.449,19.852 -55.738,32.068l0,289.382l51.92,6.871l0,37.414l-180.195,0l0,-37.414l48.103,-6.871l0,-320.687Z" style="fill-rule:nonzero;"/><path d="M2827.39,1181.15c5.09,7.635 15.907,14.507 32.45,20.615c16.543,6.109 33.977,9.163 52.302,9.163c29.015,0 50.394,-5.6 64.138,-16.798c13.743,-11.199 20.615,-26.724 20.615,-46.576c0,-13.744 -4.327,-25.706 -12.98,-35.886c-8.653,-10.181 -20.743,-19.216 -36.268,-27.106c-15.525,-7.89 -37.795,-17.434 -66.81,-28.633c-39.195,-14.761 -67.827,-32.45 -85.898,-53.066c-18.07,-20.615 -27.105,-47.721 -27.105,-81.316c0,-22.398 6.744,-41.995 20.233,-58.793c13.489,-16.798 32.069,-29.905 55.739,-39.322c23.669,-9.417 50.011,-14.126 79.026,-14.126c23.415,0 43.903,1.782 61.465,5.345c17.561,3.563 31.687,7.127 42.376,10.69c10.69,3.563 17.816,5.854 21.379,6.872l0,94.678l-46.576,0l-15.27,-56.501c-3.055,-6.109 -11.199,-11.326 -24.434,-15.653c-13.234,-4.327 -27.996,-6.49 -44.285,-6.49c-22.906,0 -41.358,5.09 -55.356,15.271c-13.999,10.18 -20.998,23.924 -20.998,41.231c0,15.271 3.691,27.869 11.072,37.795c7.38,9.926 16.67,17.943 27.869,24.051c11.198,6.109 26.469,13.235 45.812,21.379l15.271,6.109c28.505,11.198 51.666,21.888 69.482,32.068c17.816,10.181 32.705,23.543 44.667,40.086c11.962,16.543 17.943,36.777 17.943,60.701c0,37.668 -14.635,67.701 -43.904,90.098c-29.268,22.397 -69.354,33.596 -120.257,33.596c-24.942,0 -51.03,-3.436 -78.263,-10.308c-27.232,-6.872 -49.502,-13.871 -66.809,-20.997l0,-97.733l49.63,0l13.744,59.556Z" style="fill-rule:nonzero;"/><path d="M365.653,1979.9c-21.634,0 -41.461,-5.411 -59.511,-16.228c-18.009,-10.817 -32.348,-27.401 -42.992,-49.757c-10.628,-22.357 -15.953,-49.926 -15.953,-82.737c0,-30.649 6.322,-58.599 18.941,-83.842c12.619,-25.238 30.735,-45.156 54.339,-59.744c23.629,-14.615 51.477,-21.914 83.566,-21.914c18.386,0 35.164,1.975 50.307,5.961l0,-101.149l-55.163,-6.485l-0.02,-23.247l97.351,-9.738l1.629,0l11.901,8.654l0,406.711l31.366,0l0,24.882c-11.534,2.504 -21.547,4.494 -30.007,5.94c-8.485,1.44 -17.393,2.163 -26.79,2.163c-9.351,0 -16.034,-1.634 -20,-4.881c-3.965,-3.243 -5.96,-10.094 -5.96,-20.529l0,-17.307c-10.074,12.237 -23.329,22.524 -39.745,30.816c-16.396,8.292 -34.151,12.431 -53.259,12.451l0,-0.02Zm21.633,-38.411c14.044,0 27.213,-3.162 39.475,-9.458c12.257,-6.322 21.461,-13.617 27.569,-21.914l0,-197.945c-2.861,-4.326 -9.631,-8.21 -20.275,-11.621c-10.628,-3.436 -21.908,-5.136 -33.809,-5.136c-28.124,-0.02 -50.562,10.71 -67.319,32.176c-16.777,21.445 -25.151,54.532 -25.151,99.239c0,38.941 7.402,67.787 22.163,86.535c14.803,18.747 33.912,28.124 57.327,28.124l0.02,0Z" style="fill:#f29559;fill-rule:nonzero;"/><path d="M673.384,1727.34l-35.698,0l-10.287,-200.663l57.331,0l-11.351,200.663l0.005,0Z" style="fill:#f29559;fill-rule:nonzero;"/><path d="M775.591,1892.84c0,-33.896 16.966,-58.859 50.837,-74.913c33.916,-16.035 76.802,-24.602 128.722,-25.686l0,-15.143c0,-16.946 -1.781,-30.287 -5.411,-40.02c-3.583,-9.738 -9.819,-16.864 -18.64,-21.359c-8.847,-4.52 -21.379,-6.765 -37.607,-6.765c-18.386,0 -34.868,2.607 -49.482,7.844c-14.589,5.218 -29.096,11.627 -43.543,19.196l-13.509,-28.124c4.688,-3.965 13.341,-9.203 25.96,-15.693c12.619,-6.49 27.233,-12.263 43.797,-17.307c16.609,-5.05 33.193,-7.574 49.757,-7.574c25.624,0 45.899,3.522 60.849,10.562c14.976,7.019 25.685,18.284 32.176,33.789c6.49,15.5 9.737,36.248 9.737,62.208l0,173.619l31.921,0l0,23.797c-7.213,1.781 -16.314,3.583 -27.319,5.385c-10.985,1.802 -20.636,2.718 -28.928,2.718c-10.099,0 -16.951,-1.527 -20.555,-4.606c-3.604,-3.055 -5.405,-9.82 -5.405,-20.275l0,-17.836c-10.817,10.817 -24.077,20.722 -39.75,29.732c-15.694,9.015 -33.448,13.515 -53.275,13.535c-25.96,-0.02 -47.512,-7.488 -64.626,-22.463c-17.139,-14.95 -25.706,-36.497 -25.706,-64.621Zm113.574,50.307c9.397,0 20.214,-2.907 32.451,-8.654c12.282,-5.792 23.461,-12.639 33.534,-20.554l0,-93.024c-39.281,0 -68.952,6.026 -88.952,18.116c-20.025,12.069 -30.033,27.849 -30.033,47.319c0,19.47 4.79,33.804 14.335,42.987c9.569,9.208 22.443,13.81 38.665,13.81Z" style="fill:#f29559;fill-rule:nonzero;"/><path d="M1142.83,1619.7c-11.54,0 -20.193,-3.243 -25.96,-9.733c-5.773,-6.49 -8.659,-14.787 -8.659,-24.861c0,-11.555 3.523,-21.099 10.542,-28.673c7.045,-7.569 16.691,-11.367 28.933,-11.367c12.278,0 21.293,3.243 27.04,9.733c5.792,6.49 8.653,14.782 8.653,24.881c0,12.257 -3.497,21.995 -10.542,29.203c-7.019,7.213 -16.838,10.817 -29.478,10.817l-0.534,0l0.005,0Zm-21.634,95.742l-41.103,-9.737l0,-28.674l83.841,-10.267l1.064,0l12.446,9.738l0,266.623l43.267,4.326l0,26.51l-143.331,0l0,-26.51l43.816,-4.856l0,-227.153Z" style="fill:#f29559;fill-rule:nonzero;"/><path d="M1298.6,1570.49l-43.822,-5.96l0,-23.248l87.089,-10.267l1.079,0l11.901,8.104l0,404.019l45.96,4.327l0,26.489l-146.029,0l0,-26.489l43.822,-4.882l0,-372.098l0,0.005Z" style="fill:#f29559;fill-rule:nonzero;"/><path d="M1478.68,1570.49l-43.796,-5.96l0,-23.248l87.063,-10.267l1.079,0l11.901,8.104l0,404.019l45.981,4.327l0,26.489l-146.024,0l0,-26.489l43.796,-4.882l0,-372.098l0,0.005Z" style="fill:#f29559;fill-rule:nonzero;"/><path d="M1752.37,1979.9c-43.624,0 -76.904,-14.233 -99.789,-42.718c-22.907,-28.485 -34.36,-66.535 -34.36,-114.128c0.021,-31.367 5.961,-58.941 17.862,-82.738c11.896,-23.796 28.567,-42.188 50.032,-55.168c21.44,-12.98 45.874,-19.47 73.274,-19.47c33.535,0 59.582,9.29 78.161,27.849c18.554,18.579 28.378,45.155 29.458,79.769c0.02,21.995 -1.253,38.773 -3.777,50.307l-186.049,0c0.723,35.698 9.015,64.458 24.881,86.26c15.866,21.827 38.411,32.725 67.614,32.725c14.426,0 29.462,-2.606 45.155,-7.844c15.673,-5.218 27.849,-11.453 36.503,-18.666l10.267,23.797c-10.435,10.817 -25.961,20.193 -46.495,28.124c-20.549,7.935 -41.46,11.901 -62.737,11.901Zm55.168,-184.97c1.079,-7.569 1.614,-15.312 1.614,-23.247c-0.362,-23.436 -5.325,-41.908 -14.869,-55.438c-9.564,-13.51 -24.606,-20.28 -45.156,-20.28c-20.91,0 -37.606,7.574 -50.032,22.718c-12.45,15.143 -19.556,40.574 -21.358,76.267l129.801,0l0,-0.02Z" style="fill:#f29559;fill-rule:nonzero;"/><path d="M2159.61,1978.81c-10.099,0 -17.587,-1.97 -22.443,-5.935c-4.876,-3.97 -7.294,-10.46 -7.294,-19.47l0,-18.391c-11.901,11.901 -26.79,22.356 -44.627,31.371c-17.856,9.01 -35.779,13.51 -53.809,13.51c-33.529,0 -57.326,-9.015 -71.391,-27.045c-14.059,-18.03 -21.104,-47.762 -21.104,-89.227l0,-156.846l-30.287,-8.654l0,-23.797l75.718,-7.039l0.555,0l10.262,6.49l0,185.519c0,20.911 1.527,37.225 4.606,48.953c3.054,11.708 8.46,20.361 16.223,25.961c7.742,5.573 19.027,8.373 33.809,8.373c14.421,0 27.931,-3.074 40.549,-9.203c12.624,-6.129 23.629,-13.342 33.006,-21.634l0,-204.969l-38.941,-8.654l0,-23.797l82.208,-7.019l0.529,0l12.451,6.49l0,272.583l32.45,0l-0.549,24.327c-10.099,2.524 -18.839,4.499 -26.241,5.94c-7.381,1.441 -15.947,2.163 -25.685,2.184l0,-0.021l0.005,0Z" style="fill:#f29559;fill-rule:nonzero;"/><path d="M2256.43,1947.45l40.554,-3.247l0,-228.767l-38.941,-9.732l0,-29.208l74.639,-9.733l1.079,0l11.901,9.733l0,9.737l-1.634,42.183l1.634,0c3.604,-6.128 10.094,-14.059 19.47,-23.797c9.371,-9.732 21.461,-18.66 36.222,-26.764c14.808,-8.124 30.842,-12.176 48.149,-12.176c7.208,0 13.169,0.891 17.836,2.698l0.021,60.574c-2.525,-1.807 -6.597,-3.502 -12.176,-5.136c-5.599,-1.609 -11.815,-2.438 -18.661,-2.438c-29.931,0 -57.693,9.203 -83.292,27.594l0,194.702l68.698,4.327l-0.02,25.96l-165.5,0l0,-26.51l0.021,0Z" style="fill:#f29559;fill-rule:nonzero;"/><path d="M2553.36,1930.69c3.604,5.411 11.259,10.267 22.987,14.594c11.708,4.327 24.077,6.49 37.052,6.49c20.555,0 35.698,-3.965 45.431,-11.901c9.738,-7.931 14.594,-18.915 14.594,-32.98c0,-9.732 -3.055,-18.218 -9.183,-25.431c-6.129,-7.208 -14.701,-13.596 -25.706,-19.195c-10.985,-5.574 -26.765,-12.344 -47.319,-20.275c-27.762,-10.455 -48.037,-22.992 -60.849,-37.581c-12.792,-14.614 -19.195,-33.809 -19.195,-57.606c0,-15.867 4.774,-29.758 14.339,-41.654c9.544,-11.901 22.713,-21.17 39.47,-27.849c16.777,-6.658 35.438,-10.012 55.993,-10.012c16.584,0 31.091,1.272 43.521,3.797c12.451,2.525 22.459,5.05 30.033,7.574c7.569,2.52 12.619,4.134 15.143,4.856l0,67.065l-33,0l-10.817,-40.025c-2.163,-4.327 -7.935,-8.017 -17.306,-11.071c-9.377,-3.075 -19.832,-4.602 -31.372,-4.602c-16.222,0 -29.289,3.604 -39.215,10.817c-9.906,7.213 -14.869,16.945 -14.869,29.208c0,10.816 2.612,19.745 7.849,26.764c5.218,7.04 11.815,12.705 19.746,17.032c7.93,4.327 18.747,9.371 32.45,15.144l10.817,4.326c20.193,7.931 36.583,15.505 49.207,22.734c12.619,7.192 23.161,16.67 31.641,28.378c8.465,11.733 12.706,26.047 12.706,42.992c0,26.683 -10.369,47.955 -31.092,63.822c-20.742,15.861 -49.121,23.797 -85.175,23.797c-17.668,0 -36.166,-2.418 -55.443,-7.3c-19.302,-4.856 -35.062,-9.819 -47.319,-14.863l0,-69.228l35.143,0l9.738,42.183Z" style="fill:#f29559;fill-rule:nonzero;"/><path d="M2820.6,1979.37c-9.376,-0.005 -17.48,-3.247 -24.326,-9.737c-6.852,-6.491 -10.288,-14.783 -10.288,-24.882c0,-11.173 4.052,-20.549 12.171,-28.123c8.104,-7.57 17.582,-11.367 28.399,-11.367c11.178,0 19.73,3.35 25.685,10.013c5.941,6.678 8.934,14.868 8.934,24.601c0,11.921 -3.971,21.466 -11.901,28.673c-7.931,7.213 -17.501,10.817 -28.674,10.817l0,0.005Z" style="fill:#f29559;fill-rule:nonzero;"/><path d="M2963.77,1979.37c-9.377,-0.005 -17.501,-3.247 -24.352,-9.737c-6.852,-6.491 -10.262,-14.783 -10.262,-24.882c-0.025,-11.173 4.052,-20.549 12.15,-28.123c8.124,-7.57 17.582,-11.367 28.399,-11.367c11.178,0 19.75,3.35 25.685,10.013c5.961,6.678 8.929,14.868 8.929,24.601c0,11.921 -3.966,21.466 -11.896,28.673c-7.931,7.213 -17.48,10.817 -28.653,10.817l0,0.005Z" style="fill:#f29559;fill-rule:nonzero;"/><path d="M3107.14,1979.37c-9.371,-0.005 -17.475,-3.247 -24.347,-9.737c-6.831,-6.491 -10.267,-14.783 -10.267,-24.882c0,-11.173 4.052,-20.549 12.176,-28.123c8.104,-7.57 17.561,-11.367 28.378,-11.367c11.199,0 19.745,3.35 25.706,10.013c5.94,6.678 8.928,14.868 8.928,24.601c0,11.921 -3.965,21.466 -11.896,28.673c-7.935,7.213 -17.5,10.817 -28.678,10.817l0,0.005Z" style="fill:#f29559;fill-rule:nonzero;"/></svg>