<?xml version="1.0" encoding="UTF-8" standalone="no"?><!DOCTYPE svg PUBLIC "-//W3C//DTD SVG 1.1//EN" "http://www.w3.org/Graphics/SVG/1.1/DTD/svg11.dtd"><svg width="100%" height="100%" viewBox="0 0 900 267" version="1.1" xmlns="http://www.w3.org/2000/svg" xmlns:xlink="http://www.w3.org/1999/xlink" xml:space="preserve" xmlns:serif="http://www.serif.com/" style="fill-rule:evenodd;clip-rule:evenodd;stroke-linejoin:round;stroke-miterlimit:2;"><ellipse cx="769.542" cy="129.888" rx="126.317" ry="126.563" style="fill:#202c39;"/><path d="M771.375,22.988c0.337,-2.592 4.667,-6.292 4.675,-6.296l13.317,0c3.987,0 7.271,3.221 7.271,7.283c0,1.933 -0.771,3.804 -2.125,5.158c0,0 -5.592,13.292 -13.15,16.867c-1.675,0.792 -5.359,-1.025 -8.746,-2.696c-2.729,-1.346 -5.263,-2.596 -6.392,-2.304c-1.429,0.375 -0.937,2.367 -0.417,4.496c0.4,1.625 0.821,3.329 0.417,4.458c-0.925,2.6 -3.296,4.85 -5.55,6.659c-3.25,2.62 -13.962,9.045 -13.962,9.045c-2.125,0.713 -7.98,1.742 -7.98,4c0,1.3 0.625,2.45 1.334,3.755c1.616,2.966 3.662,6.729 -0.209,14.862l-19.012,6.117c-1.933,1.937 -3.025,4.579 -3.025,7.287l0,16.371c0,5.675 4.633,10.317 10.292,10.317l14.22,0c3.925,0 7.463,-2.192 9.2,-5.675l6.046,-12.054c0.904,-1.742 7.834,-4.321 9.829,-4.321l1.992,0c2.833,0 4.263,2.275 5.908,4.583c1.613,2.267 4.736,2.211 5.975,2.721c0,0 5.823,4.88 8.021,10.636c1.196,3.134 -0.791,7.175 0.3,9.076c0.156,0.272 0.999,0.775 1.741,0c1.158,-1.208 3.989,-4.901 4.594,-5.252c0.515,-0.297 2.174,0.971 2.496,1.235c1.38,1.129 1.648,-0.713 1.648,-0.713c0.222,-0.908 -0.787,-5.378 -2.675,-10.216c-1.183,-3.029 -2.27,-5.824 -2.27,-6.916l0,-1.417c0,-2.191 1.412,-4.191 3.537,-4.9l21.896,-13.816c4.183,-1.417 7.012,-5.35 7.012,-9.796l0,-2.904c0,-5.671 4.634,-10.313 10.296,-10.313l23.609,0c3.991,0 7.27,3.288 7.27,7.283l0,6.063c0,3.996 -3.279,7.283 -7.27,7.283l-20.588,0c-1.929,0 -3.796,0.771 -5.146,2.125l-6.046,6.063c-1.354,1.35 -2.125,3.221 -2.125,5.154c0,3.996 3.28,7.283 7.271,7.283l10.292,0c1.933,0 3.796,0.775 5.15,2.129l6.046,6.059c1.35,1.354 2.125,3.225 2.125,5.158l0,5.608l-8.042,8.059c-2.963,2.966 -2.963,7.733 -0.067,10.766l20.525,21.013c1.929,2 4.567,3.096 7.334,3.096l10.662,0c4.529,-13.025 6.988,-27.017 6.988,-41.579c0,-69.855 -56.6,-126.563 -126.317,-126.563c-2.242,0 -4.471,0.058 -6.683,0.175l-10.021,7.625c-1.288,0.967 -2.059,2.513 -2.059,4.125l0,12.892c0,2.837 2.725,3.921 4.805,4.825c2.737,1.191 11.633,2.333 11.633,2.333c0.521,0 1.079,0.025 1.637,0.054c2.471,0.129 5.009,0.259 5.009,-2.054c0,0 -2.859,-7.546 -2.496,-10.312Zm-55.054,42.458l10.291,0c1.93,0 3.796,-0.775 5.146,-2.129l6.05,-6.059c1.35,-1.354 2.121,-3.225 2.121,-5.158l0,-10.312c0,-3.996 -3.279,-7.284 -7.267,-7.284c-1.933,0 -3.795,0.771 -5.15,2.125l-16.341,16.375c-1.35,1.354 -2.121,3.225 -2.121,5.159c0,3.995 3.279,7.283 7.271,7.283Zm52.729,47.325c0.783,-0.892 2.158,-0.979 3.05,-0.196c0.429,0.379 0.692,0.921 0.729,1.488l0.442,6.862c0.037,0.571 -0.159,1.138 -0.534,1.571c-0.783,0.891 -2.158,0.979 -3.05,0.196l-2.295,-2.025c-0.434,-0.379 -0.696,-0.917 -0.734,-1.484l-0.162,-2.541c-0.038,-0.567 0.158,-1.138 0.533,-1.567l2.021,-2.304Zm7.062,143.512c44.421,-2.283 82.809,-27.604 103.484,-64.254l-6.013,0c-3.087,0 -6.112,-1.225 -8.3,-3.417l-11.129,-11.15c-3.858,-3.87 -9.071,-6.062 -14.542,-6.062l-11.77,0l-27.796,-23.912c-5.275,-4.58 -12.029,-7.03 -19.042,-7.03l-20.075,0c-5.275,0 -10.487,1.421 -15.054,4.192l-27.6,16.567c-8.817,5.283 -14.221,14.825 -14.221,25.141l0,15.405c0,9.22 4.313,17.92 11.713,23.466l14.279,10.763c5.533,4.191 15.829,7.608 22.775,7.608l13,0c5.658,0 10.292,4.642 10.292,10.313l0,2.37Z" style="fill:#b8b08d;"/><path d="M0,139.5c4.4,-1.3 8.35,-3.625 11.85,-6.975c3.5,-3.35 6.05,-7.475 7.65,-12.375c1.3,-3.8 2.15,-8.225 2.55,-13.275c0.4,-5.05 0.6,-12.825 0.6,-23.325l0,-66.6l-14.4,-1.95l0,-7.5l44.1,0l0,7.5l-13.65,1.95l0,67.8c0,7.9 -0.1,14.25 -0.3,19.05c-0.2,4.8 -0.65,8.9 -1.35,12.3c-1.8,8 -5.75,14.6 -11.85,19.8c-6.1,5.2 -13.15,8.5 -21.15,9.9l-4.05,-6.3Z" style="fill-rule:nonzero;"/><path d="M101.7,120.6c-12.1,0 -21.325,-3.95 -27.675,-11.85c-6.35,-7.9 -9.525,-18.45 -9.525,-31.65c0,-8.7 1.65,-16.35 4.95,-22.95c3.3,-6.6 7.925,-11.7 13.875,-15.3c5.95,-3.6 12.725,-5.4 20.325,-5.4c9.3,0 16.525,2.575 21.675,7.725c5.15,5.15 7.875,12.525 8.175,22.125c0,6.1 -0.35,10.75 -1.05,13.95l-51.6,0c0.2,9.9 2.5,17.875 6.9,23.925c4.4,6.05 10.65,9.075 18.75,9.075c4,0 8.175,-0.725 12.525,-2.175c4.35,-1.45 7.725,-3.175 10.125,-5.175l2.85,6.6c-2.9,3 -7.2,5.6 -12.9,7.8c-5.7,2.2 -11.5,3.3 -17.4,3.3Zm15.3,-51.3c0.3,-2.1 0.45,-4.25 0.45,-6.45c-0.1,-6.5 -1.475,-11.625 -4.125,-15.375c-2.65,-3.75 -6.825,-5.625 -12.525,-5.625c-5.8,0 -10.425,2.1 -13.875,6.3c-3.45,4.2 -5.425,11.25 -5.925,21.15l36,0Z" style="fill-rule:nonzero;"/><path d="M175.05,35.7l34.8,0l0,7.05l-10.65,1.95l15.15,43.2l6.3,19.05l5.4,-18.45l15.15,-43.8l-10.2,-1.95l0,-7.05l30.45,0l0,7.05l-7.8,1.95l-28.95,75.45l-12.75,0l-30.15,-75.45l-6.75,-1.95l0,-7.05Z" style="fill-rule:nonzero;"/><path d="M284.85,20.7c-3.2,0 -5.6,-0.9 -7.2,-2.7c-1.6,-1.8 -2.4,-4.1 -2.4,-6.9c0,-3.2 0.975,-5.85 2.925,-7.95c1.95,-2.1 4.625,-3.15 8.025,-3.15c3.4,0 5.9,0.9 7.5,2.7c1.6,1.8 2.4,4.1 2.4,6.9c0,3.4 -0.975,6.1 -2.925,8.1c-1.95,2 -4.675,3 -8.175,3l-0.15,0Zm-6,26.55l-11.4,-2.7l0,-7.95l23.25,-2.85l0.3,0l3.45,2.7l0,73.95l12,1.2l0,7.35l-39.75,0l0,-7.35l12.15,-1.35l0,-63Z" style="fill-rule:nonzero;"/><path d="M354,120.6c-12.1,0 -21.325,-3.95 -27.675,-11.85c-6.35,-7.9 -9.525,-18.45 -9.525,-31.65c0,-8.7 1.65,-16.35 4.95,-22.95c3.3,-6.6 7.925,-11.7 13.875,-15.3c5.95,-3.6 12.725,-5.4 20.325,-5.4c9.3,0 16.525,2.575 21.675,7.725c5.15,5.15 7.875,12.525 8.175,22.125c0,6.1 -0.35,10.75 -1.05,13.95l-51.6,0c0.2,9.9 2.5,17.875 6.9,23.925c4.4,6.05 10.65,9.075 18.75,9.075c4,0 8.175,-0.725 12.525,-2.175c4.35,-1.45 7.725,-3.175 10.125,-5.175l2.85,6.6c-2.9,3 -7.2,5.6 -12.9,7.8c-5.7,2.2 -11.5,3.3 -17.4,3.3Zm15.3,-51.3c0.3,-2.1 0.45,-4.25 0.45,-6.45c-0.1,-6.5 -1.475,-11.625 -4.125,-15.375c-2.65,-3.75 -6.825,-5.625 -12.525,-5.625c-5.8,0 -10.425,2.1 -13.875,6.3c-3.45,4.2 -5.425,11.25 -5.925,21.15l36,0Z" style="fill-rule:nonzero;"/><path d="M407.7,47.25l-10.8,-2.7l0,-8.1l21.45,-2.7l0.45,0l3.15,2.7l0,6.3l-0.15,3.6c3.6,-3.2 8.35,-6.1 14.25,-8.7c5.9,-2.6 11.55,-3.9 16.95,-3.9c6.3,0 11.175,1.2 14.625,3.6c3.45,2.4 5.875,6.075 7.275,11.025c1.4,4.95 2.1,11.625 2.1,20.025l0,42l10.5,1.05l0,7.5l-35.55,0l0,-7.35l9.3,-1.2l0,-42.15c0,-5.9 -0.4,-10.525 -1.2,-13.875c-0.8,-3.35 -2.3,-5.85 -4.5,-7.5c-2.2,-1.65 -5.4,-2.475 -9.6,-2.475c-3.6,0 -7.45,0.9 -11.55,2.7c-4.1,1.8 -7.75,3.9 -10.95,6.3l0,56.85l10.2,1.35l0,7.35l-35.4,0l0,-7.35l9.45,-1.35l0,-63Z" style="fill-rule:nonzero;"/><path d="M512.25,106.95c1,1.5 3.125,2.85 6.375,4.05c3.25,1.2 6.675,1.8 10.275,1.8c5.7,0 9.9,-1.1 12.6,-3.3c2.7,-2.2 4.05,-5.25 4.05,-9.15c0,-2.7 -0.85,-5.05 -2.55,-7.05c-1.7,-2 -4.075,-3.775 -7.125,-5.325c-3.05,-1.55 -7.425,-3.425 -13.125,-5.625c-7.7,-2.9 -13.325,-6.375 -16.875,-10.425c-3.55,-4.05 -5.325,-9.375 -5.325,-15.975c0,-4.4 1.325,-8.25 3.975,-11.55c2.65,-3.3 6.3,-5.875 10.95,-7.725c4.65,-1.85 9.825,-2.775 15.525,-2.775c4.6,0 8.625,0.35 12.075,1.05c3.45,0.7 6.225,1.4 8.325,2.1c2.1,0.7 3.5,1.15 4.2,1.35l0,18.6l-9.15,0l-3,-11.1c-0.6,-1.2 -2.2,-2.225 -4.8,-3.075c-2.6,-0.85 -5.5,-1.275 -8.7,-1.275c-4.5,0 -8.125,1 -10.875,3c-2.75,2 -4.125,4.7 -4.125,8.1c0,3 0.725,5.475 2.175,7.425c1.45,1.95 3.275,3.525 5.475,4.725c2.2,1.2 5.2,2.6 9,4.2l3,1.2c5.6,2.2 10.15,4.3 13.65,6.3c3.5,2 6.425,4.625 8.775,7.875c2.35,3.25 3.525,7.225 3.525,11.925c0,7.4 -2.875,13.3 -8.625,17.7c-5.75,4.4 -13.625,6.6 -23.625,6.6c-4.9,0 -10.025,-0.675 -15.375,-2.025c-5.35,-1.35 -9.725,-2.725 -13.125,-4.125l0,-19.2l9.75,0l2.7,11.7Z" style="fill-rule:nonzero;"/><path d="M28.633,263.867c-4.25,0 -8.145,-1.063 -11.691,-3.188c-3.538,-2.125 -6.355,-5.383 -8.446,-9.775c-2.088,-4.392 -3.134,-9.808 -3.134,-16.254c0,-6.021 1.242,-11.512 3.721,-16.471c2.479,-4.958 6.038,-8.871 10.675,-11.737c4.642,-2.871 10.113,-4.305 16.417,-4.305c3.612,0 6.908,0.388 9.883,1.171l0,-19.871l-10.837,-1.274l-0.004,-4.567l19.125,-1.913l0.32,0l2.338,1.7l0,79.9l6.162,0l0,4.888c-2.266,0.492 -4.233,0.883 -5.895,1.167c-1.667,0.283 -3.417,0.425 -5.263,0.425c-1.837,0 -3.15,-0.321 -3.929,-0.959c-0.779,-0.637 -1.171,-1.983 -1.171,-4.033l0,-3.4c-1.979,2.404 -4.583,4.425 -7.808,6.054c-3.221,1.629 -6.709,2.442 -10.463,2.446l0,-0.004Zm4.25,-7.546c2.759,0 5.346,-0.621 7.755,-1.858c2.408,-1.242 4.216,-2.675 5.416,-4.305l0,-38.887c-0.562,-0.85 -1.892,-1.613 -3.983,-2.283c-2.088,-0.675 -4.304,-1.009 -6.642,-1.009c-5.525,-0.004 -9.933,2.104 -13.225,6.321c-3.296,4.213 -4.941,10.713 -4.941,19.496c0,7.65 1.454,13.317 4.354,17c2.908,3.683 6.662,5.525 11.262,5.525l0.004,0Z" style="fill:#f29559;fill-rule:nonzero;"/><path d="M89.088,214.25l-7.013,0l-2.021,-39.421l11.263,0l-2.23,39.421Z" style="fill:#f29559;fill-rule:nonzero;"/><path d="M109.167,246.763c0,-6.659 3.333,-11.563 9.987,-14.717c6.663,-3.15 15.088,-4.833 25.288,-5.046l0,-2.975c0,-3.329 -0.35,-5.95 -1.063,-7.862c-0.704,-1.913 -1.929,-3.313 -3.662,-4.196c-1.738,-0.888 -4.2,-1.329 -7.388,-1.329c-3.612,0 -6.85,0.512 -9.721,1.541c-2.866,1.025 -5.716,2.284 -8.554,3.771l-2.654,-5.525c0.921,-0.779 2.621,-1.808 5.1,-3.083c2.479,-1.275 5.35,-2.409 8.604,-3.4c3.263,-0.992 6.521,-1.488 9.775,-1.488c5.034,0 9.017,0.692 11.954,2.075c2.942,1.379 5.046,3.592 6.321,6.638c1.275,3.045 1.913,7.121 1.913,12.221l0,34.108l6.271,0l0,4.675c-1.417,0.35 -3.205,0.704 -5.367,1.058c-2.158,0.354 -4.054,0.534 -5.683,0.534c-1.984,0 -3.33,-0.3 -4.038,-0.905c-0.708,-0.6 -1.062,-1.929 -1.062,-3.983l0,-3.504c-2.125,2.125 -4.73,4.071 -7.809,5.841c-3.083,1.771 -6.571,2.655 -10.466,2.659c-5.1,-0.004 -9.334,-1.471 -12.696,-4.413c-3.367,-2.937 -5.05,-7.17 -5.05,-12.695Zm22.312,9.883c1.846,0 3.971,-0.571 6.375,-1.7c2.413,-1.138 4.609,-2.483 6.588,-4.038l0,-18.275c-7.717,0 -13.546,1.184 -17.475,3.559c-3.934,2.371 -5.9,5.471 -5.9,9.296c0,3.825 0.941,6.641 2.816,8.445c1.88,1.809 4.409,2.713 7.596,2.713Z" style="fill:#f29559;fill-rule:nonzero;"/><path d="M181.313,193.104c-2.267,0 -3.967,-0.637 -5.1,-1.912c-1.134,-1.275 -1.701,-2.905 -1.701,-4.884c0,-2.27 0.692,-4.145 2.071,-5.633c1.384,-1.487 3.279,-2.233 5.684,-2.233c2.412,0 4.183,0.637 5.312,1.912c1.138,1.275 1.7,2.904 1.7,4.888c0,2.408 -0.687,4.321 -2.071,5.737c-1.379,1.417 -3.308,2.125 -5.791,2.125l-0.105,0Zm-4.25,18.809l-8.075,-1.913l0,-5.633l16.471,-2.017l0.209,0l2.445,1.913l0,52.379l8.5,0.85l0,5.208l-28.158,0l0,-5.208l8.608,-0.954l0,-44.625Z" style="fill:#f29559;fill-rule:nonzero;"/><path d="M211.913,183.438l-8.609,-1.171l0,-4.567l17.109,-2.017l0.212,0l2.338,1.592l0,79.371l9.029,0.85l0,5.204l-28.688,0l0,-5.204l8.609,-0.959l0,-73.1Z" style="fill:#f29559;fill-rule:nonzero;"/><path d="M247.292,183.438l-8.604,-1.171l0,-4.567l17.104,-2.017l0.212,0l2.338,1.592l0,79.371l9.033,0.85l0,5.204l-28.687,0l0,-5.204l8.604,-0.959l0,-73.1Z" style="fill:#f29559;fill-rule:nonzero;"/><path d="M301.058,263.867c-8.57,0 -15.108,-2.796 -19.604,-8.392c-4.5,-5.596 -6.75,-13.071 -6.75,-22.421c0.004,-6.162 1.171,-11.579 3.509,-16.254c2.337,-4.675 5.612,-8.288 9.829,-10.838c4.212,-2.55 9.012,-3.825 14.395,-3.825c6.588,0 11.705,1.825 15.355,5.471c3.645,3.65 5.575,8.871 5.787,15.671c0.004,4.321 -0.246,7.617 -0.742,9.883l-36.55,0c0.142,7.013 1.771,12.663 4.888,16.946c3.117,4.288 7.546,6.429 13.283,6.429c2.834,0 5.788,-0.512 8.871,-1.541c3.079,-1.025 5.471,-2.25 7.171,-3.667l2.017,4.675c-2.05,2.125 -5.1,3.967 -9.134,5.525c-4.037,1.559 -8.145,2.338 -12.325,2.338Zm10.838,-36.338c0.212,-1.487 0.317,-3.008 0.317,-4.567c-0.071,-4.604 -1.046,-8.233 -2.921,-10.891c-1.879,-2.654 -4.834,-3.984 -8.871,-3.984c-4.108,0 -7.388,1.488 -9.829,4.463c-2.446,2.975 -3.842,7.971 -4.196,14.983l25.5,0l0,-0.004Z" style="fill:#f29559;fill-rule:nonzero;"/><path d="M381.063,263.654c-1.984,0 -3.455,-0.387 -4.409,-1.166c-0.958,-0.78 -1.433,-2.055 -1.433,-3.825l0,-3.613c-2.338,2.338 -5.263,4.392 -8.767,6.163c-3.508,1.77 -7.029,2.654 -10.571,2.654c-6.587,0 -11.262,-1.771 -14.025,-5.313c-2.762,-3.542 -4.146,-9.383 -4.146,-17.529l0,-30.813l-5.95,-1.7l0,-4.675l14.875,-1.383l0.109,0l2.016,1.275l0,36.446c0,4.108 0.3,7.313 0.905,9.617c0.6,2.3 1.662,4 3.187,5.1c1.521,1.095 3.738,1.645 6.642,1.645c2.833,0 5.487,-0.604 7.966,-1.808c2.48,-1.204 4.642,-2.621 6.484,-4.25l0,-40.267l-7.65,-1.7l0,-4.675l16.15,-1.379l0.104,0l2.446,1.275l0,53.55l6.375,0l-0.108,4.779c-1.984,0.496 -3.701,0.884 -5.155,1.167c-1.45,0.283 -3.133,0.425 -5.046,0.429l0,-0.004Z" style="fill:#f29559;fill-rule:nonzero;"/><path d="M400.083,257.492l7.967,-0.638l0,-44.942l-7.65,-1.912l0,-5.738l14.663,-1.912l0.212,0l2.338,1.912l0,1.913l-0.321,8.287l0.321,0c0.708,-1.204 1.983,-2.762 3.825,-4.675c1.841,-1.912 4.216,-3.666 7.116,-5.258c2.909,-1.596 6.059,-2.392 9.459,-2.392c1.416,0 2.587,0.175 3.504,0.53l0.004,11.9c-0.496,-0.355 -1.296,-0.688 -2.392,-1.009c-1.1,-0.316 -2.321,-0.479 -3.666,-0.479c-5.88,0 -11.334,1.808 -16.363,5.421l0,38.25l13.496,0.85l-0.004,5.1l-32.513,0l0,-5.208l0.004,0Z" style="fill:#f29559;fill-rule:nonzero;"/><path d="M458.417,254.2c0.708,1.063 2.212,2.017 4.516,2.867c2.3,0.85 4.73,1.275 7.279,1.275c4.038,0 7.013,-0.779 8.925,-2.338c1.913,-1.558 2.867,-3.716 2.867,-6.479c0,-1.912 -0.6,-3.579 -1.804,-4.996c-1.204,-1.416 -2.888,-2.671 -5.05,-3.771c-2.158,-1.095 -5.258,-2.425 -9.296,-3.983c-5.454,-2.054 -9.437,-4.517 -11.954,-7.383c-2.513,-2.871 -3.771,-6.642 -3.771,-11.317c0,-3.117 0.938,-5.846 2.817,-8.183c1.875,-2.338 4.462,-4.159 7.754,-5.471c3.296,-1.308 6.962,-1.967 11,-1.967c3.258,0 6.108,0.25 8.55,0.746c2.446,0.496 4.412,0.992 5.9,1.488c1.487,0.495 2.479,0.812 2.975,0.954l0,13.175l-6.483,0l-2.125,-7.863c-0.425,-0.85 -1.559,-1.575 -3.4,-2.175c-1.842,-0.604 -3.896,-0.904 -6.163,-0.904c-3.187,0 -5.754,0.708 -7.704,2.125c-1.946,1.417 -2.921,3.329 -2.921,5.738c0,2.125 0.513,3.879 1.542,5.258c1.025,1.383 2.321,2.496 3.879,3.346c1.558,0.85 3.683,1.841 6.375,2.975l2.125,0.85c3.967,1.558 7.187,3.046 9.667,4.466c2.479,1.413 4.55,3.275 6.216,5.575c1.663,2.305 2.496,5.117 2.496,8.446c0,5.242 -2.037,9.421 -6.108,12.538c-4.075,3.116 -9.65,4.675 -16.733,4.675c-3.471,0 -7.105,-0.475 -10.892,-1.434c-3.792,-0.954 -6.888,-1.929 -9.296,-2.92l0,-13.6l6.904,0l1.913,8.287Z" style="fill:#f29559;fill-rule:nonzero;"/><path d="M510.917,263.763c-1.842,-0.001 -3.434,-0.638 -4.779,-1.913c-1.346,-1.275 -2.021,-2.904 -2.021,-4.888c0,-2.195 0.796,-4.037 2.391,-5.525c1.592,-1.487 3.454,-2.233 5.579,-2.233c2.196,0 3.876,0.658 5.046,1.967c1.167,1.312 1.755,2.921 1.755,4.833c0,2.342 -0.78,4.217 -2.338,5.633c-1.558,1.417 -3.438,2.125 -5.633,2.125Z" style="fill:#f29559;fill-rule:nonzero;"/><path d="M539.042,263.763c-1.842,-0.001 -3.438,-0.638 -4.784,-1.913c-1.346,-1.275 -2.016,-2.904 -2.016,-4.888c-0.005,-2.195 0.796,-4.037 2.387,-5.525c1.596,-1.487 3.454,-2.233 5.579,-2.233c2.196,0 3.88,0.658 5.046,1.967c1.171,1.312 1.754,2.921 1.754,4.833c0,2.342 -0.779,4.217 -2.337,5.633c-1.558,1.417 -3.434,2.125 -5.629,2.125Z" style="fill:#f29559;fill-rule:nonzero;"/><path d="M567.208,263.763c-1.841,-0.001 -3.433,-0.638 -4.783,-1.913c-1.342,-1.275 -2.017,-2.904 -2.017,-4.888c0,-2.195 0.796,-4.037 2.392,-5.525c1.592,-1.487 3.45,-2.233 5.575,-2.233c2.2,0 3.879,0.658 5.05,1.967c1.167,1.312 1.754,2.921 1.754,4.833c0,2.342 -0.779,4.217 -2.337,5.633c-1.559,1.417 -3.438,2.125 -5.634,2.125Z" style="fill:#f29559;fill-rule:nonzero;"/></svg>