<?xml version="1.0" encoding="UTF-8" standalone="no"?><!DOCTYPE svg PUBLIC "-//W3C//DTD SVG 1.1//EN" "http://www.w3.org/Graphics/SVG/1.1/DTD/svg11.dtd"><svg width="100%" height="100%" viewBox="0 0 24 24" version="1.1" xmlns="http://www.w3.org/2000/svg" xmlns:xlink="http://www.w3.org/1999/xlink" xml:space="preserve" xmlns:serif="http://www.serif.com/" style="fill-rule:evenodd;clip-rule:evenodd;stroke-linejoin:round;stroke-miterlimit:2;"><path d="M19.47,7.17l-1.785,-1.795c-0.395,-0.393 -0.929,-0.614 -1.485,-0.614l-8.505,0c-0.555,0 -1.091,0.222 -1.485,0.614l-1.785,1.795l-4.425,0l0,9.641l2.4,0c0.66,0 1.192,-0.535 1.196,-1.195l0.342,0l3.172,2.88c1.159,0.947 2.767,0.969 3.96,0.144c0.469,0.407 0.975,0.599 1.541,0.599c0.683,0 1.324,-0.279 1.83,-0.905c0.829,0.328 1.808,0.098 2.4,-0.633l0.983,-1.218c0.21,-0.26 0.341,-0.558 0.408,-0.867l2.172,0c0.004,0.66 0.54,1.195 1.196,1.195l2.4,0l0,-9.641l-4.53,0Zm-4.024,9.388l0.979,-1.214c0.101,-0.128 0.082,-0.32 -0.045,-0.426l-4.058,-3.31l-0.307,0.283c-1.511,1.387 -3.251,0.445 -3.806,-0.166c-1.002,-1.094 -0.938,-2.805 0.165,-3.82l1.451,-1.338l-2.126,0c-0.075,0.03 -0.139,0.056 -0.214,0.087l-2.314,2.322l-1.571,0l0,4.83l1.039,0l3.648,3.318c0.604,0.494 1.553,0.396 2.074,-0.249l0.585,-0.724l1.38,1.188c0.113,0.09 0.45,0.185 0.675,-0.091l1.125,-1.376l0.896,0.732c0.132,0.105 0.319,0.083 0.424,-0.046Zm4.954,-2.752l-2.595,0c-0.086,-0.106 -0.184,-0.204 -0.289,-0.29l-3.851,-3.145l0.469,-0.43c0.243,-0.226 0.262,-0.607 0.037,-0.852l-0.408,-0.441c-0.226,-0.245 -0.604,-0.26 -0.848,-0.038l-2.07,1.908c-0.356,0.328 -0.964,0.355 -1.297,0c-0.349,-0.373 -0.319,-0.946 0.044,-1.278l2.46,-2.266c0.278,-0.256 0.638,-0.396 1.013,-0.396l3.139,-0.007c0.079,0 0.153,0.03 0.206,0.086l2.314,2.323l1.676,0l0,4.826Zm-18.6,1.798c-0.33,0 -0.6,-0.271 -0.6,-0.603c0,-0.332 0.27,-0.603 0.6,-0.603c0.33,0 0.6,0.271 0.6,0.603c0,0.336 -0.27,0.603 -0.6,0.603Zm19.8,-0.603c0,0.332 0.27,0.603 0.6,0.603c0.33,0 0.6,-0.267 0.6,-0.603c0,-0.332 -0.27,-0.603 -0.6,-0.603c-0.33,0 -0.6,0.271 -0.6,0.603l0,0Z" style="fill:#a2a2a2;"/></svg>