<?xml version="1.0" encoding="UTF-8" standalone="no"?><!DOCTYPE svg PUBLIC "-//W3C//DTD SVG 1.1//EN" "http://www.w3.org/Graphics/SVG/1.1/DTD/svg11.dtd"><svg width="100%" height="100%" viewBox="0 0 14063 9413" version="1.1" xmlns="http://www.w3.org/2000/svg" xmlns:xlink="http://www.w3.org/1999/xlink" xml:space="preserve" xmlns:serif="http://www.serif.com/" style="fill-rule:evenodd;clip-rule:evenodd;stroke-linejoin:round;stroke-miterlimit:2;"><g><path d="M12.4,6512.88c329.383,-1273.49 5206.04,-728.096 7391.13,-1121.8c2185.07,-393.7 4180.63,-1486.25 5891.5,-588.079c1710.88,898.167 544.392,2624.16 -3379.63,3114.11c-3924.02,489.95 -10232.4,-130.733 -9903,-1404.23Z" style="fill:#f2f2f2;"/><g opacity="0.5"><path d="M2765.43,1008.3c-20.483,20.45 -12.525,93.125 -12.954,120.021c-0.658,41.866 1.946,83.362 5.446,125.083c2.346,27.933 15.567,294.5 52.358,274.025c20.742,-11.533 7.738,-88.646 7.704,-113.037c-0.087,-54.221 -2.341,-108.317 -5.954,-162.417c-3.362,-50.229 -5.471,-99.875 -3.537,-150.2c0.471,-12.283 11.962,-148.6 -43.063,-93.475" style="fill:#89c5cc;"/><path d="M3657.38,975.442c-175.958,1.4 -351.842,10.079 -527.712,15.395c-84.63,2.559 -169.205,5.813 -253.746,10.501c-28.804,1.6 -90.588,-7.621 -114.588,7.725c-53.279,34.079 32.642,42.045 55.55,41.212c348.05,-12.621 696.221,-29.242 1044.57,-30.025c170.879,-0.383 341.671,4.483 512.571,3.392c65.325,-0.417 137.662,-28.563 154.162,47.475c18.621,85.804 -2.775,181.337 -8.595,267.558c-3.888,57.554 -2.505,113.917 0.087,171.425c1.662,36.842 -2.662,78.354 3.846,114.508c6.271,34.817 31.296,55.692 54.242,16.696c13.704,-23.304 6.883,-80.842 7.795,-107.842c1.23,-36.358 0.075,-72.704 0.075,-109.07c-0.012,-88.759 12.517,-177.171 10.863,-265.913c-1.063,-57.225 -4.104,-160.967 -76.279,-174.717c-79.48,-15.141 -177.175,0.084 -258.509,-0.845c-201.533,-2.3 -402.733,-9.055 -604.333,-7.475" style="fill:#89c5cc;"/><path d="M3172.53,1530.62c-66.345,0 -132.7,0.396 -199.045,1.496c-56.896,0.941 -146.359,-10.921 -199.313,9.437c-36.254,13.938 -45.887,54.413 0,65.192c50.042,11.766 125.463,-7.467 177.825,-8.388c262.55,-4.637 527.629,-10.679 789.808,5.925c245.675,15.554 496.08,30.638 742.117,14.221c20.696,-1.383 126.275,-5.583 78.1,-45.158c-28.108,-23.1 -142.021,-7.909 -178.546,-9.013c-128.833,-3.887 -257.791,-4.75 -386.583,-9.633c-127.113,-4.821 -253.658,-19.113 -380.813,-22.65c-147.725,-4.113 -295.775,-1.429 -443.55,-1.429" style="fill:#89c5cc;"/><path d="M2952.03,1177.94c33.263,-38.575 55.355,-59.892 103.75,-78.792c94.225,-36.854 232.359,59.463 253.034,152.612c20.533,92.534 -45.767,177.63 -134.417,196.796c-101.767,22 -240.8,-17.287 -260.821,-133.812c-0.921,-5.367 -0.766,-11.259 -0.608,-17.109c0.171,-6.454 0.342,-12.854 -0.946,-18.429c-1.771,-7.691 -12.029,-16.466 -12.083,-24.45c-0.192,-26.279 15.321,-40.866 32.658,-57.166c6.463,-6.08 13.183,-12.4 19.433,-19.65Zm255.209,202.275c104.633,-72.484 2.321,-222.459 -101.092,-226.975c-10.387,8.162 -13.833,6.404 -17.492,4.533c-2.395,-1.221 -4.879,-2.492 -9.466,-1.054c-17.65,5.525 -32.896,17.671 -47.542,28.704c-12.792,9.638 -31.429,23.175 -41.808,35.404c-0.059,0.071 -1.334,2.879 -3.038,6.634c-3.758,8.279 -9.6,21.15 -9.071,19.345c0.509,-1.37 1.046,-2.754 1.613,-4.137c0.112,-0.275 0.229,-0.558 0.354,-0.863c-0.121,0.288 -0.237,0.575 -0.354,0.863c-0.988,2.412 -1.488,3.704 -1.613,4.137c-47.958,128.755 132.596,200.555 229.509,133.409Z" style="fill:#89c5cc;"/><path d="M3012.68,1261.82c0,41.917 66.213,41.917 66.213,0c-0.001,-41.442 -66.213,-43.221 -66.213,0" style="fill:#89c5cc;"/><path d="M3095.51,1253.33c0,33.313 52.612,33.313 52.612,0c0,-32.929 -52.612,-34.333 -52.612,0" style="fill:#89c5cc;"/><path d="M3111.8,1322.03c-16.846,6.475 -38.216,-6.954 -52.05,1.896c-24.496,15.679 0.063,29.871 13.192,36.171c59.117,28.366 69.637,-49.854 38.858,-38.067" style="fill:#89c5cc;"/><path d="M3706.34,1213.5c16.608,-9.012 33.195,-18.012 50.883,-22.004c44.079,-9.888 79.121,7.7 113.867,25.142c38.199,19.17 76.037,38.166 125.137,20.258c28.625,-10.442 56.904,-32.267 87.967,-34.296c29.987,-1.954 55.079,14.154 79.67,29.946c9.275,5.954 18.475,11.862 27.846,16.742c13.305,6.929 34.575,3.7 36.646,22.758c2.329,21.392 -15.975,19.317 -30.904,17.625c-1.687,-0.192 -3.329,-0.375 -4.896,-0.525c-37.421,-3.525 -63.387,-41.487 -99.766,-45.304c-21.738,-2.275 -46.63,9.775 -70.934,21.542c-17.229,8.337 -34.158,16.537 -49.466,19.387c-39.321,7.333 -71.68,-4.237 -106.042,-22.004c-2.933,-1.517 -5.796,-3.017 -8.604,-4.483c-38.863,-20.313 -66.78,-34.909 -113.467,-16.017c-11.458,4.637 -22.296,9.908 -32.917,15.075c-32.091,15.608 -62.237,30.271 -101.658,23.625c-12.221,-2.058 -26.1,-9.504 -40.117,-17.025c-18.241,-9.788 -36.716,-19.704 -52.07,-18.017c-15.317,1.684 -28.092,16.763 -40.996,31.996c-16,18.888 -32.2,38.013 -53.704,32.129c-66.571,-18.212 60.05,-124.341 106.575,-117.729c36.37,5.167 61.312,40.717 98.154,44.954c28.854,3.321 53.854,-10.241 78.796,-23.775Z" style="fill:#89c5cc;"/><path d="M3835.54,1795.26c-180.842,1.662 -362.296,4.345 -542.629,18.845c-42.755,3.434 -479.305,44.65 -478.476,47.621c1.53,5.492 57.68,13.883 57.33,15.179c-3.784,-9.387 -12.438,-13.271 -25.946,-11.65c414.029,0 826.746,-37.071 1241.32,-30.4c104.171,1.671 208.729,0.971 312.825,4.255c25.991,0.82 90.379,19.445 110.787,7.712c53.563,-30.8 -43.742,-34.354 -59.862,-35.646c-204.017,-16.321 -410.759,-17.954 -615.35,-15.917" style="fill:#69a1ac;"/><path d="M2760.84,1883.13c-27.034,27.104 -2.138,124.617 -1.075,161.267c1.541,52.987 0.271,106.35 4.92,159.2c5.309,60.367 13.542,124.683 29.38,183.254c8.725,32.267 39.345,83.546 51.479,24.917c8.662,-41.879 -4.492,-97.429 -9.071,-140.092c-6.121,-57.067 -7.604,-113.383 -7.833,-170.729c-0.204,-49.971 -1.167,-100.146 -5.267,-149.958c-2.129,-25.863 -15.138,-115.005 -62.533,-67.859" style="fill:#69a1ac;"/><path d="M3441.03,2379.73c-128.333,2.204 -256.941,5.229 -385.054,13.242c-52.512,3.291 -104.979,8.187 -157.296,13.737c-10.675,1.129 -128.842,5.929 -76.041,49.538c23.833,19.687 121.866,-7.534 154.245,-10.371c54.455,-4.775 108.9,-7.875 163.513,-10.188c126.542,-5.37 253.471,-10.116 380.142,-7.92c231.333,4.016 461.179,5.808 692.579,0.645c32.871,-0.729 290.437,6.15 299.183,-28.054c7.05,-27.562 -85.058,-14.916 -101.85,-14.416c-61.608,1.841 -123.225,1.412 -184.858,1.096c-261.084,-1.338 -523.679,-11.721 -784.563,-7.309" style="fill:#69a1ac;"/><path d="M4468.71,1837.39c4.075,114.262 23.538,228.391 29.759,342.996c2.841,52.391 6.187,104.733 8.754,157.141c0.825,16.904 -5.988,57.642 14.004,67.363c27.425,13.341 31.117,-13.538 36.25,-31.717c14.829,-52.508 4.8,-120.721 3.45,-174.654c-1.3,-52.233 -1.387,-104.558 -5.242,-156.692c-3.945,-53.266 -14.67,-105.525 -19.645,-158.6c-2.105,-22.45 5.254,-59.804 -18.58,-73.733c-20.595,-12.042 -49.637,3.133 -48.75,27.896" style="fill:#69a1ac;"/><path d="M2911.51,2165.15c-0.913,-99.688 84.15,-218.112 189.608,-223.362c101.408,-5.271 211.858,78.987 235.425,177.879c29.408,123.421 -80.038,199.208 -189.792,198.266c-97.246,-0.841 -234.142,-31.966 -235.242,-152.783Zm186.742,-171.542c40.667,11.621 74.067,7.288 112.917,36.892c32.204,24.546 65.233,60.458 75.917,100.15c24.675,91.7 -58.984,141.954 -137.417,142.942c-80.338,1.008 -199.25,-17.621 -195.133,-120.596c3.154,-79.117 60.924,-156.313 143.716,-159.388Zm109.058,33.854c0.488,0.375 0.976,0.755 1.459,1.138c-0.483,-0.383 -0.975,-0.754 -1.459,-1.138Z" style="fill:#69a1ac;"/><path d="M2995.04,2104c0,33.692 53.229,33.692 53.229,0c0,-33.304 -53.229,-34.737 -53.229,0" style="fill:#69a1ac;"/><path d="M3106.69,2089.22c0,33.958 53.654,33.958 53.654,0c0,-33.571 -53.654,-35.013 -53.654,0" style="fill:#69a1ac;"/><path d="M3045.14,2166.06c-34.646,34.591 87.062,95.233 115.766,47.108c23.579,-39.521 -27.754,-26.417 -45.95,-28.554c-19.775,-2.329 -53.675,-34.65 -69.816,-18.554" style="fill:#69a1ac;"/><path d="M3409.42,2120.65c1.554,-41.625 116.683,-80.463 151.766,-87.042c36.825,-6.9 66.005,7.758 95.342,22.496c30.65,15.4 61.475,30.883 101.379,21.967c34.109,-7.621 65.688,-27.317 100.634,-30.43c30.958,-2.762 48.187,7.942 67.77,20.109c9.709,6.029 19.992,12.421 32.817,17.708c15.65,6.463 27.925,4.913 40.842,3.279c7.5,-0.946 15.221,-1.921 23.941,-1.371c39.263,2.488 40.146,28.871 5.167,45.98c-40.729,19.929 -66.821,4.462 -94.242,-11.796c-17.095,-10.129 -34.704,-20.571 -56.7,-22.934c-27.812,-2.987 -55.287,8.405 -83.216,19.98c-26.954,11.175 -54.329,22.525 -82.829,21.283c-27.3,-1.192 -49.28,-11.096 -70.263,-20.554c-30.379,-13.696 -58.675,-26.45 -98.012,-10.463c-4.329,1.759 -11.417,5.629 -20.134,10.388c-40.604,22.175 -116.6,63.675 -114.262,1.4Z" style="fill:#69a1ac;"/><path d="M4322.92,2162.51c-78.821,66.579 -186.892,-97.291 -86.463,-143.083c26.246,-11.988 72.396,11.758 91.729,29.25c32.263,29.187 27.896,85.812 -5.266,113.833Zm-65.7,-95.587c7.795,4.662 70.491,47.537 24.954,57.633c-23.117,5.125 -42.246,-41.392 -24.954,-57.633Zm39.337,24.341c0.192,0.084 0.95,1.042 1.279,1.505c0.334,0.458 0.238,0.412 -1.279,-1.505Z" style="fill:#69a1ac;"/><path d="M3293.67,2665.18c-125.325,0.034 -251.746,-2.595 -376.896,4.834c-21.063,1.25 -101.296,-2.759 -112.146,19.258c-19.854,40.271 62.7,20.283 74.696,19.075c249.192,-24.946 509.492,-10.592 759.504,-3.483c204.475,5.812 407.854,9.421 612.084,19.958c53.683,2.771 107.316,5.833 160.966,9.067c17.483,1.058 61.488,12.646 65.175,-15.284c3.408,-25.841 -51.483,-20.008 -65.196,-20.729c-109.046,-5.742 -218.02,-11.754 -327.037,-17.891c-262.4,-14.792 -528.333,-14.855 -791.15,-14.805" style="fill:#89c5cc;"/><path d="M2800.6,2709.96c-23.408,23.266 -12.437,112.12 -13.087,141.487c-1.146,51.367 -3.567,102.687 -4.659,154.037c-1.129,53.671 0.442,107.588 3.617,161.18c1.329,22.5 19.8,131.25 48.879,69.016c12.992,-27.812 -0.316,-105.275 -0.117,-136.787c0.359,-57.35 3.446,-114.459 6.3,-171.733c2.455,-49.234 2.546,-98.513 4.696,-147.759c0.684,-15.7 2.542,-117.758 -45.629,-69.441" style="fill:#89c5cc;"/><path d="M4498.13,3168.75c-121.958,12.5 -245.875,6.592 -368.3,15.829c-105.512,7.954 -210.925,11.209 -316.708,13.446c-239.534,5.059 -479.475,9.988 -718.317,29.95c-54.433,4.546 -108.8,9.371 -163.379,11.813c-27.292,1.216 -141.829,-11.204 -150.358,17.566c-14.53,49.005 107.958,29.613 134.375,28.846c58.095,-1.679 115.92,-5.879 173.854,-10.291c243.533,-18.555 487.996,-24.1 732.05,-31.813c132.729,-4.187 264.537,-13.9 396.975,-22.737c66.008,-4.4 132.2,-4.546 198.204,-8.813c17.271,-1.117 78.404,1.088 90.825,-12.812c8.537,-9.542 10.696,-32.842 -9.221,-30.984" style="fill:#89c5cc;"/><path d="M4456.79,2718.3c4.183,116.963 10.791,233.817 14.737,350.779c1.192,35.167 -9.437,98.204 10.15,129.221c31.492,49.875 56.071,-2.908 61.838,-33.983c18.204,-98.088 -1.367,-206.442 -6.45,-305.129c-1.934,-37.655 9.758,-121.45 -8.438,-155.15c-17.333,-32.096 -73.392,-28.875 -71.837,14.262" style="fill:#89c5cc;"/><path d="M4231.63,2844.12c2.754,0.154 5.242,0.296 7.333,0.358c120.659,-24.412 122.371,246.929 -18.066,198.388c-26.609,-9.196 -48.446,-34.084 -56.6,-60.567c-7.379,-23.967 -0.088,-40.412 7.35,-57.196c4.675,-10.537 9.404,-21.212 10.596,-33.962c0.287,-3.092 -0.35,-7.442 -1.059,-12.229c-1.4,-9.513 -3.054,-20.746 1.842,-27.209c7.496,-9.9 32.558,-8.487 48.604,-7.583Zm21.25,162.517c52.721,-7.517 45.896,-109.105 -0.829,-121.759c-43.329,20.942 -77.646,132.942 0.829,121.759Z" style="fill:#89c5cc;"/><path d="M2930.43,2796.23c28.221,-34.591 59.396,-63.392 106.975,-64.846c153.054,-5.133 276.6,220.459 152.075,329.888c-133.425,117.254 -351.991,-26.567 -267.387,-195.184c-16.154,12.892 -23.825,-4.02 -26.754,-15.583c-3,-11.841 16.041,-32.958 28.108,-46.333c2.841,-3.15 5.296,-5.871 6.983,-7.942Zm106.425,-20.629c-19.262,1.296 -38.008,9.325 -53.729,20.296c14.717,-12.442 34.329,-19.854 53.729,-20.296Zm42.871,14.321c0.55,4.704 1.1,9.404 1.65,14.1c-3.992,14.508 -21.396,13.775 -37.488,13.092c-8.183,-0.346 -16.025,-0.68 -21.591,1.016c-35.492,10.792 -62.95,55.896 -71.892,89.459c-19.383,72.754 14.967,132 86.846,150.716c64.933,16.9 134.633,-7.379 153.921,-75.841c25.283,-89.742 -35.304,-156.596 -111.446,-192.542Z" style="fill:#89c5cc;"/><path d="M2994.18,2888.02c0,22.454 34.858,22.454 34.858,0c0,-22.454 -34.858,-22.454 -34.858,0" style="fill:#89c5cc;"/><path d="M3053.66,2891.85c0,22.821 35.421,22.821 35.421,0c0,-22.821 -35.421,-22.821 -35.421,0" style="fill:#89c5cc;"/><path d="M3080.65,2971.99c-16.571,1.345 -77.225,-4.284 -87.871,10.233c-17.791,24.25 10.605,25.096 24.55,27.712c12.563,2.363 67.171,1.029 74.867,-10.125c6.8,-9.858 5.213,-29.245 -11.546,-27.821" style="fill:#89c5cc;"/><path d="M3477.59,2925.12c35.7,-8.571 67.325,-30.046 104.658,-32.792c27.325,-2.075 52.35,7.1 77.412,16.292c15.188,5.571 30.392,11.146 46.134,14.225c37.867,7.412 67.575,0.85 102.892,-12.621c42.345,-16.146 70.5,-21.621 114.958,-7.575c12.604,3.983 93.921,24.688 97.133,36.262c10.884,39.271 -45.304,20.167 -66.296,13.03c-0.92,-0.313 -1.77,-0.6 -2.545,-0.859c-6.463,-2.175 -12.663,-4.412 -18.692,-6.591c-31.733,-11.459 -58.808,-21.234 -94.954,-10.925c-11.4,3.25 -22.042,6.762 -32.321,10.15c-34.458,11.366 -64.858,21.395 -106.192,15.85c-15.058,-2.017 -29.821,-6.746 -44.583,-11.475c-19.696,-6.309 -39.379,-12.613 -59.733,-12.467c-42.588,0.3 -78.763,28.296 -119.534,37.129c-23.771,5.158 -44.675,-1.933 -64.858,-8.783c-18.017,-6.113 -35.458,-12.034 -53.858,-8.875c-8.375,1.437 -19.913,12.741 -32.434,25.012c-24.866,24.371 -53.621,52.554 -69.246,14.834c-10.258,-24.775 25.755,-56.88 42.167,-70.83c28.971,-24.612 54.608,-29.137 90.65,-17.683c9.638,3.063 17.867,6.575 25.55,9.854c19.942,8.513 36.188,15.446 63.692,8.838Z" style="fill:#89c5cc;"/></g><g opacity="0.5"><path d="M7239.54,74.863c499.537,-26.271 996.737,-74.834 1497.69,-74.834c5.046,0 10.113,-0.008 15.192,-0.017c65.333,-0.087 133.129,-0.179 196.825,14.259c16.025,3.629 24.371,5.508 37.746,6.925c4.162,0.441 8.096,0.216 11.979,-0.004c6.629,-0.38 13.1,-0.75 20.292,2.225c18.008,7.445 25.596,21.166 30.229,38.462c6.192,23.142 0.125,55.542 -5.504,85.609c-2.825,15.079 -5.538,29.57 -6.542,42.012c-4.675,58.083 -6.175,116.142 -6.017,174.388c0.017,6.7 0.03,13.404 0.046,20.112c0.196,98.412 0.396,197.487 12.967,295.162c11.633,90.338 27.362,178.905 31.654,270.163c2.575,54.621 3.688,109.3 6.875,163.883c0.325,5.525 0.304,11.355 0.288,17.263c-0.038,11.971 -0.075,24.271 2.72,35.021c3.075,11.795 13.542,14.204 15.167,20.733c8.546,34.4 2.942,39.217 -31.729,49c-84.321,23.779 -180.988,23.054 -270.408,22.388c-15.08,-0.113 -29.95,-0.225 -44.525,-0.217c-241.367,0.133 -482.738,0.554 -724.025,7.141c-239.134,6.534 -479.95,3.563 -718.455,23.217c-54.858,4.521 -109.645,10.179 -164.433,15.396c-16.758,1.596 -34.658,4.229 -53,6.929c-41.275,6.075 -84.771,12.475 -122.458,8.071c-42.879,-5.008 -38.1,-18.925 -30.446,-41.225c2.221,-6.463 4.679,-13.633 6.292,-21.492c6.454,-31.462 1.02,-71.629 -4.109,-109.554c-2.746,-20.3 -5.404,-39.954 -6.104,-57.287c-9.229,-227.934 -6,-455.888 -0.829,-683.88c1.371,-60.325 3.125,-120.641 4.792,-180.958c0.112,-4.062 0.245,-8.204 0.387,-12.392c0.708,-21.62 1.463,-44.504 -0.788,-64.316c-0.708,-6.246 -2.625,-10.742 -4.308,-14.688c-3.367,-7.912 -5.8,-13.616 4.308,-26.791c16.45,-21.45 65.455,-19.988 104.384,-18.825c14.804,0.441 28.15,0.841 37.696,-0.08c51.987,-5.02 103.979,-9.058 156.15,-11.8Zm-231.075,365.88c-4.367,129.716 -12.655,259.179 -18.684,388.821c129.817,-79.43 247.188,-177.825 376.838,-258.175c87.271,-54.08 180.117,-109.342 280.658,-134.65c137.367,-34.58 274.4,79.229 375.633,163.304c2.48,2.058 4.938,4.1 7.371,6.121c55.421,45.97 109.354,93.52 166.5,137.375c37.034,28.416 74.167,57.366 113.417,82.691c45.55,29.379 60.929,21.404 106.588,-8.925c80.708,-53.625 156.137,-111.883 256.975,-120.208c98.908,-8.171 206.12,32.992 290.979,80.842c-36.171,-183.984 -43.625,-375.509 -31.125,-562.326c2.121,-31.675 5.558,-63.3 9.241,-94.82c0.342,-2.925 1.367,-7.538 2.542,-12.821c2.875,-12.929 6.642,-29.892 3.5,-36.096c-8.087,-15.971 -41.604,-15.121 -68.179,-14.45c-7.108,0.179 -13.721,0.346 -19.217,0.175c-89,-2.767 -178.275,0.004 -267.4,2.771c-28.554,0.887 -57.087,1.771 -85.596,2.475c-264.4,6.508 -529.425,21.029 -793.075,42.062c-218.612,17.438 -437.825,23.825 -656.175,43.1c-43.754,3.859 -43.783,7.446 -44.054,42.917c-0.033,4.204 -0.071,8.858 -0.183,14.013c-0.321,14.316 -0.696,28.624 -1.058,42.941c-1.634,64.296 -3.334,128.579 -5.496,192.863Z" style="fill:#69a1ac;"/><path d="M8460,248.058c-0.033,36.305 -5.7,89.88 11.038,124.067c21.229,43.367 47.787,29.813 54.824,-10.937c4.03,-23.35 3.934,-92.45 -3.566,-113.13c-10.617,-29.27 -62.296,-49.208 -62.296,0" style="fill:#89c5cc;"/><path d="M8520.92,262.075c-34.088,1.204 -133.35,-6.979 -156.413,20.429c-39.558,47.004 29.309,55.334 58.875,52.7c34.217,-3.046 139.95,4.384 162.867,-23.054c38.333,-45.9 -38.529,-51.05 -65.329,-50.075" style="fill:#89c5cc;"/><path d="M7005.54,1617.79c-33.413,-91.988 33.208,-197.45 130.662,-213.855c84.888,-14.291 183.667,19.413 213.988,106.946c29.016,83.775 -13.925,198.3 -99.996,228.75c-90.163,31.892 -212.425,-33.096 -244.654,-121.842Zm154.141,58.763c141.788,52.917 188.404,-175.55 38.559,-201.579c-46.575,-4.467 -113.055,20.179 -133.45,67.083c-27.309,62.775 45.487,116.054 94.891,134.496Z" style="fill:#89c5cc;"/><path d="M8047.63,1501.69c-37.304,3.1 -69.546,29.221 -107.087,33.846c-35.1,4.32 -64.192,-7.688 -97.055,-17.288c-39.725,-11.6 -76.162,-16.7 -116.758,-6.396c-31.021,7.879 -61.621,28.992 -93.846,31.538c-63.412,5.004 -137.108,-67.342 -186.612,14.483c-23.734,39.229 10.725,64.5 46.225,46.204c37.008,-19.066 18.841,-25.896 64.746,-14.629c38.3,9.387 69.258,14.492 107.625,1.329c34.754,-11.921 65.262,-33.737 103.033,-36.187c36.983,-2.396 69.162,14.45 104.512,21.72c43.48,8.934 81.95,2.171 123.142,-11.454c39.183,-12.966 54.817,-20.054 94.354,-8.491c25.038,7.325 79.734,30.587 104.1,11.841c42.138,-32.412 -14.275,-37.15 -36.491,-41.758c-35.763,-7.408 -72.771,-27.792 -109.888,-24.758" style="fill:#89c5cc;"/><path d="M8929.75,1653.92c-166.121,28.046 -244.85,-214.762 -72.625,-262.854c21.042,-5.863 73.725,18.967 92.142,30.762c24.966,15.996 45.854,39.43 56.562,67.221c24.946,64.713 -0.629,152.129 -76.079,164.871Zm-64.983,-181.667c54.462,3.509 113.362,102.725 41.191,106.246c-50.796,2.479 -107.625,-84.4 -41.191,-106.246Z" style="fill:#89c5cc;"/><path d="M7676.25,1908.74c277.471,-4.734 554.571,-20.017 832.167,-22.588c82.221,-0.762 163.987,0.675 246.083,5.384c36.413,2.091 72.804,4.108 109.238,5.645c6.279,0.267 14.962,-0.158 24.554,-0.629c22.55,-1.112 50.091,-2.466 63.041,4.388c72.48,38.341 -75.175,42.541 -93.129,42.241c-75.321,-1.271 -150.496,-7.133 -225.812,-8.979c-225.35,-5.537 -452.071,4.588 -677.8,14.667l-0.013,0c-51.746,2.312 -103.441,4.621 -155.054,6.737c-133.137,5.463 -266.204,6.242 -399.296,13.717c-72.741,4.087 -145.45,8.763 -218.204,12.596c-33.542,1.771 -67.092,3.483 -100.683,4.329c-6.046,0.154 -13.925,0.996 -22.529,1.913c-20.825,2.22 -45.88,4.895 -59.413,-0.638c-16.283,-6.658 -29.45,-15.971 -20.5,-35.704c7.571,-16.679 35.088,-14.679 55.146,-13.221c5.479,0.396 10.4,0.754 14.208,0.683c64.113,-1.246 128.084,-4.846 192.079,-8.762c145.309,-8.896 290.313,-19.3 435.917,-21.779Zm1213.85,71.971c-0.121,160.27 12.267,316.15 26.746,475.775c8.958,98.737 16.137,197.858 21.854,296.845c0.262,4.579 0.225,12.225 0.171,21.804l0,0.013c-0.288,54.733 -0.913,172.679 53.179,144.467c40.85,-21.305 25.15,-144.834 16.467,-213.188c-1.909,-14.992 -3.475,-27.329 -4.034,-35.354c-6.712,-96.479 -12.866,-192.85 -21.566,-289.183c-8.763,-97.125 -17.988,-194.138 -19.546,-291.713c-0.121,-7.604 0.612,-18.2 1.437,-30.167c2.392,-34.625 5.579,-80.729 -8.804,-99.125c-20.233,-25.87 -65.858,-18.22 -65.904,19.825Zm-1928.07,229.075c-2.737,-68.391 -7.062,-176.512 35.388,-209.441c74.854,-43.679 60.058,82.4 53.454,138.662c-1.092,9.292 -1.958,16.679 -2.158,21.088c-4.3,93.562 1.533,183.004 10.95,275.975c6.354,62.787 2.641,125.366 -1.075,188.05c-1.33,22.383 -2.659,44.783 -3.53,67.212c-1.758,45.242 -2.716,90.421 -6.125,135.584c-0.275,3.687 -0.366,10.758 -0.487,19.8c-0.333,25.483 -0.875,66.6 -6.325,91.554c11.612,-0.5 22.879,-0.375 32.192,-0.275c5.933,0.066 11.075,0.125 15.004,0.004c70.65,-2.138 141.308,-4.008 211.95,-6.667c271.75,-10.216 543.65,-5.596 815.346,-18.5c256.979,-12.212 514.904,-14.804 772.079,-17.962c22.5,1.962 32.562,25.575 18.121,43.725c-11.063,13.908 -53.63,14.537 -81.38,14.946c-7.687,0.112 -14.237,0.208 -18.666,0.566c-72.434,5.821 -144.729,8.442 -217.379,9.138c-153,1.454 -305.421,8.012 -458.163,16.725c-271.396,15.466 -543.187,14.187 -814.725,25.233c-65.912,2.679 -131.829,4.683 -197.771,6.413c-7.083,0.183 -16.508,1.2 -27.171,2.354c-41.654,4.496 -102.175,11.033 -115.891,-22.046c-12.167,-29.358 4.75,-42.871 29.487,-49.021c-3.908,-17.375 -3.183,-41.808 -2.771,-55.804c0.125,-4.204 0.221,-7.467 0.159,-9.313c-1.329,-37.429 -1.796,-74.879 -3.238,-112.295c-3.433,-89.171 -5.708,-178.85 -12.583,-267.821c-6.567,-85.046 -23.154,-167.513 -23.629,-253.192c-0.054,-9.471 -0.529,-21.321 -1.063,-34.692Z" style="fill:#69a1ac;"/><path d="M7974.75,2412.35c221.538,-99.525 445.425,-205.575 676.504,-277.996c14.55,-4.55 23.75,10.454 20.446,23.042c-4.421,16.854 -56.254,30.491 -70.633,36.916c-56.913,25.413 -114.113,50.2 -171.025,75.634c-123.98,55.395 -248.196,110.275 -372.163,165.712c-2.429,1.083 -4.854,2.171 -7.283,3.258c87.158,30.976 173.829,63.338 260.116,96.676c46.171,17.833 92.092,36.25 138.163,54.341c23.075,9.054 119.021,31.8 124.542,54.842c6.875,28.725 -72.046,0.937 -101.825,-9.546c-3.95,-1.392 -7.034,-2.475 -8.938,-3.083c-45.966,-14.692 -91.358,-31.142 -136.754,-47.496c-101.562,-36.592 -202.696,-74.342 -304.662,-109.821c-9.538,-3.317 -19.08,-6.625 -28.625,-9.921c-108.23,48.613 -216.246,97.692 -323.909,147.554c-57.725,26.734 -115.146,54.092 -172.408,81.821c-12.496,6.05 -27.971,15.404 -44.783,25.567c-40.296,24.354 -88.263,53.341 -121.263,52.625c-17.692,-0.396 -29.612,-4.188 -31.462,-25.634c-1.9,-22.129 26.495,-33.737 46.908,-42.083c4.887,-1.996 9.317,-3.808 12.762,-5.533c61.2,-30.604 122.78,-60.438 184.538,-89.9c122.65,-58.5 246.45,-114.667 370.692,-169.713c0.716,-0.316 1.433,-0.633 2.145,-0.95c-68.904,-23.32 -138,-46.083 -207.25,-68.366c-6.912,-2.225 -21.087,-6.15 -39.725,-11.313c-88.025,-24.383 -275.558,-76.321 -267.208,-106.658c9.571,-34.7 185.383,28.729 263.221,56.808c14.587,5.263 25.733,9.283 31.7,11.183c93.058,29.659 185.862,60.155 278.179,92.034Z" style="fill:#89c5cc;"/><path d="M7014.88,3254.48c-6.467,-80.05 121.288,-160.062 190.429,-168.895c90.534,-11.434 165.038,77.895 160.429,163.249c-4.725,87.442 -70.983,144.901 -155.058,154.567c-45.025,5.179 -94.45,-2.071 -130.608,-31.621c-17.559,-14.345 -30.659,-32.404 -37.225,-54.437c-4.484,-16.975 -5.363,-34.129 -2.65,-51.471c-11.267,1.688 -19.704,-2.112 -25.317,-11.392Zm306.646,2.559c6.212,-56.925 -33.754,-111.28 -90.417,-121.213c-26.279,-2.329 -30.529,5.025 -35.991,14.484c-3.742,6.483 -8.059,13.954 -20.425,19.97c-4.105,1.996 -9.338,2.013 -14.855,2.03c-6.141,0.016 -12.637,0.037 -18.312,2.795c-15.667,7.621 -25.579,24.93 -34.2,39.396c-38.929,65.35 -22.029,133.279 58.325,144.667c70.817,10.033 147.471,-25.217 155.875,-102.129Z" style="fill:#89c5cc;"/><path d="M7540.21,3189.75c-31.02,16.442 -80.1,41.7 -98.291,72.925c-19.221,32.984 0.683,69.063 41.175,53.463c32.146,-12.384 52.591,-51.742 86.883,-64.355c30.263,-11.124 42.458,-5.458 74.442,5.63c32.954,11.416 61.758,22.454 97.383,19.654c44.779,-3.521 83.554,-29.484 127.383,-35.392c36.9,-4.975 67.33,9.383 102.671,15.096c41.004,6.625 67.809,-8.892 106.171,-16.971c26.092,-5.5 72.083,16.871 91.117,8.5c42.796,-18.812 -2.475,-41.817 -26.167,-49.421c-39.908,-12.8 -64.467,-1.504 -102.425,9.113c-41.212,11.525 -59.012,2.862 -98.404,-7.725c-79.704,-21.417 -141.275,30.366 -216.821,20.954c-69.946,-8.721 -111.8,-70.288 -185.117,-31.471" style="fill:#89c5cc;"/><path d="M8669.25,3222.92c6.487,-82.721 74.096,-115.609 145.771,-129.55c145.079,-28.046 156.367,230.562 0.229,242.45c-69.55,5.296 -152.338,-32.188 -146,-112.9Zm80.15,45.346c84.592,57.483 170.775,-44.85 94.058,-116.775c-33.387,-1.984 -79.945,8.383 -101.133,34.975c-23.171,29.071 -22.692,61.566 7.075,81.8Z" style="fill:#89c5cc;"/></g><path d="M10813.8,149.054c-88.937,1.292 -308.562,25.579 -341.216,104.567c-24.788,59.958 48.833,46.796 88.296,24.979c53.383,-29.504 100.191,-47.162 166.337,-56.137c251.963,-34.217 494.063,88.483 743.608,104c94.529,5.879 208.604,9.708 298.854,-13.276c64.275,-16.366 72.667,-52.054 -0.687,-57.487c-62.321,-4.617 -131.283,9.933 -195.175,9.521c-264.392,-1.7 -499.408,-119.9 -760.017,-116.167" style="fill:#c1dee2;fill-opacity:0.5;"/><g opacity="0.5"><path d="M2755.2,4122.57c-109.688,1.233 -219.325,5.279 -328.8,12.208c-104.104,6.596 -217.063,1.588 -319.471,21.767c-29.079,5.729 -68.362,32.233 -29.696,61.383c27.18,20.492 126.613,-3.083 159.067,-5.075c119.517,-7.346 239.096,-16.146 358.783,-20.375c113.309,-4.004 226.609,-5.417 339.971,-6.546c17.308,-0.171 46.038,-5.721 63.271,-0.696c24.762,7.225 18.892,9.188 20.742,40.621c3.362,56.954 2.433,114.113 1.304,171.121c-1.092,55.167 -3.134,110.325 -2.934,165.517c0.142,39.379 -12.445,117.625 7.313,151.816c28.437,49.221 57.942,-4.241 60.067,-36.95c4.066,-62.558 2.245,-125.883 2.262,-188.52c0.013,-58.796 0.438,-117.592 -1.633,-176.359c-1.504,-42.45 4.562,-116.554 -18.304,-155.146c-23.292,-39.304 -79.367,-30.829 -120.288,-32.7c-63.829,-2.937 -127.771,-2.733 -191.654,-2.066" style="fill:#89c5cc;"/><path d="M2057.29,4193.5c0.12,110.471 -12.659,220.204 -16.238,330.55c-1.641,50.729 -4.975,106.442 7.859,156.242c12.954,50.287 54.104,61.183 58.841,5.046c9.6,-113.68 7.246,-231.555 14.721,-346.146c2.638,-40.459 19.804,-114.605 3.779,-152.488c-14.116,-33.371 -69.021,-39.767 -68.962,6.796" style="fill:#89c5cc;"/><path d="M3085.89,4680.46c-190.496,25.221 -389.642,16.025 -581.496,19.988c-92.042,1.904 -184.071,2.025 -276.125,2.983c-32.129,0.333 -113.717,-11.887 -141.513,6.175c-44.245,28.75 3.763,50.938 33.055,51.571c181.666,3.979 365.358,-4.371 546.991,-10.333c81.604,-2.68 163.479,-3.988 244.867,-10.921c50.108,-4.271 104.862,-8.409 153.521,-21.875c10.362,-2.875 32.937,-2.275 35.258,-16.417c1.433,-8.746 -1.162,-23.017 -14.558,-21.171" style="fill:#89c5cc;"/><path d="M2293.76,4841.04c-52.941,0.308 -212.487,-24.284 -234.412,27.341c-29.229,68.854 84.8,52.779 115.466,51.996c69.655,-1.787 139.259,-1.983 208.934,-1.95c68.362,0.029 136.716,-0.412 205.066,-2.037c19.8,-0.475 65.892,7.745 77.284,-16.105c8.658,-18.12 1.816,-32.416 -14.15,-42.008c-38.417,-23.092 -138.225,-9.7 -183.209,-11.779c-58.237,-2.683 -116.666,-5.458 -174.979,-5.458" style="fill:#89c5cc;"/><path d="M2937.85,4853.79c-30.258,1.8 -91.458,-10.675 -118.566,3.171c-30.805,15.741 -19.951,40.387 6.645,51.216c18.421,7.496 93.979,3.563 111.921,-5.125c18.7,-9.058 39.85,-51.717 0,-49.262" style="fill:#89c5cc;"/><path d="M3269.58,4204.33c-32.317,8.871 -22.513,192.329 -23.346,221.417c-2.283,79.683 -11.241,179.9 15.238,256.646c16.883,48.917 49.316,42.287 43.791,-9.221c-4.854,-45.204 -13.179,-89.892 -16.783,-135.392c-8.15,-102.958 -19.237,-212.775 -11.542,-315.816c3.28,5.987 33.934,61.52 41.146,57.375c-2.179,1.295 -35.358,-78.475 -48.504,-75.009" style="fill:#89c5cc;"/><path d="M3633.08,4136.78c-65.396,0.967 -130.796,2.125 -196.175,3.938c-51.983,1.45 -133.671,-7.092 -181.342,14.775c-56.766,26.033 -29.837,84.042 23.484,85.271c47.167,1.087 97.467,-9.55 145.058,-11.184c128.559,-4.4 257.342,-5.337 385.958,-6.437c116.321,-1.004 237.584,11.404 352.884,-6.063c17.1,151.859 -29.154,304.355 -13.421,457.963c2.438,23.837 1.346,57.525 31.704,62.954c38.317,6.858 39.892,-31.092 41.346,-58.271c4.15,-77.591 1.904,-155.246 7.583,-232.941c5.267,-72 15.63,-145.588 6.871,-217.705c-10.771,-88.745 -53.296,-81.629 -128.466,-85.32c-158.763,-7.784 -316.546,-9.313 -475.484,-6.98" style="fill:#89c5cc;"/><path d="M3413.91,4676c-33.325,0.842 -88.67,-9.429 -110.02,22.525c-22.217,33.246 4.137,62.246 36.441,69.071c38.238,8.075 88.096,-2.996 127.784,-3.117c41.329,-0.121 82.67,0.338 124,0.5c177.187,0.696 355.137,3.379 532.2,-3.95c24.729,-1.021 94.908,7.275 112.02,-16.446c15.188,-21.037 4.563,-39.908 -15.437,-50.625c-32.817,-17.583 -100.217,-10.896 -136.717,-12.291c-45.079,-1.717 -90.208,-2.28 -135.312,-2.98c-178.013,-2.745 -356.963,-7.091 -534.959,-2.687" style="fill:#89c5cc;"/><path d="M3563.8,4829.71c-66.308,1.134 -137.054,-1.779 -202.708,8.28c-57.726,8.841 -64.83,64.641 -2.692,71.17c57.104,6.005 126.333,-5.212 183.717,-8.895c20.379,-1.313 44.079,0.55 53.85,-21.984c10.195,-23.537 -9.3,-46.112 -32.167,-48.571" style="fill:#89c5cc;"/><path d="M4065.09,4835.58c-35.392,0.884 -138.771,-14.333 -156.301,26.088c-29.183,67.304 110.767,41.733 137.613,40.742c33.838,-1.242 165.713,18.516 165.742,-35.355c0.029,-52.82 -114.646,-32.279 -147.054,-31.475" style="fill:#89c5cc;"/><path d="M2051.57,5170c0.083,122.429 -7.533,246.008 3.633,368.125c4.617,50.508 3.825,147.262 33.084,190.079c20.766,30.396 49.566,28.263 60.912,-8.233c7.579,-24.396 -4.546,-73.188 -5.9,-99.288c-1.304,-25.05 -2.825,-50.087 -3.983,-75.141c-2.975,-64.546 -2.742,-128.996 -1.854,-193.58c0.762,-55.395 14.095,-128.687 1.52,-181.962c-11.725,-49.654 -87.412,-61.263 -87.412,0" style="fill:#69a1ac;"/><path d="M3282,5062.29c-212.409,5.329 -425.296,0.57 -637.517,11.087c-104.662,5.179 -208.912,16.567 -313.05,27.917c-51.162,5.579 -102.296,11.329 -153.367,17.625c-15.412,1.896 -143.479,6.862 -95.312,55.566c21.033,21.267 87.967,-0.949 114.45,-4.083c51.275,-6.054 102.658,-11.333 154.008,-16.762c97.713,-10.338 195.546,-20.13 293.675,-25.559c231.113,-12.804 463.175,-8.962 694.517,-17.5c62.579,-2.304 124.971,-3.962 187.571,-1.495c16.442,0.645 137.237,6.783 84.792,-37.83c-24.8,-21.104 -118.309,-10.216 -149.3,-10.85c-60.15,-1.245 -120.342,0.375 -180.467,1.884" style="fill:#69a1ac;"/><path d="M3580.04,5504.38c-9.563,-134.958 -7,-270.383 -13.159,-405.479c-2.712,-59.521 78.363,-68.538 102.409,-20.363c17.312,34.688 14.266,93.705 11.658,144.284c-1.05,20.387 -2.033,39.4 -1.583,54.9c1.033,35.529 3.65,72.262 6.296,109.483c6.662,93.667 13.545,190.429 -3.963,278.85c-8.512,42.971 -44.758,65.554 -68.883,42.133c-0.034,0.05 -0.067,0.1 -0.1,0.146c-9.075,13.375 -37.325,13.346 -58.13,13.321c-5.729,-0.004 -10.891,-0.008 -14.937,0.267c-56.992,3.871 -112.929,10.404 -169.417,18.875c-112.554,16.871 -224.129,27.241 -337.9,30.054c-225.012,5.567 -450.954,0.362 -675.633,15.779c-49.758,3.417 -98.767,9.279 -147.717,18.646c-4.166,0.8 -8.791,1.829 -13.716,2.921c-36.396,8.096 -89.084,19.812 -92.684,-31.05c-4.279,-60.367 126.559,-68.271 193.884,-72.342c10.279,-0.621 19.079,-1.15 25.691,-1.767c204.438,-19.016 412.08,-16.07 617.38,-13.158c9.95,0.142 19.891,0.279 29.825,0.421c16.02,0.221 32.037,0.483 48.05,0.75c87.904,1.446 175.7,2.892 263.575,-2.483c103.783,-6.35 211.083,-4.684 314.104,-15.846c-13.267,-51.446 -11.325,-115.775 -15.05,-168.342Z" style="fill:#69a1ac;"/><path d="M3743.47,5142.5c-28.692,3.904 -52.629,28.463 -39.817,59.613c16.133,39.22 64.196,23.895 95.942,21.412c100.912,-7.904 206.275,7.883 305.97,-4.029c27.226,-3.254 66.726,-18.083 42.28,-54.671c-18.375,-27.496 -85.325,-22.667 -113.784,-25.3c-97.333,-9.008 -193.383,-6.604 -290.591,2.975" style="fill:#c1dee2;"/><path d="M3913.79,5313.63c-39.138,2.633 -130.242,0.563 -146.734,45.092c-29.583,79.879 86.292,51.733 121.571,47.191c40.983,-5.279 137.6,8.855 159.421,-30.891c39.025,-71.071 -99.942,-63.763 -134.258,-61.392" style="fill:#c1dee2;"/><path d="M3813.15,5488.92c-18.563,18.575 -18.596,51.741 0,70.316c22.767,22.742 72.362,18.017 102.275,19.679c41.725,2.33 161.55,24.396 182.267,-24.729c27.954,-66.287 -80.555,-64.896 -116.246,-68.662c-41.25,-4.342 -134.109,-30.809 -168.296,3.396" style="fill:#c1dee2;"/><path d="M2350.62,4354.29c0,71.266 111.3,71.266 111.3,0c0,-70.875 -111.3,-71.959 -111.3,0" style="fill:#89c5cc;"/><path d="M2561.74,4355.08c0,81.471 126.775,81.309 126.775,0c0,-81.187 -126.775,-82.012 -126.775,0" style="fill:#89c5cc;"/><path d="M2434.02,4463.42c-61.625,17.016 -4.85,69.241 23.762,81.171c45.475,18.966 107.542,32.941 153.029,4.512c18.1,-11.317 32.792,-26.35 19.53,-48.304c-14.134,-23.379 -33.48,-12.983 -54.996,-10.825c-27.254,2.742 -49.284,2.321 -75.604,-6.421c-19.646,-6.525 -44.296,-26.029 -65.721,-20.133" style="fill:#89c5cc;"/><path d="M3551.83,4358.79c0,48.204 74.846,48.204 74.846,0c0,-48.2 -74.846,-48.2 -74.846,0" style="fill:#89c5cc;"/><path d="M3717.35,4366.08c0,53.55 83.146,53.559 83.146,0c0,-53.562 -83.146,-53.554 -83.146,0" style="fill:#89c5cc;"/><path d="M3711.19,4482.29c-43.675,5.629 -169.996,18.433 -177.067,72.27c-10.904,83.063 127.513,15.838 159.104,9.317c40.234,-8.308 76.167,-6.137 116.334,-4.525c22.054,0.883 51.387,4.458 49.075,-29.137c-3.792,-55.167 -109.267,-52.817 -147.446,-47.925" style="fill:#89c5cc;"/><path d="M2613.05,5248.25c-31.658,8.446 -73.071,63.175 -51.292,96.667c35.717,54.937 51.467,-29.409 66.413,-37.525c27.196,-14.775 49.275,39.204 77.696,10.887c44.846,-44.679 -64.584,-77.592 -92.817,-70.029" style="fill:#69a1ac;"/><path d="M2975.79,5207.67c-37.542,0.346 -116.8,53.5 -122.417,92.741c-3.333,23.321 12.129,45.725 37.267,46.042c34.229,0.417 45.108,-44.092 74.779,-53.4c32.008,-10.038 27.254,13.079 54.9,25.062c20.229,8.775 45.529,5.105 52.558,-19.77c13.254,-46.913 -58.512,-91.413 -97.087,-90.675" style="fill:#69a1ac;"/><path d="M2688.41,5432.38c-60.05,35.192 38.758,110.617 73.012,120.05c51.708,14.233 155.788,-12.333 168.042,-75.504c4.879,-25.138 -10.85,-47.909 -38.596,-43.409c-22.842,3.709 -37.492,32.363 -58.654,42.625c-28.559,13.85 -53.95,12.909 -78.221,-7.941c-19.771,-16.988 -30.358,-56.363 -65.583,-35.821" style="fill:#69a1ac;"/><path d="M2731.93,5952.29c-53.65,11.441 -108.187,3.762 -162.095,14.52c-54.971,10.975 -87.825,31.742 -138.896,10.821c-2.405,-1.016 -4.8,-2.029 -7.196,-3.046c-39.529,-17.02 -80.963,-22.066 -122.338,5.075c-24.487,16.055 -98.82,71.596 -89.858,105.488c19.412,73.475 103.054,-41.738 124.383,-52.967c40.671,-21.412 68.555,5.942 110.425,13.663c50.155,9.246 90.513,-17.259 137.759,-27.813c55.254,-12.345 117.416,-16.645 173.633,-23.254c22.208,-2.608 106.333,14.958 113.929,-12.683c13.046,-47.484 -118.658,-34.279 -139.746,-29.804" style="fill:#c1dee2;"/><path d="M3191.33,5917.75c58.383,-7.892 117.192,-12.312 176.017,-14.862l0.854,-0.034c48.546,-2.037 135.608,-5.696 159.029,48.925c17.904,41.758 -4.567,129.017 -25.512,166.483c-27.3,48.817 -86.867,47.43 -139.492,46.2c-9.846,-0.229 -19.446,-0.454 -28.546,-0.341c-7.383,0.091 -14.779,0.196 -22.187,0.304c-52.73,0.762 -106.042,1.537 -158.413,-3.538c-45.346,-4.383 -77.708,-11.92 -90.567,-58.462c-8.375,-30.3 -38.775,-143.704 -4.058,-160.475c7.388,-3.567 16.258,-3 24.246,-2.492c4.858,0.309 9.387,0.596 13.05,-0.079c30.058,-5.537 63.033,-17.233 95.579,-21.629Zm77.942,31.667c7.883,-0.8 18.741,-2.425 31.475,-4.338c61.454,-9.217 166.583,-24.983 191.575,14.329c19.65,30.913 -11.534,145.009 -41.284,159.767c-16.954,8.4 -49.971,4.192 -76.987,0.746c-10.879,-1.388 -20.784,-2.65 -28.275,-2.917c-48.546,-1.708 -97.2,-2.471 -145.692,-5.496c-3.204,-0.2 -7.804,-0.245 -13.221,-0.295c-22.112,-0.217 -57.887,-0.563 -68.129,-12.121c-15.054,-17 -14.383,-107.609 -17.929,-130.079c28.642,9.27 75.617,-0.984 116.658,-9.942c19.467,-4.25 37.6,-8.208 51.809,-9.654Z" style="fill:#c1dee2;"/><path d="M3790.5,5864.96c10.767,-0.337 20.742,-0.654 29.367,-1.154c32.975,-1.729 67.054,2.625 101.154,6.979c23.675,3.021 47.358,6.046 70.691,7.038c77.363,3.292 105.338,12.246 122.067,87.725c2.942,13.258 10.708,20.367 10.933,35.958c0.225,15.479 -4.625,37.517 -9,57.404c-1.979,8.988 -3.862,17.534 -5.133,24.838c-13.342,76.696 -54.825,101.75 -127.667,103.667c-80.883,2.125 -163.558,0.45 -244.025,-8.517c-67.425,-7.517 -101.112,-27.9 -107.766,-99.496c-0.754,-8.15 -2.138,-18.058 -3.667,-29.054c-7.567,-54.346 -18.837,-135.275 23,-161.971c31.342,-19.996 93.208,-21.942 140.046,-23.417Zm-74.596,66.767c-2.762,2.292 -3.671,2.329 -3.433,1.771c0.237,-0.554 1.616,-1.7 3.433,-1.771Zm338.996,17.579c0.258,-3.991 -6.021,-13.112 -19.613,-15.404c12.559,18.246 19.355,19.392 19.613,15.404Zm3.742,-6.466c-0.921,-1.246 -2.855,-3.738 -3.03,-3.738c3.867,4.979 3.95,4.979 3.03,3.738Zm-135.984,11.9c1.971,-2.517 4.588,-2.392 7.842,0.383c-0.55,0.183 -1.346,0.479 -2.258,0.817c-4.984,1.854 -13.513,5.029 -5.584,-1.2Zm-192.387,98.216c-6.525,-1.029 -12.888,-2.033 -12.634,4.188c-1.008,10.912 5.988,9.766 20.992,-3.438c-2.421,0.188 -5.4,-0.283 -8.358,-0.75Zm44.691,46.517c6.575,-2.2 13.146,-4.4 19.717,-6.596c-0.2,5 0.875,9.688 3.225,14.05c-11.254,-1.217 -22.492,-2.521 -33.721,-3.904c3.592,-1.183 7.188,-2.367 10.779,-3.55Zm201.538,-2.267c-25.958,4.738 -51.9,9.563 -77.829,14.442c-4.875,0.921 -9.754,1.833 -14.634,2.75c9.155,0.654 17.546,1.842 25.321,2.942c27.896,3.945 47.917,6.775 67.142,-20.134Zm62.45,18.713c-0.483,0.737 -1.854,2.3 -2.421,2.896c-0.562,0.591 -0.321,0.225 2.421,-2.896Z" style="fill:#89c5cc;"/></g><g opacity="0.5"><path d="M7596.5,4291.38c41.892,-22.379 87.346,-47.358 134.917,-54.458c116.579,-17.509 260.887,17.521 321.741,128.191c58.834,107.009 10.917,243.713 -80.104,315.817c-202.696,160.563 -563.208,-68.912 -410.021,-315.967c-63.579,-12.941 17.484,-65.037 33.467,-73.583Zm424.375,206.567c18.558,-137.579 -114.575,-202.521 -231.917,-205.021c-114.741,-2.484 -224.816,83.904 -208.212,208.3c14.754,110.596 129.596,193.958 238.212,186.375c101.067,-7.054 188.325,-88.867 201.917,-189.654Z" style="fill:#89c5cc;"/><path d="M7703.38,4447.21c0,46.142 71.617,46.142 71.617,0c0,-46.141 -71.617,-46.141 -71.617,0" style="fill:#89c5cc;"/><path d="M7836.17,4454.63c0,50.025 77.646,50.025 77.646,0c0,-50.025 -77.646,-50.025 -77.646,0" style="fill:#89c5cc;"/><path d="M7746.54,4553.54c-10.45,37.95 108.7,57.416 112.662,13.491c1.892,-20.987 -105.396,-39.971 -112.662,-13.491" style="fill:#89c5cc;"/><path d="M8095.83,4530.08c137.096,-16.45 278.454,-8.846 416.217,-4.904c34.479,1 68.95,1.967 103.438,2.538c21.916,0.371 69.262,10.891 88.395,0.629c78.346,-42.017 -75.341,-62.333 -97.104,-64.267c-137.033,-11.275 -348.508,-15.296 -485.946,-9.975c-40.646,1.575 -49.433,78.909 -25,75.979" style="fill:#89c5cc;"/><path d="M8712.75,5211.63c1.175,-143.65 6.325,-288.271 17.367,-431.492c4.5,-58.375 9.891,-116.675 14.366,-175.05c2.105,-27.5 11.875,-66.012 -4.287,-90.141c-16.654,-24.859 -53.192,-30.025 -75.209,-7.996c-26.354,34.117 -18.695,91.379 -21.97,132.646c-5.042,63.454 -11.13,126.862 -14.155,190.454c-5.845,123.083 -7.216,248.304 2.675,371.212c4.671,58 14.796,114.588 28.267,171.155c6.138,25.745 54.929,140.441 44.679,156.258c-15.904,24.525 -133.416,15.254 -158.904,15.937c-65.412,1.759 -130.854,2.9 -196.279,4.15c-56.017,1.067 -112.033,1.838 -168.058,2.33c-22.246,0.2 -152.946,-3.763 -123.954,29.22c-324.209,22.592 -654.617,-15.125 -976.85,-28.058c-16.275,-0.658 -42.909,-5.279 -67.492,-6.608c-2.946,-11.875 -5.363,-22.484 -5.963,-29.859c-4.237,-51.787 -5.341,-103.754 -9.933,-155.529c-8.4,-94.729 -24.688,-188.504 -34.379,-283.066c-9.671,-94.471 -8.7,-189.225 -14.329,-283.921c-0.967,-16.229 -3.246,-149.146 -36.792,-181.438c15.904,6.025 41.546,6.813 56.317,5.621c119.533,-9.646 238.195,-30.412 356.708,-48.242c33.904,-5.1 110.846,-1.487 138.967,-18.433c24.341,-14.675 33.971,-66.112 -8.371,-61.954c-118.171,12.658 -235.704,32.308 -352.946,51.65c-31.358,5.171 -62.637,10.704 -93.912,16.354c-20.888,3.775 -76.017,3.488 -92.217,16.079c-19.675,15.284 -21.763,25.684 -15.092,32.6c-9.271,-2.55 -20.383,1.454 -33.725,14.809c-25.225,32.837 -1.508,113.704 1.496,152.208c3.617,46.183 5.392,92.446 7.496,138.712c4.062,89.534 13.433,177.834 27.841,266.288c16.142,99.092 29.871,198.592 46.059,297.658c4.212,25.796 9.704,50.95 16.716,75.867c-43.604,22.304 -13.958,57.767 20.621,64.062c0.25,0.042 0.509,0.08 0.754,0.121c10.78,26.288 25.855,50.646 37.63,15.417c0.9,-2.7 1.32,-6.025 1.429,-9.767c89.312,10.113 187.487,3.829 275.416,7.425c190.467,7.784 382.109,19.463 572.771,13.546c75.479,-2.342 151.188,-9.046 226.038,-19.121c43.85,-5.9 87.866,-12.937 131.021,-22.721c3.087,-0.695 7.787,-1.429 13.216,-2.325c0.884,-0.025 1.784,-0.05 2.625,-0.058c66.071,-1 132.088,-2.767 198.104,-5.517c55.417,-2.3 111.075,-3.483 166.317,-8.708c34.308,-3.25 106.817,-2.646 127.879,-37.15c19.159,-31.375 -12.866,-112.188 -17.416,-147.429c-7.996,-62.046 -11.055,-124.675 -10.542,-187.196" style="fill:#c1dee2;"/><path d="M8043.17,4796.83c-52.796,4.521 -101.613,29.313 -154.896,29.621c-44.721,0.254 -88.75,-13.108 -133.721,-11.133c-52.746,2.3 -81.767,36.408 -127.971,47.825c-36.783,9.083 -59.958,-19.079 -92.312,-31.534c-40.85,-15.733 -71.025,-7.608 -106.042,16.18c-25.729,17.487 -85.729,56.716 -85.263,92.079c1.375,107.104 126.338,-40.85 151.525,-42.646c33.471,-2.379 70.867,35.771 106.48,37.946c47.083,2.883 77.271,-27.471 120.629,-38.529c43.841,-11.188 91.237,2.516 135.191,6.766c50.15,4.85 94.038,-6.329 142.551,-18.296c47.02,-11.604 87.087,-10.987 134.862,-1.245c32.246,6.575 112.571,44.808 126.675,-4.35c19.208,-66.942 -180.8,-85.825 -217.708,-82.684" style="fill:#89c5cc;"/><path d="M8059.25,5001.13c-108.179,10.496 -217.012,19.704 -325.687,22.654c-47.067,1.279 -228.009,-18.892 -211.963,40.917c13.754,51.279 259.983,18.991 310.133,15.087c55.367,-4.3 110.65,-10.316 165.742,-17.287c19.525,-2.471 66.675,0.087 80.454,-16.288c13.134,-15.625 6.659,-47.621 -18.679,-45.083" style="fill:#89c5cc;"/><path d="M7389.92,5442.33c-163.225,59.138 -241.692,-230.562 -54.155,-236.858c9.271,-0.35 12.963,3.479 16.438,7.079c2.662,2.767 5.204,5.4 10.033,5.909c2.1,0.225 5.154,-1.842 8.559,-4.15c4.195,-2.838 8.925,-6.038 13.066,-5.771c32.313,2.083 56.904,7.433 76.192,37.508c39.65,61.833 -2.721,171.863 -70.133,196.283Zm-54.155,-169.129c11.909,-0.375 17.434,-3.358 22.205,-5.933c6.033,-3.258 10.866,-5.867 25.891,-1.729c3.95,1.087 6.771,1.316 9.092,1.504c4.971,0.4 7.65,0.617 14.208,8.704c18.771,23.133 1.092,73.521 -17.408,92.167c-68.504,69.037 -150.717,-91.642 -53.988,-94.713Z" style="fill:#89c5cc;"/><path d="M7699.96,5302.96c8.025,-65.296 53.342,-89.75 112.063,-98.075c129.775,-18.104 125.508,223.121 -14.508,220.563c-64.238,-1.179 -104.959,-62.213 -97.555,-122.488Zm84.175,-19.562c-0.004,0.004 0.042,0.016 0.13,0.046c-31.655,20.387 -9.201,82.612 30.812,67.416c16.525,-6.271 36.163,-42.191 21.558,-57.379c6.663,6.934 -52.487,-10.137 -52.5,-10.083Z" style="fill:#89c5cc;"/><path d="M8416.79,5215.42c-14.65,-9.642 -22.921,-27.25 -13.217,-43.846c40.771,-69.704 110.471,66.587 115.275,94.554c10.096,58.821 -2.358,130.054 -70.104,144.858c-133.217,29.105 -162.867,-167.9 -31.954,-195.566Zm-1.059,114.2c13.875,12.245 39.571,9.979 35.471,-43.538c-51.391,4.533 -49.342,31.292 -35.471,43.538Z" style="fill:#89c5cc;"/></g><path d="M9421.79,5103.21c-60.542,8.084 -203.667,58.284 -202.417,112.196c1.938,84.158 123.579,-7.771 150.633,-20.129c145.35,-66.413 333.617,19.646 484.967,37.958c69.387,8.392 205.129,23.909 266.425,-11.008c108.996,-62.088 -143.083,-46.546 -175.188,-49.038c-174.504,-13.533 -348.104,-93.625 -524.42,-69.979" style="fill:#c1dee2;fill-opacity:0.5;"/><g opacity="0.5"><path d="M6921.96,6385.63c-0.037,73.938 -3.775,149.404 9.85,222.454c4.13,22.113 7.384,64.471 30.713,75.95c23.437,11.525 46.154,-1.425 51.979,-25.446c6.792,-27.95 -8.108,-69.779 -9.617,-99.12c-2.071,-40.088 -2.212,-80.217 -2.229,-120.35c-0.012,-28.984 9.525,-75.609 -24.687,-90.517c-25.442,-11.092 -56.009,9.529 -56.009,37.029" style="fill:#c1dee2;"/><path d="M8090.83,6268.67c-244.958,24.587 -493.441,29.7 -739.287,42.52c-113.642,5.925 -250.979,-1.633 -358.042,42.355c-19.871,8.171 -91.079,53.637 -33.275,72.15c18.021,5.775 36.321,-13.638 51.117,-20.142c24.641,-10.821 53.166,-14.171 79.441,-18.392c223.392,-35.875 457.05,-29.629 682.734,-46.391c57.829,-4.296 115.683,-8.717 173.396,-14.396c41.229,-4.054 127.883,-33.775 165.933,-18.575c65.017,25.971 63.496,194.721 64.779,252.754c0.667,30.012 -28.462,137.754 29.446,126.829c46.35,-8.742 29.567,-120.667 25.954,-151.283c-9.475,-80.254 -25.646,-279.238 -142.196,-267.429" style="fill:#c1dee2;"/><path d="M8181.17,6683.5c-212.775,19.213 -430.45,0.363 -644.096,7.917c-111.988,3.971 -223.863,10.279 -335.863,13.975c-48.437,1.608 -96.925,1.675 -145.391,2.016c-23.18,0.159 -128.667,14.213 -63.409,60.167c28.892,20.346 120.975,3.958 154.125,3.558c49.796,-0.583 99.571,-2.654 149.329,-4.604c115.267,-4.504 230.459,-10.75 345.788,-13.871c110.317,-2.987 220.688,-3.625 330.996,-6.612c54.892,-1.492 110.529,-3.175 164.929,-11.188c12.275,-1.812 52.15,-3.245 60.671,-16.937c8.058,-12.942 2.4,-36.296 -17.079,-34.421" style="fill:#89c5cc;"/><path d="M7219.83,6643.83c-159.741,32.946 -220.3,-195.004 -49.262,-225.437c9.616,-1.738 16.058,1.421 22.45,4.55c4.304,2.108 8.587,4.208 13.804,4.796c5.833,0.658 11.483,-0.175 17.162,-1.009c7.567,-1.108 15.184,-2.225 23.338,0.15c28.625,8.359 49.175,37.459 58.608,63.975c24.138,67.863 -15.971,138.517 -86.1,152.975Zm3.4,-148.866c49.659,50.612 -26.708,111.025 -73.216,61.633c-49.375,-52.425 41.25,-61.463 73.216,-61.633Z" style="fill:#c1dee2;"/><path d="M7825.17,6482.54c-103.138,0.325 -206.296,4.704 -309.417,6.662c-31.629,0.596 -112.925,-13.558 -113.054,36.304c-0.138,53.284 90.421,33.604 120.554,32.888c102.292,-2.446 204.842,-6.929 306.721,-16.667c25.733,-2.462 114.825,1.788 114.733,-33.212c-0.096,-37.079 -98.754,-25.975 -119.537,-25.975" style="fill:#c1dee2;"/><path d="M8071.5,6830.33c-255.083,6.842 -509.779,9.225 -764.654,22.284c-95.333,4.879 -190.542,8.512 -286.013,8.512c-18.387,0 -55.412,-7.121 -72.716,4.458c-46.967,31.409 6.512,58.367 37.121,60.063c209.383,11.621 421.795,-17.3 631.054,-23.829c122.508,-3.817 245.041,-4.946 367.479,-11.179c33.4,-1.7 66.808,-3.675 100.154,-6.263c19.175,-1.483 69.892,2.588 85.392,-8.629c67.675,-48.983 -75,-46.033 -97.817,-45.417" style="fill:#89c5cc;"/><path d="M6901.13,6955.04c-2.4,66.133 -2.65,131.112 6.004,196.883c3.404,25.883 4.967,55.25 35.304,61.825c27.546,5.971 41.521,-14.867 47.225,-37.971c13.93,-56.417 1.675,-137.617 1.509,-196.225c-0.071,-28.979 -0.1,-61.412 -35.909,-67.962c-27.316,-5.005 -53.091,14.741 -54.133,43.45" style="fill:#89c5cc;"/><path d="M8341.88,7114.46c-412.908,21.759 -825.279,40.755 -1238.49,58.221c-32.224,1.363 -282.566,-1.362 -195.045,85.938c27.033,26.958 96.675,8.7 131.637,6.987c52.534,-2.583 105.092,-4.554 157.625,-7.229c208.292,-10.6 417.125,-13.462 625.259,-25.362c114.537,-6.546 228.816,-16.792 342.754,-30.134c54.196,-6.341 121.471,-5.683 172.233,-26.921c26.113,-10.929 54.292,-64.166 4.025,-61.5" style="fill:#89c5cc;"/><path d="M8104.46,6779c-31.4,31.271 -15.254,92.971 -12.887,131.625c3.254,53.196 7.212,106.421 13.85,159.321c4.321,34.367 2.037,87.85 20.371,117.533c21.466,34.763 68.733,30.917 88.145,-2.666c17.171,-29.7 8.484,-92.196 8.034,-125.113c-0.609,-45.512 -3.446,-91.1 -6.146,-136.525c-2.262,-37.967 6.342,-98.808 -14.542,-131.3c-21.216,-33.017 -67.396,-42.142 -96.825,-12.875" style="fill:#89c5cc;"/><path d="M7090.46,7000.33c23.13,-46.833 87.367,-49.721 134.088,-53.416c52.558,-4.267 105.462,39.341 101.646,94.962c-4.734,68.988 -93.05,101.75 -152.2,92.538c-61.467,-9.571 -114.6,-71.18 -83.534,-134.084Zm143.525,12.179c68.434,13.763 -42.221,93.659 -77.191,38.821c-5.463,-8.566 -8.3,-19.096 0.466,-26.541c4.409,-3.75 7.917,-1.775 11.446,0.212c2.871,1.617 5.754,3.242 9.146,1.792c13.021,-5.579 42.242,-14.804 56.133,-14.284Z" style="fill:#89c5cc;"/><path d="M7614.63,6980.17c-48.367,0.775 -143.433,-13.525 -185.571,10.05c-41.696,23.329 -23.104,64.866 14.934,74.804c25.145,6.566 66.233,-4.029 92.412,-5.096c34.433,-1.4 68.896,-1.704 103.35,-2.179c57.946,-0.779 115.867,-0.121 173.817,-0.121c59.187,0 119.387,1.617 178.471,-2.733c74.758,-5.504 72.745,-61.484 -0.363,-68.479c-124.204,-11.888 -252.446,-8.209 -377.05,-6.246" style="fill:#89c5cc;"/><path d="M7491.08,7607.13c0,26.596 23.6,0 23.43,0c0.17,0 -23.43,-26.6 -23.43,0" style="fill:#89c5cc;"/><path d="M6957.25,7393c1.521,77.308 2.521,154.692 5.821,231.938c1.05,24.425 -5.95,72.124 23.658,84.579c32.954,13.862 43.2,-20.692 47,-44.105c12.021,-74.166 0.234,-158.854 -0.921,-233.908c-0.387,-25.196 5.063,-60.279 -23.558,-72.841c-23.342,-10.255 -52.475,8.779 -52,34.337" style="fill:#89c5cc;"/><path d="M7250.79,7339.29c118.604,-5.084 237.362,-6.496 356.046,-8.355c121.666,-1.887 243.437,-1.766 365.112,-0.65c71.7,0.663 142.904,4.163 214.367,9.938c61.171,4.942 87.129,7.458 105.829,70.696c13.254,44.821 26.792,101.125 18.254,148.012c-6.188,33.938 -46.629,73.459 -74.442,26.913c-11.162,-18.683 -6.254,-52.088 -1.675,-83.25c2.779,-18.888 5.434,-36.954 4.317,-50.417c-2.233,-26.812 -1.021,-49.904 -22.454,-59.3c-14.854,-6.504 -39.571,-4.008 -61.05,-1.833c-9.467,0.954 -18.304,1.85 -25.392,1.879c-239.3,1.083 -478.725,0.35 -717.975,5.167c-88.229,1.775 -176.379,4.258 -264.5,8.904c-40.608,2.146 -81.183,5 -120.933,13.908c-21.842,4.896 -123.254,21.333 -75.434,-38.937c23.175,-29.196 111.934,-30.605 147.663,-33.984c50.446,-4.771 101.646,-6.521 152.267,-8.691Z" style="fill:#89c5cc;"/><path d="M8076.25,7650.54c-257.417,29.891 -522.154,12.279 -780.946,13.333c-62.929,0.258 -125.916,0.763 -188.787,3.813c-33.209,1.608 -111.921,-7.546 -134.671,18.066c-47.954,54.004 38.429,61.863 69.962,59.625c63.763,-4.533 127.675,-6.604 191.6,-7.096c225.167,-1.741 451.605,8.767 676.584,-2.341c94.258,-4.654 186.408,-20.775 278.921,-38.796c20.495,-3.992 160.795,-30.663 80.791,-62.633c-47.283,-18.892 -143.787,10.229 -193.454,16.029" style="fill:#89c5cc;"/><path d="M7195.08,7606.04c-43.033,-49.096 -14.537,-99.192 19.975,-142.18c14.771,-18.32 42.746,-11.804 64.938,-6.637c6.271,1.458 12.079,2.813 16.996,3.467c32.783,4.362 51.1,3.616 73.691,30.337c35.092,41.496 39.438,105.071 -10.87,135.271c-48.834,29.308 -126.251,23.642 -164.73,-20.258Zm107.592,-77.896c0.008,0.004 1.887,0.796 2.825,1.192c0.312,0.129 0.521,0.216 0.521,0.216c0,0 -0.838,-0.354 -3.346,-1.408Zm15.892,26.779c-2.146,-9.108 -6.321,-17.363 -12.517,-24.758c-61.371,-3.942 -40.817,39.204 12.517,24.758Zm3.175,-0.888c0.237,-0.508 0.862,-1.945 1.17,-2.77c-1.254,2.871 -1.404,3.283 -1.17,2.77Z" style="fill:#89c5cc;"/><path d="M7571.88,7543.42c0,57.237 247.15,32.604 291.117,32.541c36.829,-0.054 259.537,20.263 243.554,-38.641c-13.138,-48.4 -232.504,-24.342 -279.221,-24.413c-40.379,-0.054 -255.45,-27.783 -255.45,30.513" style="fill:#89c5cc;"/></g><g opacity="0.5"><path d="M4961.42,4054.12c55.408,-68.35 120.908,-100.738 210.429,-101.225c123.35,-1.213 273.846,44.429 338.796,157.22c64.987,112.851 33.725,266.98 -55.109,358.226c-97.041,99.683 -228.837,113.55 -345.441,42.429c-107.267,-65.421 -181.888,-189.346 -169.95,-317.021c-48.484,30.917 -50.959,-35.033 -36.83,-60.967c15.125,-27.771 38.234,-54.154 58.105,-78.662Zm520.341,197.341c1.084,-144.075 -127.671,-202.287 -251.445,-220.258c-70.359,-8.458 -140.075,-8.558 -184.009,52.883c-33.533,46.896 -47.783,108.271 -40.167,165.275c14.705,110.025 125.25,238.417 242.659,244.921c130.458,7.238 232.058,-121.687 232.962,-242.821Z" style="fill:#89c5cc;"/><path d="M5440.29,3918.67c-57.317,42.008 -109.65,97.321 -153.117,153.425c-42.487,54.841 -70.575,123.316 -121.612,171.133c-25.771,-28.071 -55.971,-103.891 -107.384,-73.808c-42.666,24.958 -15.191,67.883 5.588,96.067c53.658,72.775 113.241,102.066 182.058,30.162c62.5,-65.3 97.992,-152.412 156.425,-221.471c25.638,-30.3 65.233,-60.379 85.646,-93.829c18.504,-30.325 -4.379,-93.446 -47.604,-61.679" style="fill:#89c5cc;"/></g><g opacity="0.5"><path d="M10983.8,1164.99c0.088,5.725 0.167,11.112 0.292,16.066c2.671,108.13 1.121,221.805 -7.667,329.684c-3.029,37.246 -30.125,84.454 -61.033,33.108c-13.592,-22.575 -11.688,-68.933 -10.288,-103.037c0.376,-9.146 0.713,-17.409 0.709,-24.092c-0.029,-38.054 1.971,-76.496 3.975,-115.042c3.921,-75.354 7.858,-151.108 -3.292,-225.116c-0.225,-1.496 -0.442,-2.938 -0.646,-4.325c-4.846,-32.546 -5.183,-34.796 -40.971,-34.055c-29.595,0.617 -59.187,1.596 -88.783,2.217c-60.271,1.267 -120.562,2.092 -180.808,4.3c-7.629,0.279 -21.85,2.063 -39.804,4.317c-35.888,4.5 -86.671,10.871 -129.409,10.833c0.029,0.513 0.084,1.025 0.096,1.55c0.479,23.592 -5.6,49.929 -11.704,76.388c-5.113,22.158 -10.242,44.404 -11.563,65.191c-3.133,49.467 -3.166,99.459 -3.2,149.45c-0.041,60.871 -0.083,121.742 -5.725,181.671c-0.275,2.921 -0.437,6.013 -0.608,9.138c-0.021,0.412 -0.042,0.829 -0.067,1.245c1.934,-0.295 3.817,-0.504 5.625,-0.616c30.8,-1.954 61.863,-2.129 92.875,-2.304c17.105,-0.096 34.196,-0.192 51.217,-0.584c30.571,-0.708 61.513,-0.675 92.579,-0.641c68.584,0.07 137.775,0.145 204.863,-7.755c19.812,-2.566 26.741,22.846 17.854,36.021c-9.979,14.792 -41.9,14.038 -56.679,16.225c-43.271,6.409 -87.113,8.646 -130.771,10.579c-45.85,2.03 -91.738,3.55 -137.621,4.83c-10.917,0.3 -25.492,1.77 -41.65,3.404c-42.662,4.312 -96.375,9.741 -123.037,-2.321c-28.65,-12.963 -27.984,-27.354 -16.288,-38.504c-5.133,-11.279 -5.937,-27.759 -6.567,-40.646c-0.241,-4.921 -0.458,-9.317 -0.879,-12.704c-6.358,-51.317 -10.191,-101.979 -10.279,-153.742c-0.183,-101.383 0.021,-206.683 28.067,-304.821c-11.234,-4.916 -18.009,-12.166 -17.979,-22.616c0.129,-52.65 164,-49.975 241.9,-48.7c13.925,0.229 25.104,0.412 32.108,0.225c56.746,-1.484 113.504,-1.675 170.258,-1.367c11.996,0.062 25.342,-0.721 39.171,-1.538c29.413,-1.729 61.008,-3.583 86.413,2.321c66.745,15.492 68.35,121.792 69.316,185.763Z" style="fill:#89c5cc;"/><path d="M11401.3,990.767c61.966,-3.28 123.971,-4.03 186.016,-4.259c65.696,-0.333 131.479,0.85 197.142,2.867l1.521,0.046c29.091,0.875 190.808,5.733 116.516,46.029c-4.337,2.354 -9.216,4.317 -14.537,5.95c3.146,18.658 3.529,37.925 3.021,47.204c-3.217,59.054 -4.596,118.217 -7.221,177.296c-2.921,65.95 -5.713,131.892 -7.979,197.867c-0.279,8.095 0.146,18.683 0.625,30.483l0,0.012c1.579,39.03 3.696,91.33 -17.5,110.663c-18.6,16.975 -31.313,13.571 -39.875,2.042c-53.234,15.458 -162.55,10.433 -217.525,7.908c-13.242,-0.612 -23.334,-1.075 -28.721,-1.071c-9.638,0.004 -27.542,1.204 -50.154,2.725c-94.134,6.321 -269.838,18.125 -270.196,-28.279c-0.038,-4.467 1.417,-8.467 4.142,-12.05c-7.459,-7.612 -14.167,-18.783 -18.48,-32.725c-15.466,-50.05 -16.925,-104.054 -18.07,-155.954c-1.621,-73.284 -1.638,-146.654 -1.655,-220.004c-0.008,-37.675 -0.02,-75.342 -0.245,-112.992c-10.063,-13.513 -4.088,-28.967 8.466,-39.75c26.729,-22.946 93.079,-23.221 141.075,-23.421c12.917,-0.054 24.504,-0.104 33.634,-0.587Zm-100.834,565.075c59.73,-12.75 160.363,-8.646 214.28,-6.446c14.12,0.575 25.037,1.021 31.175,0.996c55.066,-0.217 110.154,0.55 165.179,2.75c5.7,0.229 14.141,0.016 24.087,-0.238c19.975,-0.504 46.025,-1.158 68.142,1.292c-0.296,-2.996 -0.496,-5.738 -0.613,-8.109c-2.479,-48.975 -0.687,-98.379 1.092,-147.504c0.379,-10.441 0.754,-20.871 1.092,-31.283c1.925,-59.863 4.875,-119.671 7.183,-179.521c0.388,-10.146 -0.192,-23.925 -0.846,-39.425c-1.333,-31.542 -2.966,-70.212 2.679,-99.917c-20.371,-0.387 -41.245,-1.829 -60.395,-3.154c-18.45,-1.275 -35.292,-2.441 -48.534,-2.441c-16.796,-0.005 -33.587,-0.055 -50.379,-0.105c-46.529,-0.145 -93.042,-0.287 -139.575,0.634c-68.4,1.358 -137.533,2.158 -205.45,11.179c-3.721,0.496 -8.196,1.45 -13.146,2.608c6.963,29.113 3.55,70.138 0.563,106.067c-1.45,17.454 -2.8,33.704 -2.817,46.8c-0.092,81.458 2.058,162.592 4.208,243.65c0.813,30.662 1.625,61.312 2.317,91.962c0.083,3.659 -0.004,7.059 -0.242,10.205Z" style="fill:#89c5cc;"/><path d="M10620.7,1597.88c-40.721,23.788 -18.763,118.95 -4.654,151.863c23.191,54.116 70.254,96.462 121.029,124.554c102.633,56.771 250.575,41.691 328.195,140.125c0.801,1.016 27.634,27.579 33.738,-6.817c5.017,-28.229 -45.071,-71.342 -64.479,-85.492c-55.196,-40.237 -125.983,-53.212 -189.825,-73.312c-68.083,-21.438 -142.8,-60.958 -171.346,-131.146c-10.108,-24.862 9.163,-156.062 -52.658,-119.775" style="fill:#c1dee2;"/><path d="M11551.6,1643.63c-37.317,10.288 -12.633,61.638 -12.696,87.35c-0.071,32.075 -10.325,65.646 -30.096,91.242c-50.129,64.917 -148.291,74.642 -221.887,93.254c-53.438,13.525 -181.288,42.521 -186.292,114.792c-5.587,80.704 107.288,-17.509 116.821,-21.538c105.5,-38.7 241.987,-46.171 323.417,-131.358c33.612,-35.158 53.479,-82.092 56.637,-130.529c1.779,-27.275 2.079,-116.321 -45.904,-103.213" style="fill:#c1dee2;"/><path d="M10780.5,2359.5c-0.871,-149.325 142.033,-239.65 271.254,-273.629c155.325,-40.917 300,67.912 318.312,224.466c19.321,165.221 -105.2,298.23 -269.416,305.521c-144.454,6.413 -319.229,-97.016 -320.15,-256.358Zm346.954,-201.829c8.4,11.421 15.979,29.646 -0.946,39.571c-16.279,9.487 -24.408,-1.917 -32.592,-13.396c-5.175,-7.254 -10.366,-14.538 -17.65,-16.592c-18.883,-5.317 -49.225,14.542 -64.95,26.121c-6.383,4.7 -15.47,14.821 -26.091,26.646c-33.804,37.65 -83.159,92.621 -110.442,45.32c-108.8,187.88 162.45,328.484 316.696,257.384c169.4,-78.088 136.425,-363.567 -64.025,-365.054Z" style="fill:#89c5cc;"/><path d="M10985.3,2309.51c0,34.275 54.125,34.275 54.125,0c0,-33.883 -54.125,-35.337 -54.125,0" style="fill:#89c5cc;"/><path d="M11080.5,2303.08c0,41.983 66.333,41.983 66.333,0c0,-41.508 -66.333,-43.279 -66.333,0" style="fill:#89c5cc;"/><path d="M11012.4,2400.91c-54.246,31.909 100.883,95.305 107.008,30.521c2.646,-27.954 -24.429,-20.412 -42.471,-22.471c-17.266,-1.97 -48.158,-17.583 -64.537,-8.05" style="fill:#89c5cc;"/><path d="M10988.9,2627.28c2.358,81.496 1.225,162.946 16.679,243.309c2.942,15.258 4.979,70.625 17.046,81.958c29.671,27.896 30.158,-25.563 31.313,-46.05c4.116,-73.379 -3.584,-149.042 -5.288,-222.571c-0.367,-15.825 3.825,-48.608 -3.646,-63.929c-11.85,-24.317 -57.254,-31.538 -56.104,7.283" style="fill:#c1dee2;"/><path d="M10930.9,2561.2c-118.921,133.475 -282.679,123.642 -447.658,135.329c-87.167,6.179 -175.305,18.858 -245.446,75.242c-32.625,26.229 -60.754,59.083 -79.654,96.521c-8.263,16.37 -47.45,110.812 11.404,88.404c20.875,-7.946 41.425,-70.4 54.925,-88.875c25.712,-35.184 58.616,-64.229 98.083,-83.113c76.133,-36.421 167.042,-35.8 249.592,-40.421c86.291,-4.829 178.912,-9.341 258.233,-46.866c37.313,-17.654 72.321,-39.671 102.35,-68.038c10.729,-10.146 33.742,-27.371 35.454,-42.875c1.963,-17.725 -15.075,-50.175 -37.283,-25.308" style="fill:#c1dee2;"/><path d="M10330.5,2970.88c-111.709,3.729 -223.275,8.25 -334.825,15.313c-22.863,1.449 -99.079,-3.167 -79.667,43.674c15.558,37.546 108.513,12.709 139.258,10.888c116.242,-6.9 232.963,-9.3 348.954,-19.754c26.059,-2.346 143.838,-1.413 95.205,-47.592c-23.138,-21.979 -136.959,-3.621 -168.925,-2.529" style="fill:#89c5cc;"/><path d="M9845.08,3024.75c-35.212,46.242 -19.033,158.642 -16.37,214.234c2.575,53.874 -7.888,152.379 62.433,160.733c-22.329,-2.929 16.954,1.354 23.341,1.7c14.28,0.767 28.625,1.012 42.921,1.167c33.029,0.362 66.075,-0.075 99.096,-0.738c74.808,-1.496 149.808,-3.671 224.517,-7.808c31.408,-1.742 201.775,-0.288 208.521,-32.913c8.616,-41.687 -154.73,-18.104 -183.971,-16.771c-71.217,3.267 -142.542,3.955 -213.817,4.888c-35.329,0.462 -70.691,0.812 -106.016,0.121c-14.588,-0.284 -72.359,5.704 -81.226,-4.029c-7.562,-8.284 -1.658,-84.455 -1.82,-96.105c-0.521,-37.983 -0.479,-76.054 0.875,-114.016c0.912,-25.563 14.729,-74.192 3.471,-98.204c-10.955,-23.342 -42.88,-31.313 -61.955,-12.259" style="fill:#89c5cc;"/><path d="M10420.3,3026.91c2.041,84.599 2.675,170.912 22.654,253.649c6.65,27.538 15.966,84.317 43.633,98.571c29.033,14.967 54.1,-6.391 55.996,-35.158c2.388,-36.171 -16.975,-83.65 -20.946,-120.758c-4.641,-43.296 -7.342,-86.638 -8.925,-130.146c-1.204,-32.721 8.742,-81.779 -22.45,-102.879c-28.021,-18.954 -70.875,0.133 -69.962,36.72" style="fill:#89c5cc;"/><path d="M10642.6,3006.25c-34.741,34.609 -19.212,144.179 -14.866,188.646c3.179,32.571 38.825,192.783 92.241,109.237c23.625,-36.954 -6.391,-134.679 -6.179,-177.77c0.138,-27.446 9.854,-62.15 5.163,-88.517c-6.196,-34.85 -44.842,-63.067 -76.359,-31.596" style="fill:#89c5cc;"/><path d="M10883.2,2977.69c104.354,-10.767 208.833,-18.842 313.758,-19.842c5.038,-0.042 10.333,-0.108 15.838,-0.175c71.916,-0.912 179.991,-2.283 228.383,51.717c31.292,34.908 42.271,92.416 54.479,135.975c1.638,5.85 3.771,12.521 6.071,19.733c10.871,34.033 25.579,80.088 10.667,108.6c-8.175,15.633 -21.346,28.963 -41.325,23.425c-4.671,-1.292 -8.33,-2.946 -11.196,-4.9c7.658,8.283 11.046,20.083 6.075,31.629c-9.613,22.317 -39.967,22.792 -63.896,23.167c-5.796,0.087 -11.217,0.175 -15.871,0.562c-79.671,6.642 -159.708,11.071 -239.667,11.771c-38.066,0.334 -76.137,0.021 -114.208,-0.287c-39.192,-0.321 -78.379,-0.642 -117.563,-0.259c-28.441,0.284 -57.408,2.984 -86.383,5.692c-36.583,3.412 -73.183,6.829 -108.762,5.371c-26.617,-1.1 -55.042,-9.813 -48.296,-44.217c5.979,-30.521 36.692,-30.758 61.729,-33.308c75.425,-7.679 150.888,-10.396 226.696,-10.125c159.258,0.554 318.387,-0.271 477.642,-1.104c6.545,0.537 12.712,3.041 17.791,6.854c-5.737,-6.958 -5.625,-16.225 -5.508,-26.092c0.054,-4.466 0.108,-9.054 -0.375,-13.608c-4.188,-39.4 -6.888,-78.121 -14.358,-117.513c-5.971,-31.508 -10.475,-85.029 -39.667,-104.85c-25.1,-17.045 -74.317,-16.229 -112.679,-15.591c-10.354,0.175 -19.917,0.333 -28,0.125c-102.363,-2.642 -205.313,4.629 -307.209,13.891c-46.466,4.225 -93.508,7.442 -139.45,15.784c-6.991,1.271 -17.67,5 -29.925,9.275c-32.591,11.371 -76.3,26.62 -91.15,9.825c-49.204,-55.646 167.005,-78.496 196.359,-81.525Z" style="fill:#89c5cc;"/><path d="M11371,2669.73c-29.879,-16.908 -147.183,-126.217 -83.808,-163.471c31.604,-18.487 45.612,8.925 57.546,32.28c2.912,5.695 5.7,11.149 8.591,15.641c23.646,36.729 52.796,55.917 93.817,67.813c74.596,21.637 152.729,30.762 229.212,43.041c82.255,13.192 173.192,22.709 250.121,56.696c33.846,14.946 187.429,153.983 130.434,187.113c-22,12.783 -45.675,-26.329 -61.192,-51.967c-4.454,-7.358 -8.233,-13.604 -11.113,-17.2c-25.479,-31.821 -50.204,-52.525 -89.12,-65.796c-91.321,-31.142 -194.738,-36.125 -289.759,-49.675c-75.087,-10.696 -167.483,-16.433 -234.729,-54.475Z" style="fill:#c1dee2;"/><path d="M12258.8,2933.27c-114.063,2.529 -227.796,14.808 -341.646,21.612c-48.775,2.917 -97.813,4.742 -146.442,9.655c-29.591,2.987 -84.658,5.037 -117.204,18.662c-24.337,-18.404 -61.892,-2.758 -62.479,30.05c-1.004,59.771 -0.454,118.475 6.837,177.875c1.688,13.788 10.405,83.6 29.359,119.938c-6.742,34.32 22.512,43.937 49.741,46.566c105.459,10.179 216.05,2.279 325.146,-5.516c55.492,-3.963 110.592,-7.9 164.438,-9.417c17.904,-0.504 36.037,-0.708 54.279,-0.913c59.529,-0.67 120.208,-1.35 177.842,-12.604c22.641,-4.421 61.341,-8.229 64.004,-36.162c1.437,-15.05 -7.05,-28.825 -21.263,-30.763c0.975,-12.546 -0.6,-26.225 -1.758,-36.283c-0.271,-2.342 -0.517,-4.483 -0.704,-6.371c-4.229,-42.721 -16.313,-85.092 -26.425,-126.729c-9.313,-38.346 -15.505,-109.513 -46.584,-138.2c-25.4,-23.442 -66.741,-22.404 -99.862,-21.575c-2.475,0.062 -4.904,0.125 -7.279,0.175Zm128.575,332.721c-14.096,-36.913 -11.963,-95.017 -19.48,-133.242c-7.466,-37.95 -10.3,-82.963 -25.562,-118.604c-14.483,-33.809 -27.371,-32.517 -57.871,-29.459c-5.671,0.567 -11.95,1.196 -18.967,1.675c-45.987,3.121 -91.92,7.509 -137.862,11.288c-100.992,8.304 -202.067,13.558 -303.133,20.6c-52.417,3.65 -102.575,18.612 -153.842,24.483c-0.329,7.746 -0.979,15.525 -1.6,22.934c-0.842,10.083 -1.629,19.483 -1.463,27.183c0.859,39.387 4.738,78.496 8.159,117.721c0.546,6.262 1.896,14.312 3.391,23.246c2.309,13.808 4.971,29.716 5.571,44.375c2.754,-0.021 5.5,-0.013 8.2,0c3.492,0.012 6.913,0.025 10.2,-0.034c80.321,-1.404 160.584,-3.837 240.85,-6.925c81.863,-3.137 163.725,-6.646 245.646,-7.587c28.479,-0.325 57.329,0.571 86.267,1.462c37.225,1.154 74.596,2.309 111.496,0.884Z" style="fill:#89c5cc;"/></g></g><g><g><g><path d="M1948.42,874.858c84.658,147.942 74.596,523.213 -34.812,549.655c-37.071,8.958 -109.738,-8.338 -188.775,-46.534l45.554,322.292l-312.5,0l94.012,-438.192c-88.337,-80.3 -154.308,-185.691 -145.266,-306.525c21.937,-293.125 457.133,-228.641 541.787,-80.696Z" style="fill:#d2a378;"/><path d="M1959.2,869.896c0.241,1.442 0.7,3.379 0.971,5.342c0.587,4.27 0.271,8.633 -5.13,8.129c-4.233,-0.392 -7.6,-10.034 -9.149,-13.279c-7.225,-15.134 -81.4,-7.78 -119.459,-0.192c8.779,12.187 -8.7,42.658 -13.75,53.437c-10.812,23.079 -20.683,46.604 -31.291,69.8c-12.88,28.167 -27.792,55.846 -49.68,76.742c-16.341,15.596 -39.154,30.871 -60.958,19.696c-37.929,-19.438 -49.825,-94.575 -102.958,-78.271c-35.759,10.975 -64.496,77.583 -36.046,110.313c7.05,8.104 16.262,14.524 25.337,19.495c7.792,4.267 5.742,18.796 5.742,25.354c8.754,46.038 37.2,97.13 0,128.375c-33.496,28.138 16.229,60.38 -31.333,73.4c-47.559,13.021 -57.909,26.809 -106.15,13.021c-45.575,-13.021 -78.125,-13.021 -93.467,-13.021c-15.337,0 -51.437,-0.833 -62.783,0c-22.859,1.684 -65.104,-32.55 -65.104,-52.083c0,-34.342 -26.042,-52.083 -26.042,-78.125c0,-26.042 13.021,-52.083 13.021,-71.567c0,-23.208 13.021,-96.587 45.571,-155.162c32.554,-58.575 45.575,-106.492 78.125,-135.192c32.554,-28.704 52.083,-93.808 91.145,-124.441c39.063,-30.634 78.125,-54 110.68,-67.021c32.55,-13.021 82.808,-27.121 120.537,-31.725c74.729,-9.121 150.721,18.966 210.421,67.662c32.679,26.659 62.279,58.779 86.954,94.35c13.108,18.892 21.7,36.734 24.796,54.963" style="fill:#3b2a1b;"/></g><g><path d="M1116.57,2859.13l530.296,1864.54l386.904,1374.27l282.196,0l-411.146,-3238.81l-788.25,0Z" style="fill:#191847;"/><path d="M974.758,2859.13c-12.266,961.008 -54.091,1485.17 -66.971,1572.48c-12.879,87.313 -207.604,642.758 -584.183,1666.33l292.333,0c479.413,-981.945 747.034,-1537.39 802.859,-1666.33c55.829,-128.937 228.121,-653.1 487.621,-1572.48l-931.659,0Z" style="fill:#2f3676;"/><path d="M297.475,6361.75l14.629,-307.762l307.159,-0.001c218.47,153.884 570.445,249.142 570.445,249.142l0,58.621l-555.816,0l-190.15,-29.313l0,29.313l-146.267,0Z" style="fill:#191847;"/><path d="M1994.17,6361.75l14.629,-307.762l307.163,-0.001c218.471,153.884 570.441,249.142 570.441,249.142l0,58.621l-555.816,0l-190.146,-29.313l0,29.313l-146.271,0Z" style="fill:#191847;"/></g><g><path d="M178.458,3524.57c104.017,-51.717 256.734,-146.359 280.471,-181.238c48.563,-71.346 282.242,-800.387 282.242,-800.387l269.304,38.929c0,0 -362.788,770.554 -389.608,817.054c-34.838,60.404 -4.021,159.608 16.875,226.879c3.229,10.409 6.225,20.05 8.704,28.667c-43.892,12.675 -60.592,-12.45 -78.196,-38.934c-19.883,-29.916 -40.921,-61.574 -103.608,-42.466c-24.217,7.379 -47.484,16.858 -70.217,26.121c-78.525,31.995 -150.663,61.387 -233.513,-7.342c-13.137,-10.896 -24.204,-46.525 17.546,-67.283Zm2072.72,-721.109l315.184,407.663c99.908,60.271 179.954,122.566 240.133,186.887c12.679,20.559 24.342,58.175 -45.267,32.296c-69.604,-25.883 -143.979,-49.979 -160.762,-28.517c-7.35,9.396 -4.817,22.613 -2.104,36.775c3.483,18.184 7.262,37.917 -9.175,53.13c-19.496,18.041 -66.321,-54.642 -140.475,-218.05l-348.354,-277.317l150.82,-192.867Z" style="fill:#d2a378;"/><path d="M1665.82,1519.9l114.183,-3.454c124.567,506.516 336.967,1069.78 760.217,1528.9l-305.104,252.967c-399.851,-625.23 -670.292,-1187.46 -569.296,-1778.41Z" style="fill:#331212;"/><path d="M982.85,2852.77l1070.21,150.408c-0.001,0 -304.492,-898.283 -222.084,-1484.67l-293.221,-86.712c-288.575,345.471 -420.545,802.2 -554.908,1420.98Z" style="fill:#888a8c;"/><path d="M471.754,3214.85c280.742,-1209.73 1059.42,-1783.98 1059.42,-1783.98l0.209,0.246c0.05,-0.067 0.1,-0.134 0.149,-0.196l19.551,2.746c34.916,6.141 106.279,19.375 106.279,19.375l43.3,216.983c-41.671,379.842 -80.138,1543.31 -80.138,1543.31l-790.979,-111.166c-7.021,52.608 -12.45,106.196 -16.1,160.704l-341.696,-48.021Z" style="fill:#4f1d1d;"/><path d="M830.463,3100.88c26.979,-229.596 77.483,-441.637 138.683,-631.35c-14.713,233.25 -16.717,516.129 42.371,656.796l-181.054,-25.446Z" style="fill-opacity:0.1;"/><path d="M1170.03,2747.59l341.892,-104.092l-20.967,149.196l-320.925,-45.104Z" style="fill:#fff;fill-opacity:0.14;"/></g></g><g><g><path d="M6182.58,660.346c-75.454,140.642 -66.487,497.387 31.029,522.521c38.892,10.025 121.738,-14.529 206.055,-65.354l-52.925,374.425l312.5,0l-107.58,-501.43c59.996,-70.429 100.605,-156.737 93.821,-253.45c-19.554,-278.65 -407.446,-217.35 -482.9,-76.712Z" style="fill:#c9986f;"/><path d="M6722.5,646.138c-6.125,-11.417 -4.175,-13.467 -1.575,-26.58c5.192,-26.2 5.242,-56.333 -11.292,-76.679c-13.258,-16.316 -33.154,-23.633 -51.512,-25.225c-12.233,-1.058 -20.6,-14.15 -32.325,-9.791c-11.638,4.325 -41.85,-24.463 -54.517,-48.575c-12.191,-23.196 -31.633,-36.213 -53.771,-39.659c-22.721,-3.533 -36.762,8.013 -64.096,11.75c-5.75,0.788 -8.041,0.05 -12.87,3.746c-4.042,3.092 -6.146,2.863 -10.888,4.121c-5.292,1.404 -14.208,-0.471 -17.641,-4.829c-4.03,-5.117 -5.563,-2.992 -11.275,-4.913c-28.938,-9.746 -50.517,-21.75 -75.126,-11.171c-11.337,4.875 -22.366,13.159 -30.058,24.567c-6.858,10.171 -4.754,0.204 -14.221,7.292c-4.012,3.008 -6.15,4.558 -13.304,5.566c-6.696,0.946 -8.233,0.971 -13.791,-3.333c-7.809,-6.046 -22.959,-4.246 -32.013,-6.612c-13.254,-3.467 -31.571,-2.655 -35.363,16.97c-1.42,7.375 -0.329,15.259 0.13,22.688c0.629,10.2 -16.9,6.95 -16.117,17.133c0.596,7.734 -2.85,15.992 -1.558,23.588c0.687,4.046 -1.354,7.637 -2.888,11.691c-1.921,5.067 -2.379,5.35 -6.162,5.525c-7.471,0.35 -5.884,11.321 -12.792,14.934c-5.354,2.796 -1.892,10.866 -4.15,17.804c-1.387,4.262 -1.021,8.642 -0.367,13.025c0.788,5.262 -0.112,8.054 -0.7,13.367c-10.037,-5.588 -11.233,8.095 -15.612,28.433c-1.454,6.771 1.862,14.421 4.392,20.129c4.441,10.017 1.166,19.171 7.116,27.9c12.413,18.213 -6.35,10.983 9.592,24.417c-18.675,9.387 -14.458,33.916 1.712,50.416c7.142,7.284 16.742,8.905 25.746,8.438c3.3,-0.171 8.05,-1.604 10.646,-0.954c1.396,0.35 2.888,1.687 4.821,1.837c12.712,0.984 27.058,-2.479 39.487,-5.666c22.138,-5.684 43.1,-17.542 60.217,-35.605c4.388,-4.633 8.017,-7.3 13.925,-7.233c5.179,0.058 10.263,1.667 15.433,1.813c13.692,0.395 44.417,28.595 51.442,46.062c5.729,14.246 28.346,58.663 35.325,67.283c11.496,14.2 20.042,31.796 25.967,50.33c17.825,-26.271 49.329,-43.58 77.241,-35.509c30.838,8.917 52.555,56.071 32.834,89.971c-11.45,19.679 -32.125,27.275 -49.329,35.729c13.42,15.779 16.666,39.079 24.745,58.704c3.984,9.68 9.18,22.559 18.488,23.996c12.096,1.871 84.208,-28.662 73.217,-44.104c17.495,-8.246 49.362,-18.846 42.412,-49.658c37.904,-2.846 129.938,-72.354 79.063,-123.146c27.92,-17.838 53.57,-61.442 35.637,-99.875c-13.812,-29.596 -39.792,-69.879 -39.792,-69.879" style="fill:#171717;"/></g><g><path d="M7020.58,2650.79l-703.279,1864.54l-492.946,1374.27l-281.075,0l677.6,-3238.81l799.7,0Z" style="fill:#2c2c2c;"/><path d="M7194.38,2650.79c7.646,639.762 2.121,1501.1 19.933,1540.98c17.809,39.879 1108.03,908.75 1108.03,908.75l-144.879,246.837c0,0 -1294.35,-836.321 -1360.52,-947.746c-66.175,-111.425 -398.629,-1136.77 -571.6,-1748.82l949.029,0Z" style="fill:#333;"/><path d="M8577.67,5267.29l-245.159,-186.617l-197.441,235.296c-22.55,266.271 -175.821,597.129 -175.821,597.129l44.904,37.683l357.275,-425.783l99.771,-164.5l22.45,18.842l94.021,-112.05Z" style="fill:#473018;"/><path d="M5850.42,6153.42l-14.625,-307.763l-307.163,0c-218.471,153.883 -570.442,249.142 -570.442,249.142l0,58.621l555.817,0l190.146,-29.313l0,29.313l146.267,0Z" style="fill:#473018;"/></g><g><path d="M5658.04,1667.25l482,182.221l-140.342,200.617l-367.046,-252.051c-167.008,-21.716 -250.558,-43.774 -250.654,-66.175c-0.004,-1.47 0.35,-2.937 1.058,-4.408c9.742,-20.171 29.721,-22.325 48.125,-24.308c14.338,-1.546 27.717,-2.992 34.555,-12.767c15.616,-22.321 -29.171,-86.404 -74.271,-145.4c-45.105,-58.996 -5.721,-58.846 17.645,-52.733c79.109,38.75 162.084,97.083 248.93,175.004Zm-401.65,407.183l211.77,80.367l16.53,198.858c0,0 -140.242,-74.004 -254.075,-89.15c-145.146,-19.316 -205.834,-41.112 -286.309,-118.487c-43.054,-41.396 -87.195,-130.579 -56.716,-165.925c11.691,-13.563 65.25,7.062 119.9,28.108c41.65,16.038 83.933,32.317 108.796,33.896c33.466,2.125 23.733,-39.5 15.954,-72.763c-5.579,-23.866 -10.154,-43.429 2.962,-39.433c57.684,-7.1 121.188,144.529 121.188,144.529Z" style="fill:#c9986f;"/><path d="M6350.33,1764.23c-156.991,20.375 -370.687,16.646 -613.633,-93.591l-60.146,207.658c175.317,131.063 409.279,226.113 597.692,194.217c148.475,-25.138 199.321,-216.154 76.087,-308.284Z" style="fill:#4b62c7;"/><path d="M6961.21,3043.13c146.296,-40.375 189.68,-74.1 273.075,-69.529c49.492,-308.496 -52.279,-443.583 -88.904,-622.504c-22.637,-110.608 -76.683,-217.425 -92.792,-331.45c-46.92,-332.046 -385.404,-805.721 -424.637,-800.208l-357.767,50.283c12.884,207.746 -48.404,779.225 -56.495,833.646c-251.713,95.562 -888.284,-25.367 -888.284,-25.367c0,0 -89.883,183.754 -60.842,310.613c360.721,128.312 703.584,152.095 941.605,123.916c-18.1,145.234 -62.042,491.5 65.666,540.013c110.309,41.904 415.571,66.154 689.375,-9.413Z" style="fill:#627bea;"/></g></g><g><g><path d="M11873.2,1731.13c-75.45,140.638 -66.487,497.384 31.03,522.517c38.891,10.025 121.737,-14.529 206.054,-65.35l-52.925,374.421l312.5,0l-107.58,-501.429c59.996,-70.429 100.605,-156.738 93.821,-253.446c-19.554,-278.654 -407.446,-217.354 -482.9,-76.713Z" style="fill:#d3b492;"/><path d="M12286.3,2124.02c39.221,-174.492 150.959,-293.438 133.892,-371.429c-17.067,-77.992 -90.967,-97 -90.967,-97c0,0 -38.22,-154.621 -246.541,-131.534c-208.317,23.088 -335.467,109.6 -280.559,299.967c50.475,0 111.409,-18.254 195.667,13.021c40.1,14.887 57.362,92.321 57.362,92.321l38.076,0c0,0 55.429,-91.896 109.312,-67.538c53.879,24.358 24.492,118.325 24.492,118.325l18.758,143.867l40.508,0Z" style="fill:#393126;"/></g><g><path d="M11838.5,4438.42l1626.21,0c124.875,0 226.259,93.35 226.259,208.333l0,1197.92c0,114.983 -101.384,208.333 -226.259,208.333l-1626.21,0c-124.875,0 -226.254,-93.35 -226.254,-208.333l0,-1197.92c0,-114.983 101.379,-208.333 226.254,-208.333Zm226.254,364.583l1173.7,0c31.221,0 56.563,23.338 56.563,52.083l0,781.25c0,28.746 -25.342,52.084 -56.563,52.084l-1173.7,0c-31.217,0 -56.562,-23.338 -56.562,-52.084l0,-781.25c0,-28.745 25.345,-52.083 56.562,-52.083Z" style="fill:#c5cfd6;"/><path d="M10207.7,6081.08c288.379,-352.837 483.5,-614.416 585.371,-784.733c174.425,-291.625 317.183,-551.121 362.234,-650.246c107.429,-236.375 -247.321,-347.062 -327.609,-236.808c-121.521,166.875 -381.041,691.979 -778.567,1575.32l158.571,96.471Z" style="fill:#d3b492;"/><path d="M10478.3,5842.38l697.108,-1221.71c114.788,-246.755 -279.6,-404.734 -363.962,-289.9c-191.521,260.708 -646.73,1289.17 -703.788,1366.84l370.642,144.771Z" style="fill:#69696d;"/><path d="M12229.2,5707.42c-104.77,-152.775 -485.816,-666.8 -693.3,-879.529c-59.625,-61.13 -117.8,-119.805 -172.82,-174.48c-163.546,-162.521 -488.659,110.071 -325.425,258.113c406.508,368.687 999.591,866.446 1049.14,910.821c69.454,62.2 208.246,-18.909 142.4,-114.925Z" style="fill:#d3b492;"/><path d="M12163.1,5642.21c8.267,-12.829 25.742,-15.833 37.817,-6.5c0,0 53.266,41.175 73.087,75.505c19.821,34.329 46.429,106.783 46.429,106.783l-714.445,412.487c0,0 -81.109,-76.166 -25.355,-118.162c55.755,-42 92.017,-70.838 92.017,-70.838l247.396,-341.375c4.308,-5.945 12.679,-7.154 18.492,-2.671l52.612,40.567c0,0 70.538,-6.1 105.263,-26.15c34.729,-20.05 66.687,-69.646 66.687,-69.646Z" style="fill:#e4e4e4;"/><path d="M10294.8,6011.38c13.575,-6.975 30.213,-0.837 36,13.283c0,0 25.546,62.288 25.546,101.93c0,39.641 -13.184,115.695 -13.184,115.695l-824.975,0c0,0 -32.158,-106.52 37.125,-115.012c69.284,-8.492 115.113,-15.338 115.113,-15.338l384.933,-171.941c6.704,-2.992 14.559,0.145 17.354,6.937l25.28,61.438c0,0 64.137,29.983 104.237,29.983c40.1,0 92.571,-26.975 92.571,-26.975Z" style="fill:#e4e4e4;"/><path d="M11528.5,4692.5c0,0 669.104,-109.221 896.35,-149.367c431.825,-76.291 557.75,-309.12 483.296,-817.116l-795.629,0c-157.938,45.696 -1265.02,566.575 -1265.02,566.575c-97.212,56.958 -71.792,320.591 0.583,424.008c30.209,43.167 822.85,971.842 822.85,971.842l389.517,-261.488l-533.167,-685.5c0,0 -21.12,-42.625 1.221,-48.954Z" style="fill:#7d7e87;"/></g><g><path d="M11506,3616.91l-368.854,359.83c-107.321,45.779 -195.258,96.329 -263.804,151.65c-15.417,18.591 -32.2,54.22 40.329,38.279c72.529,-15.946 149.538,-29.454 163.171,-5.867c5.967,10.329 1.621,23.067 -3.038,36.713c-5.979,17.516 -12.466,36.537 1.692,53.887c1.034,1.267 2.217,2.208 3.55,2.821c20.342,9.383 75.646,-57.013 165.904,-199.2l383.559,-226.133l-122.509,-211.98Zm2143.36,770.109c-104.013,-51.717 -256.734,-146.359 -280.471,-181.238c-48.558,-71.346 -282.238,-800.387 -282.238,-800.387l-269.304,38.929c0,0 362.788,770.554 389.604,817.054c34.838,60.404 4.025,159.608 -16.87,226.879c-3.234,10.409 -6.23,20.05 -8.709,28.667c43.896,12.675 60.592,-12.446 78.196,-38.933c19.883,-29.917 40.925,-61.571 103.608,-42.467c24.221,7.379 47.488,16.858 70.221,26.121c78.525,31.996 150.659,61.387 233.513,-7.338c13.133,-10.9 24.2,-46.525 -17.55,-67.287Z" style="fill:#d3b492;"/><path d="M12162,2382.35l-76.246,-16.1c-363.462,415.508 -474.829,1138.58 -930.791,1573.53l143.312,134.134c864.379,-232.55 964.725,-1100.61 863.725,-1691.56Z" style="fill:#921e12;"/><path d="M12844.9,3715.22l-986.546,138.65c-45.079,6.333 -32.246,-144.258 -30.346,-178.021c21.933,-389.662 212.1,-767.692 233.196,-1308.7l213.862,-70.804c288.575,345.471 435.475,800.104 569.834,1418.88Z" style="fill:#f1d2cd;"/><path d="M12652.2,2618.25c51.259,-10.975 94.95,-39.212 117,-96.671c77.634,-202.291 25.55,-300.342 -90.379,-318.687c-63.746,-10.088 -119.437,10.741 -186.104,35.67c-54.554,20.4 -116.458,43.55 -196.133,54.759l-0.079,0.012c-7.721,1.084 -14.675,2.588 -20.913,4.475l-93.667,18.659c0,0 -200.779,1353.23 32.196,1763.53l779.779,-109.588c59.305,100.255 115.842,187.063 166.838,252.675l211.579,-29.733c-80.675,-739.217 -438.921,-1266.39 -720.117,-1575.1Z" style="fill:#d04031;"/><path d="M12993.9,3970.41c-77.813,-131.545 -160.388,-286.241 -241.463,-446.595c4.696,188.479 -4.712,379.766 -49.987,487.554l291.45,-40.959Z" style="fill-opacity:0.1;"/></g></g><g><g><path d="M4225.08,4844.96c75.454,140.642 66.488,497.384 -31.029,522.521c-38.887,10.025 -121.733,-14.529 -206.054,-65.354l52.925,374.425l-312.5,0l107.583,-501.429c-60,-70.429 -100.608,-156.738 -93.82,-253.45c19.55,-278.65 407.441,-217.35 482.895,-76.713Z" style="fill:#eeb886;"/><path d="M3788.58,5242.38c-44.058,-196.15 -169.579,-329.862 -150.408,-417.533c19.171,-87.671 102.187,-109.038 102.187,-109.038c0,0 42.934,-173.816 276.946,-147.862c234.013,25.954 376.842,123.208 315.158,337.2c-56.695,0 -125.146,-20.517 -219.791,14.637c-45.05,16.734 -64.442,103.779 -64.442,103.779l-42.771,0c0,0 -62.266,-103.3 -122.792,-75.92c-60.524,27.383 -27.516,133.012 -27.516,133.012l-21.067,161.725l-45.504,0Z" style="fill:#4d341f;"/></g><g><g><path d="M3192.05,7408.04l1366.96,0l179.117,1667.28l-2034.84,0l488.763,-1667.28Z" style="fill:#c5cfd6;"/><path d="M3192.05,7408.04l420.421,0l251.629,1667.28l-1160.81,0l488.763,-1667.28Z" style="fill-opacity:0.1;"/></g><path d="M4795.42,7701.58c-113.042,239.734 -289.675,821.688 -289.675,821.688l149.958,68.512c0,0 380.483,-611.737 613.008,-1029.92c-10.833,94.141 -21.866,200.129 -32.091,311.541c-24.229,263.938 -0.013,834.167 13.021,998.888c8.191,103.525 148.854,81.837 161.987,-0.267c13.129,-82.104 264.625,-1380.91 264.996,-1656.49c0.125,-92.109 -179.817,-174.85 -287.067,-110.45c-73.666,-78.605 -213.091,-123.909 -293.191,5.937c-50.921,82.546 -171.913,316.896 -300.946,590.554Z" style="fill:#eeb886;"/><path d="M4516.5,8307.83l514.683,-1219.25c123.296,-198.337 468.992,40.363 426.946,155.396c-95.462,261.167 -580.954,1106.67 -609.396,1184.48l-332.233,-120.634Z" style="fill:#aea480;"/><path d="M4525.63,8452.42c-8.267,-12.809 -25.725,-15.809 -37.792,-6.492c0,0 -44.9,34.654 -62.508,65.158c-17.612,30.5 -41.233,94.884 -41.233,94.884l636.008,367.2c0,0 72.108,-67.646 22.471,-105.017c-49.642,-37.375 -81.929,-63.038 -81.929,-63.038l-219.525,-302.454c-4.309,-5.937 -12.671,-7.145 -18.484,-2.671l-45.612,35.126c0,-0.001 -62.767,-5.48 -93.683,-23.33c-30.913,-17.845 -57.713,-59.366 -57.713,-59.366Z" style="fill:#e4e4e4;"/><path d="M5252.42,8792.54c-13.563,-6.959 -30.18,-0.829 -35.975,13.275c0,0 -21.555,52.462 -21.555,87.683c0.001,35.221 11.738,102.788 11.738,102.788l734.396,-0.001c0,0.001 28.629,-94.637 -33.05,-102.183c-61.675,-7.546 -102.471,-13.625 -102.471,-13.625l-341.342,-152.175c-6.7,-2.983 -14.541,0.15 -17.337,6.934l-21.942,53.22c0,0 -57.096,26.642 -92.796,26.642c-35.696,0 -79.666,-22.558 -79.666,-22.558Z" style="fill:#e4e4e4;"/><path d="M5712.71,7309.25c0,345.921 -164.283,1152.83 -164.387,1229l-353.459,0.271c0,0 77.605,-1079.99 55.038,-1091.62c-22.571,-11.638 -925.142,90.112 -1195.84,90.112c-390.346,0 -551.825,-246.154 -564.93,-702.15l773.263,0c157.442,16.85 978.675,182.492 1283.67,239.434c130.57,24.379 166.645,139.662 166.645,234.958Z" style="fill:#ccc094;"/></g><g><path d="M4768.42,6627.21l415.341,304.996c112.65,30.396 206.763,68.217 282.346,113.454c17.85,16.271 39.429,49.217 -34.612,43.521c-74.042,-5.691 -152.18,-8.35 -162.396,16.904c-4.475,11.059 1.6,23.063 8.112,35.93c8.359,16.516 17.434,34.445 5.825,53.6c-0.846,1.395 -1.887,2.491 -3.121,3.287c-18.841,12.125 -82.845,-45.933 -192.016,-174.171l-411.296,-170.554l91.817,-226.967Zm-2015.32,1060.91c95.804,-65.692 233.862,-180.663 252.516,-218.509c38.159,-77.408 168.1,-831.879 168.1,-831.879l272.1,1.071c0,0 -252.016,813.55 -272.1,863.329c-26.091,64.663 18.23,158.613 48.284,222.321c4.65,9.858 8.958,18.988 12.608,27.175c-41.7,18.663 -61.733,-3.892 -82.85,-27.671c-23.854,-26.858 -49.096,-55.279 -108.512,-27.633c-22.955,10.679 -44.675,23.304 -65.9,35.642c-73.305,42.608 -140.65,81.754 -232.263,25.229c-14.521,-8.963 -30.437,-42.704 8.017,-69.075Z" style="fill:#eeb886;"/><path d="M3946.97,5495.96l112.596,-19.312c417.75,360.875 589.337,1054.17 1101.4,1421.43l-123.25,152.771c-888.329,-109.988 -1108.51,-955.634 -1090.74,-1554.89Z" style="fill:#1a4418;"/><path d="M3456.15,6910.92l996.246,0c45.521,0 36.946,-65.734 30.363,-98.905c-75.946,-382.816 -323.863,-800.87 -429.075,-1353.89l-230.713,-31.575c-237.683,382.27 -319.879,852.925 -366.821,1484.38Z" style="fill:#c8cacc;"/><path d="M3494.33,5797.79c-52.287,-3.738 -99.483,-25.617 -129.321,-79.45c-105.029,-189.521 -67.095,-293.863 45.146,-328.163c61.725,-18.862 119.775,-5.987 189.263,9.425c56.862,12.609 121.383,26.917 201.841,26.925l0.08,0c7.8,0 14.895,0.525 21.337,1.521l95.35,5.442c0,0 387.158,1312.12 213.55,1750.85l-787.437,0c-44.775,107.533 -88.68,201.366 -130.05,273.437l-213.663,0c-22.983,-743.246 258.404,-1315.15 493.904,-1659.99Z" style="fill:#20531d;"/><path d="M3344.14,7184.38c58.745,-141.092 118.987,-305.775 176.958,-475.854c21.579,187.3 57.517,375.417 117.35,475.854l-294.308,0Z" style="fill-opacity:0.1;"/></g></g><g><g><path d="M9001.29,4331.88c-75.454,140.638 -66.488,497.383 31.029,522.517c38.887,10.025 121.737,-14.529 206.054,-65.35l-29.721,375.525l289.296,-1.104l-107.583,-501.43c60,-70.429 100.608,-156.737 93.82,-253.445c-19.549,-278.655 -407.441,-217.355 -482.895,-76.713Z" style="fill:#c99d74;"/><path d="M9037.29,4272.46c-48.05,45.896 -82.738,99.688 101.841,79.8c42.409,23.721 72.588,68.175 108.921,126.484c8.85,-3.484 18.484,-5.396 28.563,-5.396c43.116,0 78.125,35.008 78.125,78.125c0,21.887 -9.021,41.687 -23.546,55.875c18.079,25.521 38.342,52.179 61.562,79.687c86.63,-51.975 122.78,-194.408 79.1,-346.871c-49.375,-203.208 -387.916,-112.266 -434.566,-67.704Z" style="fill:#aa9064;"/></g><g><path d="M9934.46,6007.92l-530.291,1864.54l-354.954,1242.54l-282.196,0l379.191,-3107.08l788.25,0Z" style="fill:#6d6351;"/><path d="M10076.3,6007.92c12.262,961.004 54.087,1485.17 66.966,1572.48c12.88,87.312 108.813,511.029 485.388,1534.61l-292.333,0c-479.409,-981.946 -648.234,-1405.67 -704.063,-1534.61c-55.829,-128.942 -228.121,-653.1 -487.621,-1572.48l931.663,0Z" style="fill:#877961;"/><path d="M9087.21,9356.67l-14.629,-307.763l-307.158,0c-218.471,153.879 -469.279,201.929 -469.279,201.929l-3.371,105.834l458.021,0l190.15,-29.313l0,29.313l146.266,0Z" style="fill:#afafaf;"/><path d="M10651.9,9409.38l-14.625,-307.758l-307.163,0c-218.471,153.879 -469.275,201.925 -469.275,201.925l-3.375,105.833l458.025,0l190.146,-29.308l0,29.308l146.267,0Z" style="fill:#afafaf;"/></g><g><path d="M9051,5873.29l-504.046,123.095c-116.646,-15.55 -218.867,-16.92 -306.654,-4.116c-22.875,8.246 -55.621,30.633 15.575,54.212c71.192,23.579 145.038,51.596 144.879,79.204c-0.162,27.609 -53.504,38.363 -47.317,78.292c4.121,26.621 86.584,-1.258 247.388,-83.637l431.821,-129.617l18.354,-117.433Z" style="fill:#c99d74;"/><path d="M10556.2,6989.75c-91.142,-72.017 -221.117,-196.058 -237.171,-235.075c-32.838,-79.812 -298.608,-1096.37 -298.608,-1096.37l-284.542,-18.204c0,0 396.562,1084.63 413.237,1135.65c21.663,66.279 -28.908,157.021 -63.2,218.55c-5.304,9.521 -10.22,18.342 -14.416,26.263c40.346,21.437 61.854,0.287 84.533,-22.009c25.613,-25.187 52.717,-51.833 110.129,-20.237c22.184,12.208 43,26.271 63.342,40.012c70.258,47.471 134.804,91.08 230.025,40.871c15.096,-7.958 33.258,-40.55 -3.329,-69.454Z" style="fill:#c99d74;"/><path d="M9342.33,4925.29l-142.458,4.116c-19.779,457.005 -62,848.25 -568.108,987.621l72.25,208.129c515.82,-70.725 548.821,-182.675 668.291,-687.612c40.905,-172.863 -5.475,-361.621 -29.975,-512.254Z" style="fill:#2b3237;"/><path d="M10370.8,6612.04c-268.262,-795.092 -349.195,-1392.17 -906.445,-1769.64l-21.938,3.084l-0.146,0.229l-246.471,79.591c-5.362,576.1 -85.425,1010.95 -120.02,1447.74l861.437,-16.529c33.313,144.571 62.279,185.992 88.071,339.921l345.512,-84.4Z" style="fill:#30373c;"/><path d="M9937.21,6356.42c-67.825,-294.334 -153.595,-676.734 -267.312,-930.192c56.496,280.204 106.921,716.467 80.016,934.6l187.296,-4.408Z" style="fill-opacity:0.1;"/></g></g></g></svg>