<?xml version="1.0" encoding="UTF-8" standalone="no"?><!DOCTYPE svg PUBLIC "-//W3C//DTD SVG 1.1//EN" "http://www.w3.org/Graphics/SVG/1.1/DTD/svg11.dtd"><svg width="100%" height="100%" viewBox="0 0 24 24" version="1.1" xmlns="http://www.w3.org/2000/svg" xmlns:xlink="http://www.w3.org/1999/xlink" xml:space="preserve" xmlns:serif="http://www.serif.com/" style="fill-rule:evenodd;clip-rule:evenodd;stroke-linejoin:round;stroke-miterlimit:2;"><path d="M21.133,13.694l2.061,1.19c0.237,0.135 0.344,0.416 0.271,0.682c-0.537,1.728 -1.452,3.286 -2.647,4.578c-0.184,0.203 -0.479,0.246 -0.716,0.111l-2.061,-1.191c-0.871,0.741 -1.868,1.317 -2.942,1.699l0,2.381c0,0.27 -0.189,0.508 -0.455,0.566c-1.689,0.377 -3.508,0.396 -5.284,0c-0.266,-0.058 -0.455,-0.296 -0.455,-0.566l0,-2.381c-1.079,-0.378 -2.075,-0.953 -2.941,-1.699l-2.062,1.191c-0.232,0.135 -0.532,0.087 -0.716,-0.111c-1.195,-1.297 -2.11,-2.855 -2.647,-4.578c-0.077,-0.261 0.029,-0.542 0.266,-0.677l2.062,-1.191c-0.208,-1.122 -0.208,-2.274 0,-3.396l-2.062,-1.191c-0.237,-0.135 -0.348,-0.416 -0.266,-0.677c0.537,-1.728 1.452,-3.286 2.647,-4.578c0.184,-0.203 0.479,-0.246 0.716,-0.111l2.057,1.191c0.871,-0.741 1.867,-1.317 2.942,-1.699l0,-2.381c0,-0.27 0.188,-0.508 0.454,-0.566c1.689,-0.377 3.509,-0.396 5.284,0c0.266,0.058 0.455,0.296 0.455,0.566l0,2.376c1.079,0.378 2.076,0.954 2.942,1.699l2.061,-1.191c0.233,-0.135 0.533,-0.087 0.716,0.112c1.196,1.296 2.11,2.854 2.647,4.577c0.078,0.261 -0.029,0.542 -0.266,0.677l-2.061,1.191c0.208,1.122 0.208,2.274 0,3.397l0,0Zm-13.007,-1.699c0,2.134 1.738,3.871 3.871,3.871c2.134,0 3.871,-1.737 3.871,-3.871c0,-2.134 -1.737,-3.871 -3.871,-3.871c-2.133,0 -3.871,1.737 -3.871,3.871Z" style="fill:#a2a2a2;"/></svg>