<svg xmlns="http://www.w3.org/2000/svg" xmlns:xlink="http://www.w3.org/1999/xlink" width="1014" height="763" viewBox="0 0 1014 763">
  <defs>
    <rect id="rect-1" width="1014" height="763" x="0" y="0"/>
    <mask id="mask-2" maskContentUnits="userSpaceOnUse" maskUnits="userSpaceOnUse">
      <rect width="1014" height="763" x="0" y="0" fill="black"/>
      <use fill="white" xlink:href="#rect-1"/>
    </mask>
    <path id="path-24" fill-rule="evenodd" d="M473.54882813 160.26898193c4.54431152 3.18411255 2.94348144 6.50512696 2.1520996 8.1470337-.12243652.25402832-.22546386.4678955-.28344726.63479614C472.73937988 176.76751709 466.2746582 184.40698242 462 188.05963135c-5.81311035 4.96722412-14.00939941 19.02200317-17.66577148 21.56311035-.78955079.54867554-9.6829834-.66976929-14.05456543-4.7821045-3.19384766-3.0045166-4.62353516-10.76473998-5.17211914-13.60623168-.93005372-4.81710816.0550537-12.33352661 1.64990234-14.46688843 1.59484863-2.13336182 2.33154297-4.51519775 6.18127441-7.71670532 3.23840332-2.69308472 6.36523438-3.42678833 10.3560791-6.05081177 1.27172852-.83618164 2.07458497-4.3742981 3.8010254-4.65130615.6628418-.10635376 1.33361816-.29916382 2.01782226-.49584961 1.24963379-.35922241 2.54394531-.7312317 3.91748047-.61343384.4140625.03552246.86120605.372406 1.31091309.7111206.4991455.37594605 1.00085449.75387574 1.46362304.72509766.7006836-.04354858 1.37866211-.3795166 2.05847168-.71640014.7932129-.3930359 1.58898926-.787323 2.42590332-.71981812.87072754.07022095 2.16125489 1.3736267 2.99768067 1.43621826.65808105.04922486 1.30480957-.19546509 1.93347168-.4333496.67541504-.25552369 1.32958984-.50305177 1.95483398-.3703003 1.16418457.24716187 1.5065918 1.66403198 2.5222168 1.97781372.6105957.18865967 1.26391601.15719605 1.88354492.12731934.75-.03616333 1.4506836-.0699463 1.96704102.29187011z"/>
    <mask id="mask-25" maskContentUnits="userSpaceOnUse" maskUnits="userSpaceOnUse">
      <rect width="1014" height="763" x="0" y="0" fill="black"/>
      <use fill="white" xlink:href="#path-24"/>
    </mask>
  </defs>
  <g>
    <use fill="none" xlink:href="#rect-1"/>
    <g mask="url(#mask-2)">
      <g>
        <g opacity=".505">
          <path fill="rgb(242,242,242)" fill-rule="evenodd" d="M936.0766515 560.63238934c12.55507362 80.06193212-291.92683184 132.28359066-554.00146614 95.83935421C120.00055106 620.02750711-.22686503 477.7086534 124.83078115 401.87557351c125.05764617-75.83307987 798.69079673 78.69488371 811.24587035 158.75681583z"/>
        </g>
        <path fill="rgb(242,242,242)" fill-rule="evenodd" d="M680.46520996 305.35266113c3.46740723-2.65081787 8.84729004-.96142578 12.33813477.60327149 1.3449707.60345459 4.7824707 2.53320312 7.3317871 4.7052002-.33679199-1.50549317-.6373291-3.0241089-.8996582-4.55517579-1.07861328-6.29534912-1.8215332-12.7098999-2.17871093-19.08731079-.09301758-1.6635437.02807617-3.5222168.15100097-5.40527344.0415039-.63772583.08337403-1.2782898.11694336-1.9149475-.13964844-.15045167-.23376465-.3581543-.2734375-.6395874-.03857422.30578612-.03356933.45309447-.06359863.46057128-.01867676.0046997-.05078125-.04440308-.11499024-.14282227-.02502441-.0383606-.05493164-.084198-.09094238-.13726806-2.57971191-3.85977173-4.74621582-8.2088623-5.04394531-12.98989868-.2520752-4.05480957 3.07836914-11.72677613 7.7989502-6.41577149 2.11193847 2.3718872 1.56347656 19.02996826-1.60852051 20.05084229.84729004 5.51983642 1.91271972 11.03036499 3.24743652 16.47091674.20007324-.03533935.40393066-.03851318.60571289-.01092529-.01916504-1.35266113-.02124023-2.82861328.03417969-3.3361206.47546387-4.37197876 4.12585449-13.24819947 9.93725586-11.52487183 4.46557617 1.3244629 1.72851562 6.77636719.20874023 9.16259766-2.44641113 3.84182739-5.21362305 5.5054016-8.71813965 7.50326538-.07019043.82556152-.60229492 1.30554199-1.23059082 1.46160888 2.34655762 8.78619385 5.4296875 17.35552979 9.4642334 25.44989014.53393555-2.55462646 1.19006348-5.79351807 1.59521484-6.4376831 1.977417-3.14886475 6.35522461-6.99493409 10.3918457-5.13171387 8.4782715 3.91845703-.72436523 15.18048096-7.9423828 16.40551758-.30004883.41491699-.61755372.74859619-.9552002.9399414 1.40234375 2.44335938 2.90124512 4.83587647 4.50512695 7.16668701 2.40515137 3.50598145 4.99035645 7.0006714 7.70019532 10.47491456.08374023-2.71759034 1.15637207-8.7746582 1.46057129-9.42541504 1.850708-3.9520874 7.18518066-8.01861573 11.51318359-5.21099854 4.86730957 3.16540527.4539795 9.14715576-2.3223877 11.85424805-1.13781738 1.10992431-6.76635742 5.17730713-8.75158691 5.1956787 6.54760742 8.19281007 13.7746582 16.24542237 21.1225586 24.00683595-.60876466-3.47460938-1.40393067-13.04333496-1.31506348-14.10522461.45593261-5.48168946 4.05639648-14.24938965 11.1496582-12.11297608 6.8815918 2.06945801 3.83728027 11.17767334 1.48156738 15.51953125-1.42675781 2.62780762-3.39978027 5.2979126-5.77893066 7.13061524-.94592285.72821045-2.5303955 1.1618042-3.3347168 1.94580078-.80578613.78582763-.46313476 1.81072998-1.32470703 2.55090332 3.97106934 4.17626953 7.96984863 8.26550293 11.91137695 12.2411499 1.85974121 1.87658691 3.75317383 3.71661377 5.66540528 5.53381348 1.04626465-.4342041 2.53796386.13677978 2.46020507 1.6192627-.01123046.21539306-.06091308.401062-.12805175.57147216 1.44909668 1.34906006 2.9074707 2.6885376 4.37719726 4.01361084-.03356933-.38598633-.0238037-.93035889.04382324-1.68206787-1.05822753 1.50622559-1.01403808-.68719482-.98034667-2.36035156.01196289-.59094239.022583-1.11688233-.01721192-1.39135742-.15551758-1.07476807-.35668945-2.13891602-.55761719-3.2015381-.42919922-2.27056884-.85681152-4.53314208-.83544922-6.87561034.04626465-4.97265625 3.19323731-13.30841065 9.81555176-10.34729004 6.08935547 2.71783447 3.8737793 10.08789062 1.57678223 14.70843506-1.45422363 2.92388916-3.4440918 5.534729-5.52380371 8.03411865-.9215088 1.10870361-2.09411621 3.19171143-2.83166504 3.73693848 8.18640137 7.34387207 16.65161133 14.3753662 24.99316406 21.5479126.11242676-.48693848.2052002-.96984864.28515625-1.42138673-.16149902.18231202-.38098144.2675171-.66271972.2508545-.07507325-.37335205-.18371583-.86920166-.31433106-1.46496582-1.59387207-7.27386475-6.44726562-29.42382813 6.6953125-25.13079834 9.62927246 3.15454101 2.83239746 22.44250488-4.34936523 29.18945312 4.3581543 3.76721192 8.6751709 7.58239746 12.89111328 11.51159668 3.05065918 2.84295654 6.0111084 5.78356934 8.85900879 8.82177735-1.47363282-3.93426514-2.86218262-9.02728272-1.95080567-13.08074952 1.3269043-5.89868164 7.54418946-11.46826172 13.61450196-8.11175537 7.56713867 4.20239258 1.74560546 9.94158936-3.71374512 15.32366944-2.78759766 2.7481079-5.48059082 5.40301513-6.24853516 7.71264648 9.05285645 9.96697998 16.78173828 21.03973389 21.94604492 33.65301514 5.6168213 13.71673584 10.83068848 32.14764404 7.94714356 47.49371338.5324707-6.746521-1.74389649-15.21710205-3.34375-21.17041016-.2178955-.81036377-.4230957-1.57385254-.6069336-2.27990723-2.40270996-9.22857666-5.81640625-18.20758056-10.31481933-26.61193847-7.2055664-13.46038819-16.72338867-24.88677979-27.71166992-35.2609253-4.03674317 1.40808106-8.63452149 4.75109864-10.9276123 5.74145508-4.20446778 1.81610108-12.27685548 4.41894531-14.95544434-1.30108642-2.63354493-5.62475586 4.08874511-8.77038575 8.25476074-10.0310669 4.02612305-1.21655273 7.65576172-1.06964111 11.41137695-.0723877-6.88598633-6.11254882-13.97106933-11.99572753-21.0177002-17.91955566-1.51416015 1.24310303-3.1866455 3.03997803-4.9625244 4.94787598-5.63598634 6.05511474-12.31298829 13.2286377-18.27612305 7.36779785-8.99914551-8.84484863 8.21240234-17.83465576 15.54516601-17.13269043.90014649.08544922 1.7709961.27545166 2.62023926.53405762-7.47790527-6.3557129-14.8400879-12.84222412-21.80273438-19.78491211-1.24975586.22814941-3.2388916 2.06896973-5.6282959 4.2803955-5.3704834 4.97021485-12.76318359 11.81195069-18.3317871 6.4248047-4.01989746-3.88873292-2.64343262-9.94555665 1.2421875-13.40875245 3.9008789-3.47808838 9.55651855-3.47235107 14.36340332-2.30072021 2.07788086.50378418 3.99499511 1.46557617 5.78210449 2.63769531.07617187.00402832.14904785.00848389.2220459.0123291-6.8515625-6.90429687-13.74487305-13.9631958-20.38427735-21.26312256-.11572265.03723145-.23461914.07562256-.3536377.114563-.40148925.49249267-1.07360839.67254638-1.68933105.5637207-.33911132.116333-.68591308.23614501-1.03930664.3583374-5.25915527 1.81762695-12.01855468 4.15374756-17.26013183 3.14605713-3.85791016-.74139405-7.35803223-3.88165284-4.09265137-7.7477417 2.65490723-3.144104 9.85754394-2.69250489 13.37011719-1.94781494 2.43432617.51672363 5.17504883 2.42565917 7.80517578 3.7600708.20214844-.4081421.5546875-.67028809.9564209-.79614258-6.55627442-7.33569336-12.81225586-14.9249878-18.4864502-22.84411621-1.71728515.26641845-3.62207031 1.02178955-5.58666992 1.80090332-4.727417 1.87475586-9.80090332 3.88677978-13.44213867-.4465332-5.37561035-6.39874268 4.73413086-10.13336182 9.53991699-9.52557374 1.62280273.20495606 3.2229004.66546631 4.7677002 1.27380371-4.12890625-6.51989746-7.28222657-13.48895263-9.49743653-20.80804443-.05529785.02783203-.09936523.05755615-.1619873.08502197.05786133-.03149414.1040039-.06549072.15820312-.09716797-.22106933-.7322998-.43322754-1.46783447-.6352539-2.20599365-.37536621-.20928955-.7261963-.36328125-.89404297-.42663574 2.18347168 1.50744629-7.02844239 2.24505615-8.75366211 2.38311768-3.81396485.3048706-8.92321778.4187622-11.72131348-2.70977784-2.34985351-2.62792968-2.21264648-6.510437.66394043-8.70941162zm4.73547363-31.2106018c3.02209473 1.5012207 5.88708496 3.54544067 7.87670899 6.3661499.67468262.95617676 2.64538574 7.28390503 3.25732422 7.315979-6.11437989.1368103-16.94091797.0515442-19.8692627-6.84884643-2.73364258-6.44384766 3.81958008-9.2708435 8.7352295-6.83328247zm170.84875489 252.6024475c-.1619873 2.223938-.56323243 4.26019288-1.31262207 5.93945313.56201172-1.91192627.99316406-3.89892578 1.31262207-5.93945312z"/>
        <g opacity=".2">
          <path fill="rgb(193,222,226)" fill-rule="evenodd" d="M236.29699707 51.32971191c-2.53063965-1.91549682-6.45935059-.69189453-9.00872803.44082642-.98223877.43685913-3.49273681 1.83352661-5.35498047 3.40499878.246521-1.0887146.4664917-2.18695068.65863038-3.29415894.78985595-4.55252075 1.33459472-9.1911621 1.59777832-13.80276489.06860351-1.20220947-.019104-2.5452118-.1081543-3.90814209-.03015137-.46124267-.0604248-.92449951-.08477783-1.38497925.10198974-.10884094.1708374-.25906372.19989013-.46258545.02801514.22097779.02435303.32748414.04620362.33302308.01361084.00344848.03710937-.03215027.08422851-.10354615.01824951-.0276947.0401001-.06077575.06628418-.09907531 1.88500977-2.79193116 3.46844483-5.93756104 3.68762207-9.39480591.18548584-2.93211365-2.24334717-8.4784546-5.69195556-4.63633728-1.54290772 1.7158966-1.14855957 13.76106262 1.16699218 14.49809265-.62072754 3.99168396-1.40057373 7.97671509-2.37713623 11.91125488-.1459961-.02548218-.29492187-.02767944-.44226074-.00769043.01446533-.97805786.01654053-2.04534912-.02368164-2.41229248-.34552002-3.16119385-3.0076294-9.5782013-7.25134277-8.32992554-3.26098633.95936585-1.2645874 4.90060425-.15582276 6.6255188 1.78479004 2.77709961 3.8046875 3.9790039 6.3626709 5.42233277.05090332.59698486.43927002.94384765.89801026 1.056427-1.71655274 6.3541565-3.97088624 12.55175781-6.91967774 18.40625-.38891601-1.84707642-.86676025-4.18881226-1.16235351-4.65447998-1.44262696-2.27618408-4.63751221-5.05563355-7.5855713-3.70684815-6.19177245 2.83651734.5232544 10.97665406 5.7930298 11.85983277.21887206.29992675.45056151.54104614.69702148.67929077-1.02484131 1.76730347-2.12005616 3.49786377-3.29205323 5.18389892-1.75738525 2.53604126-3.6461792 5.06399537-5.62609863 7.57717896-.06011963-1.96505737-.84100342-6.34448242-1.06286621-6.81491089-1.34985352-2.85708618-5.24328613-5.79559326-8.40429688-3.76382446-3.5550537 2.29071045-.33483886 6.61447143 1.69128418 8.57092285.8303833.80215454 4.93841553 3.74121094 6.38787842 3.75375366-4.7836914 5.92660523-10.06335449 11.75210571-15.43127441 17.36706543.44580078-2.51269531 1.02990722-9.43209839.9654541-10.19995117-.33093262-3.96359253-2.95648193-10.30218506-8.1362915-8.75473023-5.0253296 1.4989624-2.80596924 8.08398438-1.08758545 11.22271729 1.04083252 1.89959717 2.48034668 3.82958984 4.21679687 5.15393066.69042969.52624512 1.8470459.83920288 2.43414307 1.40582276.5880127.5679016.33746338 1.30914306.96624756 1.84402466-2.90100098 3.02133178-5.82214356 5.9797058-8.70153809 8.85595703-1.3585205 1.3576355-2.74169922 2.68887329-4.1385498 4.00357055-.76373291-.31359863-1.85308838.099823-1.79693604 1.17178345.00817871.1557312.0444336.29000855.09332275.4131775-1.05853271.9760437-2.12384033 1.9451599-3.19744873 2.9038391.0246582-.27908325.0177002-.67272949-.03131103-1.21624756.77209473 1.0888672.74060058-.49771118.71655273-1.7071228-.00848388-.42849731-.01605224-.80792236.01312256-1.00610351.11395264-.77719117.26123047-1.54678345.40826416-2.31518555.31420899-1.64172363.62731934-3.2781067.61254883-4.97210693-.03186035-3.59570313-2.32653809-9.62207032-7.1628418-7.4784546-4.44708252 1.9675293-2.83215332 7.29595948-1.15667724 10.63623047 1.06072998 2.1137085 2.51263427 4.0008545 4.03015136 5.80737305.67236329.8013916 1.527771 2.30715942 2.06604004 2.70111084-5.97979736 5.31338501-12.163208 10.40093994-18.25640869 15.5904541-.08190918-.35202026-.1494751-.70117187-.2076416-1.02770996.11779785.13183594.27807617.19335938.48376465.18121338.05493164-.27001953.13452148-.6286316.2300415-1.05944824 1.1663208-5.25982666 4.71844483-21.27871704-4.87915039-18.16946411-7.03186035 2.2845459-2.07635498 16.22912597 3.16479492 21.10516357-3.18347168 2.72561646-6.33685302 5.48599243-9.41656494 8.32870484-2.22845459 2.05688476-4.39111328 4.18432617-6.47161865 6.38232421 1.07745361-2.84539795 2.09320068-6.52868652 1.42926025-9.45941162-.9666748-4.26480102-5.50408935-8.28985595-9.9375-5.86047363-5.5267334 3.04153442-1.27819824 7.1894226 2.70587159 11.07907104 2.03430175 1.9861145 3.99963379 3.90487671 4.55944824 5.57467652-6.6135254 7.2104187-12.26080322 15.2199707-16.03619385 24.34246826-4.10601807 9.92059326-7.91973877 23.24987793-5.82000732 34.34545898-.3862915-4.87890625 1.2793579-11.006073 2.44927978-15.30950927.15930176-.58599854.30944824-1.1381836.4439087-1.64874268 1.7578125-6.67407226 4.25354003-13.16802978 7.54113769-19.24682617 5.26605224-9.73580933 12.21954346-18.0017395 20.24639892-25.5072937 2.94689942 1.01669311 6.3026123 3.4322815 7.9765625 4.14755249 3.06921387 1.31170654 8.96221924 3.1907959 10.92004395-.94631958 1.92492676-4.06820679-2.9821167-6.34030151-6.0234375-7.25039673-2.93914795-.87817383-5.58929443-.77062988-8.33184815-.04812622 5.0300293-4.42248535 10.20526124-8.67919922 15.35247803-12.96530151 1.10510254.89831543 2.32556153 2.19696045 3.62145996 3.57589721 4.11279297 4.37631226 8.98535157 9.56106568 13.34143067 5.32089234 6.57391357-6.39901734-5.98950196-12.89312744-11.34375-12.38284302-.6572876.0621643-1.2932129.19985962-1.91333008.38717651 5.46221924-4.59857177 10.84008789-9.291687 15.92626953-14.31448364.91247559.16452026 2.3640747 1.49487305 4.1079712 3.09307861 3.91925048 3.59188843 9.31451415 8.5364685 13.38232421 4.63897705 2.93652344-2.81344604 1.93371582-7.19259643-.90203857-9.69537353-2.8468628-2.5135498-6.97631836-2.5072937-10.48638916-1.6583252-1.51739502.36502076-2.91741944 1.06118775-4.22277832 1.90945435-.055542.00289917-.10876465.00616455-.16204834.00894165 5.00506591-4.9949646 10.04077148-10.10180664 14.89117431-15.38278198.08447266.02688598.17132569.05456543.25811768.08270263.29302978.35595704.7836914.4859314 1.23327637.40698243.24761962.08401489.50085449.17059326.75897216.25881958 3.8392334 1.3123474 8.77349854 2.99899292 12.60089112 2.26846313 2.8170166-.53756714 5.37384033-2.80957031 2.99108886-5.60388184-1.93725586-2.27252197-7.19641113-1.94332885-9.76135254-1.40356445-1.77752685.37460327-3.77941894 1.75595093-5.70031738 2.72180176-.14733887-.29504395-.40466308-.48446655-.69799804-.57531738 4.78973388-5.30685425 9.36029052-10.79696656 13.50616455-16.52536011 1.25384521.1920166 2.6442871.73751831 4.07836914 1.30014038 3.45098877 1.35391235 7.15460205 2.80691528 9.81481933-.32785034 3.92736817-4.62887573-3.45281982-7.32562256-6.96191406-6.88433838-1.18493652.1487732-2.35339355.48239136-3.48156738.92279053 3.01708984-4.7159729 5.32202148-9.75643921 6.9421997-15.04971314.0402832.0201416.07250977.04159546.1182251.06143189-.04229736-.0227356-.07598877-.04730225-.11547851-.07019043.16168212-.52960205.3168335-1.06155396.4645996-1.59539795.27416993-.15145874.53033448-.26293946.65301514-.3088379-1.59484863 1.09082032 5.13085938 1.62078858 6.3904419 1.72000123 2.78460693.21902466 6.51501465.29949951 8.5592041-1.96377564 1.7166748-1.90115356 1.61798096-4.7084961-.48162842-6.29751587zm-4.08093262-22.88397216c-2.15856933 1.07232666-4.20501709 2.53248596-5.6262207 4.54727172-.4819336.6829834-1.88952637 5.20281983-2.32666016 5.22570801 4.36743164.09771729 12.10070801.0368042 14.19232178-4.8920288 1.95257568-4.6027527-2.72821045-6.6220398-6.23944092-4.88095093zM107.8959961 211.02893066c.12304688 1.48184205.4885254 2.834198 1.20794678 3.9421692-.5281372-1.26654053-.92425537-2.58551026-1.20794678-3.9421692z"/>
        </g>
        <g opacity=".7">
          <path fill="rgb(105,161,172)" fill-rule="evenodd" d="M780.82188094 424.76992677c13.65245966-.70830545 30.53664973 7.26069963 31.99323706 22.10080076 1.05803921 10.78263863.73037877 21.53427351 2.36778883 32.30080633 1.30936465 8.60466236 4.07849476 16.86479083 7.85524298 24.70280216 3.6316101 7.53708936 11.16493174 13.95298709 13.12426073 22.0048989 1.2487583 5.13050603.54974714 12.34766029-1.17239949 17.36611994-2.09438028 6.1016684-.98123956 5.6194237 3.19188944 10.7392125 8.17742716 10.03329558 15.54079812 20.32210324 20.74784093 32.30523802 7.5004388 17.25997012 12.41782013 37.43508852 9.6340887 56.32833482-.35420744 2.39929836-.77404052 11.00907069-4.07778175 11.61087649-3.68982093.67283088-1.96448858-4.25127847-1.76749752-5.84190434 1.25540443-10.14917885 2.37092094-19.02061702.85655491-29.32835067-5.84348811-39.77059238-34.37436908-65.97378475-52.95187306-99.72796473-1.02126395-1.7406824-3.1772348-5.88559816-4.67627728-8.62012318-2.36663944-4.31721-4.74588342-12.53209797-7.94969065-15.733281-6.03389602-6.03079066-.48661862 6.09326295.68911809 8.40779682 1.48654804 2.92774533 3.12191319 6.0393601 4.64523453 8.60478797 6.97004848 11.89162082 14.74995135 24.87236364 21.94855495 37.13053193-31.13329175 7.09358269-53.0593652-30.33520424-61.41414669-54.94237176-6.88366377-20.27358391-15.11971266-67.67349007 16.95585529-69.40821096"/>
          <path fill="rgb(137,197,204)" fill-rule="evenodd" d="M963.80537014 387.12119964c-22.8227354 1.8108064-37.47443031 16.8705534-44.2948439 37.93433166-3.67595905 11.35142425-4.0972941 23.01264709-6.14005422 34.67807914-3.07297056 17.55076334-9.6848191 30.8510564-22.60660146 43.35496507-4.00226243 3.87248231-6.95160774 7.84851144-9.0481911 12.10234908-4.16205018 4.24710289-7.78502697 9.05319018-10.44675435 14.92926117-3.40011494 7.50419725-4.36220534 16.50771864-.43647283 23.9891861 1.05544008 2.01116528 3.68857386 6.04864901 6.4175803 7.88302705-10.2171646 21.75998324-15.83496519 45.59174452-15.20170114 69.39319942.3826496 14.36775123 1.08403368 28.74139538 1.90231511 43.0914679.22033889 3.8531199 1.47509315 10.21577671 3.35974751 3.7537823 1.72486662-5.91058659-.4381548-15.18939096-.63830997-21.36431656-.97386424-30.08076916-1.80644247-57.43143828 10.5762665-85.53555777 1.29848565-2.9456121 2.6751832-5.86765255 4.10906792-8.76612138.08409882-.04882695.16231071-.10775603.2413636-.16500142.05466422.0420922.10428252.08755177.15894675.12880213.0916677-.16331774.21697493-.3577837.36330686-.57497944.41124319-.42428937.77034511-.96054399 1.11178629-1.55909506 1.09833047-1.52205392 2.3413109-3.31013053 2.3480388-4.28919508 0-.0075766-.00420493-.01936242-.00420493-.02693901 7.66560665-12.51316895 16.44552255-24.33686767 25.41381978-35.9290593-.06727905.0841844 9.7277095-13.25230796 8.21308991-5.87691284-.72997768 3.5542653-7.93472284 10.3226909-10.84454171 14.0874172-6.43692302 8.37550577-13.99572418 18.987791-20.2770644 29.24986914-.84519305.48574398-2.03939617 2.87068798-2.90309096 4.64697878-.47684026.89993122-.92172297 1.80743903-1.35903679 2.59793053 22.2567504 7.35350718 39.57017269-7.45873768 51.37596382-24.68707477.0142968-.02020425.02691162-.04125035.04036743-.0614546 3.59270122-4.76062773 7.2728652-9.48758168 11.87054721-13.25062428 7.67065258-6.27931426 15.88542447-7.38718094 24.92941063-10.4775902 24.6636584-8.42685826 35.14993917-40.3908324 38.4802521-64.1081029 3.75753489-26.75716912-14.62226032-67.7869611-46.71100276-65.14862206"/>
          <path fill="rgb(137,197,204)" fill-rule="evenodd" d="M918.722705 312.19050609c-23.4238802 24.37886171-34.74039916 58.19276095-43.7011187 89.98119455-10.00798588 35.5044647-16.61840482 71.55671417-16.87218691 108.47053281-.16626686 24.25251737-.82607552 48.65647163.58950602 72.88083465.50217892 8.60327419 1.35982443 17.22158035 2.72342328 25.73236872.11231057.69935673 3.16318263 19.70245029 6.08230832 15.27431763 1.66019778-2.51819765-3.12721306-19.7129257-3.4890707-22.57681753-2.03491323-16.1305576-2.50776666-32.3801375-2.40852335-48.62734409.16316343-26.750457-.62557048-53.36397352 2.08573602-80.01607792.40418663-3.97931322.72407777-8.15884165 1.66927527-12.0516917 1.00348214-4.1386542-.27464595-2.33205341 2.99435612-3.97045866 3.17633656-1.59286897 7.10144008-1.36538273 10.3971114-3.36356421 13.07258471-7.92693683 19.75985724-28.28845794 24.96449911-41.64837206 5.95309314-15.27779086 9.57107323-31.56931006 12.46090943-47.64699453 2.12173574-11.81268899 3.63890245-23.5535281 4.49745573-35.51831458.27044717-3.77088564.2865552-7.71420711 1.02764438-11.42201586.1995557-1.0001658 1.2013348-2.7694576 1.16501969-3.65519116-.07697703-1.87456795-1.20849034-2.9770394-1.30111883-4.55220204-.98053041.88243002-1.9432213 1.78634474-2.88522629 2.70979598"/>
          <path fill="rgb(137,197,204)" fill-rule="evenodd" d="M791 637c0 40.31678674 32.68321326 73 73 73s73-32.68321326 73-73"/>
          <path fill="rgb(105,161,172)" fill-rule="evenodd" d="M914.02757263 573.08480835c18.06703186-1.33197022 38.24357605 13.24368286 46.9584961 28.41183472 7.02546691 12.22949218 5.8419342 28.28845214 1.50257873 41.28112793-2.90582275 8.69842529-9.24777222 21.1003418-19.82385254 21.2211914-13.23187256.15127564-13.86993408-16.20263672-14.12585449-25.76309204-.34005737-12.7104187-1.946167-23.78289795-11.9616394-32.44665527-2.33424378-2.01824951-4.8856659-3.7939148-7.2434845-5.78427124-3.69203186-3.11529541-7.77210999-6.30493164-8.24772644-11.45874024-.6565857-7.11035156 3.35700989-8.3899231 9.48513794-7.0689392.19767761.0425415.73477173.24612426 1.46517944.52297973 3.12945557 1.18618774 9.80766296 3.71749878 8.54438782.69152832-.4756012-1.14013672-2.21302796-2.04360962-4.40585327-2.72058105-5.67442322-.61697388-12.44145203-1.33282471-14.38764954-.90518189-20.99558258 4.60614014-29.17007446 33.6890564-31.34101868 52.1668396-.23429107 1.99447632-.42375183 3.99545288-.588974 5.99951172H866c.26764679-4.83950806.62114716-9.67056274 1.43019104-14.45620728 3.09436798-18.30285644 12.76974487-45.18493652 33.99009705-48.15570068.78283691-.11071777 3.66256713-.12930298 7.1508789.07522583 1.65325928-.92376709 3.50515747-1.48242187 5.45640564-1.61087036z"/>
        </g>
        <g opacity=".5">
          <path fill="rgb(105,161,172)" fill-rule="evenodd" d="M200.22298029 291.44451792c4.20232897-5.99200907 12.00064893-21.20974502 17.91534829-23.35086974 3.80961321-1.37908227 2.69886648 12.88646718 2.7459129 15.60659452.18321252 10.52374406-.84131132 20.98075942-2.1065157 31.41614717-2.27939096 18.82017918-9.73280002 35.58097929-19.955703 51.59888806-5.26048906 8.24218886-11.43062549 16.58431786-19.97655313 21.72704871-3.93369868 2.36833162-8.66692618 2.76486886-12.55170065 4.80537912-4.52438689 2.3754206-2.0604147.45514252-4.09940183 5.16978152-2.83156515 6.54564588-3.73726113 14.99022681-5.04738183 21.9746637-6.01543195 32.06236095-20.57868 201.55236185-18.05397123 234.1659114.22423455 2.89072174-3.80650551 3.58199265-4.00772233.053026-1.06950235-18.7115706 8.18514539-148.28890909 12.85427206-190.66442478 4.66912668-42.37551569 9.39406967-79.81216416 14.1317613-94.4727659 5.74752584-17.78642568 16.12788668-39.17597595 24.76881221-55.76258782 4.01364486-7.7057654 8.38859693-15.1460716 13.38284294-22.26679196z"/>
          <path fill="rgb(193,222,226)" fill-rule="evenodd" d="M231.41413178 499.27776533c10.93503564-8.028068 22.7713903 7.12329045 12.87630969 15.1525927-5.47023521 4.4381111-11.18904662 2.8593539-14.40858169-.8391592-2.08999169 2.54759072-4.04615332 5.21134383-5.9257704 7.46128967-5.72671315 6.85601195-11.1393228 13.87566183-16.31220881 21.05898827-10.74587132 14.92318518-19.954889 30.68921166-29.5835724 46.1669439-9.5022513 15.27567951-18.92852197 30.6295999-27.5412348 46.2923016C143.22288305 647.8408287 133.4979883 663.45204408 131 678c3.79011066-30.8536968 18.17186319-60.50956195 35.29802198-87.70945961 16.98680236-26.97645175 36.48113172-56.43773196 62.78300401-77.72695763-2.67688684-3.93654058-2.7511976-9.5556525 2.3331058-13.28581743h-1e-8z"/>
          <path fill="rgb(105,161,172)" fill-rule="evenodd" d="M23.9131966 424.03076813c6.11924403 1.19672368 16.1180198 15.0394067 21.16210162 20.31357667 5.99455225 6.2676114 11.43309886 12.94799282 16.55956903 19.9473708 11.03624058 15.06587104 20.90621803 31.08401947 29.29905626 47.78814357 13.68252382 27.23106421 24.6440046 55.18469519 32.5992202 84.83779895 4.86967594 18.15173657 8.02258955 36.96530547 9.89117588 55.64749362.35289045 3.52334891 4.04688054 30.6877007-1.27593303 31.41985482-4.7873096.65925914-3.30868836-20.6264496-3.53964146-23.52183017-2.61067335-32.6653102-10.43151077-64.44838263-21.31022397-95.23707338-2.36953968-6.70702467-4.57092583-14.92193173-8.36037886-20.95760639-2.72893708-4.34740057-.01957003-2.83132188-4.81531809-4.4766031-4.11791396-1.4135812-8.80969088-1.06816392-13.02652798-2.79850486-9.16066188-3.75672707-16.49572413-11.04965337-22.92540828-18.38547951-12.49513-14.25653473-22.39688494-29.67987447-27.55825144-47.94751926-2.8631693-10.1288118-5.49427575-20.316541-6.95437827-30.7585573-.3777031-2.6989545-3.6864205-16.64186514.2549384-15.87106446h-1e-8z"/>
          <path fill="rgb(137,197,204)" fill-rule="evenodd" d="M48.06136295 193.71603187c23.049925 39.9743796 41.99140912 83.88518754 54.22206197 128.36019511 7.41031582 26.94692543 12.59257213 54.59843036 17.74155636 82.0501912 7.97227345 42.50562858 15.5131296 85.00797783 17.65814616 128.26863331 2.15802428 43.51136233 6.42537162 93.6966069-7.82229311 135.60494851 7.11677995-42.54835328.34112234-87.83776255-.85857158-130.65018038-.57330493-20.43795472-2.23463618-40.67609384-4.4139921-60.99461964-2.11484792-19.71006233-5.56991108-39.32626906-8.78735342-58.88141027-1.56727575-9.52370725-3.21326845-19.03308494-4.88911752-28.53726125-.50029843-2.83558253-.71163512-11.2497457-2.5103612-13.18685721-1.81037544-1.94986617-11.04715008-2.74476023-13.9470695-4.1754555-5.8394416-2.88159548-11.33222453-6.97469269-16.19348015-11.29957423-9.31909065-8.29068848-17.42623042-19.12348033-23.82503383-29.80214991-14.80517138-24.70876141-20.72427165-54.86244747-20.42509639-83.47833698.05748267-5.5559127 8.99263934-65.38420331 5.4041367-66.20808836.2160583-.2530369.42043292-.51430509.61314103-.78606627 2.716804 4.54878452 5.38277584 9.12839556 8.03332658 13.71603187z"/>
          <path fill="rgb(137,197,204)" fill-rule="evenodd" d="M296.84616197 337.88728753c.35565201-.51298304 2.67038445-4.0806268 1.50475771-3.85262145 2.37325804-.46422713-3.2642665 3.93473146 2.64908032 1.23555056-2.80769815 2.65169072-1.18728528 6.09627861-1.14981002 9.66516357.0611401 5.79428382-.90832948 11.54105319-1.99963315 17.211014-1.72443014 8.96247744-4.29336633 17.67662491-8.0221301 26.01280562-8.12695704 18.16643383-21.92694649 35.654946-38.31009867 47.01246823-8.08790888 5.6076647-16.01441961 7.51686746-25.23868455 10.0984246-5.8264364 1.63093865-6.28848192 4.64486685-9.38116839 10.29877012-6.43874085 11.7758711-12.7628145 23.50938368-18.44121246 35.68257393-6.78038381 14.53607052-13.36250113 29.0881627-19.57134814 43.88012187C157.96942203 584.9574858 140.94533736 636.57789182 132.00480829 690c-.21890172-31.48148507 7.06382586-63.90472205 16.2502823-93.9118137 6.6917809-21.86248598 15.4032228-42.93726114 24.69482647-63.7986887 2.25154356-5.05392605 5.66355358-11.55498848 6.61971104-17.13474165.66950173-3.90945186-1.37736278-7.66919774-2.31453073-11.78750278-3.65359855-16.03744158-3.39209843-34.0045453-.18369564-50.12773785 3.53751018-17.77887966 13.76782605-26.03066098 31.07372667-28.54892444 6.32911422-.92115513 14.37358148-.58354568 20.17706747-3.28216217 6.32281106-2.93870525 8.93106596-12.59819177 12.52644775-18.79882305 9.65707333-16.65620497 21.13107427-32.63052286 34.3063966-46.66475731 3.64812161-3.88625811 7.571337-7.47159477 11.73342995-10.79476195 2.62461327-2.09673382 8.1690341-4.67990677 9.9576918-7.26279887z"/>
          <path fill="rgb(193,222,226)" fill-rule="evenodd" d="M97.84495416 661.7294837C97.39969792 658.71028046 99.7395946 656 102.79145328 656h61.41709344c3.05185869 0 5.39175536 2.71028045 4.94649912 5.7294837l-4.7469837 32.18845113C162.96096 703.73047673 154.5407391 711 144.62206567 711h-22.24413134c-9.91867344 0-18.33889433-7.26952327-19.78599647-17.08206517l-4.7469837-32.18845112v-1e-8z"/>
        </g>
        <g>
          <path fill="rgb(242,242,242)" fill-rule="evenodd" d="M47.41772152 672.4556962c0 21.28743118 1.6798832 38.5443038 24.2278481 38.5443038s24.2278481-17.25687262 24.2278481-38.5443038"/>
          <path fill="rgb(242,242,242)" fill-rule="evenodd" d="M78.35341703 659.1741665c-.82649828 1.42903848-1.56345435 2.88665773-2.21440275 4.36615913-.02297465-3.04697798.14550612-6.1162847.6055882-9.2275694.78643992-5.32942039 1.98760172-10.63115315 3.116305-15.92440099.81118186-3.8039218.75993072-10.63651203 3.83853374-13.6678599.8441711-.65512483 1.04740838.63011665 1.04740838 1.18788823.01060368.11789568-.00235638-2.27663693-.82178554-1.85953632-4.87062567 2.5155543-6.44880736 10.42528228-8.00813805 14.38550517-2.27507939 5.78046065-4.21084088 11.68953476-5.00788448 17.70355389-.20147 1.51924653-.31104141 3.03804649-.33637244 4.554167-.16553529-.40548967-.321056-.81410536-.49307132-1.2182553-2.81115454-6.59322629-6.60491716-13.0265789-11.33651675-18.95976803-1.164638-1.45985212-15.80891518-15.86456-16.95529127-13.65982157.11310596.32019394.34992158.58590578.71103594.79713553.02120737.02411503.02179646.01071779.0094255-.02500817.86007662 1.38929334 3.30540405 3.53508394 4.06710204 4.7524461 1.9169105 3.06350123 3.40672814 6.31456377 4.92069863 9.50355245 3.19877811 6.73925616 6.16604245 13.54639164 9.04258637 20.3678175.6697994 1.58891217 1.36787528 3.16889284 2.08008942 4.74396118C55.27685442 656.4045113 45.48258465 646.79065493 32 641.28707048c4.60494447 2.34272996 7.62404905 6.75042052 10.73387403 10.1251842 3.75075879 4.0705268 7.7012203 8.03164283 11.45904822 12.09770388 4.43234005 4.79665697 9.64758547 9.84786142 13.91085567 15.15584623 4.12954596 8.66979782 8.1424514 17.34897371 10.61958988 26.46266661-1.01500823-3.14879697-.07952764-7.50021914-.25331024-10.80487063-.1378479-2.63032395-.44535474-5.23921232-.86655665-7.84318837.52075872 1.174491.96964802 2.34987514 1.1728853 3.44308958-.18556447-1.833635-.39940544-3.65565906-.62915193-5.46830506.58968267-1.69698319 1.16876165-3.28053645 1.55991979-4.58498064 2.00468543-6.69147268 4.3916926-13.26772913 7.64231094-19.67741329 3.0079118-5.92916997 6.45823286-11.78286884 10.21782806-17.4579379 1.75373157-2.64595406 3.53161598-5.28208348 5.29830761-7.92267864 1.15639069-1.72868999 2.25740658-4.4965589 3.86739932-6.1529038-10.4069271 9.51471682-21.77702218 19.09820612-28.37958297 30.51488385"/>
        </g>
        <g>
          <path fill="rgb(242,242,242)" fill-rule="evenodd" d="M980.63338237 112.82728223c-2.98310017-9.9512187-9.9877572-17.73986357-17.25889371-24.87623728-14.15492064-13.89285254-21.7679436-22.48271641-26.8129181-42.80539648-2.96664481-11.95224074-5.98637691-24.61799863-15.39658682-33.28949646-6.85171875-6.31476873-18.64439423-11.6203018-27.80753125-7.0984189-14.09688475 8.41398868-17.88239664 25.68087895-16.46096116 41.1423709 1.76206517 19.16341677 10.71357727 30.97957059 27.91040051 38.0379185 9.68967898 3.97528807 16.13081878 9.22058922 21.39065825 18.36055075 4.20739155 7.30855022 6.6605384 16.46041011 11.94768847 23.08586332 7.9044196 9.90414276 17.79609098 14.3069353 29.9884433 12.66176974-11.41982479-21.0114533-24.76276882-42.22029053-40.85616831-59.91100046-1.50633276-1.77856673-10.39182592-8.58597595-8.59978658-11.61710066 1.97430345-3.33743956 11.09585573 9.19944399 11.031286 9.12368944 4.67686757 5.36852232 9.00458612 11.07340006 13.25441102 16.83302794-.01079465.00561032-.0234674.00867649-.0352131.01459582 4.37549313 5.91016192 8.7161721 11.90734093 12.9740581 17.97978828 1.72201755 2.5685826 3.39793134 5.17002008 5.00251284 7.83669333 2.35440526 3.91296267 6.09118753 15.01879138 9.944294 17.42487792.82431903.51445034 1.58648066.80200321 2.29901056.92062506 2.62877398 4.30433309 5.18676474 8.64323113 7.61945305 13.03335705 6.3531222 11.46596107 11.80611554 23.57242586 14.30889281 36.51760762.7302866 3.7782498.21346829 17.91169608 2.79254622 20.63921108 4.71548328 4.98901497 3.3340422-4.61831253 3.05215202-7.51813096-2.34222463-24.01351862-10.96312494-44.47181395-23.48021746-64.65989397 3.84529986-5.02206074 4.40056082-17.80425125 3.19246934-21.83627158"/>
          <path fill="rgb(242,242,242)" fill-rule="evenodd" d="M819.1305463 124.42995407c4.97114798-5.85722018 16.92137853-6.85106594 24.23007767-6.4589682 9.04377758.4850723 18.33292712 2.6866025 26.9370309 5.3486575 14.1736245 4.38467926 27.94605741 12.38632231 40.42887717 20.13107954 1.50426684.9332173 20.03754796 12.07857091 18.39702253 14.0345507-1.62515891 1.93789788-19.81892716-11.30117849-23.87363823-13.58298435-8.65251477-4.87056284-16.58787008-10.63060444-26.1255567-13.84699184-9.87557188-3.33096502-20.3196368-4.6498449-30.70433657-4.55890858-1.33280735.0118695-5.6801735-.9173588-5.77398942 1.05440287-.09182893 1.92843882 7.10146245.9222912 8.3701536.93382809 5.2389448.04813099 10.51033265.54124756 15.67507035 1.4491531 9.67656796 1.7008747 18.77374763 5.12748568 27.06151201 10.38322647-2.3123708 5.37681171-7.85603302 7.85602982-13.67137227 6.51052356-5.0260076-1.1635536-9.92560942-4.03204943-14.84712872-4.86157427-3.389504-.57106813-6.78341724-.2313198-10.07023563.7236268-8.66987644 2.5196667-13.67017153 7.68142884-23.20254597 4.0909133-7.47281371-2.8147012-19.97032002-12.92717647-12.83094072-21.35053469"/>
          <path fill="rgb(242,242,242)" fill-rule="evenodd" d="M797.75252914 30.05125809c-11.0380516-.80504227-23.36489868 8.00443268-28.6892662 17.17198562-4.29220581 7.3914566-3.56912613 17.09740448-.91799545 24.95012665 1.77530288 5.2572937 5.64990997 12.75295258 12.11135864 12.82600403 8.0840149.09143066 8.4738388-9.79279327 8.63018036-15.57110596.2077713-7.68211364 1.18902206-14.37426758 7.3079605-19.61060714 1.4261055-1.21982193 2.98489762-2.29303742 4.4254036-3.4960022 2.25564385-1.88285446 4.74837303-3.81066132 5.03894234-6.92559433.40114212-4.2974701-2.05095863-5.07083893-5.79493904-4.27243805-.12077522.02571106-.4489193.14875793-.89517212.31608963-1.91194534.71693039-5.99195862 2.24682617-5.22016525.41794586.2905693-.6890831 1.35205078-1.23514175 2.6917572-1.64430618 3.46678162-.37289047 7.60110092-.80554962 8.79012299-.54707718 12.82724094 2.78392792 17.82144212 20.36149979 19.14777755 31.52939987.15016341 1.26457977.27018476 2.53348541.37458444 3.80432129h2.35176444c-.16475746-2.98459625-.37935215-5.96434784-.88367343-8.91551208-1.89050364-11.06216431-7.80167127-27.30957795-20.766227-29.10508347-.47828294-.06691742-2.2376442-.07815552-4.36883164.04545975-1.01005173-.5583191-2.14147377-.89596558-3.33358193-.97360611z"/>
        </g>
      </g>
      <g>
        <g>
          <path fill="rgb(178,139,103)" fill-rule="evenodd" d="M476.14334106 175.13393307c5.79481125 10.8011217 5.1062355 38.1990633-2.38304138 40.12952518-2.9867134.76986695-9.34929657-1.1159935-15.82492256-5.01914596L462 239h-24l8.26227379-38.50987244c-4.60790944-5.40875053-7.72663903-12.03725052-7.2054975-19.464674 1.50155377-21.40047406 31.29175353-16.69264244 37.08656477-5.8915205v1e-8z"/>
          <g>
            <path fill="rgb(255,155,33)" fill-rule="evenodd" d="M475.41754531 169.05079548c.43231228-1.24566426 3.37873152-5.10501503-1.8687674-8.7818273-.9429899-.66073322-2.50081248-.00216703-3.85057383-.41920082-1.01557454-.31378057-1.35795442-1.73062224-2.52211062-1.97779871-1.20770905-.25642372-2.52343917.9057694-3.88841903.8036372-.83637796-.0625805-2.12686383-1.36599208-2.9975751-1.43619899-1.55436718-.12533121-2.9664205 1.34183875-4.48447083 1.43619899-.88005809.05470338-1.90111112-1.3612893-2.77455117-1.43619899-2.12582414-.1823191-4.06192539.80872464-5.93522855 1.10927463-1.72651818.27700001-2.52933729 3.815122-3.80109748 4.65131851-3.99083047 2.62401555-7.1176267 3.3577079-10.3560473 6.05079548-3.84965978 3.20150107-4.586458 5.58336073-6.18127524 7.71672048-1.59481722 2.13335976-2.5799321 9.64976364-1.64988392 14.46687071.5486151 2.84150617 1.97830347 10.60172444 5.17214343 13.60622445 4.37151048 4.11235485 13.26503902 5.33079476 14.05453831 4.78211537C447.99062101 207.08163712 456.18689401 193.02686077 462 188.0596268c4.27466253-3.65265124 10.73942962-11.29211085 13.41754531-19.00883133v1e-8z"/>
            <g>
              <use fill="none" xlink:href="#path-24"/>
              <g mask="url(#mask-25)">
                <path fill="rgb(0,0,0)" fill-opacity=".2" fill-rule="evenodd" d="M450.53464127 184.6464938c2.69307708-8.26609803 7.5853958-28.90550996 7.5853958-28.90550996l-2.95569228.31065584s-2.34032059 13.1689279-4.74652863 21.6999929c-2.1998272 7.79935836-4.72916221 15.4463787-6.7178154 21.45873832-2.74752235 8.30667496-4.46298217 13.49307632-2.8514862 11.64997864.19293594-.22066498.38575172-.47752762.5795517-.77053833.0180912.03911209.04588127.06188583.08374786.06780624-.11405945.2255783.04445457.12350082.5189724-.31628418l.00273704-.00253677c2.75468445-2.55403138 10.63566208-11.55311966 18.8891182-26.46806145 3.7981224-6.86363983 10.7641754-24.25283337 10.7641754-24.25283337l-2.76606367-1.18331313s-4.60118866 13.7388332-7.99811173 20.40077281c-5.97291374 11.71389198-11.57576942 20.424757-15.21875763 25.76491356 2.1745453-4.33956146 4.9040413-10.80530167 8.70280076-19.31925392 3.54236601-7.93931007 10.56528853-27.95427132 10.56528853-27.95427132H462s-3.70402527 12.8521576-6.98879242 21.08497048c-3.00302887 7.52667808-6.31783485 14.86741447-8.9240551 20.63895988-.04406738.0975914-.0879345.19472885-.1315918.29141617 1.2756672-3.8741188 2.7586441-8.6079712 4.57908059-14.19560242v1e-8z"/>
              </g>
            </g>
          </g>
        </g>
        <g>
          <path fill="rgb(153,118,89)" fill-rule="evenodd" d="M411.78666667 328l42.27197432 138.46653541 20.4775988 117.75686926h16.0558513L468.95419421 328h-57.16752754z"/>
          <path fill="rgb(178,139,103)" fill-rule="evenodd" d="M396.66404702 328c2.8712149 76.02557026-.5078171 115.24093616-1.15042933 122.14818976-.64261225 6.9072536-9.4420772 51.69425583-30.27374223 136.39397875l17.10870928-5.8873522c32.92250417-77.68218088 44.1413198-118.05498215 47.9172818-128.25558053C434.04182857 442.1986374 444.07059618 400.73222548 460.35216938 328h-63.68812236z"/>
          <path fill="rgb(228,228,228)" fill-rule="evenodd" d="M368.20984767 579.26644118c-1.04241786-.53581647-2.3200756-.0644756-2.76476927 1.01995135 0 0-1.96174507 4.78389813-1.96174507 7.82835831 0 3.0444602 1.01239587 8.88524916 1.01239587 8.88524916h63.3580357s2.46967613-8.1805704-2.85128057-8.83285344c-5.3209567-.65228304-8.84041822-1.17791873-8.84041822-1.17791873l-29.56307063-13.2050544c-.51490846-.22999621-1.11804502.01103754-1.33262104.53256042l-1.94136507 4.71845011s-4.9258142 2.30274768-8.00547089 2.30274768c-3.07965668 0-7.1096908-2.07149046-7.1096908-2.07149046h-1e-8z"/>
          <path fill="rgb(228,228,228)" fill-rule="evenodd" d="M473.803181 579.26644118c-1.04241786-.53581647-2.3200756-.0644756-2.76476927 1.01995135 0 0-1.96174506 4.78389813-1.96174506 7.82835831 0 3.0444602 1.01239587 8.88524916 1.01239587 8.88524916h63.3580357s2.46967613-8.1805704-2.85128057-8.83285344c-5.3209567-.65228304-8.84041823-1.17791873-8.84041823-1.17791873l-29.56307063-13.2050544c-.51490846-.22999621-1.11804501.01103754-1.33262104.53256042l-1.94136506 4.71845011s-4.92581421 2.30274768-8.0054709 2.30274768c-3.07965668 0-7.1096908-2.07149046-7.1096908-2.07149046h-1e-8z"/>
          <path fill="rgb(105,161,172)" fill-rule="evenodd" d="M406.17 328l17.97333333 70.5472423h54.89765708L470.85552616 328H406.17z"/>
          <path fill="rgb(137,197,204)" fill-rule="evenodd" d="M396.06 328c-8.870785 26.64205165-3.37 70.5472423-3.37 70.5472423h56.02099041L464.11552616 328H396.06z"/>
        </g>
        <g>
          <path fill="rgb(178,139,103)" fill-rule="evenodd" d="M361.27966309 365.18676758c-1.8232422 2.67877197-13.55187989 9.94702148-21.54016114 13.91906738-3.2064209 1.59436035-2.35656738 4.33062744-1.34777832 5.16741943 6.36291504 5.27819825 11.9029541 3.0209961 17.93371582.56384278 1.74584961-.71136475 3.53283692-1.43945313 5.39282227-2.00634766 4.81433105-1.46722412 6.43017578.96392822 7.95715332 3.26147461 1.35205078 2.03424072 2.63452148 3.96362305 6.0053711 2.99023438-.19030762-.6618042-.4202881-1.40234375-.6685791-2.20159912-1.60473634-5.1663208-3.97131349-12.78533936-1.29577638-17.42431641 2.05969239-3.57110596 29.92163086-62.74993897 29.92163086-62.74993897l-20.68249511-2.98968505s-17.9465332 55.99041748-21.67590332 61.46984863zm170.93725586-16.52160645l-24.20617676-31.30853271-11.58288574 14.81207275 26.75354003 21.2979126c5.6949463 12.54986572 9.29101563 18.131958 10.78833008 16.74639893 1.26245117-1.16833497.97216797-2.68414307.70471192-4.08032227-.20837403-1.0880127-.4025879-2.10290527.16162109-2.8244629 1.28881836-1.64813232 7.00109863.20227052 12.34667969 2.19000245 5.34570312 1.98773193 4.45019531-.90124512 3.4765625-2.48016357q-6.93310547-7.40979004-18.44238281-14.35290528z"/>
          <path fill="rgb(25,24,71)" fill-rule="evenodd" d="M453.96841374 225.147512l8.76938698-.26528641c9.56677515 38.90024444 30.60296131 75.98083022 63.1085585 111.24175731l-32.49900209 29.82361738c-30.70835176-48.0178694-47.13555975-95.41514276-39.37894338-140.80008827h-1e-8z"/>
          <path fill="rgb(221,227,233)" fill-rule="evenodd" d="M401.51659843 327.51180409l76.25064076 10.71633258s-17.44335932-68.15318968-11.11418336-113.18760034l-22.51941082-6.65963885c-22.16256724 26.53218208-32.29803766 61.60910629-42.61704658 109.1309066z"/>
          <path fill="rgb(47,54,118)" fill-rule="evenodd" d="M362.26450291 355.31959145c21.56093775-92.90752164 81.36386759-137.00970419 81.36386759-137.00970419l.01600593.01882977c.00378387-.00499593.00756008-.00999199.01134369-.01498603l1.50141145.2110097c2.68181817.47153574 8.16223742 1.48811986 8.16223742 1.48811986l3.3256555 16.66422453c-3.20057297 29.17177709-6.1545663 118.52602925-6.1545663 118.52602925l-49.91073575-7.014499c-.48234198 4.04821088-.8696154 8.16776588-1.14985597 12.35422922l-37.16536356-5.2232531z"/>
          <path fill="rgb(0,0,0)" fill-opacity=".1" fill-rule="evenodd" d="M400.53341593 348.58000742c2.0718895-17.63293848 5.95072425-33.91786777 10.65104024-48.4876787-1.13019197 17.91372564-1.28381663 39.63872179 3.25379751 50.44187691l-13.90483775-1.9541982z"/>
          <path fill="rgb(255,255,255)" fill-opacity=".2" fill-rule="evenodd" d="M415.89163634 319.4338095l26.25721659-7.99422799-1.6103347 11.4581226-24.64688189-3.4638946z"/>
        </g>
      </g>
      <g>
        <g>
          <path fill="rgb(25,24,71)" fill-rule="evenodd" d="M715.00003634 323.70685379c-11.4289379.00001284-15.58551277-13.68275747-22.0786425-21.19148572-4.64570117-5.37234109-12.574465-3.77038995-14.92139399-11.29155529-5.90156374-18.91264585 9.89385519-32.22378733 30.4999638-32.22381048 20.60610863-.00002315 34.50001312 11.67421368 37.50003283 29.2237341 3.00001972 17.54952043-10.39385152 35.48309425-30.99996014 35.4831174v-1e-8z"/>
          <path fill="rgb(178,139,103)" fill-rule="evenodd" d="M683.85663178 286.13395124c-5.79479912 10.8011282-5.10619259 38.19906903 2.38308646 40.1295225 2.98671426.7698636 9.34929531-1.116004 15.82491692-5.01916373l-4.06459058 28.75569227 24-.00002696-8.26231705-38.50986316c4.60790337-5.4087557 7.72662551-12.0372592 7.20547564-19.4646821-1.50157781-21.40047236-31.29177228-16.69260728-37.08657139-5.89147883z"/>
          <path fill="rgb(25,24,71)" fill-rule="evenodd" d="M719.38319848 276.99998508c18.38322945 17.99997935-.07020212 37.13177308-5.12640787 37.13177876-.32639222-2.59745754-1.32224086-5.12409826-2.78133475-7.5288665.77498132-1.00357144 1.23452124-2.2513518 1.23451972-3.60290667-.00000372-3.3114872-2.75870044-5.999995-6.15663439-5.99999118-1.06136322.0000012-2.06035584.26231235-2.93238749.72397943-7.37020055-6.2857774-16.61423928-10.66780513-21.20411452-11.52942565-7.98285843-1.4985567 18.58312985-27.1945466 36.9663593-9.1945682z"/>
        </g>
        <g>
          <g>
            <path fill="rgb(197,207,214)" fill-rule="evenodd" d="M765.37728885 474.99996644l-77.25455148.00008678-10.12266772 124.00001137 115-.00012918-27.6227808-123.99996897z"/>
            <path fill="rgb(0,0,0)" fill-opacity=".1" fill-rule="evenodd" d="M765.37728885 474.99999418l-23.7601596.0000267-14.22083318 124.00001597 65.60377358-.0000737-27.6227808-123.99996897z"/>
          </g>
          <path fill="rgb(178,139,103)" fill-rule="evenodd" d="M645.67656608 499.56644177c8.68146294 18.41158464 22.24691232 63.1056917 22.24691232 63.1056917l-11.51656514 5.26160963s-29.22116789-46.98132094-47.07935825-79.09734016c.83214617 7.22999862 1.67941484 15.36973383 2.46488587 23.92626295 1.86077107 20.27045995.00107905 64.06414795-.99991382 76.7147228-.62909568 7.9505012-11.4322134 6.28495548-12.44067385-.02064642-1.00846046-6.3056019-20.3235139-106.05378347-20.35191903-127.218277-.00949892-7.07369613 13.8098604-13.42827727 22.04668237-8.48231885 5.65783012-6.03693644 16.36565093-9.51642349 22.5172582.45586345 3.9107432 6.33965816 13.20284716 24.33768887 23.11269133 45.3544319z"/>
          <path fill="rgb(47,54,118)" fill-rule="evenodd" d="M667.10013357 546.12531226l-39.52756685-93.63800938c-9.46933875-15.2324556-36.01876897 3.0997244-32.78951615 11.93445422 7.3314036 20.05757172 44.61729738 84.99246945 46.80156744 90.96829016l25.51551556-9.264735z"/>
          <path fill="rgb(228,228,228)" fill-rule="evenodd" d="M666.39751154 557.2282771c.6349939-.98375187 1.97550324-1.21403267 2.9023949-.49859096 0 0 3.44819314 2.6615637 4.80066087 5.00409941 1.35246772 2.34253574 3.16667514 7.28730677 3.16667514 7.28730677l-48.84536523 28.20097012s-5.53810465-5.1952101-1.72572564-8.06548783c3.81237902-2.87027774 6.29217159-4.8412534 6.29217159-4.8412534l16.85945062-23.2285877c.33093043-.4559488.97300786-.54865248 1.419395-.2049334l3.5031218 2.69741137s4.82048678-.42067296 7.1947232-1.79144314c2.37423641-1.37077018 4.43249775-4.55949123 4.43249775-4.55949123z"/>
          <path fill="rgb(228,228,228)" fill-rule="evenodd" d="M610.58171651 583.35222391c1.0417969-.53445697 2.31785234-.06363108 2.76284302 1.01940553 0 0 1.65544025 4.02907865 1.6554433 6.73400796.00000303 2.70492932-.90123375 7.8943302-.90123375 7.8943302l-56.4018122.00006335s-2.1985329-7.26823665 2.53822314-7.8477797c4.73675605-.57954304 7.86980733-1.04656117 7.86980733-1.04656117l26.21500857-11.6868168c.51456861-.22939796 1.11697576.01135714 1.33169873.5322202l1.68508602 4.08758798s4.3850001 2.04593075 7.12653425 2.04592767c2.74153414-.00000308 6.1184016-1.73238522 6.1184016-1.73238522z"/>
          <path fill="rgb(92,99,171)" fill-rule="evenodd" d="M575.22959432 469.43312371c.00002984 26.5669722 12.61687295 88.5372514 12.6248633 94.38706957l27.14561587.02082057s-5.96000904-82.94321565-4.22677706-83.83675995c1.73323198-.8935443 71.05085306 6.92075285 91.84033282 6.9207295 29.97853269-.00003368 42.38003006-18.90468105 43.38629726-53.92507931l-59.38635784.0000667c-12.09159421 1.29388052-75.16245187 14.0153412-98.5857181 18.3885236-10.0279013 1.87223426-12.79826447 10.72611242-12.79825625 18.04462932z"/>
        </g>
        <g>
          <path fill="rgb(193,222,226)" fill-rule="evenodd" d="M654.27082668 446.26372848c18.99162158 39.5524918 98.93792642 12.84605738 98.93792642 12.84605738-.00001595-14.20238495-11.67334895-28.4801886-12.04537-45.74928457-.3541368-16.4394222-3.42806819-66.2480144-16.25670801-83.07359967-.23346031-.76013504-.47049121-1.52244026-.71099347-2.28693119l-.88795423.41778906c-.13856523-.14297315-.27817568-.28225896-.41882372-.4177876l-27.99047366 4.32801388c.00001768 15.74078512-12.52421198 30.46847177-20.44714087 43.14007719-2.03091065 3.24815978-4.32285334 6.55438719-6.67149762 9.94241701-11.89445093 17.15833857-25.24339781 36.41483091-13.50896484 60.8532485z"/>
          <path fill="rgb(178,139,103)" fill-rule="evenodd" d="M664.37878418 387.28234863c-3.86547852 0-5.94189453 1.5980835-8.22753906 4.82232666-2.28552246 3.22424317-4.44836426 18.43035889-.7788086 18.43035889 3.66955567 0 19.04418946-5.87817383 19.04418946-9.83001709 0-3.95178223-10.49072266-5.62536621-10.49072266-8.6003418 0-1.28393554.80432129-2.35778808 1.40808106-3.16381836.79516601-1.06170654 1.24206542-1.6585083-.9552002-1.6585083zm25.75817871 51.50482178c-2.80786133-14.49041748-3.64294434-19.34796143-3.64294434-19.34796143-14.9119873 16.85089112-23.5267334 25.37402344-25.84436035 25.56951905-2.47802734.20898437-4.5883789-.95025635-6.11645507-1.78979492-1.15966797-.63702393-1.98413086-1.08990479-2.37976075-.62109375-1.51574707 4.5 2.7652588 15.76422119 10.94836426 17.40216064 3.39404297.67932129 8.40209961-5.31097412 11.29223633-8.76800537.43725586-.52294922.82592773-.98791504 1.15332031-1.36309815.9798584-1.1229248 5.84313965-4.81689453 14.58959961-11.08172607z"/>
          <path fill="rgb(0,0,0)" fill-opacity=".2" fill-rule="evenodd" d="M729.43495907 346.7186042c9.8174059 40.9319653 5.81797111 75.45417895-31.49314331 106.76835355.43855462 1.57319593.70144936 2.51306838.70144936 2.51306838 43.79594034-30.60953101 43.81691003-67.7036091 30.79169394-109.28142192h1e-8z"/>
        </g>
      </g>
      <g>
        <g>
          <g>
            <path fill="rgb(244,198,155)" fill-rule="evenodd" d="M330.52000765 421.51215334c5.79481125 10.80112171 5.1062355 38.1990633-2.38304138 40.12952519-2.98671341.76986694-9.34929657-1.1159935-15.82492256-5.01914597l4.06462287 28.75568771h-24l8.2622738-38.50987243c-4.60790897-5.40875244-7.72663904-12.03725052-7.20549751-19.464674 1.50155401-21.40047407 31.29175353-16.69264245 37.08656478-5.8915205z"/>
            <g>
              <path fill="rgb(44,44,44)" fill-rule="evenodd" d="M326.55898351 410.10891447c-.61752929-.36882895-1.90950851-1.14679913-2.56403732-1.42876044-.15489016-.06784883-1.2393888-.84209769-1.26855313-.8322864-.82109922.27720661-3.19876985 1.3006727-3.40284761 2.1850471-.03163096.06701864-.06268154.12988635-.0929341.18482956-.3369133.6129036-.64604068 1.24105244-.94094865 1.8768239-.6471289 1.39561795-1.20574915 2.85425457-1.73926776 4.30141953-1.03917876 2.81840564-1.94196712 5.70247143-2.77198974 8.59310325-.84504009 2.94263164-1.56225045 5.91960278-2.3651401 8.87438532-1.15532823 4.25175933-2.63400328 8.39921711-3.78135123 12.64924059-.7326631 2.71372675-1.14016569 5.45930244-.94776817 8.25234968.00188625.03358479.00297447.06671675.0060215.10082985.00116076.01396221.00290192.02777349.00413523.0417357.03271919.42935706.0793676.8597707.14154132 1.29146737.05441106.36913084.10896722.73962016.16715078 1.11003401 1.04802962-2.09131374 1.84816244-4.39568336 2.69726522-6.58284584.08306755-.21411249.16229006-.42980988.23969887-.64618651.27379647-.44354568.5529615-.88392156.83524609-1.32263707 1.78018488-2.76648129 3.56740693-5.52277393 5.27446335-8.33929278 3.07038001-5.06571886 6.11210353-10.2385317 9.7522762-14.89028968 1.07487241-1.37365577 2.17477391-2.726255 3.23615238-4.11115602.6039628-.78807283 1.19225522-1.58935316 1.76146748-2.4048976.4069222-.58316785 2.17604651-2.61584027 1.53540765-3.8371192-.32777797-.62485802-4.17405401-4.10889187-5.77598826-5.06579432z"/>
              <path fill="rgb(137,145,220)" fill-rule="evenodd" d="M324.18989252 408.78210697c.60053466.2019521.3083679-1.04858674-.27329874-1.48865389-2.69473741-2.03873718-12.99704681-2.77855289-21.96233644-.91615984-6.0059039 1.24762881-12.99092175 4.35291323-17.78801555 8.34500165-4.32445114 3.59887708-7.29848758 9.3680655-8.82966055 14.94207049-1.60767987 5.85281395-1.85117141 11.95459927-.95548623 17.95637621.19677428 1.3183263.61959505 2.57465338.85517718 3.86501631.26529785 1.45312019.40138405 2.85218787.87432238 4.26594943.28961744.86551476.7817749 1.7140116 1.0288885 2.5844743.28207764.99326158.11014038 1.91215412-.09557818 2.92243362-.3352259 1.64661465-.75087646 3.2898557-1.3415689 4.86247615-.88703658 2.36151709-1.96345546 4.57324653-2.63834246 7.02382655-.89797669 3.26069284-4.65426347 13.87153474-1.90917083 16.76374716h52.25589682c-1.31584484-3.59183001-5.26560534-7.8190701-6.0651949-11.66406975-.4709425-2.26503225-.69499315-7.21154841-.7442976-7.39132359-1.17759265-8.12324395-3.47694399-12.00244627-4.9170402-13.41025724-1.44009622-1.40781096-3.35819792-1.84072-3.45702858-3.06188674-.40848034-5.05064782 1.59851383-9.8899586 3.07018142-14.6036217 1.753967-5.6179367 3.0393569-11.3752404 4.84758097-16.97413503.80069834-2.47929308 4.92684287-15.06985083 8.04497189-14.02126409z"/>
              <path fill="rgb(0,0,0)" fill-opacity=".2" fill-rule="evenodd" d="M305.33605957 418.1920166c-1.75427246 5.565979-2.13146973 8.53704834-1.75427246 16.14208985h-.86047363c-1.60754395-7.17687989-.17675782-13.9331665 1.53308105-16.14208985h1.08166504zm-.44958496 36.29760742c-7.73474121-12.31555175-8.1682129-18.746521-9.6529541-30.00531006l-.76831055.06182862c.37609863 10.7199707 1.63793945 19.47198486 9.59838867 30.19506836l.82287598-.25158692zm-9.19628906-2.8984375c-9.12866211-6.4187622-10.61914063-11.1027832-13.88806153-19.03485107l-.68762207.33044434c2.16967774 7.93585205 4.80859375 14.06207275 13.87072754 19.19799804l.70495606-.4935913zm-9.00073243 6.3371582l.70410157-.85589599c9.6072998 3.0092163 8.53710937 9.22192383 20.63769531 15.51367188l-1.01123047.61273193c-10.59558105-4.37280274-13.07250976-13.75152588-20.3305664-15.27050781z"/>
            </g>
          </g>
          <g>
            <path fill="rgb(197,207,214)" fill-rule="evenodd" d="M231 616.3348999h115c8.83068848 0 16 7.16937256 16 16v92c0 8.83062744-7.16931152 16-16 16H231c-8.83062744 0-16-7.16937256-16-16v-92c0-8.83062744 7.16937256-16 16-16zm16 28h83c2.2076416 0 4 1.7923584 4 4v60c0 2.2076416-1.7923584 4-4 4h-83c-2.2076416 0-4-1.7923584-4-4v-60c0-2.2076416 1.7923584-4 4-4z"/>
            <path fill="rgb(244,198,155)" fill-rule="evenodd" d="M461.15896374 735.33489461c-19.71586876-24.0758252-33.05609671-41.9245654-40.02068384-53.5462206-11.92506402-19.89909517-21.68515882-37.60561474-24.76520152-44.3694255-7.34475685-16.12917428 16.9088174-23.68173576 22.3979521-16.15855391C427.07905388 632.64732911 444.82204371 668.477862 472 728.75229328l-10.84103626 6.58260133z"/>
            <path fill="rgb(47,54,118)" fill-rule="evenodd" d="M420.75756695 728.33489461l-36.69236977-92.3632231c-7.84776786-16.83719977 30.0505605-27.90470044 35.81807693-20.06900507C432.9773219 633.69212068 464.09884571 703.86893731 468 709.16901004l-47.24243305 19.16588457z"/>
            <path fill="rgb(244,198,155)" fill-rule="evenodd" d="M323.03302135 709.81186254c7.14752327-10.42601241 33.14550841-45.50261978 47.3059564-60.01591593 4.06914485-4.17053927 8.03959695-8.17343364 11.7949069-11.90366458 11.16210999-11.08756626 33.38981386 7.54829286 22.24828939 17.64721413-27.74679938 25.15030532-68.23110449 59.10234103-71.61359494 62.12958414-4.74070478 4.24281047-14.22755325-1.30479407-9.73555775-7.85721776z"/>
            <path fill="rgb(228,228,228)" fill-rule="evenodd" d="M327.60246668 705.56319005c-.634995-.98375116-1.9755046-1.21403046-2.90239546-.4985877 0 0-3.44819015 2.66156756-4.80065525 5.0041048-1.35246509 2.34253726-3.16666695 7.28731033-3.16666695 7.28731033l48.8453969 28.20091525s5.53809882-5.19521632 1.72571658-8.06548977c-3.81238224-2.87027346-6.29217702-4.84124634-6.29217702-4.84124634l-16.85947672-23.22856875c-.33093094-.45594844-.97300847-.54865139-1.41939522-.20493182l-3.50311877 2.69741531s-4.82048726-.42066754-7.19472521-1.79143505c-2.37423796-1.37076752-4.43250288-4.55948626-4.43250288-4.55948626z"/>
            <path fill="rgb(228,228,228)" fill-rule="evenodd" d="M455.4182776 730.68714698c-1.0417975-.5344558-2.31785241-.06362848-2.76284187 1.01940863 0 0-1.65543573 4.02908051-1.65543573 6.73400982 0 2.70492932.90124261 7.89432918.90124261 7.89432918h56.4018122s2.19852474-7.26823912-2.53823196-7.84777684c-4.7367567-.57953773-7.8698085-1.04655234-7.8698085-1.04655234l-26.2150217-11.68678736c-.51456887-.22939737-1.11697575.0113584-1.33169813.5322217l-1.68508143 4.08758988s-4.38499781 2.04593567-7.12653195 2.04593567c-2.74153414 0-6.11840355-1.73237834-6.11840355-1.73237834h1e-8z"/>
            <path fill="rgb(92,99,171)" fill-rule="evenodd" d="M370.86209056 640.58494685s-45.74522757-7.45247562-61.2815481-10.1919481c-29.52309141-5.20571759-38.13227606-21.09277359-33.04206641-55.75587549h54.39579416c10.7976136 3.11814743 90.23323808 38.5694606 90.23323808 38.5694606 9.52802374 4.72984405 7.75359238 18.67580896 6.01203898 23.2703875-.1065408.28107668-48.18726704 82.57066089-48.18726704 82.57066089l-44.49805313-28.34724733 36.45143146-46.77510275s1.44397124-2.90835026-.083568-3.34033533v1e-8z"/>
          </g>
          <g>
            <path fill="rgb(244,198,155)" fill-rule="evenodd" d="M412.94958496 526.10314941l-39.48291016 5.38562012 7.0838623 17.68920899 32.03698731-12.70129395q19.43078614 1.91705322 20.0341797-.62835693.03979491-.16802979-.00244141-.35546875c-.68151856-3.02740479-4.79577637-2.29510498-5.58410645-4.2633667-.788208-1.96832276 3.7006836-6.04815674 8.12463379-9.73632813 4.42407226-3.68811035 1.4543457-4.36676025-.41247559-4.31225586-6.63366699 1.55499268-13.8996582 4.52911377-21.79772949 8.92224121zm-192.08496094 96.98309327c-1.43267822 2.9064331-12.03564453 11.73632812-19.39337158 16.7814331-2.9533081 2.02502442-1.73095703 4.61645508-.61553955 5.3046875 7.03570557 4.3413086 12.20770264 1.33502197 17.83776856-1.93756103 1.6298828-.9473877 3.2980957-1.91711426 5.06109619-2.7373047 4.56317138-2.12298583 6.50158691.05957032 8.33361816 2.12231446 1.6218872 1.82617188 3.16033936 3.55841065 6.36303711 2.12530518-.28051758-.62884522-.61138916-1.33013916-.96844482-2.08709717-2.3081665-4.8927002-5.71209717-12.10821533-3.70819092-17.07440186 1.54260254-3.82305908 37.55926513-84.8737793 37.55926513-84.8737793l-21.8973999-.08215331s-25.64141845 76.51342773-28.57183838 82.45855713z"/>
            <path fill="rgb(175,185,197)" fill-rule="evenodd" d="M309.41607959 471.17798435l17.14494231 1.14216086c4.22245072 38.20121238 27.22204535 62.3306289 78.71667241 54.1618535l6.84132093 49.19464762c-48.1295487 6.22018129-90.33932977-13.04885292-98.98994041-65.22021118-2.23936981-13.5055165-4.0075807-27.56063118-3.71299524-39.2784508z"/>
            <path fill="rgb(197,207,214)" fill-rule="evenodd" d="M223.86830089 613.17798595s17.85560226-95.00405502 75.37423706-147h1.70127868l.01366425.01593845 25.97679138 5.94933827c1e-8 44.67914772 14.23242188 73.18518257 21.53239441 106.03472328h-70.15634918c-.98827362 11.35089874-1.59516907 23.01756287-1.9114151 35h-52.5306015z"/>
            <path fill="rgb(0,0,0)" fill-opacity=".1" fill-rule="evenodd" d="M278.31031749 578.17798595c2.01204681-23.10946655 5.60490417-44.91008759 11.54432678-65.4018631-1.30180359 21.91416168-1.66313171 49.09978485 2.71446991 65.4018631h-14.2587967 1e-8z"/>
          </g>
        </g>
        <g>
          <path fill="rgb(244,198,155)" fill-rule="evenodd" d="M745.85663178 341.13395124c-5.79479912 10.8011282-5.10619259 38.19906903 2.38308646 40.1295225 2.98671426.7698636 9.34929531-1.116004 15.82491692-5.01916373l-4.06459058 28.75569227 24-.00002696-8.26231705-38.50986316c4.60790337-5.4087557 7.72662551-12.0372592 7.20547564-19.4646821-1.50157781-21.40047236-31.29177228-16.69260728-37.08657139-5.89147883z"/>
          <path fill="rgb(25,24,71)" fill-rule="evenodd" d="M793.40661304 339.90167311c.77517703-.76818462 1.19801683-1.86463804 1.56379064-2.90576624.3798562-1.08152753.74894345-2.17419966 1.00113733-3.29990756.50392752-2.24922666.5087108-4.83587647-1.09585968-6.58239814-1.28684103-1.40054081-3.2176992-2.02871792-4.99972488-2.1652377-1.1872501-.09104635-2.40662257.075229-3.54472171.44937158-1.12917107.3711574-2.10251459 1.11088362-3.19716979 1.570004-.0417898-2.4238585-.4569942-4.96005846-1.6866779-7.02967544-1.18329442-1.99130607-3.06988093-3.1087526-5.2184181-3.40438152-2.20523507-.3033903-4.3828566.21264852-6.35706466 1.28024704-.49426534.26737229-.98392857.5474813-1.45251413.86450687-.39237482.26548156-.8003047.58519373-1.26069874.6931579-.51322617.12050193-.76763064-.17592516-1.10119134-.55036462-.39108702-.43901856-.8316926-.82569708-1.29797785-1.16849358-2.06174293-1.515469-4.76685855-2.13857044-7.15543995-1.23018052-1.10054595.41852207-2.1707177 1.12929225-2.91736146 2.10872737-.66555486.87306347-1.14030603 2.25798388-2.05888469 2.86626304-.38979766.25821765-.66509572-.08388252-1.02001003-.33672602-.5331078-.37991204-1.04154838-.79912884-1.58109912-1.16869229-.75787455-.51921972-1.57842959-.90758941-2.45715497-1.1108785-1.28637958-.29762-3.06407905-.22786454-3.43187706 1.45696583-.13806232.6328562-.03221324 1.30969362.01242786 1.94732588.06120892.8755503.12508707 1.75080207.20111475 2.62505878.0577111.66380223.13070114 1.30491716.25597106 1.95677865.06682289.34747372.27594308.99525537.12692745 1.34322686-.1862005.43493948-1.04559712.18766885-1.41275272.20279412-.72519902.02995203-1.45343533.15712109-2.1239611.4669825-.51966896.24020725-1.06602999.59345299-1.28536545 1.18909415-.13484115.3658825-.0993125.74171536-.035619 1.11814522.07639539.45175565-.01095222.69136539-.06801776 1.14720091-.97398918-.47961621-4.3491712-1.54521861-4.77385112.20031026-.14137588.58121276.18058783 1.23794981.42624853 1.72811445.43084966.85972848.99571241 1.64552409 1.57318487 2.39490063 1.20455566 1.56333217 2.64262167 2.91173185 4.1898493 4.0649013-1.81276665.80589843-2.285952 3.18298983-.7164499 4.59925222.69298506.62529284 1.62472657.76450021 2.49884957.72449796.31993804-.0146277.78116046-.13761722 1.03289544-.08189433.13548588.02995105.28054424.14478043.46821793.15761645 1.23363927.08447892 2.62623468-.21274607 3.8321689-.4864875 2.14881241-.4877792 4.18312397-1.50582396 5.84438862-3.05632314.4261541-.39772463.77821456-.62668756 1.35182043-.62081737.50264146.00507423.99580276.14288903 1.49798402.15562518 1.32871862.03392994 2.52673681-.6156444 3.76055959-1.0479979.07556837 1.66681933.55023111 3.50259885 1.23208007 5.00214848.5560272 1.22282452 1.71713748 1.40054033 2.85809046 1.50780616 3.648546.34329045 7.30997706-.03981047 10.96312479-.0347398-3.5363455.79933301-7.19059735 1.12880037-10.69555636 2.06943138-1.58431879.42508998-.3745173 1.49288394.3029128 2.23310584 1.11545858 1.21894317 1.9448509 2.72923925 2.52011532 4.32033421 1.7299272-2.25499936 4.78765343-3.74082142 7.4966349-3.04806601 2.9932073.76529473 5.10088204 4.81308338 3.18687153 7.72312876-1.1112214 1.68930895-3.11792075 2.34147135-4.7876542 3.06726756 1.30258017 1.35427066 1.61764225 3.35443372 2.40165806 5.03926279.38666945.83087189.9294423 1.77030428 1.79417738 2.0598648.31993818.10716724.69510146.11632133.94748096.37712541.3126671.32289554.3871295.68390202.78640808.96142287 1.5932486 1.10769529 4.08197264 1.02231663 5.4941717-.42320377 1.27708155-1.30730689.94480753-3.37602934-.12177687-4.70144362 1.69780629-.7076862 4.79096934-1.61786802 4.11620633-4.2629269 3.67891921-.24429053 12.61122225-6.21085937 7.67353122-10.57079412 2.70980735-1.53149478 5.19935566-5.27430372 3.45874534-8.57361117-1.34031872-2.54057717-4.457415-3.67623185-7.01489468-3.81095965"/>
        </g>
        <g>
          <path fill="rgb(25,24,71)" fill-rule="evenodd" d="M810.21319362 493.99994826L769.4869469 637.1968081l-29.71428921 105.54380508-21.67251797.00002435 31.57552638-248.74062125 60.53752753-.000068z"/>
          <path fill="rgb(47,54,118)" fill-rule="evenodd" d="M821.10464931 493.9999879c.94208077 73.8052975 4.15432118 114.0607093 5.14338791 120.76624045.98906673 6.70553115 15.94420782 49.36362753 44.86542328 127.97428914l-22.45126066.00002522c-36.81889224-75.4134877-57.3721405-118.07157779-61.65974482-127.97427027-4.2876043-9.90269249-17.51958033-50.15809302-37.4492614-120.76620416l71.5514557-.00008038z"/>
          <path fill="rgb(25,24,71)" fill-rule="evenodd" d="M873.12001328 762.99996151l-1.12335989-23.635982-23.59.0000265c-16.77854824 11.81801048-43.8099785 19.13394043-43.8099785 19.13394043l.00000506 4.50209205 42.68666666-.00004795 14.6033308-2.25106244.00000254 2.25104603 11.23333333-.00001262z"/>
          <path fill="rgb(25,24,71)" fill-rule="evenodd" d="M742.8133466 762.99996151l-1.12335988-23.635982-23.59.0000265c-16.77854824 11.81801048-43.8099785 19.13394043-43.8099785 19.13394043l.00000506 4.50209205 42.68666667-.00004795 14.6033308-2.25106244.00000253 2.25104603 11.23333333-.00001262z"/>
        </g>
        <g>
          <path fill="rgb(244,198,155)" fill-rule="evenodd" d="M860.72021484 531.18688965c1.8232422 2.67877197 13.55187989 9.94702148 21.54016114 13.91906738 3.2064209 1.59436035 2.35668945 4.33062744 1.34790039 5.16741943-6.36303711 5.27819825-11.90307617 3.0209961-17.9338379.56384278-1.7458496-.71136475-3.5328369-1.43945313-5.39282226-2.00634766-4.81433105-1.46722412-6.43017578.96392822-7.95715332 3.26147461-1.35205078 2.03424072-2.63452148 3.96362305-6.0053711 2.99023438.19030762-.6618042.4202881-1.40234375.6685791-2.20159912 1.60473634-5.1663208 3.97131348-12.78533936 1.29577638-17.42431641-2.05969239-3.57110596-29.92163086-62.74993897-29.92163086-62.74993897l20.68249511-2.98968505s17.9465332 55.99041748 21.67590332 61.46984863zm-171.397583-17.59039307l28.32788086-27.63500976 9.4086914 16.27996826-29.45727539 17.36724853c-10.39794922 16.37957764-12.74145508 15.29852295-12.74145508 15.29852295-.15356445-.07080078-.272583-.21661377-.272583-.21661377-1.08752442-1.3326416-.58911133-2.79327392-.12988282-4.13867187.35766602-1.04803467.69140625-2.02618408.23303223-2.81939697-1.04699707-1.81152344-6.96105957-.7741089-12.53137207.45031738-5.57019043 1.2244873-4.28137207-1.51177979-3.09741211-2.93988037 5.26452637-4.24847412 12.01794434-8.13067627 20.26037598-11.64648438z"/>
          <path fill="rgb(232,118,19)" fill-rule="evenodd" d="M768.03150946 391.1476718l-8.7693867-.2652958c-27.91390357 31.9107958-33.55327019 86.47124493-68.5713449 119.8757305l11.00626722 10.30133908c66.38433907-17.85980288 74.09103214-84.52681995 66.33446439-129.91177378h-1e-8z"/>
          <path fill="rgb(221,227,233)" fill-rule="evenodd" d="M820.48319963 493.51197298l-75.76685739 10.6482585c-3.46215898.4865711-3.51237236-4.60434724-3.3664277-7.19732455 1.68437784-29.92609204 19.82139867-64.47876931 13.99693744-105.92227147l21.37309133-6.49851022c22.16253882 26.5322058 33.4442983 61.44803636 43.76325632 108.96984774z"/>
          <path fill="rgb(255,155,33)" fill-rule="evenodd" d="M805.68278948 409.26474961c3.9366648-.8430715 7.29215065-3.01157527 8.98569776-7.42449847 5.96227786-15.53609042 1.96217929-23.06634015-6.94099478-24.47511482-4.8957441-.77466665-9.1729834.82484476-14.29306164 2.73954333-4.18969591 1.56677392-8.94376132 3.3445962-15.06286952 4.20529935l-.00599874.0008433c-.59299592.08333952-1.1270914.1989168-1.60630914.34376447l-7.19362105 1.43297099s-15.41976984 103.92808585 2.47272436 135.43919724l59.88688407-8.41649032c4.55452172 7.6997061 8.89656204 14.36653321 12.8132833 19.4055998l16.2493077-2.28367435c-6.19591212-56.7715737-33.7091825-97.25869428-55.30504232-120.96744051v-1e-8z"/>
          <path fill="rgb(0,0,0)" fill-opacity=".1" fill-rule="evenodd" d="M831.9252817 513.11024067c-5.97587384-10.10259423-12.3175613-21.98334197-18.54432669-34.29851118.36069683 14.47513814-.361805 29.1661392-3.83883853 37.4442366l22.38316523-3.14572542z"/>
        </g>
      </g>
    </g>
  </g>
</svg>
